<?xml version="1.0" encoding="UTF-8"?>
<!DOCTYPE svg PUBLIC "-//W3C//DTD SVG 1.1//EN" "http://www.w3.org/Graphics/SVG/1.1/DTD/svg11.dtd">
<!-- Creator: CorelDRAW -->
<svg xmlns="http://www.w3.org/2000/svg" xml:space="preserve" width="99.1796mm" height="99.1796mm" version="1.1" style="shape-rendering:geometricPrecision; text-rendering:geometricPrecision; image-rendering:optimizeQuality; fill-rule:evenodd; clip-rule:evenodd"
viewBox="0 0 600.44 600.44"
 xmlns:xlink="http://www.w3.org/1999/xlink"
 xmlns:xodm="http://www.corel.com/coreldraw/odm/2003">
 <defs>
  <style type="text/css">
   <![CDATA[
    .fil12 {fill:none}
    .fil14 {fill:none;fill-rule:nonzero}
    .fil0 {fill:#0E2A18}
    .fil11 {fill:#102186}
    .fil2 {fill:#1D9446}
    .fil1 {fill:#26EAA6}
    .fil3 {fill:#319CE4}
    .fil10 {fill:#3F62FF}
    .fil5 {fill:#5AF4AA}
    .fil4 {fill:#8847C9}
    .fil7 {fill:#9AD4DA}
    .fil6 {fill:#E7011C}
    .fil8 {fill:#F8E09E}
    .fil9 {fill:#FF8097}
    .fil13 {fill:#26EAA6;fill-rule:nonzero}
   ]]>
  </style>
     <clipPath id="id0">
      <path d="M336.59 267.49c18.08,20.08 16.45,51.02 -3.63,69.09 -20.08,18.08 -51.02,16.45 -69.09,-3.63 -18.08,-20.08 -16.45,-51.02 3.63,-69.09 20.08,-18.08 51.02,-16.45 69.09,3.63z"/>
     </clipPath>
      <clipPath id="id1" style="clip-rule:nonzero">
       <path d="M184.8 269.53l1.98 27.89 -3.92 0.29c-8.45,0.63 -15.94,-1.85 -22.35,-7.38 -6.41,-5.54 -9.95,-12.59 -10.56,-21.04l-8.01 -111.48c-0.64,-8.84 2.14,-16.7 8.2,-23.17 6.06,-6.48 13.7,-9.78 22.57,-9.74l78.41 0.35c16.09,0.07 29.34,12.46 30.49,28.51l1.56 21.75c0.89,12.35 -5.2,23.4 -16.1,29.25l-66.17 35.53c-10.9,5.85 -16.98,16.89 -16.1,29.23z"/>
      </clipPath>
      <clipPath id="id2" style="clip-rule:nonzero">
       <path d="M415.65 330.91l-1.98 -27.89 3.92 -0.29c8.45,-0.63 15.94,1.85 22.35,7.38 6.41,5.54 9.95,12.59 10.56,21.04l8.01 111.48c0.64,8.85 -2.14,16.7 -8.2,23.17 -6.06,6.48 -13.7,9.78 -22.57,9.74l-78.41 -0.35c-16.1,-0.07 -29.34,-12.46 -30.49,-28.51l-1.56 -21.75c-0.89,-12.35 5.2,-23.4 16.1,-29.25l66.17 -35.53c10.9,-5.85 16.98,-16.89 16.11,-29.23z"/>
      </clipPath>
      <clipPath id="id3" style="clip-rule:nonzero">
       <path d="M274.73 417.16l27.89 -1.98 0.29 3.92c0.63,8.45 -1.85,15.94 -7.38,22.35 -5.54,6.41 -12.59,9.95 -21.04,10.56l-111.48 8.01c-8.84,0.64 -16.7,-2.14 -23.17,-8.2 -6.48,-6.06 -9.78,-13.7 -9.74,-22.57l0.35 -78.41c0.07,-16.09 12.46,-29.34 28.51,-30.49l21.75 -1.56c12.35,-0.89 23.4,5.2 29.25,16.1l35.53 66.17c5.85,10.9 16.89,16.98 29.23,16.1z"/>
      </clipPath>
      <clipPath id="id4" style="clip-rule:nonzero">
       <path d="M325.72 183.29l-27.89 1.98 -0.29 -3.92c-0.63,-8.45 1.85,-15.94 7.38,-22.35 5.54,-6.41 12.59,-9.95 21.04,-10.56l111.48 -8.01c8.84,-0.64 16.7,2.14 23.17,8.2 6.48,6.06 9.78,13.7 9.74,22.57l-0.35 78.41c-0.07,16.09 -12.46,29.34 -28.51,30.49l-21.75 1.56c-12.35,0.89 -23.4,-5.2 -29.25,-16.1l-35.53 -66.17c-5.85,-10.9 -16.89,-16.98 -29.23,-16.1z"/>
      </clipPath>
 </defs>
 <g id="Layer_x0020_1">
  <metadata id="CorelCorpID_0Corel-Layer"/>
  <g id="_2465821111104">
   <rect class="fil0" width="600.44" height="600.44"/>
   <g>
    <path class="fil1" d="M336.59 267.49c18.08,20.08 16.45,51.02 -3.63,69.09 -20.08,18.08 -51.02,16.45 -69.09,-3.63 -18.08,-20.08 -16.45,-51.02 3.63,-69.09 20.08,-18.08 51.02,-16.45 69.09,3.63z"/>
    <g style="clip-path:url(#id0)">
     <g>
      <g>
       <path id="_1" class="fil2" d="M-24325.24 230.57l-21.89 -9.61c-3.2,-1.28 -18.29,-7.05 -22.62,-8.82 -20.68,-8.51 -20.24,-3.44 -42.99,-19.58 -30.71,-21.8 -44.24,-53.3 -37.61,-98.53 8.33,-56.98 88.5,-121.04 125.58,-157.9 -31.33,-19.18 -104.24,-29.54 -123.8,-73.12 -11.46,-129.09 87.73,-182.56 154.21,-251.4 68.82,-71.24 141.83,-181.84 262.49,-58.19 105.54,-58.94 106.71,-100.19 216.95,1.12l19.26 -14.92c2.93,-2.21 26.54,-20.61 28.35,-21.69 82.31,-48.89 108.48,-8.11 169.36,36.04 69.3,-38.46 42.21,-70.63 154.96,-47.86 129.55,101.14 2.91,197.05 -66.13,259.56 27.75,26.27 102.1,43.16 118.28,92.98 6.24,105.7 -71.93,167.16 -128.14,203.63 3.07,2.45 8.73,8.79 10.4,5.64 1.65,-3.17 8.18,4.34 10.49,5.38l21.34 9.41c179.59,78.39 52.68,186.25 -23.89,260.58 -81.76,79.42 -139.05,178.02 -230.88,159.88l-75.63 -47.15c-1.65,-1.56 -5.05,-5.42 -7.76,-7.96 -38.22,33.28 -82.69,88.48 -164.82,40.65 -39.17,-22.82 -5.22,-13.95 -52.13,-38.97 -132.72,113.19 -126.04,37.45 -222.04,-2.62 -103.03,118.83 -180.03,32.21 -192.2,-6.08 -30.15,-94.67 75.98,-169.76 120.89,-210.47z"/>
       <path class="fil3" d="M-14809.78 1632.09c-68.23,-47.48 -75.04,-94.94 -146.63,-124.01 -128.31,-47.33 -116.72,-26.61 -150.05,-169.18 -43.98,-188.21 -168.99,-116.41 12.21,-508.06 60.71,-131.24 133.1,-74.81 174.89,-160.23 77.53,-36.44 62.27,-96.02 186.03,-66.04 165,39.97 242.14,-73.52 400.42,66 44.75,39.46 79.25,108.78 114.89,162.31 40.62,281.93 21.21,101.16 74.59,239.21 40.19,103.94 -48.74,138.61 -67.45,223.98 -28.59,130.43 23.39,160.89 -93.15,216.02 -108.23,51.21 -100.14,85.6 -175.14,143.72 -87.93,11.15 -73.32,-15.25 -151.35,-25.73 -69.42,-9.32 -103.69,12.81 -179.26,2.01z"/>
       <path class="fil4" d="M-12000.23 -58.46c-48.47,79.82 -40.89,192.81 -103.21,262.71 -200.93,1.61 -9.13,-211.79 23.5,-307.86 -124.92,119.61 -122.25,219.24 -248.61,200.7 -67.37,-132.35 54.54,-116.15 185.63,-262.18 -61.3,19.99 -104.22,50.59 -162.28,82.66 -155.49,85.9 -215.74,-59.23 -45.85,-108.67l154.7 -55.22c-97.63,0.59 -200.13,34.85 -278.67,-2.03 -50.1,-167.64 208.38,-91.9 315.71,-81.6 -81.8,-41.46 -345.31,-59.72 -276.51,-175.84 21.96,-23.85 13.67,-33.44 68.66,-22.07 39.92,8.24 164.07,92.49 226.92,112.27 -137.07,-141.67 -237.49,-130.7 -191.25,-264.45 88.06,-11.06 95.8,16.03 138.46,70.38 39.17,49.86 70.16,92.36 113.59,131.47 -37.85,-111.74 -154.74,-206.57 -92.51,-304.18 76.22,-10.74 94.88,14.95 113.88,83.83l52.6 156.15c1.57,2.89 4.41,7.87 7.03,11.53 -1.85,-91.87 -61.57,-288.48 44.09,-290.69 109.87,-2.29 45.32,211.71 43.67,290.16l37.47 -81.51c16.07,-53.32 40.54,-233.88 135.04,-159.64 48.05,37.76 22.86,78.74 -13.54,142.75 -28.77,50.59 -57.58,98.47 -78.45,151.99 35.29,-33.97 68.55,-73.12 107.94,-122.36 52.46,-65.56 34.92,-92.63 145.27,-81.58 38.24,90.16 12.01,97.63 -50.79,144.93 -43.89,33.06 -110.06,88.41 -140.53,121.24 162.57,-62.87 235.88,-168.39 295.27,-90.18 43.87,67.94 -12.7,91.11 -74.84,110.31 -52.02,16.05 -121.9,29.93 -167.09,60.05 94.23,-0.7 209.3,-35.53 283.35,2.07 40.29,167.04 -157.81,89.14 -281.08,86.56 13.78,9.21 2.71,4.94 34.14,18.89 18.01,8 15.19,6.72 35.91,13.69 43.84,14.75 234.5,44.28 180.07,137.57 -90.29,70.69 -195.52,-54.01 -303.76,-88.95 89.03,97.3 273.58,172.66 187.13,250.81 -78.3,46.6 -110.5,-23.43 -150.62,-73.43 -15.58,-19.4 -102.19,-118.5 -110,-137.49 32.56,103.25 238.18,326.48 34.69,330.96 -55.9,-68.55 -64.13,-187.88 -103.76,-264.56 -3.02,95.49 60.68,296.88 -46.05,298.07 -111.89,1.24 -42.7,-222.61 -45.32,-297.25z"/>
       <path class="fil5" d="M-22055.05 215.66c-71.6,-67.25 -115.95,-3.81 -228.59,-40.38 -63.13,-60.69 -42.94,-93.09 -87.93,-157.08 -42.15,-59.94 -66.68,-52.57 -96.73,-141.23 -1.39,-82.44 52.15,-91.44 92.4,-145.8 42.12,-56.9 46.95,-118.46 92.82,-169.98 69.92,-10.38 139.8,6 193.39,-10.18 57.23,-17.26 83.85,-67.21 148.33,-71.07 69.57,-4.15 103.34,48.91 149.87,67.03 69.1,26.91 122.61,-0.4 205.22,18.18 58.28,65.8 41.95,85.84 85.99,156.31 36.33,58.11 96.26,87.91 97.48,147.43 1.35,66.94 -65.64,100.19 -97.32,149.9 -43.6,68.4 -34.37,94.88 -84.2,159.93 -125.8,22.27 -148.59,-23.41 -252.88,43.91 -124.61,80.42 -123.2,23.43 -217.85,-6.97z"/>
       <path class="fil6" d="M-16200.6 1642.61l-36.97 -9.54c-123,-6.32 -220.98,-34.59 -226.91,-244.86 -107.15,28.59 -210.84,-75.98 -222.02,-166.36 -6.08,-49.22 5.09,-60.88 -3.4,-102.86 -9.65,-47.61 -103.38,-156.44 19.55,-213.09 98.98,-4.87 16.75,4.48 46.44,-22.4 -19.88,-44.22 -43.73,-91.04 -18.78,-129.13l51.6 -6.96 -9.22 72.72 89.16 10.32c41.62,84.09 66.35,119.63 156.8,146.83 145.84,43.85 119.3,30.84 182.26,146.9l115.51 13.42c6.59,90.97 -21.87,-14.22 7.5,113.24 13.73,59.52 4.28,21.73 -14.15,66.57l34.72 -2.22c1.43,0.2 6.53,0.73 9.39,2.22 -20.46,73.49 -24.76,31.83 1.99,57.45 -33,30.93 -33.75,1.37 -49.77,35.53 15.89,5.44 -1.23,8.15 42.92,7.65 47.66,-0.55 29.25,15.32 16.24,-7.58l36.13 39.22c1.5,2.05 3.95,6.92 5.69,10.52l-80.52 18.05 22.92 26.7c11.4,74.81 45.3,103.51 -15.8,153.57 -66.04,47.37 -98.75,5.49 -161.29,-15.92z"/>
       <path class="fil7" d="M-16371.89 -484.45c81.19,-58.17 78.9,-115.35 220.81,-129.43 247.19,-24.53 507.31,184.09 626.25,397.31 95.31,170.88 106.08,403.48 -53.47,500.5 -184.38,112.11 -392.8,-35.23 -512.56,-94.71 -272.28,329.47 -700.78,-25.87 -834.67,-267.46 -252.4,-455.44 144.63,-694.58 553.64,-406.21z"/>
       <path class="fil8" d="M-14655.24 355.89c24.32,-105.66 49.74,-181.1 3.92,-301.44 -40.46,-106.15 -64.57,-102.16 -122.14,-146.78 -36.43,-28.21 -34.28,-27.01 -56.66,-49.28l38.06 -34.14c161.79,-140.68 198.08,-174.21 143.29,-448.01 334.38,60.72 326.15,-21.82 495.81,-208.46 89.98,215.91 205.28,259.71 477.1,203.59 -61.81,317.89 2.22,335.9 187.03,487.02 -22.28,21.71 -0.18,5.97 -51.22,45.89 -158.5,123.91 -184.66,197.02 -136.05,443.35 -285.87,-61.74 -360.22,-2.89 -478.66,193.59 -66.3,-57.01 -141.38,-319.23 -500.47,-185.33z"/>
       <path class="fil9" d="M-20454.55 -150.91c336.3,-80.52 368.33,-317.57 443.11,-427.32 40.91,136.73 67.53,178.04 151.79,265.37 143.63,148.88 180.26,103.21 268.59,174.26 -239.3,72.85 -341.44,189.63 -424.45,425.85 -73.25,-134.08 -48.42,-160.75 -156.84,-269.01 -115.04,-114.91 -137.71,-96.2 -282.2,-169.14z"/>
       <path class="fil7" d="M-20515.6 945.3c81.19,-58.17 78.9,-115.35 220.81,-129.44 247.19,-24.53 507.31,184.09 626.25,397.31 95.31,170.88 106.08,403.48 -53.47,500.5 -184.38,112.11 -392.8,-35.23 -512.56,-94.71 -272.28,329.47 -700.78,-25.87 -834.67,-267.46 -252.4,-455.44 144.63,-694.58 553.64,-406.21z"/>
       <path class="fil10" d="M-22747.51 1687.73c-280.56,-10.01 -484.58,-361.22 -277.37,-612.64 110.76,-134.41 177.88,-139.78 384.31,-156.52 145.08,-11.77 363.97,-42.97 501.52,-37.77 293.93,11.1 481.06,352.88 284.67,610.46 -94.74,124.28 -188.56,142.6 -386.05,158.47 -148.38,11.91 -365.79,43.05 -507.08,38z"/>
       <path class="fil8" d="M-18798.96 1785.64c24.32,-105.66 49.74,-181.1 3.92,-301.44 -40.46,-106.15 -64.57,-102.16 -122.14,-146.78 -36.43,-28.21 -34.28,-27.01 -56.66,-49.28l38.05 -34.14c161.79,-140.68 198.08,-174.21 143.29,-448.01 334.38,60.72 326.15,-21.82 495.81,-208.46 89.98,215.91 205.28,259.71 477.1,203.58 -61.81,317.89 2.22,335.9 187.03,487.02 -22.28,21.71 -0.18,5.97 -51.22,45.89 -158.5,123.91 -184.66,197.02 -136.05,443.35 -285.87,-61.74 -360.22,-2.9 -478.66,193.59 -66.3,-57.01 -141.38,-319.23 -500.47,-185.33z"/>
       <path class="fil9" d="M-24598.27 1278.84c336.3,-80.52 368.33,-317.57 443.11,-427.32 40.91,136.73 67.53,178.04 151.79,265.37 143.63,148.88 180.26,103.21 268.59,174.26 -239.3,72.85 -341.44,189.63 -424.45,425.85 -73.25,-134.08 -48.42,-160.75 -156.84,-269.01 -115.04,-114.91 -137.71,-96.2 -282.2,-169.14z"/>
       <path class="fil5" d="M-12600.82 1467.12c-71.6,-67.25 -115.95,-3.81 -228.59,-40.38 -63.13,-60.69 -42.94,-93.09 -87.93,-157.08 -42.15,-59.94 -66.68,-52.57 -96.73,-141.23 -1.39,-82.44 52.15,-91.44 92.4,-145.8 42.12,-56.9 46.95,-118.46 92.82,-169.98 69.92,-10.38 139.8,6 193.39,-10.18 57.23,-17.26 83.85,-67.21 148.33,-71.07 69.57,-4.15 103.34,48.91 149.87,67.03 69.09,26.91 122.61,-0.4 205.22,18.18 58.28,65.8 41.95,85.84 85.99,156.31 36.33,58.11 96.26,87.91 97.48,147.43 1.35,66.94 -65.64,100.19 -97.32,149.9 -43.6,68.4 -34.37,94.88 -84.2,159.93 -125.8,22.27 -148.59,-23.41 -252.88,43.91 -124.61,80.42 -123.2,23.43 -217.85,-6.97z"/>
       <path class="fil2" d="M-24283.3 -3017.08l-21.89 -9.61c-3.2,-1.28 -18.29,-7.05 -22.62,-8.82 -20.68,-8.51 -20.24,-3.44 -42.99,-19.59 -30.71,-21.8 -44.24,-53.3 -37.61,-98.53 8.33,-56.98 88.5,-121.04 125.58,-157.9 -31.34,-19.18 -104.24,-29.54 -123.8,-73.12 -11.46,-129.09 87.73,-182.56 154.21,-251.4 68.82,-71.24 141.83,-181.84 262.49,-58.19 105.54,-58.94 106.71,-100.19 216.95,1.12l19.26 -14.92c2.93,-2.22 26.54,-20.61 28.35,-21.69 82.31,-48.89 108.48,-8.11 169.36,36.04 69.3,-38.46 42.21,-70.63 154.96,-47.86 129.55,101.14 2.91,197.05 -66.13,259.56 27.75,26.27 102.1,43.16 118.28,92.98 6.24,105.7 -71.93,167.16 -128.14,203.62 3.07,2.45 8.73,8.79 10.4,5.64 1.65,-3.17 8.18,4.34 10.49,5.38l21.34 9.41c179.59,78.39 52.68,186.26 -23.89,260.59 -81.76,79.42 -139.05,178.02 -230.88,159.88l-75.63 -47.15c-1.65,-1.56 -5.05,-5.42 -7.76,-7.96 -38.22,33.28 -82.69,88.48 -164.82,40.65 -39.17,-22.82 -5.22,-13.95 -52.13,-38.97 -132.72,113.19 -126.04,37.45 -222.04,-2.62 -103.03,118.83 -180.03,32.21 -192.2,-6.08 -30.15,-94.67 75.98,-169.76 120.89,-210.47z"/>
       <path class="fil3" d="M-14411.74 -1355.03c-68.24,-47.48 -75.04,-94.94 -146.63,-124.01 -128.31,-47.33 -116.72,-26.61 -150.05,-169.18 -43.98,-188.21 -168.99,-116.41 12.21,-508.06 60.71,-131.24 133.1,-74.81 174.89,-160.23 77.53,-36.44 62.27,-96.02 186.04,-66.04 165,39.97 242.13,-73.52 400.42,66 44.75,39.46 79.25,108.78 114.89,162.31 40.62,281.93 21.21,101.16 74.59,239.21 40.19,103.94 -48.74,138.61 -67.45,223.98 -28.59,130.43 23.39,160.89 -93.15,216.02 -108.23,51.21 -100.14,85.6 -175.14,143.72 -87.93,11.15 -73.32,-15.25 -151.35,-25.73 -69.42,-9.32 -103.69,12.81 -179.26,2.01z"/>
       <path class="fil4" d="M-12465.98 -3013.6c-48.47,79.82 -40.89,192.81 -103.21,262.71 -200.93,1.61 -9.13,-211.79 23.5,-307.86 -124.92,119.61 -122.25,219.24 -248.61,200.7 -67.37,-132.35 54.54,-116.15 185.63,-262.18 -61.3,19.99 -104.22,50.59 -162.28,82.66 -155.49,85.9 -215.74,-59.23 -45.85,-108.67l154.7 -55.22c-97.63,0.59 -200.13,34.85 -278.67,-2.03 -50.1,-167.64 208.38,-91.9 315.71,-81.6 -81.8,-41.46 -345.31,-59.72 -276.51,-175.84 21.96,-23.85 13.67,-33.44 68.66,-22.07 39.92,8.24 164.07,92.49 226.92,112.27 -137.07,-141.67 -237.49,-130.7 -191.25,-264.45 88.06,-11.05 95.8,16.03 138.46,70.38 39.17,49.86 70.16,92.36 113.59,131.47 -37.85,-111.74 -154.74,-206.57 -92.5,-304.18 76.22,-10.74 94.88,14.95 113.88,83.83l52.6 156.15c1.57,2.89 4.41,7.87 7.03,11.53 -1.85,-91.86 -61.57,-288.48 44.09,-290.69 109.88,-2.29 45.32,211.72 43.67,290.16l37.47 -81.5c16.07,-53.32 40.54,-233.88 135.04,-159.64 48.05,37.76 22.86,78.74 -13.54,142.75 -28.77,50.59 -57.58,98.47 -78.45,151.99 35.29,-33.97 68.55,-73.12 107.93,-122.36 52.46,-65.56 34.92,-92.63 145.27,-81.58 38.24,90.16 12.01,97.63 -50.79,144.93 -43.89,33.06 -110.06,88.41 -140.53,121.24 162.57,-62.87 235.88,-168.39 295.27,-90.18 43.87,67.94 -12.7,91.11 -74.84,110.31 -52.02,16.05 -121.9,29.93 -167.09,60.05 94.23,-0.7 209.3,-35.53 283.35,2.07 40.29,167.04 -157.81,89.14 -281.08,86.56 13.78,9.21 2.71,4.94 34.14,18.89 18.01,8 15.19,6.72 35.91,13.69 43.84,14.75 234.5,44.28 180.07,137.57 -90.29,70.69 -195.52,-54.01 -303.76,-88.95 89.03,97.3 273.58,172.66 187.13,250.81 -78.3,46.6 -110.5,-23.43 -150.62,-73.43 -15.58,-19.4 -102.19,-118.5 -110,-137.49 32.56,103.25 238.18,326.48 34.68,330.96 -55.9,-68.55 -64.13,-187.88 -103.76,-264.56 -3.02,95.49 60.68,296.88 -46.05,298.07 -111.89,1.24 -42.7,-222.61 -45.32,-297.25z"/>
       <path class="fil5" d="M-22013.12 -2902.62c-71.6,-67.25 -115.95,-3.81 -228.59,-40.38 -63.13,-60.69 -42.94,-93.09 -87.93,-157.08 -42.15,-59.94 -66.68,-52.57 -96.73,-141.23 -1.39,-82.44 52.15,-91.44 92.4,-145.8 42.12,-56.9 46.95,-118.46 92.82,-169.98 69.92,-10.38 139.8,6 193.39,-10.18 57.23,-17.26 83.85,-67.21 148.33,-71.07 69.57,-4.15 103.34,48.91 149.87,67.03 69.09,26.91 122.61,-0.4 205.22,18.18 58.28,65.8 41.95,85.84 85.99,156.31 36.33,58.11 96.26,87.91 97.48,147.43 1.35,66.94 -65.64,100.19 -97.32,149.9 -43.6,68.4 -34.37,94.88 -84.2,159.93 -125.8,22.27 -148.59,-23.41 -252.88,43.91 -124.61,80.42 -123.2,23.43 -217.85,-6.97z"/>
       <path class="fil6" d="M-19872.75 -2726.27l-36.97 -9.54c-123,-6.31 -220.98,-34.59 -226.91,-244.86 -107.15,28.59 -210.84,-75.98 -222.02,-166.36 -6.08,-49.22 5.09,-60.88 -3.4,-102.87 -9.65,-47.61 -103.38,-156.44 19.55,-213.09 98.98,-4.87 16.75,4.48 46.43,-22.4 -19.88,-44.22 -43.73,-91.04 -18.78,-129.13l51.6 -6.96 -9.22 72.72 89.16 10.32c41.62,84.09 66.35,119.63 156.8,146.83 145.84,43.85 119.3,30.84 182.26,146.9l115.51 13.42c6.59,90.97 -21.87,-14.22 7.5,113.24 13.73,59.52 4.28,21.73 -14.15,66.57l34.72 -2.21c1.43,0.2 6.53,0.73 9.39,2.21 -20.46,73.49 -24.76,31.83 1.99,57.45 -33,30.93 -33.75,1.37 -49.77,35.53 15.89,5.44 -1.23,8.15 42.92,7.65 47.66,-0.55 29.25,15.32 16.23,-7.58l36.13 39.22c1.5,2.05 3.95,6.92 5.69,10.52l-80.52 18.05 22.92 26.7c11.4,74.81 45.3,103.51 -15.8,153.56 -66.04,47.37 -98.75,5.49 -161.29,-15.92z"/>
       <path class="fil7" d="M-16329.95 -3585.48c81.19,-58.17 78.9,-115.36 220.81,-129.44 247.19,-24.53 507.31,184.09 626.25,397.31 95.31,170.88 106.08,403.48 -53.47,500.5 -184.38,112.11 -392.8,-35.23 -512.56,-94.71 -272.28,329.47 -700.78,-25.87 -834.67,-267.46 -252.4,-455.44 144.63,-694.58 553.64,-406.21z"/>
       <path class="fil11" d="M-18561.86 -2843.05c-280.56,-10.01 -484.58,-361.22 -277.37,-612.64 110.76,-134.41 177.88,-139.78 384.31,-156.52 145.09,-11.77 363.97,-42.97 501.52,-37.77 293.93,11.1 481.06,352.88 284.67,610.46 -94.74,124.28 -188.56,142.6 -386.05,158.47 -148.38,11.91 -365.79,43.05 -507.08,38z"/>
       <path class="fil8" d="M-14613.31 -2745.14c24.32,-105.66 49.74,-181.1 3.92,-301.44 -40.46,-106.15 -64.57,-102.16 -122.14,-146.78 -36.43,-28.21 -34.28,-27.01 -56.66,-49.28l38.05 -34.14c161.79,-140.68 198.08,-174.21 143.29,-448.01 334.38,60.72 326.15,-21.82 495.81,-208.46 89.98,215.91 205.28,259.71 477.1,203.59 -61.81,317.89 2.22,335.9 187.03,487.02 -22.27,21.71 -0.18,5.97 -51.22,45.89 -158.5,123.91 -184.66,197.02 -136.05,443.35 -285.87,-61.74 -360.22,-2.89 -478.66,193.59 -66.3,-57.01 -141.38,-319.23 -500.47,-185.33z"/>
       <path class="fil9" d="M-16592.77 -1881.79c336.3,-80.52 368.33,-317.57 443.11,-427.32 40.91,136.73 67.53,178.04 151.79,265.37 143.63,148.88 180.26,103.21 268.59,174.26 -239.3,72.85 -341.44,189.63 -424.45,425.85 -73.25,-134.08 -48.42,-160.75 -156.84,-269.01 -115.04,-114.91 -137.71,-96.2 -282.2,-169.14z"/>
       <path class="fil7" d="M-20117.57 -2041.83c81.19,-58.17 78.9,-115.35 220.81,-129.44 247.19,-24.53 507.31,184.09 626.25,397.31 95.31,170.88 106.08,403.48 -53.47,500.5 -184.38,112.11 -392.8,-35.23 -512.56,-94.71 -272.28,329.47 -700.78,-25.87 -834.67,-267.46 -252.4,-455.44 144.63,-694.58 553.64,-406.21z"/>
       <path class="fil10" d="M-22349.47 -1299.39c-280.56,-10.01 -484.58,-361.22 -277.37,-612.64 110.76,-134.41 177.88,-139.78 384.31,-156.52 145.09,-11.77 363.97,-42.97 501.52,-37.77 293.93,11.1 481.06,352.88 284.67,610.46 -94.74,124.28 -188.56,142.6 -386.05,158.47 -148.38,11.91 -365.79,43.05 -507.08,38z"/>
       <path class="fil8" d="M-18400.92 -1201.48c24.32,-105.66 49.74,-181.1 3.92,-301.44 -40.46,-106.15 -64.57,-102.16 -122.14,-146.78 -36.43,-28.21 -34.28,-27.01 -56.66,-49.28l38.06 -34.14c161.79,-140.68 198.08,-174.21 143.29,-448.01 334.38,60.72 326.15,-21.82 495.81,-208.46 89.98,215.91 205.28,259.71 477.1,203.58 -61.81,317.89 2.22,335.9 187.03,487.02 -22.28,21.71 -0.18,5.97 -51.22,45.89 -158.5,123.91 -184.66,197.02 -136.05,443.35 -285.87,-61.74 -360.22,-2.9 -478.66,193.59 -66.3,-57.01 -141.38,-319.23 -500.47,-185.33z"/>
       <path class="fil9" d="M-24200.23 -1708.29c336.3,-80.52 368.33,-317.57 443.11,-427.32 40.91,136.73 67.53,178.04 151.79,265.37 143.63,148.88 180.26,103.21 268.59,174.26 -239.3,72.85 -341.44,189.63 -424.45,425.85 -73.25,-134.08 -48.42,-160.75 -156.84,-269.01 -115.04,-114.91 -137.71,-96.2 -282.2,-169.14z"/>
       <path class="fil5" d="M-12202.79 -1520c-71.6,-67.25 -115.95,-3.81 -228.59,-40.38 -63.13,-60.69 -42.94,-93.09 -87.93,-157.08 -42.15,-59.94 -66.68,-52.57 -96.73,-141.23 -1.39,-82.44 52.15,-91.44 92.4,-145.8 42.12,-56.9 46.95,-118.46 92.82,-169.98 69.92,-10.38 139.8,6 193.39,-10.18 57.23,-17.26 83.85,-67.21 148.33,-71.07 69.57,-4.15 103.34,48.91 149.87,67.03 69.1,26.91 122.61,-0.4 205.22,18.18 58.28,65.8 41.95,85.84 85.99,156.31 36.33,58.11 96.26,87.91 97.48,147.43 1.35,66.94 -65.64,100.19 -97.32,149.9 -43.6,68.4 -34.37,94.88 -84.2,159.93 -125.8,22.27 -148.59,-23.41 -252.88,43.91 -124.61,80.42 -123.2,23.43 -217.85,-6.97z"/>
       <path class="fil11" d="M-18382.12 172.42c-280.56,-10.01 -484.58,-361.22 -277.37,-612.64 110.76,-134.41 177.88,-139.78 384.31,-156.52 145.08,-11.77 363.97,-42.97 501.52,-37.77 293.93,11.1 481.06,352.88 284.67,610.46 -94.74,124.28 -188.56,142.6 -386.05,158.47 -148.38,11.91 -365.79,43.05 -507.08,38z"/>
      </g>
     </g>
    </g>
    <path class="fil12" d="M336.59 267.49c18.08,20.08 16.45,51.02 -3.63,69.09 -20.08,18.08 -51.02,16.45 -69.09,-3.63 -18.08,-20.08 -16.45,-51.02 3.63,-69.09 20.08,-18.08 51.02,-16.45 69.09,3.63z"/>
    <g>
     <path class="fil13" d="M184.8 269.53l1.98 27.89 -3.92 0.29c-8.45,0.63 -15.94,-1.85 -22.35,-7.38 -6.41,-5.54 -9.95,-12.59 -10.56,-21.04l-8.01 -111.48c-0.64,-8.84 2.14,-16.7 8.2,-23.17 6.06,-6.48 13.7,-9.78 22.57,-9.74l78.41 0.35c16.09,0.07 29.34,12.46 30.49,28.51l1.56 21.75c0.89,12.35 -5.2,23.4 -16.1,29.25l-66.17 35.53c-10.9,5.85 -16.98,16.89 -16.1,29.23z"/>
     <g style="clip-path:url(#id1)">
      <g>
       <g>
        <path id="_1_28" class="fil2" d="M-24325.24 230.57l-21.89 -9.61c-3.2,-1.28 -18.29,-7.05 -22.62,-8.82 -20.68,-8.51 -20.24,-3.44 -42.99,-19.58 -30.71,-21.8 -44.24,-53.3 -37.61,-98.53 8.33,-56.98 88.5,-121.04 125.58,-157.9 -31.33,-19.18 -104.24,-29.54 -123.8,-73.12 -11.46,-129.09 87.73,-182.56 154.21,-251.4 68.82,-71.24 141.83,-181.84 262.49,-58.19 105.54,-58.94 106.71,-100.19 216.95,1.12l19.26 -14.92c2.93,-2.21 26.54,-20.61 28.35,-21.69 82.31,-48.89 108.48,-8.11 169.36,36.04 69.3,-38.46 42.21,-70.63 154.96,-47.86 129.55,101.14 2.91,197.05 -66.13,259.56 27.75,26.27 102.1,43.16 118.28,92.98 6.24,105.7 -71.93,167.16 -128.14,203.63 3.07,2.45 8.73,8.79 10.4,5.64 1.65,-3.17 8.18,4.34 10.49,5.38l21.34 9.41c179.59,78.39 52.68,186.25 -23.89,260.58 -81.76,79.42 -139.05,178.02 -230.88,159.88l-75.63 -47.15c-1.65,-1.56 -5.05,-5.42 -7.76,-7.96 -38.22,33.28 -82.69,88.48 -164.82,40.65 -39.17,-22.82 -5.22,-13.95 -52.13,-38.97 -132.72,113.19 -126.04,37.45 -222.04,-2.62 -103.03,118.83 -180.03,32.21 -192.2,-6.08 -30.15,-94.67 75.98,-169.76 120.89,-210.47z"/>
        <path class="fil3" d="M-14809.78 1632.09c-68.23,-47.48 -75.04,-94.94 -146.63,-124.01 -128.31,-47.33 -116.72,-26.61 -150.05,-169.18 -43.98,-188.21 -168.99,-116.41 12.21,-508.06 60.71,-131.24 133.1,-74.81 174.89,-160.23 77.53,-36.44 62.27,-96.02 186.03,-66.04 165,39.97 242.14,-73.52 400.42,66 44.75,39.46 79.25,108.78 114.89,162.31 40.62,281.93 21.21,101.16 74.59,239.21 40.19,103.94 -48.74,138.61 -67.45,223.98 -28.59,130.43 23.39,160.89 -93.15,216.02 -108.23,51.21 -100.14,85.6 -175.14,143.72 -87.93,11.15 -73.32,-15.25 -151.35,-25.73 -69.42,-9.32 -103.69,12.81 -179.26,2.01z"/>
        <path class="fil4" d="M-12000.23 -58.46c-48.47,79.82 -40.89,192.81 -103.21,262.71 -200.93,1.61 -9.13,-211.79 23.5,-307.86 -124.92,119.61 -122.25,219.24 -248.61,200.7 -67.37,-132.35 54.54,-116.15 185.63,-262.18 -61.3,19.99 -104.22,50.59 -162.28,82.66 -155.49,85.9 -215.74,-59.23 -45.85,-108.67l154.7 -55.22c-97.63,0.59 -200.13,34.85 -278.67,-2.03 -50.1,-167.64 208.38,-91.9 315.71,-81.6 -81.8,-41.46 -345.31,-59.72 -276.51,-175.84 21.96,-23.85 13.67,-33.44 68.66,-22.07 39.92,8.24 164.07,92.49 226.92,112.27 -137.07,-141.67 -237.49,-130.7 -191.25,-264.45 88.06,-11.06 95.8,16.03 138.46,70.38 39.17,49.86 70.16,92.36 113.59,131.47 -37.85,-111.74 -154.74,-206.57 -92.51,-304.18 76.22,-10.74 94.88,14.95 113.88,83.83l52.6 156.15c1.57,2.89 4.41,7.87 7.03,11.53 -1.85,-91.87 -61.57,-288.48 44.09,-290.69 109.87,-2.29 45.32,211.71 43.67,290.16l37.47 -81.51c16.07,-53.32 40.54,-233.88 135.04,-159.64 48.05,37.76 22.86,78.74 -13.54,142.75 -28.77,50.59 -57.58,98.47 -78.45,151.99 35.29,-33.97 68.55,-73.12 107.94,-122.36 52.46,-65.56 34.92,-92.63 145.27,-81.58 38.24,90.16 12.01,97.63 -50.79,144.93 -43.89,33.06 -110.06,88.41 -140.53,121.24 162.57,-62.87 235.88,-168.39 295.27,-90.18 43.87,67.94 -12.7,91.11 -74.84,110.31 -52.02,16.05 -121.9,29.93 -167.09,60.05 94.23,-0.7 209.3,-35.53 283.35,2.07 40.29,167.04 -157.81,89.14 -281.08,86.56 13.78,9.21 2.71,4.94 34.14,18.89 18.01,8 15.19,6.72 35.91,13.69 43.84,14.75 234.5,44.28 180.07,137.57 -90.29,70.69 -195.52,-54.01 -303.76,-88.95 89.03,97.3 273.58,172.66 187.13,250.81 -78.3,46.6 -110.5,-23.43 -150.62,-73.43 -15.58,-19.4 -102.19,-118.5 -110,-137.49 32.56,103.25 238.18,326.48 34.69,330.96 -55.9,-68.55 -64.13,-187.88 -103.76,-264.56 -3.02,95.49 60.68,296.88 -46.05,298.07 -111.89,1.24 -42.7,-222.61 -45.32,-297.25z"/>
        <path class="fil5" d="M-22055.05 215.66c-71.6,-67.25 -115.95,-3.81 -228.59,-40.38 -63.13,-60.69 -42.94,-93.09 -87.93,-157.08 -42.15,-59.94 -66.68,-52.57 -96.73,-141.23 -1.39,-82.44 52.15,-91.44 92.4,-145.8 42.12,-56.9 46.95,-118.46 92.82,-169.98 69.92,-10.38 139.8,6 193.39,-10.18 57.23,-17.26 83.85,-67.21 148.33,-71.07 69.57,-4.15 103.34,48.91 149.87,67.03 69.1,26.91 122.61,-0.4 205.22,18.18 58.28,65.8 41.95,85.84 85.99,156.31 36.33,58.11 96.26,87.91 97.48,147.43 1.35,66.94 -65.64,100.19 -97.32,149.9 -43.6,68.4 -34.37,94.88 -84.2,159.93 -125.8,22.27 -148.59,-23.41 -252.88,43.91 -124.61,80.42 -123.2,23.43 -217.85,-6.97z"/>
        <path class="fil6" d="M-16200.6 1642.61l-36.97 -9.54c-123,-6.32 -220.98,-34.59 -226.91,-244.86 -107.15,28.59 -210.84,-75.98 -222.02,-166.36 -6.08,-49.22 5.09,-60.88 -3.4,-102.86 -9.65,-47.61 -103.38,-156.44 19.55,-213.09 98.98,-4.87 16.75,4.48 46.44,-22.4 -19.88,-44.22 -43.73,-91.04 -18.78,-129.13l51.6 -6.96 -9.22 72.72 89.16 10.32c41.62,84.09 66.35,119.63 156.8,146.83 145.84,43.85 119.3,30.84 182.26,146.9l115.51 13.42c6.59,90.97 -21.87,-14.22 7.5,113.24 13.73,59.52 4.28,21.73 -14.15,66.57l34.72 -2.22c1.43,0.2 6.53,0.73 9.39,2.22 -20.46,73.49 -24.76,31.83 1.99,57.45 -33,30.93 -33.75,1.37 -49.77,35.53 15.89,5.44 -1.23,8.15 42.92,7.65 47.66,-0.55 29.25,15.32 16.24,-7.58l36.13 39.22c1.5,2.05 3.95,6.92 5.69,10.52l-80.52 18.05 22.92 26.7c11.4,74.81 45.3,103.51 -15.8,153.57 -66.04,47.37 -98.75,5.49 -161.29,-15.92z"/>
        <path class="fil7" d="M-16371.89 -484.45c81.19,-58.17 78.9,-115.35 220.81,-129.43 247.19,-24.53 507.31,184.09 626.25,397.31 95.31,170.88 106.08,403.48 -53.47,500.5 -184.38,112.11 -392.8,-35.23 -512.56,-94.71 -272.28,329.47 -700.78,-25.87 -834.67,-267.46 -252.4,-455.44 144.63,-694.58 553.64,-406.21z"/>
        <path class="fil8" d="M-14655.24 355.89c24.32,-105.66 49.74,-181.1 3.92,-301.44 -40.46,-106.15 -64.57,-102.16 -122.14,-146.78 -36.43,-28.21 -34.28,-27.01 -56.66,-49.28l38.06 -34.14c161.79,-140.68 198.08,-174.21 143.29,-448.01 334.38,60.72 326.15,-21.82 495.81,-208.46 89.98,215.91 205.28,259.71 477.1,203.59 -61.81,317.89 2.22,335.9 187.03,487.02 -22.28,21.71 -0.18,5.97 -51.22,45.89 -158.5,123.91 -184.66,197.02 -136.05,443.35 -285.87,-61.74 -360.22,-2.89 -478.66,193.59 -66.3,-57.01 -141.38,-319.23 -500.47,-185.33z"/>
        <path class="fil9" d="M-20454.55 -150.91c336.3,-80.52 368.33,-317.57 443.11,-427.32 40.91,136.73 67.53,178.04 151.79,265.37 143.63,148.88 180.26,103.21 268.59,174.26 -239.3,72.85 -341.44,189.63 -424.45,425.85 -73.25,-134.08 -48.42,-160.75 -156.84,-269.01 -115.04,-114.91 -137.71,-96.2 -282.2,-169.14z"/>
        <path class="fil7" d="M-20515.6 945.3c81.19,-58.17 78.9,-115.35 220.81,-129.44 247.19,-24.53 507.31,184.09 626.25,397.31 95.31,170.88 106.08,403.48 -53.47,500.5 -184.38,112.11 -392.8,-35.23 -512.56,-94.71 -272.28,329.47 -700.78,-25.87 -834.67,-267.46 -252.4,-455.44 144.63,-694.58 553.64,-406.21z"/>
        <path class="fil10" d="M-22747.51 1687.73c-280.56,-10.01 -484.58,-361.22 -277.37,-612.64 110.76,-134.41 177.88,-139.78 384.31,-156.52 145.08,-11.77 363.97,-42.97 501.52,-37.77 293.93,11.1 481.06,352.88 284.67,610.46 -94.74,124.28 -188.56,142.6 -386.05,158.47 -148.38,11.91 -365.79,43.05 -507.08,38z"/>
        <path class="fil8" d="M-18798.96 1785.64c24.32,-105.66 49.74,-181.1 3.92,-301.44 -40.46,-106.15 -64.57,-102.16 -122.14,-146.78 -36.43,-28.21 -34.28,-27.01 -56.66,-49.28l38.05 -34.14c161.79,-140.68 198.08,-174.21 143.29,-448.01 334.38,60.72 326.15,-21.82 495.81,-208.46 89.98,215.91 205.28,259.71 477.1,203.58 -61.81,317.89 2.22,335.9 187.03,487.02 -22.28,21.71 -0.18,5.97 -51.22,45.89 -158.5,123.91 -184.66,197.02 -136.05,443.35 -285.87,-61.74 -360.22,-2.9 -478.66,193.59 -66.3,-57.01 -141.38,-319.23 -500.47,-185.33z"/>
        <path class="fil9" d="M-24598.27 1278.84c336.3,-80.52 368.33,-317.57 443.11,-427.32 40.91,136.73 67.53,178.04 151.79,265.37 143.63,148.88 180.26,103.21 268.59,174.26 -239.3,72.85 -341.44,189.63 -424.45,425.85 -73.25,-134.08 -48.42,-160.75 -156.84,-269.01 -115.04,-114.91 -137.71,-96.2 -282.2,-169.14z"/>
        <path class="fil5" d="M-12600.82 1467.12c-71.6,-67.25 -115.95,-3.81 -228.59,-40.38 -63.13,-60.69 -42.94,-93.09 -87.93,-157.08 -42.15,-59.94 -66.68,-52.57 -96.73,-141.23 -1.39,-82.44 52.15,-91.44 92.4,-145.8 42.12,-56.9 46.95,-118.46 92.82,-169.98 69.92,-10.38 139.8,6 193.39,-10.18 57.23,-17.26 83.85,-67.21 148.33,-71.07 69.57,-4.15 103.34,48.91 149.87,67.03 69.09,26.91 122.61,-0.4 205.22,18.18 58.28,65.8 41.95,85.84 85.99,156.31 36.33,58.11 96.26,87.91 97.48,147.43 1.35,66.94 -65.64,100.19 -97.32,149.9 -43.6,68.4 -34.37,94.88 -84.2,159.93 -125.8,22.27 -148.59,-23.41 -252.88,43.91 -124.61,80.42 -123.2,23.43 -217.85,-6.97z"/>
        <path class="fil2" d="M-24283.3 -3017.08l-21.89 -9.61c-3.2,-1.28 -18.29,-7.05 -22.62,-8.82 -20.68,-8.51 -20.24,-3.44 -42.99,-19.59 -30.71,-21.8 -44.24,-53.3 -37.61,-98.53 8.33,-56.98 88.5,-121.04 125.58,-157.9 -31.34,-19.18 -104.24,-29.54 -123.8,-73.12 -11.46,-129.09 87.73,-182.56 154.21,-251.4 68.82,-71.24 141.83,-181.84 262.49,-58.19 105.54,-58.94 106.71,-100.19 216.95,1.12l19.26 -14.92c2.93,-2.22 26.54,-20.61 28.35,-21.69 82.31,-48.89 108.48,-8.11 169.36,36.04 69.3,-38.46 42.21,-70.63 154.96,-47.86 129.55,101.14 2.91,197.05 -66.13,259.56 27.75,26.27 102.1,43.16 118.28,92.98 6.24,105.7 -71.93,167.16 -128.14,203.62 3.07,2.45 8.73,8.79 10.4,5.64 1.65,-3.17 8.18,4.34 10.49,5.38l21.34 9.41c179.59,78.39 52.68,186.26 -23.89,260.59 -81.76,79.42 -139.05,178.02 -230.88,159.88l-75.63 -47.15c-1.65,-1.56 -5.05,-5.42 -7.76,-7.96 -38.22,33.28 -82.69,88.48 -164.82,40.65 -39.17,-22.82 -5.22,-13.95 -52.13,-38.97 -132.72,113.19 -126.04,37.45 -222.04,-2.62 -103.03,118.83 -180.03,32.21 -192.2,-6.08 -30.15,-94.67 75.98,-169.76 120.89,-210.47z"/>
        <path class="fil3" d="M-14411.74 -1355.03c-68.24,-47.48 -75.04,-94.94 -146.63,-124.01 -128.31,-47.33 -116.72,-26.61 -150.05,-169.18 -43.98,-188.21 -168.99,-116.41 12.21,-508.06 60.71,-131.24 133.1,-74.81 174.89,-160.23 77.53,-36.44 62.27,-96.02 186.04,-66.04 165,39.97 242.13,-73.52 400.42,66 44.75,39.46 79.25,108.78 114.89,162.31 40.62,281.93 21.21,101.16 74.59,239.21 40.19,103.94 -48.74,138.61 -67.45,223.98 -28.59,130.43 23.39,160.89 -93.15,216.02 -108.23,51.21 -100.14,85.6 -175.14,143.72 -87.93,11.15 -73.32,-15.25 -151.35,-25.73 -69.42,-9.32 -103.69,12.81 -179.26,2.01z"/>
        <path class="fil4" d="M-12465.98 -3013.6c-48.47,79.82 -40.89,192.81 -103.21,262.71 -200.93,1.61 -9.13,-211.79 23.5,-307.86 -124.92,119.61 -122.25,219.24 -248.61,200.7 -67.37,-132.35 54.54,-116.15 185.63,-262.18 -61.3,19.99 -104.22,50.59 -162.28,82.66 -155.49,85.9 -215.74,-59.23 -45.85,-108.67l154.7 -55.22c-97.63,0.59 -200.13,34.85 -278.67,-2.03 -50.1,-167.64 208.38,-91.9 315.71,-81.6 -81.8,-41.46 -345.31,-59.72 -276.51,-175.84 21.96,-23.85 13.67,-33.44 68.66,-22.07 39.92,8.24 164.07,92.49 226.92,112.27 -137.07,-141.67 -237.49,-130.7 -191.25,-264.45 88.06,-11.05 95.8,16.03 138.46,70.38 39.17,49.86 70.16,92.36 113.59,131.47 -37.85,-111.74 -154.74,-206.57 -92.5,-304.18 76.22,-10.74 94.88,14.95 113.88,83.83l52.6 156.15c1.57,2.89 4.41,7.87 7.03,11.53 -1.85,-91.86 -61.57,-288.48 44.09,-290.69 109.88,-2.29 45.32,211.72 43.67,290.16l37.47 -81.5c16.07,-53.32 40.54,-233.88 135.04,-159.64 48.05,37.76 22.86,78.74 -13.54,142.75 -28.77,50.59 -57.58,98.47 -78.45,151.99 35.29,-33.97 68.55,-73.12 107.93,-122.36 52.46,-65.56 34.92,-92.63 145.27,-81.58 38.24,90.16 12.01,97.63 -50.79,144.93 -43.89,33.06 -110.06,88.41 -140.53,121.24 162.57,-62.87 235.88,-168.39 295.27,-90.18 43.87,67.94 -12.7,91.11 -74.84,110.31 -52.02,16.05 -121.9,29.93 -167.09,60.05 94.23,-0.7 209.3,-35.53 283.35,2.07 40.29,167.04 -157.81,89.14 -281.08,86.56 13.78,9.21 2.71,4.94 34.14,18.89 18.01,8 15.19,6.72 35.91,13.69 43.84,14.75 234.5,44.28 180.07,137.57 -90.29,70.69 -195.52,-54.01 -303.76,-88.95 89.03,97.3 273.58,172.66 187.13,250.81 -78.3,46.6 -110.5,-23.43 -150.62,-73.43 -15.58,-19.4 -102.19,-118.5 -110,-137.49 32.56,103.25 238.18,326.48 34.68,330.96 -55.9,-68.55 -64.13,-187.88 -103.76,-264.56 -3.02,95.49 60.68,296.88 -46.05,298.07 -111.89,1.24 -42.7,-222.61 -45.32,-297.25z"/>
        <path class="fil5" d="M-22013.12 -2902.62c-71.6,-67.25 -115.95,-3.81 -228.59,-40.38 -63.13,-60.69 -42.94,-93.09 -87.93,-157.08 -42.15,-59.94 -66.68,-52.57 -96.73,-141.23 -1.39,-82.44 52.15,-91.44 92.4,-145.8 42.12,-56.9 46.95,-118.46 92.82,-169.98 69.92,-10.38 139.8,6 193.39,-10.18 57.23,-17.26 83.85,-67.21 148.33,-71.07 69.57,-4.15 103.34,48.91 149.87,67.03 69.09,26.91 122.61,-0.4 205.22,18.18 58.28,65.8 41.95,85.84 85.99,156.31 36.33,58.11 96.26,87.91 97.48,147.43 1.35,66.94 -65.64,100.19 -97.32,149.9 -43.6,68.4 -34.37,94.88 -84.2,159.93 -125.8,22.27 -148.59,-23.41 -252.88,43.91 -124.61,80.42 -123.2,23.43 -217.85,-6.97z"/>
        <path class="fil6" d="M-19872.75 -2726.27l-36.97 -9.54c-123,-6.31 -220.98,-34.59 -226.91,-244.86 -107.15,28.59 -210.84,-75.98 -222.02,-166.36 -6.08,-49.22 5.09,-60.88 -3.4,-102.87 -9.65,-47.61 -103.38,-156.44 19.55,-213.09 98.98,-4.87 16.75,4.48 46.43,-22.4 -19.88,-44.22 -43.73,-91.04 -18.78,-129.13l51.6 -6.96 -9.22 72.72 89.16 10.32c41.62,84.09 66.35,119.63 156.8,146.83 145.84,43.85 119.3,30.84 182.26,146.9l115.51 13.42c6.59,90.97 -21.87,-14.22 7.5,113.24 13.73,59.52 4.28,21.73 -14.15,66.57l34.72 -2.21c1.43,0.2 6.53,0.73 9.39,2.21 -20.46,73.49 -24.76,31.83 1.99,57.45 -33,30.93 -33.75,1.37 -49.77,35.53 15.89,5.44 -1.23,8.15 42.92,7.65 47.66,-0.55 29.25,15.32 16.23,-7.58l36.13 39.22c1.5,2.05 3.95,6.92 5.69,10.52l-80.52 18.05 22.92 26.7c11.4,74.81 45.3,103.51 -15.8,153.56 -66.04,47.37 -98.75,5.49 -161.29,-15.92z"/>
        <path class="fil7" d="M-16329.95 -3585.48c81.19,-58.17 78.9,-115.36 220.81,-129.44 247.19,-24.53 507.31,184.09 626.25,397.31 95.31,170.88 106.08,403.48 -53.47,500.5 -184.38,112.11 -392.8,-35.23 -512.56,-94.71 -272.28,329.47 -700.78,-25.87 -834.67,-267.46 -252.4,-455.44 144.63,-694.58 553.64,-406.21z"/>
        <path class="fil11" d="M-18561.86 -2843.05c-280.56,-10.01 -484.58,-361.22 -277.37,-612.64 110.76,-134.41 177.88,-139.78 384.31,-156.52 145.09,-11.77 363.97,-42.97 501.52,-37.77 293.93,11.1 481.06,352.88 284.67,610.46 -94.74,124.28 -188.56,142.6 -386.05,158.47 -148.38,11.91 -365.79,43.05 -507.08,38z"/>
        <path class="fil8" d="M-14613.31 -2745.14c24.32,-105.66 49.74,-181.1 3.92,-301.44 -40.46,-106.15 -64.57,-102.16 -122.14,-146.78 -36.43,-28.21 -34.28,-27.01 -56.66,-49.28l38.05 -34.14c161.79,-140.68 198.08,-174.21 143.29,-448.01 334.38,60.72 326.15,-21.82 495.81,-208.46 89.98,215.91 205.28,259.71 477.1,203.59 -61.81,317.89 2.22,335.9 187.03,487.02 -22.27,21.71 -0.18,5.97 -51.22,45.89 -158.5,123.91 -184.66,197.02 -136.05,443.35 -285.87,-61.74 -360.22,-2.89 -478.66,193.59 -66.3,-57.01 -141.38,-319.23 -500.47,-185.33z"/>
        <path class="fil9" d="M-16592.77 -1881.79c336.3,-80.52 368.33,-317.57 443.11,-427.32 40.91,136.73 67.53,178.04 151.79,265.37 143.63,148.88 180.26,103.21 268.59,174.26 -239.3,72.85 -341.44,189.63 -424.45,425.85 -73.25,-134.08 -48.42,-160.75 -156.84,-269.01 -115.04,-114.91 -137.71,-96.2 -282.2,-169.14z"/>
        <path class="fil7" d="M-20117.57 -2041.83c81.19,-58.17 78.9,-115.35 220.81,-129.44 247.19,-24.53 507.31,184.09 626.25,397.31 95.31,170.88 106.08,403.48 -53.47,500.5 -184.38,112.11 -392.8,-35.23 -512.56,-94.71 -272.28,329.47 -700.78,-25.87 -834.67,-267.46 -252.4,-455.44 144.63,-694.58 553.64,-406.21z"/>
        <path class="fil10" d="M-22349.47 -1299.39c-280.56,-10.01 -484.58,-361.22 -277.37,-612.64 110.76,-134.41 177.88,-139.78 384.31,-156.52 145.09,-11.77 363.97,-42.97 501.52,-37.77 293.93,11.1 481.06,352.88 284.67,610.46 -94.74,124.28 -188.56,142.6 -386.05,158.47 -148.38,11.91 -365.79,43.05 -507.08,38z"/>
        <path class="fil8" d="M-18400.92 -1201.48c24.32,-105.66 49.74,-181.1 3.92,-301.44 -40.46,-106.15 -64.57,-102.16 -122.14,-146.78 -36.43,-28.21 -34.28,-27.01 -56.66,-49.28l38.06 -34.14c161.79,-140.68 198.08,-174.21 143.29,-448.01 334.38,60.72 326.15,-21.82 495.81,-208.46 89.98,215.91 205.28,259.71 477.1,203.58 -61.81,317.89 2.22,335.9 187.03,487.02 -22.28,21.71 -0.18,5.97 -51.22,45.89 -158.5,123.91 -184.66,197.02 -136.05,443.35 -285.87,-61.74 -360.22,-2.9 -478.66,193.59 -66.3,-57.01 -141.38,-319.23 -500.47,-185.33z"/>
        <path class="fil9" d="M-24200.23 -1708.29c336.3,-80.52 368.33,-317.57 443.11,-427.32 40.91,136.73 67.53,178.04 151.79,265.37 143.63,148.88 180.26,103.21 268.59,174.26 -239.3,72.85 -341.44,189.63 -424.45,425.85 -73.25,-134.08 -48.42,-160.75 -156.84,-269.01 -115.04,-114.91 -137.71,-96.2 -282.2,-169.14z"/>
        <path class="fil5" d="M-12202.79 -1520c-71.6,-67.25 -115.95,-3.81 -228.59,-40.38 -63.13,-60.69 -42.94,-93.09 -87.93,-157.08 -42.15,-59.94 -66.68,-52.57 -96.73,-141.23 -1.39,-82.44 52.15,-91.44 92.4,-145.8 42.12,-56.9 46.95,-118.46 92.82,-169.98 69.92,-10.38 139.8,6 193.39,-10.18 57.23,-17.26 83.85,-67.21 148.33,-71.07 69.57,-4.15 103.34,48.91 149.87,67.03 69.1,26.91 122.61,-0.4 205.22,18.18 58.28,65.8 41.95,85.84 85.99,156.31 36.33,58.11 96.26,87.91 97.48,147.43 1.35,66.94 -65.64,100.19 -97.32,149.9 -43.6,68.4 -34.37,94.88 -84.2,159.93 -125.8,22.27 -148.59,-23.41 -252.88,43.91 -124.61,80.42 -123.2,23.43 -217.85,-6.97z"/>
        <path class="fil11" d="M-18382.12 172.42c-280.56,-10.01 -484.58,-361.22 -277.37,-612.64 110.76,-134.41 177.88,-139.78 384.31,-156.52 145.08,-11.77 363.97,-42.97 501.52,-37.77 293.93,11.1 481.06,352.88 284.67,610.46 -94.74,124.28 -188.56,142.6 -386.05,158.47 -148.38,11.91 -365.79,43.05 -507.08,38z"/>
       </g>
      </g>
     </g>
     <path class="fil14" d="M184.8 269.53l1.98 27.89 -3.92 0.29c-8.45,0.63 -15.94,-1.85 -22.35,-7.38 -6.41,-5.54 -9.95,-12.59 -10.56,-21.04l-8.01 -111.48c-0.64,-8.84 2.14,-16.7 8.2,-23.17 6.06,-6.48 13.7,-9.78 22.57,-9.74l78.41 0.35c16.09,0.07 29.34,12.46 30.49,28.51l1.56 21.75c0.89,12.35 -5.2,23.4 -16.1,29.25l-66.17 35.53c-10.9,5.85 -16.98,16.89 -16.1,29.23z"/>
     <path class="fil13" d="M415.65 330.91l-1.98 -27.89 3.92 -0.29c8.45,-0.63 15.94,1.85 22.35,7.38 6.41,5.54 9.95,12.59 10.56,21.04l8.01 111.48c0.64,8.85 -2.14,16.7 -8.2,23.17 -6.06,6.48 -13.7,9.78 -22.57,9.74l-78.41 -0.35c-16.1,-0.07 -29.34,-12.46 -30.49,-28.51l-1.56 -21.75c-0.89,-12.35 5.2,-23.4 16.1,-29.25l66.17 -35.53c10.9,-5.85 16.98,-16.89 16.11,-29.23z"/>
     <g style="clip-path:url(#id2)">
      <g>
       <g>
        <path id="_1_29" class="fil2" d="M-24325.24 230.57l-21.89 -9.61c-3.2,-1.28 -18.29,-7.05 -22.62,-8.82 -20.68,-8.51 -20.24,-3.44 -42.99,-19.58 -30.71,-21.8 -44.24,-53.3 -37.61,-98.53 8.33,-56.98 88.5,-121.04 125.58,-157.9 -31.33,-19.18 -104.24,-29.54 -123.8,-73.12 -11.46,-129.09 87.73,-182.56 154.21,-251.4 68.82,-71.24 141.83,-181.84 262.49,-58.19 105.54,-58.94 106.71,-100.19 216.95,1.12l19.26 -14.92c2.93,-2.21 26.54,-20.61 28.35,-21.69 82.31,-48.89 108.48,-8.11 169.36,36.04 69.3,-38.46 42.21,-70.63 154.96,-47.86 129.55,101.14 2.91,197.05 -66.13,259.56 27.75,26.27 102.1,43.16 118.28,92.98 6.24,105.7 -71.93,167.16 -128.14,203.63 3.07,2.45 8.73,8.79 10.4,5.64 1.65,-3.17 8.18,4.34 10.49,5.38l21.34 9.41c179.59,78.39 52.68,186.25 -23.89,260.58 -81.76,79.42 -139.05,178.02 -230.88,159.88l-75.63 -47.15c-1.65,-1.56 -5.05,-5.42 -7.76,-7.96 -38.22,33.28 -82.69,88.48 -164.82,40.65 -39.17,-22.82 -5.22,-13.95 -52.13,-38.97 -132.72,113.19 -126.04,37.45 -222.04,-2.62 -103.03,118.83 -180.03,32.21 -192.2,-6.08 -30.15,-94.67 75.98,-169.76 120.89,-210.47z"/>
        <path class="fil3" d="M-14809.78 1632.09c-68.23,-47.48 -75.04,-94.94 -146.63,-124.01 -128.31,-47.33 -116.72,-26.61 -150.05,-169.18 -43.98,-188.21 -168.99,-116.41 12.21,-508.06 60.71,-131.24 133.1,-74.81 174.89,-160.23 77.53,-36.44 62.27,-96.02 186.03,-66.04 165,39.97 242.14,-73.52 400.42,66 44.75,39.46 79.25,108.78 114.89,162.31 40.62,281.93 21.21,101.16 74.59,239.21 40.19,103.94 -48.74,138.61 -67.45,223.98 -28.59,130.43 23.39,160.89 -93.15,216.02 -108.23,51.21 -100.14,85.6 -175.14,143.72 -87.93,11.15 -73.32,-15.25 -151.35,-25.73 -69.42,-9.32 -103.69,12.81 -179.26,2.01z"/>
        <path class="fil4" d="M-12000.23 -58.46c-48.47,79.82 -40.89,192.81 -103.21,262.71 -200.93,1.61 -9.13,-211.79 23.5,-307.86 -124.92,119.61 -122.25,219.24 -248.61,200.7 -67.37,-132.35 54.54,-116.15 185.63,-262.18 -61.3,19.99 -104.22,50.59 -162.28,82.66 -155.49,85.9 -215.74,-59.23 -45.85,-108.67l154.7 -55.22c-97.63,0.59 -200.13,34.85 -278.67,-2.03 -50.1,-167.64 208.38,-91.9 315.71,-81.6 -81.8,-41.46 -345.31,-59.72 -276.51,-175.84 21.96,-23.85 13.67,-33.44 68.66,-22.07 39.92,8.24 164.07,92.49 226.92,112.27 -137.07,-141.67 -237.49,-130.7 -191.25,-264.45 88.06,-11.06 95.8,16.03 138.46,70.38 39.17,49.86 70.16,92.36 113.59,131.47 -37.85,-111.74 -154.74,-206.57 -92.51,-304.18 76.22,-10.74 94.88,14.95 113.88,83.83l52.6 156.15c1.57,2.89 4.41,7.87 7.03,11.53 -1.85,-91.87 -61.57,-288.48 44.09,-290.69 109.87,-2.29 45.32,211.71 43.67,290.16l37.47 -81.51c16.07,-53.32 40.54,-233.88 135.04,-159.64 48.05,37.76 22.86,78.74 -13.54,142.75 -28.77,50.59 -57.58,98.47 -78.45,151.99 35.29,-33.97 68.55,-73.12 107.94,-122.36 52.46,-65.56 34.92,-92.63 145.27,-81.58 38.24,90.16 12.01,97.63 -50.79,144.93 -43.89,33.06 -110.06,88.41 -140.53,121.24 162.57,-62.87 235.88,-168.39 295.27,-90.18 43.87,67.94 -12.7,91.11 -74.84,110.31 -52.02,16.05 -121.9,29.93 -167.09,60.05 94.23,-0.7 209.3,-35.53 283.35,2.07 40.29,167.04 -157.81,89.14 -281.08,86.56 13.78,9.21 2.71,4.94 34.14,18.89 18.01,8 15.19,6.72 35.91,13.69 43.84,14.75 234.5,44.28 180.07,137.57 -90.29,70.69 -195.52,-54.01 -303.76,-88.95 89.03,97.3 273.58,172.66 187.13,250.81 -78.3,46.6 -110.5,-23.43 -150.62,-73.43 -15.58,-19.4 -102.19,-118.5 -110,-137.49 32.56,103.25 238.18,326.48 34.69,330.96 -55.9,-68.55 -64.13,-187.88 -103.76,-264.56 -3.02,95.49 60.68,296.88 -46.05,298.07 -111.89,1.24 -42.7,-222.61 -45.32,-297.25z"/>
        <path class="fil5" d="M-22055.05 215.66c-71.6,-67.25 -115.95,-3.81 -228.59,-40.38 -63.13,-60.69 -42.94,-93.09 -87.93,-157.08 -42.15,-59.94 -66.68,-52.57 -96.73,-141.23 -1.39,-82.44 52.15,-91.44 92.4,-145.8 42.12,-56.9 46.95,-118.46 92.82,-169.98 69.92,-10.38 139.8,6 193.39,-10.18 57.23,-17.26 83.85,-67.21 148.33,-71.07 69.57,-4.15 103.34,48.91 149.87,67.03 69.1,26.91 122.61,-0.4 205.22,18.18 58.28,65.8 41.95,85.84 85.99,156.31 36.33,58.11 96.26,87.91 97.48,147.43 1.35,66.94 -65.64,100.19 -97.32,149.9 -43.6,68.4 -34.37,94.88 -84.2,159.93 -125.8,22.27 -148.59,-23.41 -252.88,43.91 -124.61,80.42 -123.2,23.43 -217.85,-6.97z"/>
        <path class="fil6" d="M-16200.6 1642.61l-36.97 -9.54c-123,-6.32 -220.98,-34.59 -226.91,-244.86 -107.15,28.59 -210.84,-75.98 -222.02,-166.36 -6.08,-49.22 5.09,-60.88 -3.4,-102.86 -9.65,-47.61 -103.38,-156.44 19.55,-213.09 98.98,-4.87 16.75,4.48 46.44,-22.4 -19.88,-44.22 -43.73,-91.04 -18.78,-129.13l51.6 -6.96 -9.22 72.72 89.16 10.32c41.62,84.09 66.35,119.63 156.8,146.83 145.84,43.85 119.3,30.84 182.26,146.9l115.51 13.42c6.59,90.97 -21.87,-14.22 7.5,113.24 13.73,59.52 4.28,21.73 -14.15,66.57l34.72 -2.22c1.43,0.2 6.53,0.73 9.39,2.22 -20.46,73.49 -24.76,31.83 1.99,57.45 -33,30.93 -33.75,1.37 -49.77,35.53 15.89,5.44 -1.23,8.15 42.92,7.65 47.66,-0.55 29.25,15.32 16.24,-7.58l36.13 39.22c1.5,2.05 3.95,6.92 5.69,10.52l-80.52 18.05 22.92 26.7c11.4,74.81 45.3,103.51 -15.8,153.57 -66.04,47.37 -98.75,5.49 -161.29,-15.92z"/>
        <path class="fil7" d="M-16371.89 -484.45c81.19,-58.17 78.9,-115.35 220.81,-129.43 247.19,-24.53 507.31,184.09 626.25,397.31 95.31,170.88 106.08,403.48 -53.47,500.5 -184.38,112.11 -392.8,-35.23 -512.56,-94.71 -272.28,329.47 -700.78,-25.87 -834.67,-267.46 -252.4,-455.44 144.63,-694.58 553.64,-406.21z"/>
        <path class="fil8" d="M-14655.24 355.89c24.32,-105.66 49.74,-181.1 3.92,-301.44 -40.46,-106.15 -64.57,-102.16 -122.14,-146.78 -36.43,-28.21 -34.28,-27.01 -56.66,-49.28l38.06 -34.14c161.79,-140.68 198.08,-174.21 143.29,-448.01 334.38,60.72 326.15,-21.82 495.81,-208.46 89.98,215.91 205.28,259.71 477.1,203.59 -61.81,317.89 2.22,335.9 187.03,487.02 -22.28,21.71 -0.18,5.97 -51.22,45.89 -158.5,123.91 -184.66,197.02 -136.05,443.35 -285.87,-61.74 -360.22,-2.89 -478.66,193.59 -66.3,-57.01 -141.38,-319.23 -500.47,-185.33z"/>
        <path class="fil9" d="M-20454.55 -150.91c336.3,-80.52 368.33,-317.57 443.11,-427.32 40.91,136.73 67.53,178.04 151.79,265.37 143.63,148.88 180.26,103.21 268.59,174.26 -239.3,72.85 -341.44,189.63 -424.45,425.85 -73.25,-134.08 -48.42,-160.75 -156.84,-269.01 -115.04,-114.91 -137.71,-96.2 -282.2,-169.14z"/>
        <path class="fil7" d="M-20515.6 945.3c81.19,-58.17 78.9,-115.35 220.81,-129.44 247.19,-24.53 507.31,184.09 626.25,397.31 95.31,170.88 106.08,403.48 -53.47,500.5 -184.38,112.11 -392.8,-35.23 -512.56,-94.71 -272.28,329.47 -700.78,-25.87 -834.67,-267.46 -252.4,-455.44 144.63,-694.58 553.64,-406.21z"/>
        <path class="fil10" d="M-22747.51 1687.73c-280.56,-10.01 -484.58,-361.22 -277.37,-612.64 110.76,-134.41 177.88,-139.78 384.31,-156.52 145.08,-11.77 363.97,-42.97 501.52,-37.77 293.93,11.1 481.06,352.88 284.67,610.46 -94.74,124.28 -188.56,142.6 -386.05,158.47 -148.38,11.91 -365.79,43.05 -507.08,38z"/>
        <path class="fil8" d="M-18798.96 1785.64c24.32,-105.66 49.74,-181.1 3.92,-301.44 -40.46,-106.15 -64.57,-102.16 -122.14,-146.78 -36.43,-28.21 -34.28,-27.01 -56.66,-49.28l38.05 -34.14c161.79,-140.68 198.08,-174.21 143.29,-448.01 334.38,60.72 326.15,-21.82 495.81,-208.46 89.98,215.91 205.28,259.71 477.1,203.58 -61.81,317.89 2.22,335.9 187.03,487.02 -22.28,21.71 -0.18,5.97 -51.22,45.89 -158.5,123.91 -184.66,197.02 -136.05,443.35 -285.87,-61.74 -360.22,-2.9 -478.66,193.59 -66.3,-57.01 -141.38,-319.23 -500.47,-185.33z"/>
        <path class="fil9" d="M-24598.27 1278.84c336.3,-80.52 368.33,-317.57 443.11,-427.32 40.91,136.73 67.53,178.04 151.79,265.37 143.63,148.88 180.26,103.21 268.59,174.26 -239.3,72.85 -341.44,189.63 -424.45,425.85 -73.25,-134.08 -48.42,-160.75 -156.84,-269.01 -115.04,-114.91 -137.71,-96.2 -282.2,-169.14z"/>
        <path class="fil5" d="M-12600.82 1467.12c-71.6,-67.25 -115.95,-3.81 -228.59,-40.38 -63.13,-60.69 -42.94,-93.09 -87.93,-157.08 -42.15,-59.94 -66.68,-52.57 -96.73,-141.23 -1.39,-82.44 52.15,-91.44 92.4,-145.8 42.12,-56.9 46.95,-118.46 92.82,-169.98 69.92,-10.38 139.8,6 193.39,-10.18 57.23,-17.26 83.85,-67.21 148.33,-71.07 69.57,-4.15 103.34,48.91 149.87,67.03 69.09,26.91 122.61,-0.4 205.22,18.18 58.28,65.8 41.95,85.84 85.99,156.31 36.33,58.11 96.26,87.91 97.48,147.43 1.35,66.94 -65.64,100.19 -97.32,149.9 -43.6,68.4 -34.37,94.88 -84.2,159.93 -125.8,22.27 -148.59,-23.41 -252.88,43.91 -124.61,80.42 -123.2,23.43 -217.85,-6.97z"/>
        <path class="fil2" d="M-24283.3 -3017.08l-21.89 -9.61c-3.2,-1.28 -18.29,-7.05 -22.62,-8.82 -20.68,-8.51 -20.24,-3.44 -42.99,-19.59 -30.71,-21.8 -44.24,-53.3 -37.61,-98.53 8.33,-56.98 88.5,-121.04 125.58,-157.9 -31.34,-19.18 -104.24,-29.54 -123.8,-73.12 -11.46,-129.09 87.73,-182.56 154.21,-251.4 68.82,-71.24 141.83,-181.84 262.49,-58.19 105.54,-58.94 106.71,-100.19 216.95,1.12l19.26 -14.92c2.93,-2.22 26.54,-20.61 28.35,-21.69 82.31,-48.89 108.48,-8.11 169.36,36.04 69.3,-38.46 42.21,-70.63 154.96,-47.86 129.55,101.14 2.91,197.05 -66.13,259.56 27.75,26.27 102.1,43.16 118.28,92.98 6.24,105.7 -71.93,167.16 -128.14,203.62 3.07,2.45 8.73,8.79 10.4,5.64 1.65,-3.17 8.18,4.34 10.49,5.38l21.34 9.41c179.59,78.39 52.68,186.26 -23.89,260.59 -81.76,79.42 -139.05,178.02 -230.88,159.88l-75.63 -47.15c-1.65,-1.56 -5.05,-5.42 -7.76,-7.96 -38.22,33.28 -82.69,88.48 -164.82,40.65 -39.17,-22.82 -5.22,-13.95 -52.13,-38.97 -132.72,113.19 -126.04,37.45 -222.04,-2.62 -103.03,118.83 -180.03,32.21 -192.2,-6.08 -30.15,-94.67 75.98,-169.76 120.89,-210.47z"/>
        <path class="fil3" d="M-14411.74 -1355.03c-68.24,-47.48 -75.04,-94.94 -146.63,-124.01 -128.31,-47.33 -116.72,-26.61 -150.05,-169.18 -43.98,-188.21 -168.99,-116.41 12.21,-508.06 60.71,-131.24 133.1,-74.81 174.89,-160.23 77.53,-36.44 62.27,-96.02 186.04,-66.04 165,39.97 242.13,-73.52 400.42,66 44.75,39.46 79.25,108.78 114.89,162.31 40.62,281.93 21.21,101.16 74.59,239.21 40.19,103.94 -48.74,138.61 -67.45,223.98 -28.59,130.43 23.39,160.89 -93.15,216.02 -108.23,51.21 -100.14,85.6 -175.14,143.72 -87.93,11.15 -73.32,-15.25 -151.35,-25.73 -69.42,-9.32 -103.69,12.81 -179.26,2.01z"/>
        <path class="fil4" d="M-12465.98 -3013.6c-48.47,79.82 -40.89,192.81 -103.21,262.71 -200.93,1.61 -9.13,-211.79 23.5,-307.86 -124.92,119.61 -122.25,219.24 -248.61,200.7 -67.37,-132.35 54.54,-116.15 185.63,-262.18 -61.3,19.99 -104.22,50.59 -162.28,82.66 -155.49,85.9 -215.74,-59.23 -45.85,-108.67l154.7 -55.22c-97.63,0.59 -200.13,34.85 -278.67,-2.03 -50.1,-167.64 208.38,-91.9 315.71,-81.6 -81.8,-41.46 -345.31,-59.72 -276.51,-175.84 21.96,-23.85 13.67,-33.44 68.66,-22.07 39.92,8.24 164.07,92.49 226.92,112.27 -137.07,-141.67 -237.49,-130.7 -191.25,-264.45 88.06,-11.05 95.8,16.03 138.46,70.38 39.17,49.86 70.16,92.36 113.59,131.47 -37.85,-111.74 -154.74,-206.57 -92.5,-304.18 76.22,-10.74 94.88,14.95 113.88,83.83l52.6 156.15c1.57,2.89 4.41,7.87 7.03,11.53 -1.85,-91.86 -61.57,-288.48 44.09,-290.69 109.88,-2.29 45.32,211.72 43.67,290.16l37.47 -81.5c16.07,-53.32 40.54,-233.88 135.04,-159.64 48.05,37.76 22.86,78.74 -13.54,142.75 -28.77,50.59 -57.58,98.47 -78.45,151.99 35.29,-33.97 68.55,-73.12 107.93,-122.36 52.46,-65.56 34.92,-92.63 145.27,-81.58 38.24,90.16 12.01,97.63 -50.79,144.93 -43.89,33.06 -110.06,88.41 -140.53,121.24 162.57,-62.87 235.88,-168.39 295.27,-90.18 43.87,67.94 -12.7,91.11 -74.84,110.31 -52.02,16.05 -121.9,29.93 -167.09,60.05 94.23,-0.7 209.3,-35.53 283.35,2.07 40.29,167.04 -157.81,89.14 -281.08,86.56 13.78,9.21 2.71,4.94 34.14,18.89 18.01,8 15.19,6.72 35.91,13.69 43.84,14.75 234.5,44.28 180.07,137.57 -90.29,70.69 -195.52,-54.01 -303.76,-88.95 89.03,97.3 273.58,172.66 187.13,250.81 -78.3,46.6 -110.5,-23.43 -150.62,-73.43 -15.58,-19.4 -102.19,-118.5 -110,-137.49 32.56,103.25 238.18,326.48 34.68,330.96 -55.9,-68.55 -64.13,-187.88 -103.76,-264.56 -3.02,95.49 60.68,296.88 -46.05,298.07 -111.89,1.24 -42.7,-222.61 -45.32,-297.25z"/>
        <path class="fil5" d="M-22013.12 -2902.62c-71.6,-67.25 -115.95,-3.81 -228.59,-40.38 -63.13,-60.69 -42.94,-93.09 -87.93,-157.08 -42.15,-59.94 -66.68,-52.57 -96.73,-141.23 -1.39,-82.44 52.15,-91.44 92.4,-145.8 42.12,-56.9 46.95,-118.46 92.82,-169.98 69.92,-10.38 139.8,6 193.39,-10.18 57.23,-17.26 83.85,-67.21 148.33,-71.07 69.57,-4.15 103.34,48.91 149.87,67.03 69.09,26.91 122.61,-0.4 205.22,18.18 58.28,65.8 41.95,85.84 85.99,156.31 36.33,58.11 96.26,87.91 97.48,147.43 1.35,66.94 -65.64,100.19 -97.32,149.9 -43.6,68.4 -34.37,94.88 -84.2,159.93 -125.8,22.27 -148.59,-23.41 -252.88,43.91 -124.61,80.42 -123.2,23.43 -217.85,-6.97z"/>
        <path class="fil6" d="M-19872.75 -2726.27l-36.97 -9.54c-123,-6.31 -220.98,-34.59 -226.91,-244.86 -107.15,28.59 -210.84,-75.98 -222.02,-166.36 -6.08,-49.22 5.09,-60.88 -3.4,-102.87 -9.65,-47.61 -103.38,-156.44 19.55,-213.09 98.98,-4.87 16.75,4.48 46.43,-22.4 -19.88,-44.22 -43.73,-91.04 -18.78,-129.13l51.6 -6.96 -9.22 72.72 89.16 10.32c41.62,84.09 66.35,119.63 156.8,146.83 145.84,43.85 119.3,30.84 182.26,146.9l115.51 13.42c6.59,90.97 -21.87,-14.22 7.5,113.24 13.73,59.52 4.28,21.73 -14.15,66.57l34.72 -2.21c1.43,0.2 6.53,0.73 9.39,2.21 -20.46,73.49 -24.76,31.83 1.99,57.45 -33,30.93 -33.75,1.37 -49.77,35.53 15.89,5.44 -1.23,8.15 42.92,7.65 47.66,-0.55 29.25,15.32 16.23,-7.58l36.13 39.22c1.5,2.05 3.95,6.92 5.69,10.52l-80.52 18.05 22.92 26.7c11.4,74.81 45.3,103.51 -15.8,153.56 -66.04,47.37 -98.75,5.49 -161.29,-15.92z"/>
        <path class="fil7" d="M-16329.95 -3585.48c81.19,-58.17 78.9,-115.36 220.81,-129.44 247.19,-24.53 507.31,184.09 626.25,397.31 95.31,170.88 106.08,403.48 -53.47,500.5 -184.38,112.11 -392.8,-35.23 -512.56,-94.71 -272.28,329.47 -700.78,-25.87 -834.67,-267.46 -252.4,-455.44 144.63,-694.58 553.64,-406.21z"/>
        <path class="fil11" d="M-18561.86 -2843.05c-280.56,-10.01 -484.58,-361.22 -277.37,-612.64 110.76,-134.41 177.88,-139.78 384.31,-156.52 145.09,-11.77 363.97,-42.97 501.52,-37.77 293.93,11.1 481.06,352.88 284.67,610.46 -94.74,124.28 -188.56,142.6 -386.05,158.47 -148.38,11.91 -365.79,43.05 -507.08,38z"/>
        <path class="fil8" d="M-14613.31 -2745.14c24.32,-105.66 49.74,-181.1 3.92,-301.44 -40.46,-106.15 -64.57,-102.16 -122.14,-146.78 -36.43,-28.21 -34.28,-27.01 -56.66,-49.28l38.05 -34.14c161.79,-140.68 198.08,-174.21 143.29,-448.01 334.38,60.72 326.15,-21.82 495.81,-208.46 89.98,215.91 205.28,259.71 477.1,203.59 -61.81,317.89 2.22,335.9 187.03,487.02 -22.27,21.71 -0.18,5.97 -51.22,45.89 -158.5,123.91 -184.66,197.02 -136.05,443.35 -285.87,-61.74 -360.22,-2.89 -478.66,193.59 -66.3,-57.01 -141.38,-319.23 -500.47,-185.33z"/>
        <path class="fil9" d="M-16592.77 -1881.79c336.3,-80.52 368.33,-317.57 443.11,-427.32 40.91,136.73 67.53,178.04 151.79,265.37 143.63,148.88 180.26,103.21 268.59,174.26 -239.3,72.85 -341.44,189.63 -424.45,425.85 -73.25,-134.08 -48.42,-160.75 -156.84,-269.01 -115.04,-114.91 -137.71,-96.2 -282.2,-169.14z"/>
        <path class="fil7" d="M-20117.57 -2041.83c81.19,-58.17 78.9,-115.35 220.81,-129.44 247.19,-24.53 507.31,184.09 626.25,397.31 95.31,170.88 106.08,403.48 -53.47,500.5 -184.38,112.11 -392.8,-35.23 -512.56,-94.71 -272.28,329.47 -700.78,-25.87 -834.67,-267.46 -252.4,-455.44 144.63,-694.58 553.64,-406.21z"/>
        <path class="fil10" d="M-22349.47 -1299.39c-280.56,-10.01 -484.58,-361.22 -277.37,-612.64 110.76,-134.41 177.88,-139.78 384.31,-156.52 145.09,-11.77 363.97,-42.97 501.52,-37.77 293.93,11.1 481.06,352.88 284.67,610.46 -94.74,124.28 -188.56,142.6 -386.05,158.47 -148.38,11.91 -365.79,43.05 -507.08,38z"/>
        <path class="fil8" d="M-18400.92 -1201.48c24.32,-105.66 49.74,-181.1 3.92,-301.44 -40.46,-106.15 -64.57,-102.16 -122.14,-146.78 -36.43,-28.21 -34.28,-27.01 -56.66,-49.28l38.06 -34.14c161.79,-140.68 198.08,-174.21 143.29,-448.01 334.38,60.72 326.15,-21.82 495.81,-208.46 89.98,215.91 205.28,259.71 477.1,203.58 -61.81,317.89 2.22,335.9 187.03,487.02 -22.28,21.71 -0.18,5.97 -51.22,45.89 -158.5,123.91 -184.66,197.02 -136.05,443.35 -285.87,-61.74 -360.22,-2.9 -478.66,193.59 -66.3,-57.01 -141.38,-319.23 -500.47,-185.33z"/>
        <path class="fil9" d="M-24200.23 -1708.29c336.3,-80.52 368.33,-317.57 443.11,-427.32 40.91,136.73 67.53,178.04 151.79,265.37 143.63,148.88 180.26,103.21 268.59,174.26 -239.3,72.85 -341.44,189.63 -424.45,425.85 -73.25,-134.08 -48.42,-160.75 -156.84,-269.01 -115.04,-114.91 -137.71,-96.2 -282.2,-169.14z"/>
        <path class="fil5" d="M-12202.79 -1520c-71.6,-67.25 -115.95,-3.81 -228.59,-40.38 -63.13,-60.69 -42.94,-93.09 -87.93,-157.08 -42.15,-59.94 -66.68,-52.57 -96.73,-141.23 -1.39,-82.44 52.15,-91.44 92.4,-145.8 42.12,-56.9 46.95,-118.46 92.82,-169.98 69.92,-10.38 139.8,6 193.39,-10.18 57.23,-17.26 83.85,-67.21 148.33,-71.07 69.57,-4.15 103.34,48.91 149.87,67.03 69.1,26.91 122.61,-0.4 205.22,18.18 58.28,65.8 41.95,85.84 85.99,156.31 36.33,58.11 96.26,87.91 97.48,147.43 1.35,66.94 -65.64,100.19 -97.32,149.9 -43.6,68.4 -34.37,94.88 -84.2,159.93 -125.8,22.27 -148.59,-23.41 -252.88,43.91 -124.61,80.42 -123.2,23.43 -217.85,-6.97z"/>
        <path class="fil11" d="M-18382.12 172.42c-280.56,-10.01 -484.58,-361.22 -277.37,-612.64 110.76,-134.41 177.88,-139.78 384.31,-156.52 145.08,-11.77 363.97,-42.97 501.52,-37.77 293.93,11.1 481.06,352.88 284.67,610.46 -94.74,124.28 -188.56,142.6 -386.05,158.47 -148.38,11.91 -365.79,43.05 -507.08,38z"/>
       </g>
      </g>
     </g>
     <path class="fil14" d="M415.65 330.91l-1.98 -27.89 3.92 -0.29c8.45,-0.63 15.94,1.85 22.35,7.38 6.41,5.54 9.95,12.59 10.56,21.04l8.01 111.48c0.64,8.85 -2.14,16.7 -8.2,23.17 -6.06,6.48 -13.7,9.78 -22.57,9.74l-78.41 -0.35c-16.1,-0.07 -29.34,-12.46 -30.49,-28.51l-1.56 -21.75c-0.89,-12.35 5.2,-23.4 16.1,-29.25l66.17 -35.53c10.9,-5.85 16.98,-16.89 16.11,-29.23z"/>
    </g>
    <g>
     <path class="fil13" d="M274.73 417.16l27.89 -1.98 0.29 3.92c0.63,8.45 -1.85,15.94 -7.38,22.35 -5.54,6.41 -12.59,9.95 -21.04,10.56l-111.48 8.01c-8.84,0.64 -16.7,-2.14 -23.17,-8.2 -6.48,-6.06 -9.78,-13.7 -9.74,-22.57l0.35 -78.41c0.07,-16.09 12.46,-29.34 28.51,-30.49l21.75 -1.56c12.35,-0.89 23.4,5.2 29.25,16.1l35.53 66.17c5.85,10.9 16.89,16.98 29.23,16.1z"/>
     <g style="clip-path:url(#id3)">
      <g>
       <g>
        <path id="_1_30" class="fil2" d="M-24325.24 230.57l-21.89 -9.61c-3.2,-1.28 -18.29,-7.05 -22.62,-8.82 -20.68,-8.51 -20.24,-3.44 -42.99,-19.58 -30.71,-21.8 -44.24,-53.3 -37.61,-98.53 8.33,-56.98 88.5,-121.04 125.58,-157.9 -31.33,-19.18 -104.24,-29.54 -123.8,-73.12 -11.46,-129.09 87.73,-182.56 154.21,-251.4 68.82,-71.24 141.83,-181.84 262.49,-58.19 105.54,-58.94 106.71,-100.19 216.95,1.12l19.26 -14.92c2.93,-2.21 26.54,-20.61 28.35,-21.69 82.31,-48.89 108.48,-8.11 169.36,36.04 69.3,-38.46 42.21,-70.63 154.96,-47.86 129.55,101.14 2.91,197.05 -66.13,259.56 27.75,26.27 102.1,43.16 118.28,92.98 6.24,105.7 -71.93,167.16 -128.14,203.63 3.07,2.45 8.73,8.79 10.4,5.64 1.65,-3.17 8.18,4.34 10.49,5.38l21.34 9.41c179.59,78.39 52.68,186.25 -23.89,260.58 -81.76,79.42 -139.05,178.02 -230.88,159.88l-75.63 -47.15c-1.65,-1.56 -5.05,-5.42 -7.76,-7.96 -38.22,33.28 -82.69,88.48 -164.82,40.65 -39.17,-22.82 -5.22,-13.95 -52.13,-38.97 -132.72,113.19 -126.04,37.45 -222.04,-2.62 -103.03,118.83 -180.03,32.21 -192.2,-6.08 -30.15,-94.67 75.98,-169.76 120.89,-210.47z"/>
        <path class="fil3" d="M-14809.78 1632.09c-68.23,-47.48 -75.04,-94.94 -146.63,-124.01 -128.31,-47.33 -116.72,-26.61 -150.05,-169.18 -43.98,-188.21 -168.99,-116.41 12.21,-508.06 60.71,-131.24 133.1,-74.81 174.89,-160.23 77.53,-36.44 62.27,-96.02 186.03,-66.04 165,39.97 242.14,-73.52 400.42,66 44.75,39.46 79.25,108.78 114.89,162.31 40.62,281.93 21.21,101.16 74.59,239.21 40.19,103.94 -48.74,138.61 -67.45,223.98 -28.59,130.43 23.39,160.89 -93.15,216.02 -108.23,51.21 -100.14,85.6 -175.14,143.72 -87.93,11.15 -73.32,-15.25 -151.35,-25.73 -69.42,-9.32 -103.69,12.81 -179.26,2.01z"/>
        <path class="fil4" d="M-12000.23 -58.46c-48.47,79.82 -40.89,192.81 -103.21,262.71 -200.93,1.61 -9.13,-211.79 23.5,-307.86 -124.92,119.61 -122.25,219.24 -248.61,200.7 -67.37,-132.35 54.54,-116.15 185.63,-262.18 -61.3,19.99 -104.22,50.59 -162.28,82.66 -155.49,85.9 -215.74,-59.23 -45.85,-108.67l154.7 -55.22c-97.63,0.59 -200.13,34.85 -278.67,-2.03 -50.1,-167.64 208.38,-91.9 315.71,-81.6 -81.8,-41.46 -345.31,-59.72 -276.51,-175.84 21.96,-23.85 13.67,-33.44 68.66,-22.07 39.92,8.24 164.07,92.49 226.92,112.27 -137.07,-141.67 -237.49,-130.7 -191.25,-264.45 88.06,-11.06 95.8,16.03 138.46,70.38 39.17,49.86 70.16,92.36 113.59,131.47 -37.85,-111.74 -154.74,-206.57 -92.51,-304.18 76.22,-10.74 94.88,14.95 113.88,83.83l52.6 156.15c1.57,2.89 4.41,7.87 7.03,11.53 -1.85,-91.87 -61.57,-288.48 44.09,-290.69 109.87,-2.29 45.32,211.71 43.67,290.16l37.47 -81.51c16.07,-53.32 40.54,-233.88 135.04,-159.64 48.05,37.76 22.86,78.74 -13.54,142.75 -28.77,50.59 -57.58,98.47 -78.45,151.99 35.29,-33.97 68.55,-73.12 107.94,-122.36 52.46,-65.56 34.92,-92.63 145.27,-81.58 38.24,90.16 12.01,97.63 -50.79,144.93 -43.89,33.06 -110.06,88.41 -140.53,121.24 162.57,-62.87 235.88,-168.39 295.27,-90.18 43.87,67.94 -12.7,91.11 -74.84,110.31 -52.02,16.05 -121.9,29.93 -167.09,60.05 94.23,-0.7 209.3,-35.53 283.35,2.07 40.29,167.04 -157.81,89.14 -281.08,86.56 13.78,9.21 2.71,4.94 34.14,18.89 18.01,8 15.19,6.72 35.91,13.69 43.84,14.75 234.5,44.28 180.07,137.57 -90.29,70.69 -195.52,-54.01 -303.76,-88.95 89.03,97.3 273.58,172.66 187.13,250.81 -78.3,46.6 -110.5,-23.43 -150.62,-73.43 -15.58,-19.4 -102.19,-118.5 -110,-137.49 32.56,103.25 238.18,326.48 34.69,330.96 -55.9,-68.55 -64.13,-187.88 -103.76,-264.56 -3.02,95.49 60.68,296.88 -46.05,298.07 -111.89,1.24 -42.7,-222.61 -45.32,-297.25z"/>
        <path class="fil5" d="M-22055.05 215.66c-71.6,-67.25 -115.95,-3.81 -228.59,-40.38 -63.13,-60.69 -42.94,-93.09 -87.93,-157.08 -42.15,-59.94 -66.68,-52.57 -96.73,-141.23 -1.39,-82.44 52.15,-91.44 92.4,-145.8 42.12,-56.9 46.95,-118.46 92.82,-169.98 69.92,-10.38 139.8,6 193.39,-10.18 57.23,-17.26 83.85,-67.21 148.33,-71.07 69.57,-4.15 103.34,48.91 149.87,67.03 69.1,26.91 122.61,-0.4 205.22,18.18 58.28,65.8 41.95,85.84 85.99,156.31 36.33,58.11 96.26,87.91 97.48,147.43 1.35,66.94 -65.64,100.19 -97.32,149.9 -43.6,68.4 -34.37,94.88 -84.2,159.93 -125.8,22.27 -148.59,-23.41 -252.88,43.91 -124.61,80.42 -123.2,23.43 -217.85,-6.97z"/>
        <path class="fil6" d="M-16200.6 1642.61l-36.97 -9.54c-123,-6.32 -220.98,-34.59 -226.91,-244.86 -107.15,28.59 -210.84,-75.98 -222.02,-166.36 -6.08,-49.22 5.09,-60.88 -3.4,-102.86 -9.65,-47.61 -103.38,-156.44 19.55,-213.09 98.98,-4.87 16.75,4.48 46.44,-22.4 -19.88,-44.22 -43.73,-91.04 -18.78,-129.13l51.6 -6.96 -9.22 72.72 89.16 10.32c41.62,84.09 66.35,119.63 156.8,146.83 145.84,43.85 119.3,30.84 182.26,146.9l115.51 13.42c6.59,90.97 -21.87,-14.22 7.5,113.24 13.73,59.52 4.28,21.73 -14.15,66.57l34.72 -2.22c1.43,0.2 6.53,0.73 9.39,2.22 -20.46,73.49 -24.76,31.83 1.99,57.45 -33,30.93 -33.75,1.37 -49.77,35.53 15.89,5.44 -1.23,8.15 42.92,7.65 47.66,-0.55 29.25,15.32 16.24,-7.58l36.13 39.22c1.5,2.05 3.95,6.92 5.69,10.52l-80.52 18.05 22.92 26.7c11.4,74.81 45.3,103.51 -15.8,153.57 -66.04,47.37 -98.75,5.49 -161.29,-15.92z"/>
        <path class="fil7" d="M-16371.89 -484.45c81.19,-58.17 78.9,-115.35 220.81,-129.43 247.19,-24.53 507.31,184.09 626.25,397.31 95.31,170.88 106.08,403.48 -53.47,500.5 -184.38,112.11 -392.8,-35.23 -512.56,-94.71 -272.28,329.47 -700.78,-25.87 -834.67,-267.46 -252.4,-455.44 144.63,-694.58 553.64,-406.21z"/>
        <path class="fil8" d="M-14655.24 355.89c24.32,-105.66 49.74,-181.1 3.92,-301.44 -40.46,-106.15 -64.57,-102.16 -122.14,-146.78 -36.43,-28.21 -34.28,-27.01 -56.66,-49.28l38.06 -34.14c161.79,-140.68 198.08,-174.21 143.29,-448.01 334.38,60.72 326.15,-21.82 495.81,-208.46 89.98,215.91 205.28,259.71 477.1,203.59 -61.81,317.89 2.22,335.9 187.03,487.02 -22.28,21.71 -0.18,5.97 -51.22,45.89 -158.5,123.91 -184.66,197.02 -136.05,443.35 -285.87,-61.74 -360.22,-2.89 -478.66,193.59 -66.3,-57.01 -141.38,-319.23 -500.47,-185.33z"/>
        <path class="fil9" d="M-20454.55 -150.91c336.3,-80.52 368.33,-317.57 443.11,-427.32 40.91,136.73 67.53,178.04 151.79,265.37 143.63,148.88 180.26,103.21 268.59,174.26 -239.3,72.85 -341.44,189.63 -424.45,425.85 -73.25,-134.08 -48.42,-160.75 -156.84,-269.01 -115.04,-114.91 -137.71,-96.2 -282.2,-169.14z"/>
        <path class="fil7" d="M-20515.6 945.3c81.19,-58.17 78.9,-115.35 220.81,-129.44 247.19,-24.53 507.31,184.09 626.25,397.31 95.31,170.88 106.08,403.48 -53.47,500.5 -184.38,112.11 -392.8,-35.23 -512.56,-94.71 -272.28,329.47 -700.78,-25.87 -834.67,-267.46 -252.4,-455.44 144.63,-694.58 553.64,-406.21z"/>
        <path class="fil10" d="M-22747.51 1687.73c-280.56,-10.01 -484.58,-361.22 -277.37,-612.64 110.76,-134.41 177.88,-139.78 384.31,-156.52 145.08,-11.77 363.97,-42.97 501.52,-37.77 293.93,11.1 481.06,352.88 284.67,610.46 -94.74,124.28 -188.56,142.6 -386.05,158.47 -148.38,11.91 -365.79,43.05 -507.08,38z"/>
        <path class="fil8" d="M-18798.96 1785.64c24.32,-105.66 49.74,-181.1 3.92,-301.44 -40.46,-106.15 -64.57,-102.16 -122.14,-146.78 -36.43,-28.21 -34.28,-27.01 -56.66,-49.28l38.05 -34.14c161.79,-140.68 198.08,-174.21 143.29,-448.01 334.38,60.72 326.15,-21.82 495.81,-208.46 89.98,215.91 205.28,259.71 477.1,203.58 -61.81,317.89 2.22,335.9 187.03,487.02 -22.28,21.71 -0.18,5.97 -51.22,45.89 -158.5,123.91 -184.66,197.02 -136.05,443.35 -285.87,-61.74 -360.22,-2.9 -478.66,193.59 -66.3,-57.01 -141.38,-319.23 -500.47,-185.33z"/>
        <path class="fil9" d="M-24598.27 1278.84c336.3,-80.52 368.33,-317.57 443.11,-427.32 40.91,136.73 67.53,178.04 151.79,265.37 143.63,148.88 180.26,103.21 268.59,174.26 -239.3,72.85 -341.44,189.63 -424.45,425.85 -73.25,-134.08 -48.42,-160.75 -156.84,-269.01 -115.04,-114.91 -137.71,-96.2 -282.2,-169.14z"/>
        <path class="fil5" d="M-12600.82 1467.12c-71.6,-67.25 -115.95,-3.81 -228.59,-40.38 -63.13,-60.69 -42.94,-93.09 -87.93,-157.08 -42.15,-59.94 -66.68,-52.57 -96.73,-141.23 -1.39,-82.44 52.15,-91.44 92.4,-145.8 42.12,-56.9 46.95,-118.46 92.82,-169.98 69.92,-10.38 139.8,6 193.39,-10.18 57.23,-17.26 83.85,-67.21 148.33,-71.07 69.57,-4.15 103.34,48.91 149.87,67.03 69.09,26.91 122.61,-0.4 205.22,18.18 58.28,65.8 41.95,85.84 85.99,156.31 36.33,58.11 96.26,87.91 97.48,147.43 1.35,66.94 -65.64,100.19 -97.32,149.9 -43.6,68.4 -34.37,94.88 -84.2,159.93 -125.8,22.27 -148.59,-23.41 -252.88,43.91 -124.61,80.42 -123.2,23.43 -217.85,-6.97z"/>
        <path class="fil2" d="M-24283.3 -3017.08l-21.89 -9.61c-3.2,-1.28 -18.29,-7.05 -22.62,-8.82 -20.68,-8.51 -20.24,-3.44 -42.99,-19.59 -30.71,-21.8 -44.24,-53.3 -37.61,-98.53 8.33,-56.98 88.5,-121.04 125.58,-157.9 -31.34,-19.18 -104.24,-29.54 -123.8,-73.12 -11.46,-129.09 87.73,-182.56 154.21,-251.4 68.82,-71.24 141.83,-181.84 262.49,-58.19 105.54,-58.94 106.71,-100.19 216.95,1.12l19.26 -14.92c2.93,-2.22 26.54,-20.61 28.35,-21.69 82.31,-48.89 108.48,-8.11 169.36,36.04 69.3,-38.46 42.21,-70.63 154.96,-47.86 129.55,101.14 2.91,197.05 -66.13,259.56 27.75,26.27 102.1,43.16 118.28,92.98 6.24,105.7 -71.93,167.16 -128.14,203.62 3.07,2.45 8.73,8.79 10.4,5.64 1.65,-3.17 8.18,4.34 10.49,5.38l21.34 9.41c179.59,78.39 52.68,186.26 -23.89,260.59 -81.76,79.42 -139.05,178.02 -230.88,159.88l-75.63 -47.15c-1.65,-1.56 -5.05,-5.42 -7.76,-7.96 -38.22,33.28 -82.69,88.48 -164.82,40.65 -39.17,-22.82 -5.22,-13.95 -52.13,-38.97 -132.72,113.19 -126.04,37.45 -222.04,-2.62 -103.03,118.83 -180.03,32.21 -192.2,-6.08 -30.15,-94.67 75.98,-169.76 120.89,-210.47z"/>
        <path class="fil3" d="M-14411.74 -1355.03c-68.24,-47.48 -75.04,-94.94 -146.63,-124.01 -128.31,-47.33 -116.72,-26.61 -150.05,-169.18 -43.98,-188.21 -168.99,-116.41 12.21,-508.06 60.71,-131.24 133.1,-74.81 174.89,-160.23 77.53,-36.44 62.27,-96.02 186.04,-66.04 165,39.97 242.13,-73.52 400.42,66 44.75,39.46 79.25,108.78 114.89,162.31 40.62,281.93 21.21,101.16 74.59,239.21 40.19,103.94 -48.74,138.61 -67.45,223.98 -28.59,130.43 23.39,160.89 -93.15,216.02 -108.23,51.21 -100.14,85.6 -175.14,143.72 -87.93,11.15 -73.32,-15.25 -151.35,-25.73 -69.42,-9.32 -103.69,12.81 -179.26,2.01z"/>
        <path class="fil4" d="M-12465.98 -3013.6c-48.47,79.82 -40.89,192.81 -103.21,262.71 -200.93,1.61 -9.13,-211.79 23.5,-307.86 -124.92,119.61 -122.25,219.24 -248.61,200.7 -67.37,-132.35 54.54,-116.15 185.63,-262.18 -61.3,19.99 -104.22,50.59 -162.28,82.66 -155.49,85.9 -215.74,-59.23 -45.85,-108.67l154.7 -55.22c-97.63,0.59 -200.13,34.85 -278.67,-2.03 -50.1,-167.64 208.38,-91.9 315.71,-81.6 -81.8,-41.46 -345.31,-59.72 -276.51,-175.84 21.96,-23.85 13.67,-33.44 68.66,-22.07 39.92,8.24 164.07,92.49 226.92,112.27 -137.07,-141.67 -237.49,-130.7 -191.25,-264.45 88.06,-11.05 95.8,16.03 138.46,70.38 39.17,49.86 70.16,92.36 113.59,131.47 -37.85,-111.74 -154.74,-206.57 -92.5,-304.18 76.22,-10.74 94.88,14.95 113.88,83.83l52.6 156.15c1.57,2.89 4.41,7.87 7.03,11.53 -1.85,-91.86 -61.57,-288.48 44.09,-290.69 109.88,-2.29 45.32,211.72 43.67,290.16l37.47 -81.5c16.07,-53.32 40.54,-233.88 135.04,-159.64 48.05,37.76 22.86,78.74 -13.54,142.75 -28.77,50.59 -57.58,98.47 -78.45,151.99 35.29,-33.97 68.55,-73.12 107.93,-122.36 52.46,-65.56 34.92,-92.63 145.27,-81.58 38.24,90.16 12.01,97.63 -50.79,144.93 -43.89,33.06 -110.06,88.41 -140.53,121.24 162.57,-62.87 235.88,-168.39 295.27,-90.18 43.87,67.94 -12.7,91.11 -74.84,110.31 -52.02,16.05 -121.9,29.93 -167.09,60.05 94.23,-0.7 209.3,-35.53 283.35,2.07 40.29,167.04 -157.81,89.14 -281.08,86.56 13.78,9.21 2.71,4.94 34.14,18.89 18.01,8 15.19,6.72 35.91,13.69 43.84,14.75 234.5,44.28 180.07,137.57 -90.29,70.69 -195.52,-54.01 -303.76,-88.95 89.03,97.3 273.58,172.66 187.13,250.81 -78.3,46.6 -110.5,-23.43 -150.62,-73.43 -15.58,-19.4 -102.19,-118.5 -110,-137.49 32.56,103.25 238.18,326.48 34.68,330.96 -55.9,-68.55 -64.13,-187.88 -103.76,-264.56 -3.02,95.49 60.68,296.88 -46.05,298.07 -111.89,1.24 -42.7,-222.61 -45.32,-297.25z"/>
        <path class="fil5" d="M-22013.12 -2902.62c-71.6,-67.25 -115.95,-3.81 -228.59,-40.38 -63.13,-60.69 -42.94,-93.09 -87.93,-157.08 -42.15,-59.94 -66.68,-52.57 -96.73,-141.23 -1.39,-82.44 52.15,-91.44 92.4,-145.8 42.12,-56.9 46.95,-118.46 92.82,-169.98 69.92,-10.38 139.8,6 193.39,-10.18 57.23,-17.26 83.85,-67.21 148.33,-71.07 69.57,-4.15 103.34,48.91 149.87,67.03 69.09,26.91 122.61,-0.4 205.22,18.18 58.28,65.8 41.95,85.84 85.99,156.31 36.33,58.11 96.26,87.91 97.48,147.43 1.35,66.94 -65.64,100.19 -97.32,149.9 -43.6,68.4 -34.37,94.88 -84.2,159.93 -125.8,22.27 -148.59,-23.41 -252.88,43.91 -124.61,80.42 -123.2,23.43 -217.85,-6.97z"/>
        <path class="fil6" d="M-19872.75 -2726.27l-36.97 -9.54c-123,-6.31 -220.98,-34.59 -226.91,-244.86 -107.15,28.59 -210.84,-75.98 -222.02,-166.36 -6.08,-49.22 5.09,-60.88 -3.4,-102.87 -9.65,-47.61 -103.38,-156.44 19.55,-213.09 98.98,-4.87 16.75,4.48 46.43,-22.4 -19.88,-44.22 -43.73,-91.04 -18.78,-129.13l51.6 -6.96 -9.22 72.72 89.16 10.32c41.62,84.09 66.35,119.63 156.8,146.83 145.84,43.85 119.3,30.84 182.26,146.9l115.51 13.42c6.59,90.97 -21.87,-14.22 7.5,113.24 13.73,59.52 4.28,21.73 -14.15,66.57l34.72 -2.21c1.43,0.2 6.53,0.73 9.39,2.21 -20.46,73.49 -24.76,31.83 1.99,57.45 -33,30.93 -33.75,1.37 -49.77,35.53 15.89,5.44 -1.23,8.15 42.92,7.65 47.66,-0.55 29.25,15.32 16.23,-7.58l36.13 39.22c1.5,2.05 3.95,6.92 5.69,10.52l-80.52 18.05 22.92 26.7c11.4,74.81 45.3,103.51 -15.8,153.56 -66.04,47.37 -98.75,5.49 -161.29,-15.92z"/>
        <path class="fil7" d="M-16329.95 -3585.48c81.19,-58.17 78.9,-115.36 220.81,-129.44 247.19,-24.53 507.31,184.09 626.25,397.31 95.31,170.88 106.08,403.48 -53.47,500.5 -184.38,112.11 -392.8,-35.23 -512.56,-94.71 -272.28,329.47 -700.78,-25.87 -834.67,-267.46 -252.4,-455.44 144.63,-694.58 553.64,-406.21z"/>
        <path class="fil11" d="M-18561.86 -2843.05c-280.56,-10.01 -484.58,-361.22 -277.37,-612.64 110.76,-134.41 177.88,-139.78 384.31,-156.52 145.09,-11.77 363.97,-42.97 501.52,-37.77 293.93,11.1 481.06,352.88 284.67,610.46 -94.74,124.28 -188.56,142.6 -386.05,158.47 -148.38,11.91 -365.79,43.05 -507.08,38z"/>
        <path class="fil8" d="M-14613.31 -2745.14c24.32,-105.66 49.74,-181.1 3.92,-301.44 -40.46,-106.15 -64.57,-102.16 -122.14,-146.78 -36.43,-28.21 -34.28,-27.01 -56.66,-49.28l38.05 -34.14c161.79,-140.68 198.08,-174.21 143.29,-448.01 334.38,60.72 326.15,-21.82 495.81,-208.46 89.98,215.91 205.28,259.71 477.1,203.59 -61.81,317.89 2.22,335.9 187.03,487.02 -22.27,21.71 -0.18,5.97 -51.22,45.89 -158.5,123.91 -184.66,197.02 -136.05,443.35 -285.87,-61.74 -360.22,-2.89 -478.66,193.59 -66.3,-57.01 -141.38,-319.23 -500.47,-185.33z"/>
        <path class="fil9" d="M-16592.77 -1881.79c336.3,-80.52 368.33,-317.57 443.11,-427.32 40.91,136.73 67.53,178.04 151.79,265.37 143.63,148.88 180.26,103.21 268.59,174.26 -239.3,72.85 -341.44,189.63 -424.45,425.85 -73.25,-134.08 -48.42,-160.75 -156.84,-269.01 -115.04,-114.91 -137.71,-96.2 -282.2,-169.14z"/>
        <path class="fil7" d="M-20117.57 -2041.83c81.19,-58.17 78.9,-115.35 220.81,-129.44 247.19,-24.53 507.31,184.09 626.25,397.31 95.31,170.88 106.08,403.48 -53.47,500.5 -184.38,112.11 -392.8,-35.23 -512.56,-94.71 -272.28,329.47 -700.78,-25.87 -834.67,-267.46 -252.4,-455.44 144.63,-694.58 553.64,-406.21z"/>
        <path class="fil10" d="M-22349.47 -1299.39c-280.56,-10.01 -484.58,-361.22 -277.37,-612.64 110.76,-134.41 177.88,-139.78 384.31,-156.52 145.09,-11.77 363.97,-42.97 501.52,-37.77 293.93,11.1 481.06,352.88 284.67,610.46 -94.74,124.28 -188.56,142.6 -386.05,158.47 -148.38,11.91 -365.79,43.05 -507.08,38z"/>
        <path class="fil8" d="M-18400.92 -1201.48c24.32,-105.66 49.74,-181.1 3.92,-301.44 -40.46,-106.15 -64.57,-102.16 -122.14,-146.78 -36.43,-28.21 -34.28,-27.01 -56.66,-49.28l38.06 -34.14c161.79,-140.68 198.08,-174.21 143.29,-448.01 334.38,60.72 326.15,-21.82 495.81,-208.46 89.98,215.91 205.28,259.71 477.1,203.58 -61.81,317.89 2.22,335.9 187.03,487.02 -22.28,21.71 -0.18,5.97 -51.22,45.89 -158.5,123.91 -184.66,197.02 -136.05,443.35 -285.87,-61.74 -360.22,-2.9 -478.66,193.59 -66.3,-57.01 -141.38,-319.23 -500.47,-185.33z"/>
        <path class="fil9" d="M-24200.23 -1708.29c336.3,-80.52 368.33,-317.57 443.11,-427.32 40.91,136.73 67.53,178.04 151.79,265.37 143.63,148.88 180.26,103.21 268.59,174.26 -239.3,72.85 -341.44,189.63 -424.45,425.85 -73.25,-134.08 -48.42,-160.75 -156.84,-269.01 -115.04,-114.91 -137.71,-96.2 -282.2,-169.14z"/>
        <path class="fil5" d="M-12202.79 -1520c-71.6,-67.25 -115.95,-3.81 -228.59,-40.38 -63.13,-60.69 -42.94,-93.09 -87.93,-157.08 -42.15,-59.94 -66.68,-52.57 -96.73,-141.23 -1.39,-82.44 52.15,-91.44 92.4,-145.8 42.12,-56.9 46.95,-118.46 92.82,-169.98 69.92,-10.38 139.8,6 193.39,-10.18 57.23,-17.26 83.85,-67.21 148.33,-71.07 69.57,-4.15 103.34,48.91 149.87,67.03 69.1,26.91 122.61,-0.4 205.22,18.18 58.28,65.8 41.95,85.84 85.99,156.31 36.33,58.11 96.26,87.91 97.48,147.43 1.35,66.94 -65.64,100.19 -97.32,149.9 -43.6,68.4 -34.37,94.88 -84.2,159.93 -125.8,22.27 -148.59,-23.41 -252.88,43.91 -124.61,80.42 -123.2,23.43 -217.85,-6.97z"/>
        <path class="fil11" d="M-18382.12 172.42c-280.56,-10.01 -484.58,-361.22 -277.37,-612.64 110.76,-134.41 177.88,-139.78 384.31,-156.52 145.08,-11.77 363.97,-42.97 501.52,-37.77 293.93,11.1 481.06,352.88 284.67,610.46 -94.74,124.28 -188.56,142.6 -386.05,158.47 -148.38,11.91 -365.79,43.05 -507.08,38z"/>
       </g>
      </g>
     </g>
     <path class="fil14" d="M274.73 417.16l27.89 -1.98 0.29 3.92c0.63,8.45 -1.85,15.94 -7.38,22.35 -5.54,6.41 -12.59,9.95 -21.04,10.56l-111.48 8.01c-8.84,0.64 -16.7,-2.14 -23.17,-8.2 -6.48,-6.06 -9.78,-13.7 -9.74,-22.57l0.35 -78.41c0.07,-16.09 12.46,-29.34 28.51,-30.49l21.75 -1.56c12.35,-0.89 23.4,5.2 29.25,16.1l35.53 66.17c5.85,10.9 16.89,16.98 29.23,16.1z"/>
     <path class="fil13" d="M325.72 183.29l-27.89 1.98 -0.29 -3.92c-0.63,-8.45 1.85,-15.94 7.38,-22.35 5.54,-6.41 12.59,-9.95 21.04,-10.56l111.48 -8.01c8.84,-0.64 16.7,2.14 23.17,8.2 6.48,6.06 9.78,13.7 9.74,22.57l-0.35 78.41c-0.07,16.09 -12.46,29.34 -28.51,30.49l-21.75 1.56c-12.35,0.89 -23.4,-5.2 -29.25,-16.1l-35.53 -66.17c-5.85,-10.9 -16.89,-16.98 -29.23,-16.1z"/>
     <g style="clip-path:url(#id4)">
      <g>
       <g>
        <path id="_1_31" class="fil2" d="M-24325.24 230.57l-21.89 -9.61c-3.2,-1.28 -18.29,-7.05 -22.62,-8.82 -20.68,-8.51 -20.24,-3.44 -42.99,-19.58 -30.71,-21.8 -44.24,-53.3 -37.61,-98.53 8.33,-56.98 88.5,-121.04 125.58,-157.9 -31.33,-19.18 -104.24,-29.54 -123.8,-73.12 -11.46,-129.09 87.73,-182.56 154.21,-251.4 68.82,-71.24 141.83,-181.84 262.49,-58.19 105.54,-58.94 106.71,-100.19 216.95,1.12l19.26 -14.92c2.93,-2.21 26.54,-20.61 28.35,-21.69 82.31,-48.89 108.48,-8.11 169.36,36.04 69.3,-38.46 42.21,-70.63 154.96,-47.86 129.55,101.14 2.91,197.05 -66.13,259.56 27.75,26.27 102.1,43.16 118.28,92.98 6.24,105.7 -71.93,167.16 -128.14,203.63 3.07,2.45 8.73,8.79 10.4,5.64 1.65,-3.17 8.18,4.34 10.49,5.38l21.34 9.41c179.59,78.39 52.68,186.25 -23.89,260.58 -81.76,79.42 -139.05,178.02 -230.88,159.88l-75.63 -47.15c-1.65,-1.56 -5.05,-5.42 -7.76,-7.96 -38.22,33.28 -82.69,88.48 -164.82,40.65 -39.17,-22.82 -5.22,-13.95 -52.13,-38.97 -132.72,113.19 -126.04,37.45 -222.04,-2.62 -103.03,118.83 -180.03,32.21 -192.2,-6.08 -30.15,-94.67 75.98,-169.76 120.89,-210.47z"/>
        <path class="fil3" d="M-14809.78 1632.09c-68.23,-47.48 -75.04,-94.94 -146.63,-124.01 -128.31,-47.33 -116.72,-26.61 -150.05,-169.18 -43.98,-188.21 -168.99,-116.41 12.21,-508.06 60.71,-131.24 133.1,-74.81 174.89,-160.23 77.53,-36.44 62.27,-96.02 186.03,-66.04 165,39.97 242.14,-73.52 400.42,66 44.75,39.46 79.25,108.78 114.89,162.31 40.62,281.93 21.21,101.16 74.59,239.21 40.19,103.94 -48.74,138.61 -67.45,223.98 -28.59,130.43 23.39,160.89 -93.15,216.02 -108.23,51.21 -100.14,85.6 -175.14,143.72 -87.93,11.15 -73.32,-15.25 -151.35,-25.73 -69.42,-9.32 -103.69,12.81 -179.26,2.01z"/>
        <path class="fil4" d="M-12000.23 -58.46c-48.47,79.82 -40.89,192.81 -103.21,262.71 -200.93,1.61 -9.13,-211.79 23.5,-307.86 -124.92,119.61 -122.25,219.24 -248.61,200.7 -67.37,-132.35 54.54,-116.15 185.63,-262.18 -61.3,19.99 -104.22,50.59 -162.28,82.66 -155.49,85.9 -215.74,-59.23 -45.85,-108.67l154.7 -55.22c-97.63,0.59 -200.13,34.85 -278.67,-2.03 -50.1,-167.64 208.38,-91.9 315.71,-81.6 -81.8,-41.46 -345.31,-59.72 -276.51,-175.84 21.96,-23.85 13.67,-33.44 68.66,-22.07 39.92,8.24 164.07,92.49 226.92,112.27 -137.07,-141.67 -237.49,-130.7 -191.25,-264.45 88.06,-11.06 95.8,16.03 138.46,70.38 39.17,49.86 70.16,92.36 113.59,131.47 -37.85,-111.74 -154.74,-206.57 -92.51,-304.18 76.22,-10.74 94.88,14.95 113.88,83.83l52.6 156.15c1.57,2.89 4.41,7.87 7.03,11.53 -1.85,-91.87 -61.57,-288.48 44.09,-290.69 109.87,-2.29 45.32,211.71 43.67,290.16l37.47 -81.51c16.07,-53.32 40.54,-233.88 135.04,-159.64 48.05,37.76 22.86,78.74 -13.54,142.75 -28.77,50.59 -57.58,98.47 -78.45,151.99 35.29,-33.97 68.55,-73.12 107.94,-122.36 52.46,-65.56 34.92,-92.63 145.27,-81.58 38.24,90.16 12.01,97.63 -50.79,144.93 -43.89,33.06 -110.06,88.41 -140.53,121.24 162.57,-62.87 235.88,-168.39 295.27,-90.18 43.87,67.94 -12.7,91.11 -74.84,110.31 -52.02,16.05 -121.9,29.93 -167.09,60.05 94.23,-0.7 209.3,-35.53 283.35,2.07 40.29,167.04 -157.81,89.14 -281.08,86.56 13.78,9.21 2.71,4.94 34.14,18.89 18.01,8 15.19,6.72 35.91,13.69 43.84,14.75 234.5,44.28 180.07,137.57 -90.29,70.69 -195.52,-54.01 -303.76,-88.95 89.03,97.3 273.58,172.66 187.13,250.81 -78.3,46.6 -110.5,-23.43 -150.62,-73.43 -15.58,-19.4 -102.19,-118.5 -110,-137.49 32.56,103.25 238.18,326.48 34.69,330.96 -55.9,-68.55 -64.13,-187.88 -103.76,-264.56 -3.02,95.49 60.68,296.88 -46.05,298.07 -111.89,1.24 -42.7,-222.61 -45.32,-297.25z"/>
        <path class="fil5" d="M-22055.05 215.66c-71.6,-67.25 -115.95,-3.81 -228.59,-40.38 -63.13,-60.69 -42.94,-93.09 -87.93,-157.08 -42.15,-59.94 -66.68,-52.57 -96.73,-141.23 -1.39,-82.44 52.15,-91.44 92.4,-145.8 42.12,-56.9 46.95,-118.46 92.82,-169.98 69.92,-10.38 139.8,6 193.39,-10.18 57.23,-17.26 83.85,-67.21 148.33,-71.07 69.57,-4.15 103.34,48.91 149.87,67.03 69.1,26.91 122.61,-0.4 205.22,18.18 58.28,65.8 41.95,85.84 85.99,156.31 36.33,58.11 96.26,87.91 97.48,147.43 1.35,66.94 -65.64,100.19 -97.32,149.9 -43.6,68.4 -34.37,94.88 -84.2,159.93 -125.8,22.27 -148.59,-23.41 -252.88,43.91 -124.61,80.42 -123.2,23.43 -217.85,-6.97z"/>
        <path class="fil6" d="M-16200.6 1642.61l-36.97 -9.54c-123,-6.32 -220.98,-34.59 -226.91,-244.86 -107.15,28.59 -210.84,-75.98 -222.02,-166.36 -6.08,-49.22 5.09,-60.88 -3.4,-102.86 -9.65,-47.61 -103.38,-156.44 19.55,-213.09 98.98,-4.87 16.75,4.48 46.44,-22.4 -19.88,-44.22 -43.73,-91.04 -18.78,-129.13l51.6 -6.96 -9.22 72.72 89.16 10.32c41.62,84.09 66.35,119.63 156.8,146.83 145.84,43.85 119.3,30.84 182.26,146.9l115.51 13.42c6.59,90.97 -21.87,-14.22 7.5,113.24 13.73,59.52 4.28,21.73 -14.15,66.57l34.72 -2.22c1.43,0.2 6.53,0.73 9.39,2.22 -20.46,73.49 -24.76,31.83 1.99,57.45 -33,30.93 -33.75,1.37 -49.77,35.53 15.89,5.44 -1.23,8.15 42.92,7.65 47.66,-0.55 29.25,15.32 16.24,-7.58l36.13 39.22c1.5,2.05 3.95,6.92 5.69,10.52l-80.52 18.05 22.92 26.7c11.4,74.81 45.3,103.51 -15.8,153.57 -66.04,47.37 -98.75,5.49 -161.29,-15.92z"/>
        <path class="fil7" d="M-16371.89 -484.45c81.19,-58.17 78.9,-115.35 220.81,-129.43 247.19,-24.53 507.31,184.09 626.25,397.31 95.31,170.88 106.08,403.48 -53.47,500.5 -184.38,112.11 -392.8,-35.23 -512.56,-94.71 -272.28,329.47 -700.78,-25.87 -834.67,-267.46 -252.4,-455.44 144.63,-694.58 553.64,-406.21z"/>
        <path class="fil8" d="M-14655.24 355.89c24.32,-105.66 49.74,-181.1 3.92,-301.44 -40.46,-106.15 -64.57,-102.16 -122.14,-146.78 -36.43,-28.21 -34.28,-27.01 -56.66,-49.28l38.06 -34.14c161.79,-140.68 198.08,-174.21 143.29,-448.01 334.38,60.72 326.15,-21.82 495.81,-208.46 89.98,215.91 205.28,259.71 477.1,203.59 -61.81,317.89 2.22,335.9 187.03,487.02 -22.28,21.71 -0.18,5.97 -51.22,45.89 -158.5,123.91 -184.66,197.02 -136.05,443.35 -285.87,-61.74 -360.22,-2.89 -478.66,193.59 -66.3,-57.01 -141.38,-319.23 -500.47,-185.33z"/>
        <path class="fil9" d="M-20454.55 -150.91c336.3,-80.52 368.33,-317.57 443.11,-427.32 40.91,136.73 67.53,178.04 151.79,265.37 143.63,148.88 180.26,103.21 268.59,174.26 -239.3,72.85 -341.44,189.63 -424.45,425.85 -73.25,-134.08 -48.42,-160.75 -156.84,-269.01 -115.04,-114.91 -137.71,-96.2 -282.2,-169.14z"/>
        <path class="fil7" d="M-20515.6 945.3c81.19,-58.17 78.9,-115.35 220.81,-129.44 247.19,-24.53 507.31,184.09 626.25,397.31 95.31,170.88 106.08,403.48 -53.47,500.5 -184.38,112.11 -392.8,-35.23 -512.56,-94.71 -272.28,329.47 -700.78,-25.87 -834.67,-267.46 -252.4,-455.44 144.63,-694.58 553.64,-406.21z"/>
        <path class="fil10" d="M-22747.51 1687.73c-280.56,-10.01 -484.58,-361.22 -277.37,-612.64 110.76,-134.41 177.88,-139.78 384.31,-156.52 145.08,-11.77 363.97,-42.97 501.52,-37.77 293.93,11.1 481.06,352.88 284.67,610.46 -94.74,124.28 -188.56,142.6 -386.05,158.47 -148.38,11.91 -365.79,43.05 -507.08,38z"/>
        <path class="fil8" d="M-18798.96 1785.64c24.32,-105.66 49.74,-181.1 3.92,-301.44 -40.46,-106.15 -64.57,-102.16 -122.14,-146.78 -36.43,-28.21 -34.28,-27.01 -56.66,-49.28l38.05 -34.14c161.79,-140.68 198.08,-174.21 143.29,-448.01 334.38,60.72 326.15,-21.82 495.81,-208.46 89.98,215.91 205.28,259.71 477.1,203.58 -61.81,317.89 2.22,335.9 187.03,487.02 -22.28,21.71 -0.18,5.97 -51.22,45.89 -158.5,123.91 -184.66,197.02 -136.05,443.35 -285.87,-61.74 -360.22,-2.9 -478.66,193.59 -66.3,-57.01 -141.38,-319.23 -500.47,-185.33z"/>
        <path class="fil9" d="M-24598.27 1278.84c336.3,-80.52 368.33,-317.57 443.11,-427.32 40.91,136.73 67.53,178.04 151.79,265.37 143.63,148.88 180.26,103.21 268.59,174.26 -239.3,72.85 -341.44,189.63 -424.45,425.85 -73.25,-134.08 -48.42,-160.75 -156.84,-269.01 -115.04,-114.91 -137.71,-96.2 -282.2,-169.14z"/>
        <path class="fil5" d="M-12600.82 1467.12c-71.6,-67.25 -115.95,-3.81 -228.59,-40.38 -63.13,-60.69 -42.94,-93.09 -87.93,-157.08 -42.15,-59.94 -66.68,-52.57 -96.73,-141.23 -1.39,-82.44 52.15,-91.44 92.4,-145.8 42.12,-56.9 46.95,-118.46 92.82,-169.98 69.92,-10.38 139.8,6 193.39,-10.18 57.23,-17.26 83.85,-67.21 148.33,-71.07 69.57,-4.15 103.34,48.91 149.87,67.03 69.09,26.91 122.61,-0.4 205.22,18.18 58.28,65.8 41.95,85.84 85.99,156.31 36.33,58.11 96.26,87.91 97.48,147.43 1.35,66.94 -65.64,100.19 -97.32,149.9 -43.6,68.4 -34.37,94.88 -84.2,159.93 -125.8,22.27 -148.59,-23.41 -252.88,43.91 -124.61,80.42 -123.2,23.43 -217.85,-6.97z"/>
        <path class="fil2" d="M-24283.3 -3017.08l-21.89 -9.61c-3.2,-1.28 -18.29,-7.05 -22.62,-8.82 -20.68,-8.51 -20.24,-3.44 -42.99,-19.59 -30.71,-21.8 -44.24,-53.3 -37.61,-98.53 8.33,-56.98 88.5,-121.04 125.58,-157.9 -31.34,-19.18 -104.24,-29.54 -123.8,-73.12 -11.46,-129.09 87.73,-182.56 154.21,-251.4 68.82,-71.24 141.83,-181.84 262.49,-58.19 105.54,-58.94 106.71,-100.19 216.95,1.12l19.26 -14.92c2.93,-2.22 26.54,-20.61 28.35,-21.69 82.31,-48.89 108.48,-8.11 169.36,36.04 69.3,-38.46 42.21,-70.63 154.96,-47.86 129.55,101.14 2.91,197.05 -66.13,259.56 27.75,26.27 102.1,43.16 118.28,92.98 6.24,105.7 -71.93,167.16 -128.14,203.62 3.07,2.45 8.73,8.79 10.4,5.64 1.65,-3.17 8.18,4.34 10.49,5.38l21.34 9.41c179.59,78.39 52.68,186.26 -23.89,260.59 -81.76,79.42 -139.05,178.02 -230.88,159.88l-75.63 -47.15c-1.65,-1.56 -5.05,-5.42 -7.76,-7.96 -38.22,33.28 -82.69,88.48 -164.82,40.65 -39.17,-22.82 -5.22,-13.95 -52.13,-38.97 -132.72,113.19 -126.04,37.45 -222.04,-2.62 -103.03,118.83 -180.03,32.21 -192.2,-6.08 -30.15,-94.67 75.98,-169.76 120.89,-210.47z"/>
        <path class="fil3" d="M-14411.74 -1355.03c-68.24,-47.48 -75.04,-94.94 -146.63,-124.01 -128.31,-47.33 -116.72,-26.61 -150.05,-169.18 -43.98,-188.21 -168.99,-116.41 12.21,-508.06 60.71,-131.24 133.1,-74.81 174.89,-160.23 77.53,-36.44 62.27,-96.02 186.04,-66.04 165,39.97 242.13,-73.52 400.42,66 44.75,39.46 79.25,108.78 114.89,162.31 40.62,281.93 21.21,101.16 74.59,239.21 40.19,103.94 -48.74,138.61 -67.45,223.98 -28.59,130.43 23.39,160.89 -93.15,216.02 -108.23,51.21 -100.14,85.6 -175.14,143.72 -87.93,11.15 -73.32,-15.25 -151.35,-25.73 -69.42,-9.32 -103.69,12.81 -179.26,2.01z"/>
        <path class="fil4" d="M-12465.98 -3013.6c-48.47,79.82 -40.89,192.81 -103.21,262.71 -200.93,1.61 -9.13,-211.79 23.5,-307.86 -124.92,119.61 -122.25,219.24 -248.61,200.7 -67.37,-132.35 54.54,-116.15 185.63,-262.18 -61.3,19.99 -104.22,50.59 -162.28,82.66 -155.49,85.9 -215.74,-59.23 -45.85,-108.67l154.7 -55.22c-97.63,0.59 -200.13,34.85 -278.67,-2.03 -50.1,-167.64 208.38,-91.9 315.71,-81.6 -81.8,-41.46 -345.31,-59.72 -276.51,-175.84 21.96,-23.85 13.67,-33.44 68.66,-22.07 39.92,8.24 164.07,92.49 226.92,112.27 -137.07,-141.67 -237.49,-130.7 -191.25,-264.45 88.06,-11.05 95.8,16.03 138.46,70.38 39.17,49.86 70.16,92.36 113.59,131.47 -37.85,-111.74 -154.74,-206.57 -92.5,-304.18 76.22,-10.74 94.88,14.95 113.88,83.83l52.6 156.15c1.57,2.89 4.41,7.87 7.03,11.53 -1.85,-91.86 -61.57,-288.48 44.09,-290.69 109.88,-2.29 45.32,211.72 43.67,290.16l37.47 -81.5c16.07,-53.32 40.54,-233.88 135.04,-159.64 48.05,37.76 22.86,78.74 -13.54,142.75 -28.77,50.59 -57.58,98.47 -78.45,151.99 35.29,-33.97 68.55,-73.12 107.93,-122.36 52.46,-65.56 34.92,-92.63 145.27,-81.58 38.24,90.16 12.01,97.63 -50.79,144.93 -43.89,33.06 -110.06,88.41 -140.53,121.24 162.57,-62.87 235.88,-168.39 295.27,-90.18 43.87,67.94 -12.7,91.11 -74.84,110.31 -52.02,16.05 -121.9,29.93 -167.09,60.05 94.23,-0.7 209.3,-35.53 283.35,2.07 40.29,167.04 -157.81,89.14 -281.08,86.56 13.78,9.21 2.71,4.94 34.14,18.89 18.01,8 15.19,6.72 35.91,13.69 43.84,14.75 234.5,44.28 180.07,137.57 -90.29,70.69 -195.52,-54.01 -303.76,-88.95 89.03,97.3 273.58,172.66 187.13,250.81 -78.3,46.6 -110.5,-23.43 -150.62,-73.43 -15.58,-19.4 -102.19,-118.5 -110,-137.49 32.56,103.25 238.18,326.48 34.68,330.96 -55.9,-68.55 -64.13,-187.88 -103.76,-264.56 -3.02,95.49 60.68,296.88 -46.05,298.07 -111.89,1.24 -42.7,-222.61 -45.32,-297.25z"/>
        <path class="fil5" d="M-22013.12 -2902.62c-71.6,-67.25 -115.95,-3.81 -228.59,-40.38 -63.13,-60.69 -42.94,-93.09 -87.93,-157.08 -42.15,-59.94 -66.68,-52.57 -96.73,-141.23 -1.39,-82.44 52.15,-91.44 92.4,-145.8 42.12,-56.9 46.95,-118.46 92.82,-169.98 69.92,-10.38 139.8,6 193.39,-10.18 57.23,-17.26 83.85,-67.21 148.33,-71.07 69.57,-4.15 103.34,48.91 149.87,67.03 69.09,26.91 122.61,-0.4 205.22,18.18 58.28,65.8 41.95,85.84 85.99,156.31 36.33,58.11 96.26,87.91 97.48,147.43 1.35,66.94 -65.64,100.19 -97.32,149.9 -43.6,68.4 -34.37,94.88 -84.2,159.93 -125.8,22.27 -148.59,-23.41 -252.88,43.91 -124.61,80.42 -123.2,23.43 -217.85,-6.97z"/>
        <path class="fil6" d="M-19872.75 -2726.27l-36.97 -9.54c-123,-6.31 -220.98,-34.59 -226.91,-244.86 -107.15,28.59 -210.84,-75.98 -222.02,-166.36 -6.08,-49.22 5.09,-60.88 -3.4,-102.87 -9.65,-47.61 -103.38,-156.44 19.55,-213.09 98.98,-4.87 16.75,4.48 46.43,-22.4 -19.88,-44.22 -43.73,-91.04 -18.78,-129.13l51.6 -6.96 -9.22 72.72 89.16 10.32c41.62,84.09 66.35,119.63 156.8,146.83 145.84,43.85 119.3,30.84 182.26,146.9l115.51 13.42c6.59,90.97 -21.87,-14.22 7.5,113.24 13.73,59.52 4.28,21.73 -14.15,66.57l34.72 -2.21c1.43,0.2 6.53,0.73 9.39,2.21 -20.46,73.49 -24.76,31.83 1.99,57.45 -33,30.93 -33.75,1.37 -49.77,35.53 15.89,5.44 -1.23,8.15 42.92,7.65 47.66,-0.55 29.25,15.32 16.23,-7.58l36.13 39.22c1.5,2.05 3.95,6.92 5.69,10.52l-80.52 18.05 22.92 26.7c11.4,74.81 45.3,103.51 -15.8,153.56 -66.04,47.37 -98.75,5.49 -161.29,-15.92z"/>
        <path class="fil7" d="M-16329.95 -3585.48c81.19,-58.17 78.9,-115.36 220.81,-129.44 247.19,-24.53 507.31,184.09 626.25,397.31 95.31,170.88 106.08,403.48 -53.47,500.5 -184.38,112.11 -392.8,-35.23 -512.56,-94.71 -272.28,329.47 -700.78,-25.87 -834.67,-267.46 -252.4,-455.44 144.63,-694.58 553.64,-406.21z"/>
        <path class="fil11" d="M-18561.86 -2843.05c-280.56,-10.01 -484.58,-361.22 -277.37,-612.64 110.76,-134.41 177.88,-139.78 384.31,-156.52 145.09,-11.77 363.97,-42.97 501.52,-37.77 293.93,11.1 481.06,352.88 284.67,610.46 -94.74,124.28 -188.56,142.6 -386.05,158.47 -148.38,11.91 -365.79,43.05 -507.08,38z"/>
        <path class="fil8" d="M-14613.31 -2745.14c24.32,-105.66 49.74,-181.1 3.92,-301.44 -40.46,-106.15 -64.57,-102.16 -122.14,-146.78 -36.43,-28.21 -34.28,-27.01 -56.66,-49.28l38.05 -34.14c161.79,-140.68 198.08,-174.21 143.29,-448.01 334.38,60.72 326.15,-21.82 495.81,-208.46 89.98,215.91 205.28,259.71 477.1,203.59 -61.81,317.89 2.22,335.9 187.03,487.02 -22.27,21.71 -0.18,5.97 -51.22,45.89 -158.5,123.91 -184.66,197.02 -136.05,443.35 -285.87,-61.74 -360.22,-2.89 -478.66,193.59 -66.3,-57.01 -141.38,-319.23 -500.47,-185.33z"/>
        <path class="fil9" d="M-16592.77 -1881.79c336.3,-80.52 368.33,-317.57 443.11,-427.32 40.91,136.73 67.53,178.04 151.79,265.37 143.63,148.88 180.26,103.21 268.59,174.26 -239.3,72.85 -341.44,189.63 -424.45,425.85 -73.25,-134.08 -48.42,-160.75 -156.84,-269.01 -115.04,-114.91 -137.71,-96.2 -282.2,-169.14z"/>
        <path class="fil7" d="M-20117.57 -2041.83c81.19,-58.17 78.9,-115.35 220.81,-129.44 247.19,-24.53 507.31,184.09 626.25,397.31 95.31,170.88 106.08,403.48 -53.47,500.5 -184.38,112.11 -392.8,-35.23 -512.56,-94.71 -272.28,329.47 -700.78,-25.87 -834.67,-267.46 -252.4,-455.44 144.63,-694.58 553.64,-406.21z"/>
        <path class="fil10" d="M-22349.47 -1299.39c-280.56,-10.01 -484.58,-361.22 -277.37,-612.64 110.76,-134.41 177.88,-139.78 384.31,-156.52 145.09,-11.77 363.97,-42.97 501.52,-37.77 293.93,11.1 481.06,352.88 284.67,610.46 -94.74,124.28 -188.56,142.6 -386.05,158.47 -148.38,11.91 -365.79,43.05 -507.08,38z"/>
        <path class="fil8" d="M-18400.92 -1201.48c24.32,-105.66 49.74,-181.1 3.92,-301.44 -40.46,-106.15 -64.57,-102.16 -122.14,-146.78 -36.43,-28.21 -34.28,-27.01 -56.66,-49.28l38.06 -34.14c161.79,-140.68 198.08,-174.21 143.29,-448.01 334.38,60.72 326.15,-21.82 495.81,-208.46 89.98,215.91 205.28,259.71 477.1,203.58 -61.81,317.89 2.22,335.9 187.03,487.02 -22.28,21.71 -0.18,5.97 -51.22,45.89 -158.5,123.91 -184.66,197.02 -136.05,443.35 -285.87,-61.74 -360.22,-2.9 -478.66,193.59 -66.3,-57.01 -141.38,-319.23 -500.47,-185.33z"/>
        <path class="fil9" d="M-24200.23 -1708.29c336.3,-80.52 368.33,-317.57 443.11,-427.32 40.91,136.73 67.53,178.04 151.79,265.37 143.63,148.88 180.26,103.21 268.59,174.26 -239.3,72.85 -341.44,189.63 -424.45,425.85 -73.25,-134.08 -48.42,-160.75 -156.84,-269.01 -115.04,-114.91 -137.71,-96.2 -282.2,-169.14z"/>
        <path class="fil5" d="M-12202.79 -1520c-71.6,-67.25 -115.95,-3.81 -228.59,-40.38 -63.13,-60.69 -42.94,-93.09 -87.93,-157.08 -42.15,-59.94 -66.68,-52.57 -96.73,-141.23 -1.39,-82.44 52.15,-91.44 92.4,-145.8 42.12,-56.9 46.95,-118.46 92.82,-169.98 69.92,-10.38 139.8,6 193.39,-10.18 57.23,-17.26 83.85,-67.21 148.33,-71.07 69.57,-4.15 103.34,48.91 149.87,67.03 69.1,26.91 122.61,-0.4 205.22,18.18 58.28,65.8 41.95,85.84 85.99,156.31 36.33,58.11 96.26,87.91 97.48,147.43 1.35,66.94 -65.64,100.19 -97.32,149.9 -43.6,68.4 -34.37,94.88 -84.2,159.93 -125.8,22.27 -148.59,-23.41 -252.88,43.91 -124.61,80.42 -123.2,23.43 -217.85,-6.97z"/>
        <path class="fil11" d="M-18382.12 172.42c-280.56,-10.01 -484.58,-361.22 -277.37,-612.64 110.76,-134.41 177.88,-139.78 384.31,-156.52 145.08,-11.77 363.97,-42.97 501.52,-37.77 293.93,11.1 481.06,352.88 284.67,610.46 -94.74,124.28 -188.56,142.6 -386.05,158.47 -148.38,11.91 -365.79,43.05 -507.08,38z"/>
       </g>
      </g>
     </g>
     <path class="fil14" d="M325.72 183.29l-27.89 1.98 -0.29 -3.92c-0.63,-8.45 1.85,-15.94 7.38,-22.35 5.54,-6.41 12.59,-9.95 21.04,-10.56l111.48 -8.01c8.84,-0.64 16.7,2.14 23.17,8.2 6.48,6.06 9.78,13.7 9.74,22.57l-0.35 78.41c-0.07,16.09 -12.46,29.34 -28.51,30.49l-21.75 1.56c-12.35,0.89 -23.4,-5.2 -29.25,-16.1l-35.53 -66.17c-5.85,-10.9 -16.89,-16.98 -29.23,-16.1z"/>
    </g>
   </g>
  </g>
 </g>
</svg>
