<?xml version="1.0" encoding="UTF-8"?>
<!DOCTYPE svg PUBLIC "-//W3C//DTD SVG 1.1//EN" "http://www.w3.org/Graphics/SVG/1.1/DTD/svg11.dtd">
<!-- Creator: CorelDRAW -->
<svg xmlns="http://www.w3.org/2000/svg" xml:space="preserve" width="56.2012mm" height="57.9172mm" version="1.1" style="shape-rendering:geometricPrecision; text-rendering:geometricPrecision; image-rendering:optimizeQuality; fill-rule:evenodd; clip-rule:evenodd"
viewBox="0 0 246.04 253.55"
 xmlns:xlink="http://www.w3.org/1999/xlink"
 xmlns:xodm="http://www.corel.com/coreldraw/odm/2003">
 <defs>
  <style type="text/css">
   <![CDATA[
    .fil11 {fill:none}
    .fil13 {fill:none;fill-rule:nonzero}
    .fil10 {fill:#102186}
    .fil1 {fill:#1D9446}
    .fil2 {fill:#319CE4}
    .fil9 {fill:#3F62FF}
    .fil4 {fill:#5AF4AA}
    .fil3 {fill:#8847C9}
    .fil6 {fill:#9AD4DA}
    .fil5 {fill:#E7011C}
    .fil7 {fill:#F8E09E}
    .fil8 {fill:#FF8097}
    .fil0 {fill:white}
    .fil12 {fill:white;fill-rule:nonzero}
   ]]>
  </style>
    <clipPath id="id0">
     <path d="M149.31 103.11c13.07,14.52 11.89,36.89 -2.63,49.96 -14.52,13.07 -36.89,11.89 -49.96,-2.63 -13.07,-14.52 -11.89,-36.89 2.63,-49.96 14.52,-13.07 36.89,-11.89 49.96,2.63z"/>
    </clipPath>
     <clipPath id="id1" style="clip-rule:nonzero">
      <path d="M39.55 104.58l1.43 20.17 -2.83 0.21c-6.11,0.45 -11.53,-1.34 -16.16,-5.34 -4.64,-4 -7.19,-9.1 -7.63,-15.21l-5.79 -80.61c-0.46,-6.4 1.55,-12.07 5.93,-16.76 4.38,-4.68 9.91,-7.07 16.32,-7.04l56.7 0.25c11.64,0.05 21.22,9.01 22.05,20.62l1.13 15.72c0.64,8.93 -3.76,16.92 -11.64,21.15l-47.85 25.69c-7.88,4.23 -12.28,12.21 -11.65,21.14z"/>
     </clipPath>
     <clipPath id="id2" style="clip-rule:nonzero">
      <path d="M206.48 148.97l-1.43 -20.17 2.83 -0.21c6.11,-0.45 11.53,1.34 16.16,5.34 4.64,4 7.2,9.11 7.63,15.22l5.79 80.61c0.46,6.4 -1.55,12.07 -5.93,16.76 -4.38,4.68 -9.91,7.07 -16.32,7.04l-56.7 -0.25c-11.64,-0.05 -21.22,-9.01 -22.05,-20.62l-1.13 -15.72c-0.64,-8.93 3.76,-16.92 11.64,-21.15l47.85 -25.69c7.88,-4.23 12.28,-12.21 11.65,-21.14z"/>
     </clipPath>
     <clipPath id="id3" style="clip-rule:nonzero">
      <path d="M104.58 211.33l20.17 -1.43 0.21 2.83c0.45,6.11 -1.34,11.53 -5.34,16.16 -4,4.64 -9.1,7.2 -15.21,7.63l-80.61 5.79c-6.4,0.46 -12.07,-1.55 -16.76,-5.93 -4.68,-4.38 -7.07,-9.91 -7.04,-16.32l0.25 -56.7c0.05,-11.64 9.01,-21.22 20.62,-22.05l15.72 -1.13c8.93,-0.64 16.92,3.76 21.15,11.64l25.69 47.85c4.23,7.88 12.21,12.28 21.14,11.65z"/>
     </clipPath>
     <clipPath id="id4" style="clip-rule:nonzero">
      <path d="M141.45 42.22l-20.17 1.43 -0.21 -2.83c-0.45,-6.11 1.34,-11.53 5.34,-16.16 4,-4.64 9.11,-7.19 15.22,-7.63l80.61 -5.79c6.4,-0.46 12.07,1.55 16.76,5.93 4.68,4.38 7.07,9.91 7.04,16.32l-0.25 56.7c-0.05,11.64 -9.01,21.22 -20.62,22.05l-15.72 1.13c-8.93,0.64 -16.92,-3.76 -21.15,-11.64l-25.69 -47.85c-4.23,-7.88 -12.21,-12.28 -21.14,-11.65z"/>
     </clipPath>
 </defs>
 <g id="Layer_x0020_1">
  <metadata id="CorelCorpID_0Corel-Layer"/>
  <g id="_2430553742256">
   <path class="fil0" d="M149.31 103.11c13.07,14.52 11.89,36.89 -2.63,49.96 -14.52,13.07 -36.89,11.89 -49.96,-2.63 -13.07,-14.52 -11.89,-36.89 2.63,-49.96 14.52,-13.07 36.89,-11.89 49.96,2.63z"/>
   <g style="clip-path:url(#id0)">
    <g>
     <g>
      <path id="_1" class="fil1" d="M-17683.94 76.41l-15.83 -6.95c-2.32,-0.93 -13.22,-5.1 -16.36,-6.38 -14.96,-6.15 -14.64,-2.49 -31.09,-14.16 -22.21,-15.76 -31.99,-38.54 -27.2,-71.25 6.02,-41.2 63.99,-87.53 90.81,-114.18 -22.66,-13.87 -75.38,-21.36 -89.52,-52.88 -8.29,-93.35 63.44,-132.01 111.51,-181.79 49.77,-51.51 102.56,-131.49 189.81,-42.07 76.32,-42.62 77.16,-72.45 156.88,0.81l13.92 -10.79c2.12,-1.6 19.19,-14.9 20.5,-15.68 59.52,-35.35 78.45,-5.86 122.47,26.06 50.11,-27.81 30.52,-51.08 112.05,-34.61 93.68,73.14 2.1,142.49 -47.82,187.69 20.06,18.99 73.83,31.21 85.53,67.24 4.51,76.43 -52.01,120.88 -92.66,147.24 2.22,1.77 6.31,6.35 7.52,4.08 1.19,-2.29 5.92,3.14 7.58,3.89l15.43 6.8c129.87,56.69 38.09,134.68 -17.27,188.43 -59.12,57.43 -100.55,128.73 -166.95,115.61l-54.69 -34.09c-1.19,-1.13 -3.65,-3.92 -5.61,-5.76 -27.64,24.06 -59.8,63.98 -119.18,29.4 -28.32,-16.5 -3.77,-10.09 -37.69,-28.18 -95.97,81.85 -91.14,27.08 -160.56,-1.89 -74.5,85.92 -130.18,23.29 -138.98,-4.39 -21.8,-68.45 54.94,-122.76 87.42,-152.19z"/>
      <path class="fil2" d="M-10803.2 1089.86c-49.34,-34.33 -54.26,-68.65 -106.03,-89.67 -92.78,-34.23 -84.4,-19.24 -108.5,-122.33 -31.8,-136.1 -122.2,-84.18 8.83,-367.39 43.9,-94.9 96.25,-54.09 126.46,-115.86 56.07,-26.35 45.03,-69.43 134.52,-47.75 119.32,28.91 175.09,-53.17 289.55,47.73 32.36,28.54 57.31,78.66 83.08,117.37 29.37,203.86 15.34,73.15 53.93,172.97 29.06,75.16 -35.25,100.23 -48.77,161.96 -20.67,94.32 16.91,116.34 -67.35,156.2 -78.26,37.03 -72.41,61.9 -126.65,103.92 -63.58,8.06 -53.02,-11.03 -109.44,-18.61 -50.2,-6.74 -74.98,9.26 -129.63,1.46z"/>
      <path class="fil3" d="M-8771.58 -132.6c-35.05,57.72 -29.57,139.42 -74.63,189.97 -145.3,1.16 -6.6,-153.15 16.99,-222.62 -90.33,86.49 -88.4,158.53 -179.78,145.13 -48.72,-95.7 39.44,-83.99 134.23,-189.58 -44.33,14.45 -75.36,36.58 -117.34,59.77 -112.43,62.11 -156.01,-42.83 -33.15,-78.58l111.86 -39.93c-70.6,0.42 -144.72,25.2 -201.51,-1.47 -36.23,-121.22 150.68,-66.45 228.3,-59 -59.15,-29.98 -249.7,-43.19 -199.95,-127.15 15.88,-17.25 9.89,-24.18 49.65,-15.96 28.87,5.96 118.64,66.88 164.09,81.19 -99.12,-102.44 -171.73,-94.51 -138.3,-191.22 63.68,-7.99 69.27,11.59 100.13,50.89 28.32,36.05 50.73,66.79 82.14,95.07 -27.37,-80.8 -111.89,-149.37 -66.89,-219.96 55.11,-7.77 68.61,10.81 82.35,60.62l38.04 112.91c1.14,2.09 3.19,5.69 5.08,8.34 -1.34,-66.43 -44.52,-208.6 31.88,-210.2 79.45,-1.65 32.77,153.09 31.58,209.82l27.09 -58.94c11.62,-38.55 29.32,-169.12 97.65,-115.44 34.74,27.3 16.53,56.94 -9.79,103.22 -20.81,36.58 -41.64,71.21 -56.73,109.91 25.52,-24.57 49.57,-52.88 78.05,-88.48 37.93,-47.41 25.25,-66.98 105.05,-58.99 27.65,65.2 8.68,70.6 -36.73,104.8 -31.74,23.9 -79.58,63.93 -101.62,87.67 117.56,-45.46 170.56,-121.77 213.51,-65.21 31.73,49.13 -9.19,65.89 -54.12,79.77 -37.61,11.61 -88.15,21.64 -120.83,43.43 68.14,-0.5 151.35,-25.69 204.9,1.5 29.13,120.79 -114.12,64.46 -203.26,62.59 9.97,6.66 1.96,3.57 24.68,13.66 13.02,5.78 10.99,4.86 25.97,9.9 31.7,10.67 169.57,32.02 130.21,99.48 -65.29,51.11 -141.38,-39.06 -219.65,-64.32 64.38,70.36 197.83,124.85 135.32,181.36 -56.62,33.7 -79.9,-16.94 -108.91,-53.1 -11.26,-14.03 -73.89,-85.69 -79.54,-99.42 23.55,74.66 172.23,236.08 25.08,239.32 -40.42,-49.57 -46.38,-135.86 -75.03,-191.3 -2.18,69.05 43.88,214.68 -33.3,215.54 -80.91,0.9 -30.88,-160.97 -32.77,-214.94z"/>
      <path class="fil4" d="M-16042.34 65.63c-51.78,-48.63 -83.85,-2.75 -165.3,-29.2 -45.65,-43.89 -31.05,-67.32 -63.58,-113.59 -30.48,-43.35 -48.22,-38.01 -69.95,-102.12 -1.01,-59.61 37.71,-66.12 66.81,-105.43 30.45,-41.15 33.95,-85.66 67.12,-122.92 50.56,-7.5 101.09,4.34 139.84,-7.36 41.39,-12.48 60.63,-48.6 107.26,-51.39 50.31,-3 74.73,35.36 108.37,48.47 49.96,19.46 88.66,-0.29 148.4,13.14 42.14,47.58 30.34,62.07 62.18,113.03 26.27,42.02 69.6,63.57 70.49,106.61 0.98,48.4 -47.46,72.45 -70.37,108.4 -31.53,49.46 -24.86,68.61 -60.88,115.65 -90.97,16.11 -107.44,-16.93 -182.86,31.75 -90.11,58.16 -89.09,16.94 -157.53,-5.04z"/>
      <path class="fil5" d="M-11808.92 1097.47l-26.74 -6.9c-88.94,-4.57 -159.79,-25.01 -164.08,-177.06 -77.48,20.67 -152.46,-54.94 -160.55,-120.3 -4.39,-35.59 3.68,-44.02 -2.46,-74.38 -6.98,-34.43 -74.75,-113.12 14.14,-154.09 71.58,-3.52 12.11,3.24 33.58,-16.2 -14.37,-31.98 -31.62,-65.83 -13.58,-93.38l37.31 -5.03 -6.67 52.58 64.47 7.46c30.1,60.8 47.98,86.51 113.39,106.17 105.46,31.71 86.27,22.3 131.8,106.23l83.53 9.7c4.76,65.78 -15.82,-10.28 5.43,81.89 9.93,43.04 3.1,15.71 -10.23,48.14l25.11 -1.6c1.03,0.15 4.72,0.53 6.79,1.6 -14.8,53.14 -17.91,23.02 1.44,41.55 -23.86,22.37 -24.41,0.99 -35.99,25.69 11.49,3.93 -0.89,5.89 31.04,5.53 34.47,-0.4 21.15,11.08 11.74,-5.48l26.13 28.36c1.09,1.48 2.86,5 4.12,7.61l-58.22 13.05 16.57 19.31c8.25,54.09 32.76,74.85 -11.42,111.04 -47.75,34.25 -71.4,3.97 -116.63,-11.51z"/>
      <path class="fil6" d="M-11932.78 -440.63c58.71,-42.06 57.05,-83.41 159.67,-93.6 178.75,-17.74 366.84,133.12 452.85,287.3 68.92,123.56 76.71,291.76 -38.67,361.92 -133.32,81.07 -284.04,-25.48 -370.64,-68.49 -196.89,238.25 -506.75,-18.71 -603.56,-193.4 -182.51,-329.33 104.58,-502.26 400.35,-293.74z"/>
      <path class="fil7" d="M-10691.45 167.03c17.59,-76.4 35.97,-130.95 2.83,-217.98 -29.25,-76.76 -46.69,-73.88 -88.32,-106.14 -26.34,-20.4 -24.79,-19.53 -40.97,-35.64l27.52 -24.68c116.99,-101.73 143.23,-125.98 103.61,-323.96 241.79,43.91 235.84,-15.78 358.53,-150.74 65.07,156.12 148.44,187.8 345,147.21 -44.7,229.87 1.61,242.89 135.24,352.17 -16.11,15.7 -0.13,4.31 -37.04,33.19 -114.62,89.6 -133.53,142.47 -98.38,320.59 -206.72,-44.65 -260.48,-2.09 -346.12,139.99 -47.94,-41.23 -102.24,-230.84 -361.9,-134.02z"/>
      <path class="fil8" d="M-14885 -199.45c243.18,-58.23 266.35,-229.64 320.42,-309 29.58,98.87 48.83,128.74 109.76,191.89 103.86,107.65 130.35,74.63 194.22,126.01 -173.04,52.68 -246.9,137.12 -306.93,307.94 -52.97,-96.96 -35.02,-116.24 -113.41,-194.53 -83.19,-83.09 -99.58,-69.57 -204.07,-122.31z"/>
      <path class="fil6" d="M-14929.15 593.24c58.71,-42.06 57.05,-83.41 159.67,-93.6 178.75,-17.74 366.84,133.12 452.85,287.3 68.92,123.56 76.71,291.76 -38.67,361.92 -133.33,81.07 -284.04,-25.48 -370.64,-68.49 -196.89,238.24 -506.75,-18.71 -603.56,-193.4 -182.51,-329.33 104.58,-502.26 400.35,-293.74z"/>
      <path class="fil9" d="M-16543.07 1130.1c-202.88,-7.24 -350.41,-261.21 -200.57,-443.01 80.09,-97.19 128.62,-101.08 277.9,-113.18 104.91,-8.51 263.19,-31.07 362.65,-27.31 212.54,8.02 347.86,255.17 205.85,441.43 -68.51,89.87 -136.35,103.12 -279.15,114.59 -107.29,8.61 -264.51,31.13 -366.67,27.48z"/>
      <path class="fil7" d="M-13687.82 1200.9c17.59,-76.4 35.97,-130.95 2.83,-217.98 -29.25,-76.76 -46.69,-73.88 -88.32,-106.14 -26.34,-20.4 -24.79,-19.53 -40.97,-35.64l27.52 -24.68c116.99,-101.73 143.23,-125.98 103.61,-323.96 241.79,43.91 235.84,-15.78 358.53,-150.74 65.07,156.12 148.44,187.8 345,147.21 -44.7,229.87 1.61,242.89 135.24,352.17 -16.11,15.7 -0.13,4.31 -37.04,33.19 -114.62,89.6 -133.53,142.47 -98.38,320.59 -206.72,-44.65 -260.48,-2.09 -346.12,139.99 -47.94,-41.23 -102.24,-230.84 -361.9,-134.02z"/>
      <path class="fil8" d="M-17881.37 834.42c243.18,-58.23 266.34,-229.64 320.42,-309 29.58,98.87 48.83,128.74 109.76,191.89 103.86,107.65 130.35,74.63 194.22,126.01 -173.04,52.68 -246.9,137.12 -306.93,307.94 -52.97,-96.96 -35.02,-116.24 -113.41,-194.53 -83.19,-83.09 -99.58,-69.57 -204.07,-122.31z"/>
      <path class="fil4" d="M-9205.88 970.57c-51.78,-48.63 -83.85,-2.75 -165.3,-29.2 -45.65,-43.89 -31.05,-67.32 -63.58,-113.59 -30.48,-43.35 -48.22,-38.01 -69.95,-102.12 -1.01,-59.61 37.71,-66.12 66.81,-105.43 30.45,-41.15 33.95,-85.66 67.12,-122.92 50.56,-7.5 101.09,4.34 139.85,-7.36 41.39,-12.48 60.63,-48.6 107.26,-51.39 50.31,-3 74.73,35.37 108.37,48.47 49.96,19.46 88.66,-0.29 148.4,13.14 42.14,47.58 30.34,62.07 62.18,113.03 26.27,42.02 69.6,63.57 70.49,106.61 0.98,48.4 -47.46,72.45 -70.37,108.4 -31.53,49.46 -24.86,68.61 -60.88,115.65 -90.97,16.11 -107.44,-16.93 -182.86,31.75 -90.11,58.16 -89.09,16.94 -157.53,-5.04z"/>
      <path class="fil1" d="M-17653.61 -2272.01l-15.83 -6.95c-2.32,-0.93 -13.22,-5.1 -16.36,-6.38 -14.96,-6.15 -14.64,-2.49 -31.09,-14.16 -22.21,-15.76 -31.99,-38.54 -27.2,-71.25 6.02,-41.2 63.99,-87.53 90.81,-114.18 -22.66,-13.87 -75.38,-21.36 -89.52,-52.88 -8.28,-93.35 63.44,-132.01 111.51,-181.79 49.77,-51.51 102.56,-131.49 189.81,-42.08 76.32,-42.62 77.16,-72.45 156.88,0.81l13.92 -10.79c2.12,-1.6 19.19,-14.9 20.5,-15.68 59.52,-35.35 78.45,-5.86 122.47,26.06 50.11,-27.81 30.52,-51.08 112.05,-34.61 93.68,73.14 2.1,142.49 -47.82,187.69 20.07,18.99 73.83,31.21 85.53,67.24 4.51,76.43 -52.02,120.88 -92.66,147.24 2.22,1.77 6.31,6.35 7.52,4.08 1.19,-2.29 5.92,3.14 7.58,3.89l15.43 6.8c129.87,56.69 38.09,134.68 -17.27,188.43 -59.12,57.43 -100.55,128.73 -166.95,115.61l-54.69 -34.09c-1.19,-1.12 -3.65,-3.92 -5.61,-5.76 -27.64,24.06 -59.8,63.98 -119.18,29.4 -28.32,-16.5 -3.77,-10.09 -37.69,-28.18 -95.97,81.85 -91.14,27.08 -160.56,-1.89 -74.5,85.92 -130.18,23.29 -138.98,-4.39 -21.8,-68.45 54.94,-122.76 87.42,-152.19z"/>
      <path class="fil2" d="M-10515.37 -1070.16c-49.34,-34.33 -54.26,-68.65 -106.03,-89.67 -92.78,-34.23 -84.4,-19.24 -108.5,-122.33 -31.8,-136.1 -122.2,-84.18 8.83,-367.39 43.9,-94.9 96.25,-54.09 126.46,-115.86 56.07,-26.35 45.03,-69.43 134.52,-47.75 119.32,28.91 175.09,-53.17 289.55,47.73 32.36,28.54 57.31,78.66 83.08,117.37 29.37,203.86 15.34,73.15 53.93,172.97 29.07,75.16 -35.25,100.23 -48.77,161.96 -20.67,94.32 16.91,116.34 -67.36,156.2 -78.26,37.03 -72.41,61.9 -126.65,103.92 -63.58,8.06 -53.02,-11.03 -109.44,-18.61 -50.2,-6.74 -74.98,9.26 -129.63,1.46z"/>
      <path class="fil3" d="M-9108.37 -2269.49c-35.05,57.72 -29.57,139.42 -74.63,189.97 -145.3,1.16 -6.6,-153.15 16.99,-222.62 -90.33,86.49 -88.4,158.53 -179.78,145.13 -48.72,-95.71 39.44,-83.99 134.23,-189.58 -44.33,14.45 -75.36,36.58 -117.34,59.77 -112.43,62.11 -156.01,-42.83 -33.15,-78.58l111.87 -39.93c-70.6,0.42 -144.72,25.2 -201.51,-1.47 -36.22,-121.22 150.68,-66.45 228.3,-59 -59.15,-29.98 -249.7,-43.19 -199.95,-127.15 15.88,-17.25 9.89,-24.18 49.65,-15.96 28.87,5.96 118.64,66.88 164.09,81.19 -99.12,-102.44 -171.73,-94.51 -138.3,-191.22 63.68,-7.99 69.27,11.59 100.13,50.89 28.32,36.05 50.73,66.79 82.14,95.07 -27.37,-80.8 -111.89,-149.37 -66.89,-219.96 55.11,-7.77 68.61,10.81 82.35,60.62l38.04 112.91c1.14,2.09 3.19,5.69 5.08,8.34 -1.34,-66.43 -44.52,-208.6 31.88,-210.2 79.45,-1.65 32.77,153.09 31.58,209.82l27.09 -58.94c11.62,-38.55 29.32,-169.12 97.65,-115.44 34.74,27.3 16.53,56.94 -9.79,103.22 -20.81,36.58 -41.64,71.21 -56.73,109.91 25.52,-24.56 49.57,-52.88 78.05,-88.48 37.93,-47.41 25.25,-66.98 105.05,-58.99 27.65,65.2 8.68,70.6 -36.73,104.8 -31.74,23.9 -79.58,63.93 -101.62,87.67 117.56,-45.46 170.56,-121.77 213.51,-65.21 31.73,49.13 -9.19,65.89 -54.12,79.77 -37.61,11.61 -88.15,21.64 -120.83,43.43 68.14,-0.5 151.35,-25.69 204.9,1.5 29.13,120.79 -114.12,64.46 -203.26,62.59 9.97,6.66 1.96,3.57 24.68,13.66 13.02,5.78 10.99,4.86 25.97,9.9 31.7,10.67 169.57,32.02 130.21,99.48 -65.29,51.12 -141.38,-39.06 -219.65,-64.32 64.38,70.36 197.83,124.85 135.32,181.36 -56.62,33.7 -79.9,-16.94 -108.91,-53.1 -11.26,-14.03 -73.89,-85.69 -79.54,-99.42 23.55,74.66 172.23,236.08 25.08,239.32 -40.42,-49.57 -46.38,-135.86 -75.03,-191.3 -2.18,69.05 43.88,214.68 -33.3,215.54 -80.91,0.9 -30.88,-160.97 -32.77,-214.94z"/>
      <path class="fil4" d="M-16012.02 -2189.23c-51.78,-48.63 -83.85,-2.75 -165.3,-29.2 -45.65,-43.89 -31.05,-67.32 -63.58,-113.59 -30.48,-43.35 -48.22,-38.01 -69.95,-102.12 -1.01,-59.61 37.71,-66.12 66.81,-105.43 30.45,-41.15 33.95,-85.66 67.12,-122.92 50.56,-7.5 101.09,4.34 139.84,-7.36 41.39,-12.48 60.63,-48.6 107.26,-51.39 50.31,-3 74.73,35.37 108.37,48.47 49.96,19.46 88.66,-0.29 148.4,13.14 42.14,47.58 30.34,62.07 62.18,113.03 26.27,42.02 69.6,63.57 70.49,106.61 0.98,48.4 -47.46,72.45 -70.37,108.4 -31.53,49.46 -24.86,68.61 -60.88,115.65 -90.97,16.11 -107.44,-16.93 -182.86,31.75 -90.11,58.16 -89.09,16.94 -157.53,-5.04z"/>
      <path class="fil5" d="M-14464.29 -2061.72l-26.74 -6.9c-88.94,-4.57 -159.79,-25.01 -164.08,-177.06 -77.48,20.67 -152.46,-54.94 -160.55,-120.3 -4.39,-35.59 3.68,-44.02 -2.46,-74.38 -6.98,-34.43 -74.75,-113.12 14.14,-154.09 71.58,-3.52 12.11,3.24 33.58,-16.2 -14.37,-31.98 -31.62,-65.83 -13.58,-93.38l37.31 -5.03 -6.67 52.58 64.47 7.46c30.1,60.8 47.98,86.51 113.39,106.17 105.46,31.71 86.27,22.3 131.8,106.23l83.53 9.7c4.76,65.78 -15.82,-10.28 5.43,81.89 9.93,43.04 3.1,15.71 -10.23,48.14l25.11 -1.6c1.03,0.15 4.72,0.53 6.79,1.6 -14.8,53.14 -17.91,23.02 1.44,41.55 -23.86,22.37 -24.41,0.99 -35.99,25.69 11.49,3.93 -0.89,5.89 31.04,5.53 34.46,-0.4 21.15,11.08 11.74,-5.48l26.13 28.36c1.09,1.48 2.86,5 4.12,7.61l-58.22 13.05 16.57 19.31c8.25,54.09 32.76,74.85 -11.42,111.04 -47.75,34.25 -71.4,3.97 -116.63,-11.51z"/>
      <path class="fil6" d="M-11902.45 -2683.02c58.71,-42.06 57.05,-83.41 159.67,-93.6 178.75,-17.74 366.84,133.12 452.85,287.3 68.92,123.56 76.71,291.76 -38.67,361.92 -133.33,81.07 -284.04,-25.48 -370.64,-68.49 -196.89,238.24 -506.74,-18.71 -603.56,-193.4 -182.51,-329.33 104.58,-502.26 400.35,-293.74z"/>
      <path class="fil10" d="M-13516.37 -2146.16c-202.88,-7.24 -350.41,-261.21 -200.57,-443.01 80.09,-97.19 128.62,-101.08 277.9,-113.18 104.91,-8.51 263.19,-31.07 362.65,-27.31 212.54,8.02 347.86,255.17 205.85,441.43 -68.51,89.87 -136.35,103.12 -279.15,114.59 -107.29,8.61 -264.51,31.13 -366.67,27.48z"/>
      <path class="fil7" d="M-10661.13 -2075.36c17.59,-76.4 35.97,-130.95 2.83,-217.98 -29.25,-76.76 -46.69,-73.88 -88.32,-106.14 -26.34,-20.4 -24.79,-19.53 -40.97,-35.64l27.52 -24.68c116.99,-101.73 143.23,-125.98 103.61,-323.96 241.79,43.91 235.84,-15.78 358.53,-150.74 65.07,156.12 148.44,187.8 345,147.21 -44.7,229.87 1.61,242.89 135.24,352.17 -16.11,15.7 -0.13,4.31 -37.04,33.19 -114.62,89.6 -133.53,142.47 -98.38,320.59 -206.72,-44.65 -260.48,-2.09 -346.12,139.99 -47.94,-41.23 -102.24,-230.84 -361.9,-134.02z"/>
      <path class="fil8" d="M-12092.5 -1451.07c243.18,-58.23 266.34,-229.64 320.42,-309 29.58,98.87 48.83,128.74 109.76,191.89 103.86,107.65 130.35,74.63 194.22,126.01 -173.04,52.68 -246.9,137.12 -306.93,307.94 -52.97,-96.96 -35.02,-116.24 -113.41,-194.53 -83.19,-83.09 -99.58,-69.57 -204.07,-122.31z"/>
      <path class="fil6" d="M-14641.32 -1566.79c58.71,-42.06 57.05,-83.41 159.67,-93.6 178.75,-17.74 366.84,133.12 452.85,287.3 68.92,123.56 76.71,291.76 -38.67,361.92 -133.32,81.07 -284.04,-25.48 -370.64,-68.49 -196.89,238.24 -506.74,-18.71 -603.56,-193.4 -182.51,-329.33 104.58,-502.26 400.35,-293.74z"/>
      <path class="fil9" d="M-16255.24 -1029.92c-202.88,-7.24 -350.41,-261.21 -200.57,-443.01 80.09,-97.19 128.62,-101.08 277.9,-113.18 104.91,-8.51 263.19,-31.07 362.65,-27.31 212.54,8.02 347.86,255.17 205.85,441.43 -68.51,89.87 -136.35,103.12 -279.15,114.59 -107.29,8.61 -264.51,31.13 -366.67,27.48z"/>
      <path class="fil7" d="M-13400 -959.12c17.59,-76.4 35.97,-130.95 2.83,-217.98 -29.25,-76.76 -46.69,-73.88 -88.32,-106.14 -26.34,-20.4 -24.79,-19.53 -40.97,-35.64l27.52 -24.68c116.99,-101.73 143.23,-125.98 103.61,-323.96 241.79,43.91 235.84,-15.78 358.53,-150.74 65.07,156.12 148.44,187.8 345,147.21 -44.7,229.87 1.61,242.89 135.24,352.17 -16.11,15.7 -0.13,4.31 -37.04,33.19 -114.62,89.6 -133.53,142.47 -98.38,320.59 -206.72,-44.65 -260.48,-2.09 -346.12,139.99 -47.94,-41.23 -102.24,-230.84 -361.9,-134.02z"/>
      <path class="fil8" d="M-17593.54 -1325.6c243.18,-58.23 266.34,-229.64 320.42,-309 29.58,98.87 48.83,128.74 109.76,191.89 103.86,107.65 130.35,74.63 194.22,126.01 -173.04,52.68 -246.9,137.12 -306.93,307.94 -52.97,-96.96 -35.02,-116.24 -113.41,-194.53 -83.19,-83.09 -99.58,-69.57 -204.07,-122.31z"/>
      <path class="fil4" d="M-8918.05 -1189.45c-51.78,-48.63 -83.85,-2.75 -165.3,-29.2 -45.65,-43.89 -31.05,-67.32 -63.58,-113.59 -30.48,-43.35 -48.22,-38.01 -69.95,-102.12 -1.01,-59.61 37.71,-66.12 66.81,-105.43 30.45,-41.15 33.95,-85.66 67.12,-122.92 50.56,-7.5 101.09,4.34 139.84,-7.36 41.39,-12.48 60.63,-48.6 107.26,-51.39 50.31,-3 74.73,35.37 108.37,48.47 49.96,19.46 88.66,-0.29 148.4,13.14 42.14,47.58 30.34,62.07 62.18,113.03 26.27,42.02 69.6,63.57 70.49,106.61 0.98,48.4 -47.46,72.45 -70.37,108.4 -31.53,49.46 -24.86,68.61 -60.88,115.65 -90.97,16.11 -107.44,-16.93 -182.86,31.75 -90.11,58.16 -89.09,16.94 -157.53,-5.04z"/>
      <path class="fil10" d="M-13386.4 34.36c-202.88,-7.24 -350.41,-261.21 -200.57,-443.01 80.09,-97.19 128.63,-101.08 277.9,-113.18 104.91,-8.51 263.19,-31.07 362.65,-27.31 212.54,8.02 347.86,255.17 205.85,441.43 -68.51,89.87 -136.35,103.12 -279.15,114.59 -107.29,8.61 -264.51,31.13 -366.67,27.48z"/>
     </g>
    </g>
   </g>
   <path class="fil11" d="M149.31 103.11c13.07,14.52 11.89,36.89 -2.63,49.96 -14.52,13.07 -36.89,11.89 -49.96,-2.63 -13.07,-14.52 -11.89,-36.89 2.63,-49.96 14.52,-13.07 36.89,-11.89 49.96,2.63z"/>
   <g>
    <path class="fil12" d="M39.55 104.58l1.43 20.17 -2.83 0.21c-6.11,0.45 -11.53,-1.34 -16.16,-5.34 -4.64,-4 -7.19,-9.1 -7.63,-15.21l-5.79 -80.61c-0.46,-6.4 1.55,-12.07 5.93,-16.76 4.38,-4.68 9.91,-7.07 16.32,-7.04l56.7 0.25c11.64,0.05 21.22,9.01 22.05,20.62l1.13 15.72c0.64,8.93 -3.76,16.92 -11.64,21.15l-47.85 25.69c-7.88,4.23 -12.28,12.21 -11.65,21.14z"/>
    <g style="clip-path:url(#id1)">
     <g>
      <g>
       <path id="_1_24" class="fil1" d="M-17683.94 76.41l-15.83 -6.95c-2.32,-0.93 -13.22,-5.1 -16.36,-6.38 -14.96,-6.15 -14.64,-2.49 -31.09,-14.16 -22.21,-15.76 -31.99,-38.54 -27.2,-71.25 6.02,-41.2 63.99,-87.53 90.81,-114.18 -22.66,-13.87 -75.38,-21.36 -89.52,-52.88 -8.29,-93.35 63.44,-132.01 111.51,-181.79 49.77,-51.51 102.56,-131.49 189.81,-42.07 76.32,-42.62 77.16,-72.45 156.88,0.81l13.92 -10.79c2.12,-1.6 19.19,-14.9 20.5,-15.68 59.52,-35.35 78.45,-5.86 122.47,26.06 50.11,-27.81 30.52,-51.08 112.05,-34.61 93.68,73.14 2.1,142.49 -47.82,187.69 20.06,18.99 73.83,31.21 85.53,67.24 4.51,76.43 -52.01,120.88 -92.66,147.24 2.22,1.77 6.31,6.35 7.52,4.08 1.19,-2.29 5.92,3.14 7.58,3.89l15.43 6.8c129.87,56.69 38.09,134.68 -17.27,188.43 -59.12,57.43 -100.55,128.73 -166.95,115.61l-54.69 -34.09c-1.19,-1.13 -3.65,-3.92 -5.61,-5.76 -27.64,24.06 -59.8,63.98 -119.18,29.4 -28.32,-16.5 -3.77,-10.09 -37.69,-28.18 -95.97,81.85 -91.14,27.08 -160.56,-1.89 -74.5,85.92 -130.18,23.29 -138.98,-4.39 -21.8,-68.45 54.94,-122.76 87.42,-152.19z"/>
       <path class="fil2" d="M-10803.2 1089.86c-49.34,-34.33 -54.26,-68.65 -106.03,-89.67 -92.78,-34.23 -84.4,-19.24 -108.5,-122.33 -31.8,-136.1 -122.2,-84.18 8.83,-367.39 43.9,-94.9 96.25,-54.09 126.46,-115.86 56.07,-26.35 45.03,-69.43 134.52,-47.75 119.32,28.91 175.09,-53.17 289.55,47.73 32.36,28.54 57.31,78.66 83.08,117.37 29.37,203.86 15.34,73.15 53.93,172.97 29.06,75.16 -35.25,100.23 -48.77,161.96 -20.67,94.32 16.91,116.34 -67.35,156.2 -78.26,37.03 -72.41,61.9 -126.65,103.92 -63.58,8.06 -53.02,-11.03 -109.44,-18.61 -50.2,-6.74 -74.98,9.26 -129.63,1.46z"/>
       <path class="fil3" d="M-8771.58 -132.6c-35.05,57.72 -29.57,139.42 -74.63,189.97 -145.3,1.16 -6.6,-153.15 16.99,-222.62 -90.33,86.49 -88.4,158.53 -179.78,145.13 -48.72,-95.7 39.44,-83.99 134.23,-189.58 -44.33,14.45 -75.36,36.58 -117.34,59.77 -112.43,62.11 -156.01,-42.83 -33.15,-78.58l111.86 -39.93c-70.6,0.42 -144.72,25.2 -201.51,-1.47 -36.23,-121.22 150.68,-66.45 228.3,-59 -59.15,-29.98 -249.7,-43.19 -199.95,-127.15 15.88,-17.25 9.89,-24.18 49.65,-15.96 28.87,5.96 118.64,66.88 164.09,81.19 -99.12,-102.44 -171.73,-94.51 -138.3,-191.22 63.68,-7.99 69.27,11.59 100.13,50.89 28.32,36.05 50.73,66.79 82.14,95.07 -27.37,-80.8 -111.89,-149.37 -66.89,-219.96 55.11,-7.77 68.61,10.81 82.35,60.62l38.04 112.91c1.14,2.09 3.19,5.69 5.08,8.34 -1.34,-66.43 -44.52,-208.6 31.88,-210.2 79.45,-1.65 32.77,153.09 31.58,209.82l27.09 -58.94c11.62,-38.55 29.32,-169.12 97.65,-115.44 34.74,27.3 16.53,56.94 -9.79,103.22 -20.81,36.58 -41.64,71.21 -56.73,109.91 25.52,-24.57 49.57,-52.88 78.05,-88.48 37.93,-47.41 25.25,-66.98 105.05,-58.99 27.65,65.2 8.68,70.6 -36.73,104.8 -31.74,23.9 -79.58,63.93 -101.62,87.67 117.56,-45.46 170.56,-121.77 213.51,-65.21 31.73,49.13 -9.19,65.89 -54.12,79.77 -37.61,11.61 -88.15,21.64 -120.83,43.43 68.14,-0.5 151.35,-25.69 204.9,1.5 29.13,120.79 -114.12,64.46 -203.26,62.59 9.97,6.66 1.96,3.57 24.68,13.66 13.02,5.78 10.99,4.86 25.97,9.9 31.7,10.67 169.57,32.02 130.21,99.48 -65.29,51.11 -141.38,-39.06 -219.65,-64.32 64.38,70.36 197.83,124.85 135.32,181.36 -56.62,33.7 -79.9,-16.94 -108.91,-53.1 -11.26,-14.03 -73.89,-85.69 -79.54,-99.42 23.55,74.66 172.23,236.08 25.08,239.32 -40.42,-49.57 -46.38,-135.86 -75.03,-191.3 -2.18,69.05 43.88,214.68 -33.3,215.54 -80.91,0.9 -30.88,-160.97 -32.77,-214.94z"/>
       <path class="fil4" d="M-16042.34 65.63c-51.78,-48.63 -83.85,-2.75 -165.3,-29.2 -45.65,-43.89 -31.05,-67.32 -63.58,-113.59 -30.48,-43.35 -48.22,-38.01 -69.95,-102.12 -1.01,-59.61 37.71,-66.12 66.81,-105.43 30.45,-41.15 33.95,-85.66 67.12,-122.92 50.56,-7.5 101.09,4.34 139.84,-7.36 41.39,-12.48 60.63,-48.6 107.26,-51.39 50.31,-3 74.73,35.36 108.37,48.47 49.96,19.46 88.66,-0.29 148.4,13.14 42.14,47.58 30.34,62.07 62.18,113.03 26.27,42.02 69.6,63.57 70.49,106.61 0.98,48.4 -47.46,72.45 -70.37,108.4 -31.53,49.46 -24.86,68.61 -60.88,115.65 -90.97,16.11 -107.44,-16.93 -182.86,31.75 -90.11,58.16 -89.09,16.94 -157.53,-5.04z"/>
       <path class="fil5" d="M-11808.92 1097.47l-26.74 -6.9c-88.94,-4.57 -159.79,-25.01 -164.08,-177.06 -77.48,20.67 -152.46,-54.94 -160.55,-120.3 -4.39,-35.59 3.68,-44.02 -2.46,-74.38 -6.98,-34.43 -74.75,-113.12 14.14,-154.09 71.58,-3.52 12.11,3.24 33.58,-16.2 -14.37,-31.98 -31.62,-65.83 -13.58,-93.38l37.31 -5.03 -6.67 52.58 64.47 7.46c30.1,60.8 47.98,86.51 113.39,106.17 105.46,31.71 86.27,22.3 131.8,106.23l83.53 9.7c4.76,65.78 -15.82,-10.28 5.43,81.89 9.93,43.04 3.1,15.71 -10.23,48.14l25.11 -1.6c1.03,0.15 4.72,0.53 6.79,1.6 -14.8,53.14 -17.91,23.02 1.44,41.55 -23.86,22.37 -24.41,0.99 -35.99,25.69 11.49,3.93 -0.89,5.89 31.04,5.53 34.47,-0.4 21.15,11.08 11.74,-5.48l26.13 28.36c1.09,1.48 2.86,5 4.12,7.61l-58.22 13.05 16.57 19.31c8.25,54.09 32.76,74.85 -11.42,111.04 -47.75,34.25 -71.4,3.97 -116.63,-11.51z"/>
       <path class="fil6" d="M-11932.78 -440.63c58.71,-42.06 57.05,-83.41 159.67,-93.6 178.75,-17.74 366.84,133.12 452.85,287.3 68.92,123.56 76.71,291.76 -38.67,361.92 -133.32,81.07 -284.04,-25.48 -370.64,-68.49 -196.89,238.25 -506.75,-18.71 -603.56,-193.4 -182.51,-329.33 104.58,-502.26 400.35,-293.74z"/>
       <path class="fil7" d="M-10691.45 167.03c17.59,-76.4 35.97,-130.95 2.83,-217.98 -29.25,-76.76 -46.69,-73.88 -88.32,-106.14 -26.34,-20.4 -24.79,-19.53 -40.97,-35.64l27.52 -24.68c116.99,-101.73 143.23,-125.98 103.61,-323.96 241.79,43.91 235.84,-15.78 358.53,-150.74 65.07,156.12 148.44,187.8 345,147.21 -44.7,229.87 1.61,242.89 135.24,352.17 -16.11,15.7 -0.13,4.31 -37.04,33.19 -114.62,89.6 -133.53,142.47 -98.38,320.59 -206.72,-44.65 -260.48,-2.09 -346.12,139.99 -47.94,-41.23 -102.24,-230.84 -361.9,-134.02z"/>
       <path class="fil8" d="M-14885 -199.45c243.18,-58.23 266.35,-229.64 320.42,-309 29.58,98.87 48.83,128.74 109.76,191.89 103.86,107.65 130.35,74.63 194.22,126.01 -173.04,52.68 -246.9,137.12 -306.93,307.94 -52.97,-96.96 -35.02,-116.24 -113.41,-194.53 -83.19,-83.09 -99.58,-69.57 -204.07,-122.31z"/>
       <path class="fil6" d="M-14929.15 593.24c58.71,-42.06 57.05,-83.41 159.67,-93.6 178.75,-17.74 366.84,133.12 452.85,287.3 68.92,123.56 76.71,291.76 -38.67,361.92 -133.33,81.07 -284.04,-25.48 -370.64,-68.49 -196.89,238.24 -506.75,-18.71 -603.56,-193.4 -182.51,-329.33 104.58,-502.26 400.35,-293.74z"/>
       <path class="fil9" d="M-16543.07 1130.1c-202.88,-7.24 -350.41,-261.21 -200.57,-443.01 80.09,-97.19 128.62,-101.08 277.9,-113.18 104.91,-8.51 263.19,-31.07 362.65,-27.31 212.54,8.02 347.86,255.17 205.85,441.43 -68.51,89.87 -136.35,103.12 -279.15,114.59 -107.29,8.61 -264.51,31.13 -366.67,27.48z"/>
       <path class="fil7" d="M-13687.82 1200.9c17.59,-76.4 35.97,-130.95 2.83,-217.98 -29.25,-76.76 -46.69,-73.88 -88.32,-106.14 -26.34,-20.4 -24.79,-19.53 -40.97,-35.64l27.52 -24.68c116.99,-101.73 143.23,-125.98 103.61,-323.96 241.79,43.91 235.84,-15.78 358.53,-150.74 65.07,156.12 148.44,187.8 345,147.21 -44.7,229.87 1.61,242.89 135.24,352.17 -16.11,15.7 -0.13,4.31 -37.04,33.19 -114.62,89.6 -133.53,142.47 -98.38,320.59 -206.72,-44.65 -260.48,-2.09 -346.12,139.99 -47.94,-41.23 -102.24,-230.84 -361.9,-134.02z"/>
       <path class="fil8" d="M-17881.37 834.42c243.18,-58.23 266.34,-229.64 320.42,-309 29.58,98.87 48.83,128.74 109.76,191.89 103.86,107.65 130.35,74.63 194.22,126.01 -173.04,52.68 -246.9,137.12 -306.93,307.94 -52.97,-96.96 -35.02,-116.24 -113.41,-194.53 -83.19,-83.09 -99.58,-69.57 -204.07,-122.31z"/>
       <path class="fil4" d="M-9205.88 970.57c-51.78,-48.63 -83.85,-2.75 -165.3,-29.2 -45.65,-43.89 -31.05,-67.32 -63.58,-113.59 -30.48,-43.35 -48.22,-38.01 -69.95,-102.12 -1.01,-59.61 37.71,-66.12 66.81,-105.43 30.45,-41.15 33.95,-85.66 67.12,-122.92 50.56,-7.5 101.09,4.34 139.85,-7.36 41.39,-12.48 60.63,-48.6 107.26,-51.39 50.31,-3 74.73,35.37 108.37,48.47 49.96,19.46 88.66,-0.29 148.4,13.14 42.14,47.58 30.34,62.07 62.18,113.03 26.27,42.02 69.6,63.57 70.49,106.61 0.98,48.4 -47.46,72.45 -70.37,108.4 -31.53,49.46 -24.86,68.61 -60.88,115.65 -90.97,16.11 -107.44,-16.93 -182.86,31.75 -90.11,58.16 -89.09,16.94 -157.53,-5.04z"/>
       <path class="fil1" d="M-17653.61 -2272.01l-15.83 -6.95c-2.32,-0.93 -13.22,-5.1 -16.36,-6.38 -14.96,-6.15 -14.64,-2.49 -31.09,-14.16 -22.21,-15.76 -31.99,-38.54 -27.2,-71.25 6.02,-41.2 63.99,-87.53 90.81,-114.18 -22.66,-13.87 -75.38,-21.36 -89.52,-52.88 -8.28,-93.35 63.44,-132.01 111.51,-181.79 49.77,-51.51 102.56,-131.49 189.81,-42.08 76.32,-42.62 77.16,-72.45 156.88,0.81l13.92 -10.79c2.12,-1.6 19.19,-14.9 20.5,-15.68 59.52,-35.35 78.45,-5.86 122.47,26.06 50.11,-27.81 30.52,-51.08 112.05,-34.61 93.68,73.14 2.1,142.49 -47.82,187.69 20.07,18.99 73.83,31.21 85.53,67.24 4.51,76.43 -52.02,120.88 -92.66,147.24 2.22,1.77 6.31,6.35 7.52,4.08 1.19,-2.29 5.92,3.14 7.58,3.89l15.43 6.8c129.87,56.69 38.09,134.68 -17.27,188.43 -59.12,57.43 -100.55,128.73 -166.95,115.61l-54.69 -34.09c-1.19,-1.12 -3.65,-3.92 -5.61,-5.76 -27.64,24.06 -59.8,63.98 -119.18,29.4 -28.32,-16.5 -3.77,-10.09 -37.69,-28.18 -95.97,81.85 -91.14,27.08 -160.56,-1.89 -74.5,85.92 -130.18,23.29 -138.98,-4.39 -21.8,-68.45 54.94,-122.76 87.42,-152.19z"/>
       <path class="fil2" d="M-10515.37 -1070.16c-49.34,-34.33 -54.26,-68.65 -106.03,-89.67 -92.78,-34.23 -84.4,-19.24 -108.5,-122.33 -31.8,-136.1 -122.2,-84.18 8.83,-367.39 43.9,-94.9 96.25,-54.09 126.46,-115.86 56.07,-26.35 45.03,-69.43 134.52,-47.75 119.32,28.91 175.09,-53.17 289.55,47.73 32.36,28.54 57.31,78.66 83.08,117.37 29.37,203.86 15.34,73.15 53.93,172.97 29.07,75.16 -35.25,100.23 -48.77,161.96 -20.67,94.32 16.91,116.34 -67.36,156.2 -78.26,37.03 -72.41,61.9 -126.65,103.92 -63.58,8.06 -53.02,-11.03 -109.44,-18.61 -50.2,-6.74 -74.98,9.26 -129.63,1.46z"/>
       <path class="fil3" d="M-9108.37 -2269.49c-35.05,57.72 -29.57,139.42 -74.63,189.97 -145.3,1.16 -6.6,-153.15 16.99,-222.62 -90.33,86.49 -88.4,158.53 -179.78,145.13 -48.72,-95.71 39.44,-83.99 134.23,-189.58 -44.33,14.45 -75.36,36.58 -117.34,59.77 -112.43,62.11 -156.01,-42.83 -33.15,-78.58l111.87 -39.93c-70.6,0.42 -144.72,25.2 -201.51,-1.47 -36.22,-121.22 150.68,-66.45 228.3,-59 -59.15,-29.98 -249.7,-43.19 -199.95,-127.15 15.88,-17.25 9.89,-24.18 49.65,-15.96 28.87,5.96 118.64,66.88 164.09,81.19 -99.12,-102.44 -171.73,-94.51 -138.3,-191.22 63.68,-7.99 69.27,11.59 100.13,50.89 28.32,36.05 50.73,66.79 82.14,95.07 -27.37,-80.8 -111.89,-149.37 -66.89,-219.96 55.11,-7.77 68.61,10.81 82.35,60.62l38.04 112.91c1.14,2.09 3.19,5.69 5.08,8.34 -1.34,-66.43 -44.52,-208.6 31.88,-210.2 79.45,-1.65 32.77,153.09 31.58,209.82l27.09 -58.94c11.62,-38.55 29.32,-169.12 97.65,-115.44 34.74,27.3 16.53,56.94 -9.79,103.22 -20.81,36.58 -41.64,71.21 -56.73,109.91 25.52,-24.56 49.57,-52.88 78.05,-88.48 37.93,-47.41 25.25,-66.98 105.05,-58.99 27.65,65.2 8.68,70.6 -36.73,104.8 -31.74,23.9 -79.58,63.93 -101.62,87.67 117.56,-45.46 170.56,-121.77 213.51,-65.21 31.73,49.13 -9.19,65.89 -54.12,79.77 -37.61,11.61 -88.15,21.64 -120.83,43.43 68.14,-0.5 151.35,-25.69 204.9,1.5 29.13,120.79 -114.12,64.46 -203.26,62.59 9.97,6.66 1.96,3.57 24.68,13.66 13.02,5.78 10.99,4.86 25.97,9.9 31.7,10.67 169.57,32.02 130.21,99.48 -65.29,51.12 -141.38,-39.06 -219.65,-64.32 64.38,70.36 197.83,124.85 135.32,181.36 -56.62,33.7 -79.9,-16.94 -108.91,-53.1 -11.26,-14.03 -73.89,-85.69 -79.54,-99.42 23.55,74.66 172.23,236.08 25.08,239.32 -40.42,-49.57 -46.38,-135.86 -75.03,-191.3 -2.18,69.05 43.88,214.68 -33.3,215.54 -80.91,0.9 -30.88,-160.97 -32.77,-214.94z"/>
       <path class="fil4" d="M-16012.02 -2189.23c-51.78,-48.63 -83.85,-2.75 -165.3,-29.2 -45.65,-43.89 -31.05,-67.32 -63.58,-113.59 -30.48,-43.35 -48.22,-38.01 -69.95,-102.12 -1.01,-59.61 37.71,-66.12 66.81,-105.43 30.45,-41.15 33.95,-85.66 67.12,-122.92 50.56,-7.5 101.09,4.34 139.84,-7.36 41.39,-12.48 60.63,-48.6 107.26,-51.39 50.31,-3 74.73,35.37 108.37,48.47 49.96,19.46 88.66,-0.29 148.4,13.14 42.14,47.58 30.34,62.07 62.18,113.03 26.27,42.02 69.6,63.57 70.49,106.61 0.98,48.4 -47.46,72.45 -70.37,108.4 -31.53,49.46 -24.86,68.61 -60.88,115.65 -90.97,16.11 -107.44,-16.93 -182.86,31.75 -90.11,58.16 -89.09,16.94 -157.53,-5.04z"/>
       <path class="fil5" d="M-14464.29 -2061.72l-26.74 -6.9c-88.94,-4.57 -159.79,-25.01 -164.08,-177.06 -77.48,20.67 -152.46,-54.94 -160.55,-120.3 -4.39,-35.59 3.68,-44.02 -2.46,-74.38 -6.98,-34.43 -74.75,-113.12 14.14,-154.09 71.58,-3.52 12.11,3.24 33.58,-16.2 -14.37,-31.98 -31.62,-65.83 -13.58,-93.38l37.31 -5.03 -6.67 52.58 64.47 7.46c30.1,60.8 47.98,86.51 113.39,106.17 105.46,31.71 86.27,22.3 131.8,106.23l83.53 9.7c4.76,65.78 -15.82,-10.28 5.43,81.89 9.93,43.04 3.1,15.71 -10.23,48.14l25.11 -1.6c1.03,0.15 4.72,0.53 6.79,1.6 -14.8,53.14 -17.91,23.02 1.44,41.55 -23.86,22.37 -24.41,0.99 -35.99,25.69 11.49,3.93 -0.89,5.89 31.04,5.53 34.46,-0.4 21.15,11.08 11.74,-5.48l26.13 28.36c1.09,1.48 2.86,5 4.12,7.61l-58.22 13.05 16.57 19.31c8.25,54.09 32.76,74.85 -11.42,111.04 -47.75,34.25 -71.4,3.97 -116.63,-11.51z"/>
       <path class="fil6" d="M-11902.45 -2683.02c58.71,-42.06 57.05,-83.41 159.67,-93.6 178.75,-17.74 366.84,133.12 452.85,287.3 68.92,123.56 76.71,291.76 -38.67,361.92 -133.33,81.07 -284.04,-25.48 -370.64,-68.49 -196.89,238.24 -506.74,-18.71 -603.56,-193.4 -182.51,-329.33 104.58,-502.26 400.35,-293.74z"/>
       <path class="fil10" d="M-13516.37 -2146.16c-202.88,-7.24 -350.41,-261.21 -200.57,-443.01 80.09,-97.19 128.62,-101.08 277.9,-113.18 104.91,-8.51 263.19,-31.07 362.65,-27.31 212.54,8.02 347.86,255.17 205.85,441.43 -68.51,89.87 -136.35,103.12 -279.15,114.59 -107.29,8.61 -264.51,31.13 -366.67,27.48z"/>
       <path class="fil7" d="M-10661.13 -2075.36c17.59,-76.4 35.97,-130.95 2.83,-217.98 -29.25,-76.76 -46.69,-73.88 -88.32,-106.14 -26.34,-20.4 -24.79,-19.53 -40.97,-35.64l27.52 -24.68c116.99,-101.73 143.23,-125.98 103.61,-323.96 241.79,43.91 235.84,-15.78 358.53,-150.74 65.07,156.12 148.44,187.8 345,147.21 -44.7,229.87 1.61,242.89 135.24,352.17 -16.11,15.7 -0.13,4.31 -37.04,33.19 -114.62,89.6 -133.53,142.47 -98.38,320.59 -206.72,-44.65 -260.48,-2.09 -346.12,139.99 -47.94,-41.23 -102.24,-230.84 -361.9,-134.02z"/>
       <path class="fil8" d="M-12092.5 -1451.07c243.18,-58.23 266.34,-229.64 320.42,-309 29.58,98.87 48.83,128.74 109.76,191.89 103.86,107.65 130.35,74.63 194.22,126.01 -173.04,52.68 -246.9,137.12 -306.93,307.94 -52.97,-96.96 -35.02,-116.24 -113.41,-194.53 -83.19,-83.09 -99.58,-69.57 -204.07,-122.31z"/>
       <path class="fil6" d="M-14641.32 -1566.79c58.71,-42.06 57.05,-83.41 159.67,-93.6 178.75,-17.74 366.84,133.12 452.85,287.3 68.92,123.56 76.71,291.76 -38.67,361.92 -133.32,81.07 -284.04,-25.48 -370.64,-68.49 -196.89,238.24 -506.74,-18.71 -603.56,-193.4 -182.51,-329.33 104.58,-502.26 400.35,-293.74z"/>
       <path class="fil9" d="M-16255.24 -1029.92c-202.88,-7.24 -350.41,-261.21 -200.57,-443.01 80.09,-97.19 128.62,-101.08 277.9,-113.18 104.91,-8.51 263.19,-31.07 362.65,-27.31 212.54,8.02 347.86,255.17 205.85,441.43 -68.51,89.87 -136.35,103.12 -279.15,114.59 -107.29,8.61 -264.51,31.13 -366.67,27.48z"/>
       <path class="fil7" d="M-13400 -959.12c17.59,-76.4 35.97,-130.95 2.83,-217.98 -29.25,-76.76 -46.69,-73.88 -88.32,-106.14 -26.34,-20.4 -24.79,-19.53 -40.97,-35.64l27.52 -24.68c116.99,-101.73 143.23,-125.98 103.61,-323.96 241.79,43.91 235.84,-15.78 358.53,-150.74 65.07,156.12 148.44,187.8 345,147.21 -44.7,229.87 1.61,242.89 135.24,352.17 -16.11,15.7 -0.13,4.31 -37.04,33.19 -114.62,89.6 -133.53,142.47 -98.38,320.59 -206.72,-44.65 -260.48,-2.09 -346.12,139.99 -47.94,-41.23 -102.24,-230.84 -361.9,-134.02z"/>
       <path class="fil8" d="M-17593.54 -1325.6c243.18,-58.23 266.34,-229.64 320.42,-309 29.58,98.87 48.83,128.74 109.76,191.89 103.86,107.65 130.35,74.63 194.22,126.01 -173.04,52.68 -246.9,137.12 -306.93,307.94 -52.97,-96.96 -35.02,-116.24 -113.41,-194.53 -83.19,-83.09 -99.58,-69.57 -204.07,-122.31z"/>
       <path class="fil4" d="M-8918.05 -1189.45c-51.78,-48.63 -83.85,-2.75 -165.3,-29.2 -45.65,-43.89 -31.05,-67.32 -63.58,-113.59 -30.48,-43.35 -48.22,-38.01 -69.95,-102.12 -1.01,-59.61 37.71,-66.12 66.81,-105.43 30.45,-41.15 33.95,-85.66 67.12,-122.92 50.56,-7.5 101.09,4.34 139.84,-7.36 41.39,-12.48 60.63,-48.6 107.26,-51.39 50.31,-3 74.73,35.37 108.37,48.47 49.96,19.46 88.66,-0.29 148.4,13.14 42.14,47.58 30.34,62.07 62.18,113.03 26.27,42.02 69.6,63.57 70.49,106.61 0.98,48.4 -47.46,72.45 -70.37,108.4 -31.53,49.46 -24.86,68.61 -60.88,115.65 -90.97,16.11 -107.44,-16.93 -182.86,31.75 -90.11,58.16 -89.09,16.94 -157.53,-5.04z"/>
       <path class="fil10" d="M-13386.4 34.36c-202.88,-7.24 -350.41,-261.21 -200.57,-443.01 80.09,-97.19 128.63,-101.08 277.9,-113.18 104.91,-8.51 263.19,-31.07 362.65,-27.31 212.54,8.02 347.86,255.17 205.85,441.43 -68.51,89.87 -136.35,103.12 -279.15,114.59 -107.29,8.61 -264.51,31.13 -366.67,27.48z"/>
      </g>
     </g>
    </g>
    <path class="fil13" d="M39.55 104.58l1.43 20.17 -2.83 0.21c-6.11,0.45 -11.53,-1.34 -16.16,-5.34 -4.64,-4 -7.19,-9.1 -7.63,-15.21l-5.79 -80.61c-0.46,-6.4 1.55,-12.07 5.93,-16.76 4.38,-4.68 9.91,-7.07 16.32,-7.04l56.7 0.25c11.64,0.05 21.22,9.01 22.05,20.62l1.13 15.72c0.64,8.93 -3.76,16.92 -11.64,21.15l-47.85 25.69c-7.88,4.23 -12.28,12.21 -11.65,21.14z"/>
    <path class="fil12" d="M206.48 148.97l-1.43 -20.17 2.83 -0.21c6.11,-0.45 11.53,1.34 16.16,5.34 4.64,4 7.2,9.11 7.63,15.22l5.79 80.61c0.46,6.4 -1.55,12.07 -5.93,16.76 -4.38,4.68 -9.91,7.07 -16.32,7.04l-56.7 -0.25c-11.64,-0.05 -21.22,-9.01 -22.05,-20.62l-1.13 -15.72c-0.64,-8.93 3.76,-16.92 11.64,-21.15l47.85 -25.69c7.88,-4.23 12.28,-12.21 11.65,-21.14z"/>
    <g style="clip-path:url(#id2)">
     <g>
      <g>
       <path id="_1_25" class="fil1" d="M-17683.94 76.41l-15.83 -6.95c-2.32,-0.93 -13.22,-5.1 -16.36,-6.38 -14.96,-6.15 -14.64,-2.49 -31.09,-14.16 -22.21,-15.76 -31.99,-38.54 -27.2,-71.25 6.02,-41.2 63.99,-87.53 90.81,-114.18 -22.66,-13.87 -75.38,-21.36 -89.52,-52.88 -8.29,-93.35 63.44,-132.01 111.51,-181.79 49.77,-51.51 102.56,-131.49 189.81,-42.07 76.32,-42.62 77.16,-72.45 156.88,0.81l13.92 -10.79c2.12,-1.6 19.19,-14.9 20.5,-15.68 59.52,-35.35 78.45,-5.86 122.47,26.06 50.11,-27.81 30.52,-51.08 112.05,-34.61 93.68,73.14 2.1,142.49 -47.82,187.69 20.06,18.99 73.83,31.21 85.53,67.24 4.51,76.43 -52.01,120.88 -92.66,147.24 2.22,1.77 6.31,6.35 7.52,4.08 1.19,-2.29 5.92,3.14 7.58,3.89l15.43 6.8c129.87,56.69 38.09,134.68 -17.27,188.43 -59.12,57.43 -100.55,128.73 -166.95,115.61l-54.69 -34.09c-1.19,-1.13 -3.65,-3.92 -5.61,-5.76 -27.64,24.06 -59.8,63.98 -119.18,29.4 -28.32,-16.5 -3.77,-10.09 -37.69,-28.18 -95.97,81.85 -91.14,27.08 -160.56,-1.89 -74.5,85.92 -130.18,23.29 -138.98,-4.39 -21.8,-68.45 54.94,-122.76 87.42,-152.19z"/>
       <path class="fil2" d="M-10803.2 1089.86c-49.34,-34.33 -54.26,-68.65 -106.03,-89.67 -92.78,-34.23 -84.4,-19.24 -108.5,-122.33 -31.8,-136.1 -122.2,-84.18 8.83,-367.39 43.9,-94.9 96.25,-54.09 126.46,-115.86 56.07,-26.35 45.03,-69.43 134.52,-47.75 119.32,28.91 175.09,-53.17 289.55,47.73 32.36,28.54 57.31,78.66 83.08,117.37 29.37,203.86 15.34,73.15 53.93,172.97 29.06,75.16 -35.25,100.23 -48.77,161.96 -20.67,94.32 16.91,116.34 -67.35,156.2 -78.26,37.03 -72.41,61.9 -126.65,103.92 -63.58,8.06 -53.02,-11.03 -109.44,-18.61 -50.2,-6.74 -74.98,9.26 -129.63,1.46z"/>
       <path class="fil3" d="M-8771.58 -132.6c-35.05,57.72 -29.57,139.42 -74.63,189.97 -145.3,1.16 -6.6,-153.15 16.99,-222.62 -90.33,86.49 -88.4,158.53 -179.78,145.13 -48.72,-95.7 39.44,-83.99 134.23,-189.58 -44.33,14.45 -75.36,36.58 -117.34,59.77 -112.43,62.11 -156.01,-42.83 -33.15,-78.58l111.86 -39.93c-70.6,0.42 -144.72,25.2 -201.51,-1.47 -36.23,-121.22 150.68,-66.45 228.3,-59 -59.15,-29.98 -249.7,-43.19 -199.95,-127.15 15.88,-17.25 9.89,-24.18 49.65,-15.96 28.87,5.96 118.64,66.88 164.09,81.19 -99.12,-102.44 -171.73,-94.51 -138.3,-191.22 63.68,-7.99 69.27,11.59 100.13,50.89 28.32,36.05 50.73,66.79 82.14,95.07 -27.37,-80.8 -111.89,-149.37 -66.89,-219.96 55.11,-7.77 68.61,10.81 82.35,60.62l38.04 112.91c1.14,2.09 3.19,5.69 5.08,8.34 -1.34,-66.43 -44.52,-208.6 31.88,-210.2 79.45,-1.65 32.77,153.09 31.58,209.82l27.09 -58.94c11.62,-38.55 29.32,-169.12 97.65,-115.44 34.74,27.3 16.53,56.94 -9.79,103.22 -20.81,36.58 -41.64,71.21 -56.73,109.91 25.52,-24.57 49.57,-52.88 78.05,-88.48 37.93,-47.41 25.25,-66.98 105.05,-58.99 27.65,65.2 8.68,70.6 -36.73,104.8 -31.74,23.9 -79.58,63.93 -101.62,87.67 117.56,-45.46 170.56,-121.77 213.51,-65.21 31.73,49.13 -9.19,65.89 -54.12,79.77 -37.61,11.61 -88.15,21.64 -120.83,43.43 68.14,-0.5 151.35,-25.69 204.9,1.5 29.13,120.79 -114.12,64.46 -203.26,62.59 9.97,6.66 1.96,3.57 24.68,13.66 13.02,5.78 10.99,4.86 25.97,9.9 31.7,10.67 169.57,32.02 130.21,99.48 -65.29,51.11 -141.38,-39.06 -219.65,-64.32 64.38,70.36 197.83,124.85 135.32,181.36 -56.62,33.7 -79.9,-16.94 -108.91,-53.1 -11.26,-14.03 -73.89,-85.69 -79.54,-99.42 23.55,74.66 172.23,236.08 25.08,239.32 -40.42,-49.57 -46.38,-135.86 -75.03,-191.3 -2.18,69.05 43.88,214.68 -33.3,215.54 -80.91,0.9 -30.88,-160.97 -32.77,-214.94z"/>
       <path class="fil4" d="M-16042.34 65.63c-51.78,-48.63 -83.85,-2.75 -165.3,-29.2 -45.65,-43.89 -31.05,-67.32 -63.58,-113.59 -30.48,-43.35 -48.22,-38.01 -69.95,-102.12 -1.01,-59.61 37.71,-66.12 66.81,-105.43 30.45,-41.15 33.95,-85.66 67.12,-122.92 50.56,-7.5 101.09,4.34 139.84,-7.36 41.39,-12.48 60.63,-48.6 107.26,-51.39 50.31,-3 74.73,35.36 108.37,48.47 49.96,19.46 88.66,-0.29 148.4,13.14 42.14,47.58 30.34,62.07 62.18,113.03 26.27,42.02 69.6,63.57 70.49,106.61 0.98,48.4 -47.46,72.45 -70.37,108.4 -31.53,49.46 -24.86,68.61 -60.88,115.65 -90.97,16.11 -107.44,-16.93 -182.86,31.75 -90.11,58.16 -89.09,16.94 -157.53,-5.04z"/>
       <path class="fil5" d="M-11808.92 1097.47l-26.74 -6.9c-88.94,-4.57 -159.79,-25.01 -164.08,-177.06 -77.48,20.67 -152.46,-54.94 -160.55,-120.3 -4.39,-35.59 3.68,-44.02 -2.46,-74.38 -6.98,-34.43 -74.75,-113.12 14.14,-154.09 71.58,-3.52 12.11,3.24 33.58,-16.2 -14.37,-31.98 -31.62,-65.83 -13.58,-93.38l37.31 -5.03 -6.67 52.58 64.47 7.46c30.1,60.8 47.98,86.51 113.39,106.17 105.46,31.71 86.27,22.3 131.8,106.23l83.53 9.7c4.76,65.78 -15.82,-10.28 5.43,81.89 9.93,43.04 3.1,15.71 -10.23,48.14l25.11 -1.6c1.03,0.15 4.72,0.53 6.79,1.6 -14.8,53.14 -17.91,23.02 1.44,41.55 -23.86,22.37 -24.41,0.99 -35.99,25.69 11.49,3.93 -0.89,5.89 31.04,5.53 34.47,-0.4 21.15,11.08 11.74,-5.48l26.13 28.36c1.09,1.48 2.86,5 4.12,7.61l-58.22 13.05 16.57 19.31c8.25,54.09 32.76,74.85 -11.42,111.04 -47.75,34.25 -71.4,3.97 -116.63,-11.51z"/>
       <path class="fil6" d="M-11932.78 -440.63c58.71,-42.06 57.05,-83.41 159.67,-93.6 178.75,-17.74 366.84,133.12 452.85,287.3 68.92,123.56 76.71,291.76 -38.67,361.92 -133.32,81.07 -284.04,-25.48 -370.64,-68.49 -196.89,238.25 -506.75,-18.71 -603.56,-193.4 -182.51,-329.33 104.58,-502.26 400.35,-293.74z"/>
       <path class="fil7" d="M-10691.45 167.03c17.59,-76.4 35.97,-130.95 2.83,-217.98 -29.25,-76.76 -46.69,-73.88 -88.32,-106.14 -26.34,-20.4 -24.79,-19.53 -40.97,-35.64l27.52 -24.68c116.99,-101.73 143.23,-125.98 103.61,-323.96 241.79,43.91 235.84,-15.78 358.53,-150.74 65.07,156.12 148.44,187.8 345,147.21 -44.7,229.87 1.61,242.89 135.24,352.17 -16.11,15.7 -0.13,4.31 -37.04,33.19 -114.62,89.6 -133.53,142.47 -98.38,320.59 -206.72,-44.65 -260.48,-2.09 -346.12,139.99 -47.94,-41.23 -102.24,-230.84 -361.9,-134.02z"/>
       <path class="fil8" d="M-14885 -199.45c243.18,-58.23 266.35,-229.64 320.42,-309 29.58,98.87 48.83,128.74 109.76,191.89 103.86,107.65 130.35,74.63 194.22,126.01 -173.04,52.68 -246.9,137.12 -306.93,307.94 -52.97,-96.96 -35.02,-116.24 -113.41,-194.53 -83.19,-83.09 -99.58,-69.57 -204.07,-122.31z"/>
       <path class="fil6" d="M-14929.15 593.24c58.71,-42.06 57.05,-83.41 159.67,-93.6 178.75,-17.74 366.84,133.12 452.85,287.3 68.92,123.56 76.71,291.76 -38.67,361.92 -133.33,81.07 -284.04,-25.48 -370.64,-68.49 -196.89,238.24 -506.75,-18.71 -603.56,-193.4 -182.51,-329.33 104.58,-502.26 400.35,-293.74z"/>
       <path class="fil9" d="M-16543.07 1130.1c-202.88,-7.24 -350.41,-261.21 -200.57,-443.01 80.09,-97.19 128.62,-101.08 277.9,-113.18 104.91,-8.51 263.19,-31.07 362.65,-27.31 212.54,8.02 347.86,255.17 205.85,441.43 -68.51,89.87 -136.35,103.12 -279.15,114.59 -107.29,8.61 -264.51,31.13 -366.67,27.48z"/>
       <path class="fil7" d="M-13687.82 1200.9c17.59,-76.4 35.97,-130.95 2.83,-217.98 -29.25,-76.76 -46.69,-73.88 -88.32,-106.14 -26.34,-20.4 -24.79,-19.53 -40.97,-35.64l27.52 -24.68c116.99,-101.73 143.23,-125.98 103.61,-323.96 241.79,43.91 235.84,-15.78 358.53,-150.74 65.07,156.12 148.44,187.8 345,147.21 -44.7,229.87 1.61,242.89 135.24,352.17 -16.11,15.7 -0.13,4.31 -37.04,33.19 -114.62,89.6 -133.53,142.47 -98.38,320.59 -206.72,-44.65 -260.48,-2.09 -346.12,139.99 -47.94,-41.23 -102.24,-230.84 -361.9,-134.02z"/>
       <path class="fil8" d="M-17881.37 834.42c243.18,-58.23 266.34,-229.64 320.42,-309 29.58,98.87 48.83,128.74 109.76,191.89 103.86,107.65 130.35,74.63 194.22,126.01 -173.04,52.68 -246.9,137.12 -306.93,307.94 -52.97,-96.96 -35.02,-116.24 -113.41,-194.53 -83.19,-83.09 -99.58,-69.57 -204.07,-122.31z"/>
       <path class="fil4" d="M-9205.88 970.57c-51.78,-48.63 -83.85,-2.75 -165.3,-29.2 -45.65,-43.89 -31.05,-67.32 -63.58,-113.59 -30.48,-43.35 -48.22,-38.01 -69.95,-102.12 -1.01,-59.61 37.71,-66.12 66.81,-105.43 30.45,-41.15 33.95,-85.66 67.12,-122.92 50.56,-7.5 101.09,4.34 139.85,-7.36 41.39,-12.48 60.63,-48.6 107.26,-51.39 50.31,-3 74.73,35.37 108.37,48.47 49.96,19.46 88.66,-0.29 148.4,13.14 42.14,47.58 30.34,62.07 62.18,113.03 26.27,42.02 69.6,63.57 70.49,106.61 0.98,48.4 -47.46,72.45 -70.37,108.4 -31.53,49.46 -24.86,68.61 -60.88,115.65 -90.97,16.11 -107.44,-16.93 -182.86,31.75 -90.11,58.16 -89.09,16.94 -157.53,-5.04z"/>
       <path class="fil1" d="M-17653.61 -2272.01l-15.83 -6.95c-2.32,-0.93 -13.22,-5.1 -16.36,-6.38 -14.96,-6.15 -14.64,-2.49 -31.09,-14.16 -22.21,-15.76 -31.99,-38.54 -27.2,-71.25 6.02,-41.2 63.99,-87.53 90.81,-114.18 -22.66,-13.87 -75.38,-21.36 -89.52,-52.88 -8.28,-93.35 63.44,-132.01 111.51,-181.79 49.77,-51.51 102.56,-131.49 189.81,-42.08 76.32,-42.62 77.16,-72.45 156.88,0.81l13.92 -10.79c2.12,-1.6 19.19,-14.9 20.5,-15.68 59.52,-35.35 78.45,-5.86 122.47,26.06 50.11,-27.81 30.52,-51.08 112.05,-34.61 93.68,73.14 2.1,142.49 -47.82,187.69 20.07,18.99 73.83,31.21 85.53,67.24 4.51,76.43 -52.02,120.88 -92.66,147.24 2.22,1.77 6.31,6.35 7.52,4.08 1.19,-2.29 5.92,3.14 7.58,3.89l15.43 6.8c129.87,56.69 38.09,134.68 -17.27,188.43 -59.12,57.43 -100.55,128.73 -166.95,115.61l-54.69 -34.09c-1.19,-1.12 -3.65,-3.92 -5.61,-5.76 -27.64,24.06 -59.8,63.98 -119.18,29.4 -28.32,-16.5 -3.77,-10.09 -37.69,-28.18 -95.97,81.85 -91.14,27.08 -160.56,-1.89 -74.5,85.92 -130.18,23.29 -138.98,-4.39 -21.8,-68.45 54.94,-122.76 87.42,-152.19z"/>
       <path class="fil2" d="M-10515.37 -1070.16c-49.34,-34.33 -54.26,-68.65 -106.03,-89.67 -92.78,-34.23 -84.4,-19.24 -108.5,-122.33 -31.8,-136.1 -122.2,-84.18 8.83,-367.39 43.9,-94.9 96.25,-54.09 126.46,-115.86 56.07,-26.35 45.03,-69.43 134.52,-47.75 119.32,28.91 175.09,-53.17 289.55,47.73 32.36,28.54 57.31,78.66 83.08,117.37 29.37,203.86 15.34,73.15 53.93,172.97 29.07,75.16 -35.25,100.23 -48.77,161.96 -20.67,94.32 16.91,116.34 -67.36,156.2 -78.26,37.03 -72.41,61.9 -126.65,103.92 -63.58,8.06 -53.02,-11.03 -109.44,-18.61 -50.2,-6.74 -74.98,9.26 -129.63,1.46z"/>
       <path class="fil3" d="M-9108.37 -2269.49c-35.05,57.72 -29.57,139.42 -74.63,189.97 -145.3,1.16 -6.6,-153.15 16.99,-222.62 -90.33,86.49 -88.4,158.53 -179.78,145.13 -48.72,-95.71 39.44,-83.99 134.23,-189.58 -44.33,14.45 -75.36,36.58 -117.34,59.77 -112.43,62.11 -156.01,-42.83 -33.15,-78.58l111.87 -39.93c-70.6,0.42 -144.72,25.2 -201.51,-1.47 -36.22,-121.22 150.68,-66.45 228.3,-59 -59.15,-29.98 -249.7,-43.19 -199.95,-127.15 15.88,-17.25 9.89,-24.18 49.65,-15.96 28.87,5.96 118.64,66.88 164.09,81.19 -99.12,-102.44 -171.73,-94.51 -138.3,-191.22 63.68,-7.99 69.27,11.59 100.13,50.89 28.32,36.05 50.73,66.79 82.14,95.07 -27.37,-80.8 -111.89,-149.37 -66.89,-219.96 55.11,-7.77 68.61,10.81 82.35,60.62l38.04 112.91c1.14,2.09 3.19,5.69 5.08,8.34 -1.34,-66.43 -44.52,-208.6 31.88,-210.2 79.45,-1.65 32.77,153.09 31.58,209.82l27.09 -58.94c11.62,-38.55 29.32,-169.12 97.65,-115.44 34.74,27.3 16.53,56.94 -9.79,103.22 -20.81,36.58 -41.64,71.21 -56.73,109.91 25.52,-24.56 49.57,-52.88 78.05,-88.48 37.93,-47.41 25.25,-66.98 105.05,-58.99 27.65,65.2 8.68,70.6 -36.73,104.8 -31.74,23.9 -79.58,63.93 -101.62,87.67 117.56,-45.46 170.56,-121.77 213.51,-65.21 31.73,49.13 -9.19,65.89 -54.12,79.77 -37.61,11.61 -88.15,21.64 -120.83,43.43 68.14,-0.5 151.35,-25.69 204.9,1.5 29.13,120.79 -114.12,64.46 -203.26,62.59 9.97,6.66 1.96,3.57 24.68,13.66 13.02,5.78 10.99,4.86 25.97,9.9 31.7,10.67 169.57,32.02 130.21,99.48 -65.29,51.12 -141.38,-39.06 -219.65,-64.32 64.38,70.36 197.83,124.85 135.32,181.36 -56.62,33.7 -79.9,-16.94 -108.91,-53.1 -11.26,-14.03 -73.89,-85.69 -79.54,-99.42 23.55,74.66 172.23,236.08 25.08,239.32 -40.42,-49.57 -46.38,-135.86 -75.03,-191.3 -2.18,69.05 43.88,214.68 -33.3,215.54 -80.91,0.9 -30.88,-160.97 -32.77,-214.94z"/>
       <path class="fil4" d="M-16012.02 -2189.23c-51.78,-48.63 -83.85,-2.75 -165.3,-29.2 -45.65,-43.89 -31.05,-67.32 -63.58,-113.59 -30.48,-43.35 -48.22,-38.01 -69.95,-102.12 -1.01,-59.61 37.71,-66.12 66.81,-105.43 30.45,-41.15 33.95,-85.66 67.12,-122.92 50.56,-7.5 101.09,4.34 139.84,-7.36 41.39,-12.48 60.63,-48.6 107.26,-51.39 50.31,-3 74.73,35.37 108.37,48.47 49.96,19.46 88.66,-0.29 148.4,13.14 42.14,47.58 30.34,62.07 62.18,113.03 26.27,42.02 69.6,63.57 70.49,106.61 0.98,48.4 -47.46,72.45 -70.37,108.4 -31.53,49.46 -24.86,68.61 -60.88,115.65 -90.97,16.11 -107.44,-16.93 -182.86,31.75 -90.11,58.16 -89.09,16.94 -157.53,-5.04z"/>
       <path class="fil5" d="M-14464.29 -2061.72l-26.74 -6.9c-88.94,-4.57 -159.79,-25.01 -164.08,-177.06 -77.48,20.67 -152.46,-54.94 -160.55,-120.3 -4.39,-35.59 3.68,-44.02 -2.46,-74.38 -6.98,-34.43 -74.75,-113.12 14.14,-154.09 71.58,-3.52 12.11,3.24 33.58,-16.2 -14.37,-31.98 -31.62,-65.83 -13.58,-93.38l37.31 -5.03 -6.67 52.58 64.47 7.46c30.1,60.8 47.98,86.51 113.39,106.17 105.46,31.71 86.27,22.3 131.8,106.23l83.53 9.7c4.76,65.78 -15.82,-10.28 5.43,81.89 9.93,43.04 3.1,15.71 -10.23,48.14l25.11 -1.6c1.03,0.15 4.72,0.53 6.79,1.6 -14.8,53.14 -17.91,23.02 1.44,41.55 -23.86,22.37 -24.41,0.99 -35.99,25.69 11.49,3.93 -0.89,5.89 31.04,5.53 34.46,-0.4 21.15,11.08 11.74,-5.48l26.13 28.36c1.09,1.48 2.86,5 4.12,7.61l-58.22 13.05 16.57 19.31c8.25,54.09 32.76,74.85 -11.42,111.04 -47.75,34.25 -71.4,3.97 -116.63,-11.51z"/>
       <path class="fil6" d="M-11902.45 -2683.02c58.71,-42.06 57.05,-83.41 159.67,-93.6 178.75,-17.74 366.84,133.12 452.85,287.3 68.92,123.56 76.71,291.76 -38.67,361.92 -133.33,81.07 -284.04,-25.48 -370.64,-68.49 -196.89,238.24 -506.74,-18.71 -603.56,-193.4 -182.51,-329.33 104.58,-502.26 400.35,-293.74z"/>
       <path class="fil10" d="M-13516.37 -2146.16c-202.88,-7.24 -350.41,-261.21 -200.57,-443.01 80.09,-97.19 128.62,-101.08 277.9,-113.18 104.91,-8.51 263.19,-31.07 362.65,-27.31 212.54,8.02 347.86,255.17 205.85,441.43 -68.51,89.87 -136.35,103.12 -279.15,114.59 -107.29,8.61 -264.51,31.13 -366.67,27.48z"/>
       <path class="fil7" d="M-10661.13 -2075.36c17.59,-76.4 35.97,-130.95 2.83,-217.98 -29.25,-76.76 -46.69,-73.88 -88.32,-106.14 -26.34,-20.4 -24.79,-19.53 -40.97,-35.64l27.52 -24.68c116.99,-101.73 143.23,-125.98 103.61,-323.96 241.79,43.91 235.84,-15.78 358.53,-150.74 65.07,156.12 148.44,187.8 345,147.21 -44.7,229.87 1.61,242.89 135.24,352.17 -16.11,15.7 -0.13,4.31 -37.04,33.19 -114.62,89.6 -133.53,142.47 -98.38,320.59 -206.72,-44.65 -260.48,-2.09 -346.12,139.99 -47.94,-41.23 -102.24,-230.84 -361.9,-134.02z"/>
       <path class="fil8" d="M-12092.5 -1451.07c243.18,-58.23 266.34,-229.64 320.42,-309 29.58,98.87 48.83,128.74 109.76,191.89 103.86,107.65 130.35,74.63 194.22,126.01 -173.04,52.68 -246.9,137.12 -306.93,307.94 -52.97,-96.96 -35.02,-116.24 -113.41,-194.53 -83.19,-83.09 -99.58,-69.57 -204.07,-122.31z"/>
       <path class="fil6" d="M-14641.32 -1566.79c58.71,-42.06 57.05,-83.41 159.67,-93.6 178.75,-17.74 366.84,133.12 452.85,287.3 68.92,123.56 76.71,291.76 -38.67,361.92 -133.32,81.07 -284.04,-25.48 -370.64,-68.49 -196.89,238.24 -506.74,-18.71 -603.56,-193.4 -182.51,-329.33 104.58,-502.26 400.35,-293.74z"/>
       <path class="fil9" d="M-16255.24 -1029.92c-202.88,-7.24 -350.41,-261.21 -200.57,-443.01 80.09,-97.19 128.62,-101.08 277.9,-113.18 104.91,-8.51 263.19,-31.07 362.65,-27.31 212.54,8.02 347.86,255.17 205.85,441.43 -68.51,89.87 -136.35,103.12 -279.15,114.59 -107.29,8.61 -264.51,31.13 -366.67,27.48z"/>
       <path class="fil7" d="M-13400 -959.12c17.59,-76.4 35.97,-130.95 2.83,-217.98 -29.25,-76.76 -46.69,-73.88 -88.32,-106.14 -26.34,-20.4 -24.79,-19.53 -40.97,-35.64l27.52 -24.68c116.99,-101.73 143.23,-125.98 103.61,-323.96 241.79,43.91 235.84,-15.78 358.53,-150.74 65.07,156.12 148.44,187.8 345,147.21 -44.7,229.87 1.61,242.89 135.24,352.17 -16.11,15.7 -0.13,4.31 -37.04,33.19 -114.62,89.6 -133.53,142.47 -98.38,320.59 -206.72,-44.65 -260.48,-2.09 -346.12,139.99 -47.94,-41.23 -102.24,-230.84 -361.9,-134.02z"/>
       <path class="fil8" d="M-17593.54 -1325.6c243.18,-58.23 266.34,-229.64 320.42,-309 29.58,98.87 48.83,128.74 109.76,191.89 103.86,107.65 130.35,74.63 194.22,126.01 -173.04,52.68 -246.9,137.12 -306.93,307.94 -52.97,-96.96 -35.02,-116.24 -113.41,-194.53 -83.19,-83.09 -99.58,-69.57 -204.07,-122.31z"/>
       <path class="fil4" d="M-8918.05 -1189.45c-51.78,-48.63 -83.85,-2.75 -165.3,-29.2 -45.65,-43.89 -31.05,-67.32 -63.58,-113.59 -30.48,-43.35 -48.22,-38.01 -69.95,-102.12 -1.01,-59.61 37.71,-66.12 66.81,-105.43 30.45,-41.15 33.95,-85.66 67.12,-122.92 50.56,-7.5 101.09,4.34 139.84,-7.36 41.39,-12.48 60.63,-48.6 107.26,-51.39 50.31,-3 74.73,35.37 108.37,48.47 49.96,19.46 88.66,-0.29 148.4,13.14 42.14,47.58 30.34,62.07 62.18,113.03 26.27,42.02 69.6,63.57 70.49,106.61 0.98,48.4 -47.46,72.45 -70.37,108.4 -31.53,49.46 -24.86,68.61 -60.88,115.65 -90.97,16.11 -107.44,-16.93 -182.86,31.75 -90.11,58.16 -89.09,16.94 -157.53,-5.04z"/>
       <path class="fil10" d="M-13386.4 34.36c-202.88,-7.24 -350.41,-261.21 -200.57,-443.01 80.09,-97.19 128.63,-101.08 277.9,-113.18 104.91,-8.51 263.19,-31.07 362.65,-27.31 212.54,8.02 347.86,255.17 205.85,441.43 -68.51,89.87 -136.35,103.12 -279.15,114.59 -107.29,8.61 -264.51,31.13 -366.67,27.48z"/>
      </g>
     </g>
    </g>
    <path class="fil13" d="M206.48 148.97l-1.43 -20.17 2.83 -0.21c6.11,-0.45 11.53,1.34 16.16,5.34 4.64,4 7.2,9.11 7.63,15.22l5.79 80.61c0.46,6.4 -1.55,12.07 -5.93,16.76 -4.38,4.68 -9.91,7.07 -16.32,7.04l-56.7 -0.25c-11.64,-0.05 -21.22,-9.01 -22.05,-20.62l-1.13 -15.72c-0.64,-8.93 3.76,-16.92 11.64,-21.15l47.85 -25.69c7.88,-4.23 12.28,-12.21 11.65,-21.14z"/>
   </g>
   <g>
    <path class="fil12" d="M104.58 211.33l20.17 -1.43 0.21 2.83c0.45,6.11 -1.34,11.53 -5.34,16.16 -4,4.64 -9.1,7.2 -15.21,7.63l-80.61 5.79c-6.4,0.46 -12.07,-1.55 -16.76,-5.93 -4.68,-4.38 -7.07,-9.91 -7.04,-16.32l0.25 -56.7c0.05,-11.64 9.01,-21.22 20.62,-22.05l15.72 -1.13c8.93,-0.64 16.92,3.76 21.15,11.64l25.69 47.85c4.23,7.88 12.21,12.28 21.14,11.65z"/>
    <g style="clip-path:url(#id3)">
     <g>
      <g>
       <path id="_1_26" class="fil1" d="M-17683.94 76.41l-15.83 -6.95c-2.32,-0.93 -13.22,-5.1 -16.36,-6.38 -14.96,-6.15 -14.64,-2.49 -31.09,-14.16 -22.21,-15.76 -31.99,-38.54 -27.2,-71.25 6.02,-41.2 63.99,-87.53 90.81,-114.18 -22.66,-13.87 -75.38,-21.36 -89.52,-52.88 -8.29,-93.35 63.44,-132.01 111.51,-181.79 49.77,-51.51 102.56,-131.49 189.81,-42.07 76.32,-42.62 77.16,-72.45 156.88,0.81l13.92 -10.79c2.12,-1.6 19.19,-14.9 20.5,-15.68 59.52,-35.35 78.45,-5.86 122.47,26.06 50.11,-27.81 30.52,-51.08 112.05,-34.61 93.68,73.14 2.1,142.49 -47.82,187.69 20.06,18.99 73.83,31.21 85.53,67.24 4.51,76.43 -52.01,120.88 -92.66,147.24 2.22,1.77 6.31,6.35 7.52,4.08 1.19,-2.29 5.92,3.14 7.58,3.89l15.43 6.8c129.87,56.69 38.09,134.68 -17.27,188.43 -59.12,57.43 -100.55,128.73 -166.95,115.61l-54.69 -34.09c-1.19,-1.13 -3.65,-3.92 -5.61,-5.76 -27.64,24.06 -59.8,63.98 -119.18,29.4 -28.32,-16.5 -3.77,-10.09 -37.69,-28.18 -95.97,81.85 -91.14,27.08 -160.56,-1.89 -74.5,85.92 -130.18,23.29 -138.98,-4.39 -21.8,-68.45 54.94,-122.76 87.42,-152.19z"/>
       <path class="fil2" d="M-10803.2 1089.86c-49.34,-34.33 -54.26,-68.65 -106.03,-89.67 -92.78,-34.23 -84.4,-19.24 -108.5,-122.33 -31.8,-136.1 -122.2,-84.18 8.83,-367.39 43.9,-94.9 96.25,-54.09 126.46,-115.86 56.07,-26.35 45.03,-69.43 134.52,-47.75 119.32,28.91 175.09,-53.17 289.55,47.73 32.36,28.54 57.31,78.66 83.08,117.37 29.37,203.86 15.34,73.15 53.93,172.97 29.06,75.16 -35.25,100.23 -48.77,161.96 -20.67,94.32 16.91,116.34 -67.35,156.2 -78.26,37.03 -72.41,61.9 -126.65,103.92 -63.58,8.06 -53.02,-11.03 -109.44,-18.61 -50.2,-6.74 -74.98,9.26 -129.63,1.46z"/>
       <path class="fil3" d="M-8771.58 -132.6c-35.05,57.72 -29.57,139.42 -74.63,189.97 -145.3,1.16 -6.6,-153.15 16.99,-222.62 -90.33,86.49 -88.4,158.53 -179.78,145.13 -48.72,-95.7 39.44,-83.99 134.23,-189.58 -44.33,14.45 -75.36,36.58 -117.34,59.77 -112.43,62.11 -156.01,-42.83 -33.15,-78.58l111.86 -39.93c-70.6,0.42 -144.72,25.2 -201.51,-1.47 -36.23,-121.22 150.68,-66.45 228.3,-59 -59.15,-29.98 -249.7,-43.19 -199.95,-127.15 15.88,-17.25 9.89,-24.18 49.65,-15.96 28.87,5.96 118.64,66.88 164.09,81.19 -99.12,-102.44 -171.73,-94.51 -138.3,-191.22 63.68,-7.99 69.27,11.59 100.13,50.89 28.32,36.05 50.73,66.79 82.14,95.07 -27.37,-80.8 -111.89,-149.37 -66.89,-219.96 55.11,-7.77 68.61,10.81 82.35,60.62l38.04 112.91c1.14,2.09 3.19,5.69 5.08,8.34 -1.34,-66.43 -44.52,-208.6 31.88,-210.2 79.45,-1.65 32.77,153.09 31.58,209.82l27.09 -58.94c11.62,-38.55 29.32,-169.12 97.65,-115.44 34.74,27.3 16.53,56.94 -9.79,103.22 -20.81,36.58 -41.64,71.21 -56.73,109.91 25.52,-24.57 49.57,-52.88 78.05,-88.48 37.93,-47.41 25.25,-66.98 105.05,-58.99 27.65,65.2 8.68,70.6 -36.73,104.8 -31.74,23.9 -79.58,63.93 -101.62,87.67 117.56,-45.46 170.56,-121.77 213.51,-65.21 31.73,49.13 -9.19,65.89 -54.12,79.77 -37.61,11.61 -88.15,21.64 -120.83,43.43 68.14,-0.5 151.35,-25.69 204.9,1.5 29.13,120.79 -114.12,64.46 -203.26,62.59 9.97,6.66 1.96,3.57 24.68,13.66 13.02,5.78 10.99,4.86 25.97,9.9 31.7,10.67 169.57,32.02 130.21,99.48 -65.29,51.11 -141.38,-39.06 -219.65,-64.32 64.38,70.36 197.83,124.85 135.32,181.36 -56.62,33.7 -79.9,-16.94 -108.91,-53.1 -11.26,-14.03 -73.89,-85.69 -79.54,-99.42 23.55,74.66 172.23,236.08 25.08,239.32 -40.42,-49.57 -46.38,-135.86 -75.03,-191.3 -2.18,69.05 43.88,214.68 -33.3,215.54 -80.91,0.9 -30.88,-160.97 -32.77,-214.94z"/>
       <path class="fil4" d="M-16042.34 65.63c-51.78,-48.63 -83.85,-2.75 -165.3,-29.2 -45.65,-43.89 -31.05,-67.32 -63.58,-113.59 -30.48,-43.35 -48.22,-38.01 -69.95,-102.12 -1.01,-59.61 37.71,-66.12 66.81,-105.43 30.45,-41.15 33.95,-85.66 67.12,-122.92 50.56,-7.5 101.09,4.34 139.84,-7.36 41.39,-12.48 60.63,-48.6 107.26,-51.39 50.31,-3 74.73,35.36 108.37,48.47 49.96,19.46 88.66,-0.29 148.4,13.14 42.14,47.58 30.34,62.07 62.18,113.03 26.27,42.02 69.6,63.57 70.49,106.61 0.98,48.4 -47.46,72.45 -70.37,108.4 -31.53,49.46 -24.86,68.61 -60.88,115.65 -90.97,16.11 -107.44,-16.93 -182.86,31.75 -90.11,58.16 -89.09,16.94 -157.53,-5.04z"/>
       <path class="fil5" d="M-11808.92 1097.47l-26.74 -6.9c-88.94,-4.57 -159.79,-25.01 -164.08,-177.06 -77.48,20.67 -152.46,-54.94 -160.55,-120.3 -4.39,-35.59 3.68,-44.02 -2.46,-74.38 -6.98,-34.43 -74.75,-113.12 14.14,-154.09 71.58,-3.52 12.11,3.24 33.58,-16.2 -14.37,-31.98 -31.62,-65.83 -13.58,-93.38l37.31 -5.03 -6.67 52.58 64.47 7.46c30.1,60.8 47.98,86.51 113.39,106.17 105.46,31.71 86.27,22.3 131.8,106.23l83.53 9.7c4.76,65.78 -15.82,-10.28 5.43,81.89 9.93,43.04 3.1,15.71 -10.23,48.14l25.11 -1.6c1.03,0.15 4.72,0.53 6.79,1.6 -14.8,53.14 -17.91,23.02 1.44,41.55 -23.86,22.37 -24.41,0.99 -35.99,25.69 11.49,3.93 -0.89,5.89 31.04,5.53 34.47,-0.4 21.15,11.08 11.74,-5.48l26.13 28.36c1.09,1.48 2.86,5 4.12,7.61l-58.22 13.05 16.57 19.31c8.25,54.09 32.76,74.85 -11.42,111.04 -47.75,34.25 -71.4,3.97 -116.63,-11.51z"/>
       <path class="fil6" d="M-11932.78 -440.63c58.71,-42.06 57.05,-83.41 159.67,-93.6 178.75,-17.74 366.84,133.12 452.85,287.3 68.92,123.56 76.71,291.76 -38.67,361.92 -133.32,81.07 -284.04,-25.48 -370.64,-68.49 -196.89,238.25 -506.75,-18.71 -603.56,-193.4 -182.51,-329.33 104.58,-502.26 400.35,-293.74z"/>
       <path class="fil7" d="M-10691.45 167.03c17.59,-76.4 35.97,-130.95 2.83,-217.98 -29.25,-76.76 -46.69,-73.88 -88.32,-106.14 -26.34,-20.4 -24.79,-19.53 -40.97,-35.64l27.52 -24.68c116.99,-101.73 143.23,-125.98 103.61,-323.96 241.79,43.91 235.84,-15.78 358.53,-150.74 65.07,156.12 148.44,187.8 345,147.21 -44.7,229.87 1.61,242.89 135.24,352.17 -16.11,15.7 -0.13,4.31 -37.04,33.19 -114.62,89.6 -133.53,142.47 -98.38,320.59 -206.72,-44.65 -260.48,-2.09 -346.12,139.99 -47.94,-41.23 -102.24,-230.84 -361.9,-134.02z"/>
       <path class="fil8" d="M-14885 -199.45c243.18,-58.23 266.35,-229.64 320.42,-309 29.58,98.87 48.83,128.74 109.76,191.89 103.86,107.65 130.35,74.63 194.22,126.01 -173.04,52.68 -246.9,137.12 -306.93,307.94 -52.97,-96.96 -35.02,-116.24 -113.41,-194.53 -83.19,-83.09 -99.58,-69.57 -204.07,-122.31z"/>
       <path class="fil6" d="M-14929.15 593.24c58.71,-42.06 57.05,-83.41 159.67,-93.6 178.75,-17.74 366.84,133.12 452.85,287.3 68.92,123.56 76.71,291.76 -38.67,361.92 -133.33,81.07 -284.04,-25.48 -370.64,-68.49 -196.89,238.24 -506.75,-18.71 -603.56,-193.4 -182.51,-329.33 104.58,-502.26 400.35,-293.74z"/>
       <path class="fil9" d="M-16543.07 1130.1c-202.88,-7.24 -350.41,-261.21 -200.57,-443.01 80.09,-97.19 128.62,-101.08 277.9,-113.18 104.91,-8.51 263.19,-31.07 362.65,-27.31 212.54,8.02 347.86,255.17 205.85,441.43 -68.51,89.87 -136.35,103.12 -279.15,114.59 -107.29,8.61 -264.51,31.13 -366.67,27.48z"/>
       <path class="fil7" d="M-13687.82 1200.9c17.59,-76.4 35.97,-130.95 2.83,-217.98 -29.25,-76.76 -46.69,-73.88 -88.32,-106.14 -26.34,-20.4 -24.79,-19.53 -40.97,-35.64l27.52 -24.68c116.99,-101.73 143.23,-125.98 103.61,-323.96 241.79,43.91 235.84,-15.78 358.53,-150.74 65.07,156.12 148.44,187.8 345,147.21 -44.7,229.87 1.61,242.89 135.24,352.17 -16.11,15.7 -0.13,4.31 -37.04,33.19 -114.62,89.6 -133.53,142.47 -98.38,320.59 -206.72,-44.65 -260.48,-2.09 -346.12,139.99 -47.94,-41.23 -102.24,-230.84 -361.9,-134.02z"/>
       <path class="fil8" d="M-17881.37 834.42c243.18,-58.23 266.34,-229.64 320.42,-309 29.58,98.87 48.83,128.74 109.76,191.89 103.86,107.65 130.35,74.63 194.22,126.01 -173.04,52.68 -246.9,137.12 -306.93,307.94 -52.97,-96.96 -35.02,-116.24 -113.41,-194.53 -83.19,-83.09 -99.58,-69.57 -204.07,-122.31z"/>
       <path class="fil4" d="M-9205.88 970.57c-51.78,-48.63 -83.85,-2.75 -165.3,-29.2 -45.65,-43.89 -31.05,-67.32 -63.58,-113.59 -30.48,-43.35 -48.22,-38.01 -69.95,-102.12 -1.01,-59.61 37.71,-66.12 66.81,-105.43 30.45,-41.15 33.95,-85.66 67.12,-122.92 50.56,-7.5 101.09,4.34 139.85,-7.36 41.39,-12.48 60.63,-48.6 107.26,-51.39 50.31,-3 74.73,35.37 108.37,48.47 49.96,19.46 88.66,-0.29 148.4,13.14 42.14,47.58 30.34,62.07 62.18,113.03 26.27,42.02 69.6,63.57 70.49,106.61 0.98,48.4 -47.46,72.45 -70.37,108.4 -31.53,49.46 -24.86,68.61 -60.88,115.65 -90.97,16.11 -107.44,-16.93 -182.86,31.75 -90.11,58.16 -89.09,16.94 -157.53,-5.04z"/>
       <path class="fil1" d="M-17653.61 -2272.01l-15.83 -6.95c-2.32,-0.93 -13.22,-5.1 -16.36,-6.38 -14.96,-6.15 -14.64,-2.49 -31.09,-14.16 -22.21,-15.76 -31.99,-38.54 -27.2,-71.25 6.02,-41.2 63.99,-87.53 90.81,-114.18 -22.66,-13.87 -75.38,-21.36 -89.52,-52.88 -8.28,-93.35 63.44,-132.01 111.51,-181.79 49.77,-51.51 102.56,-131.49 189.81,-42.08 76.32,-42.62 77.16,-72.45 156.88,0.81l13.92 -10.79c2.12,-1.6 19.19,-14.9 20.5,-15.68 59.52,-35.35 78.45,-5.86 122.47,26.06 50.11,-27.81 30.52,-51.08 112.05,-34.61 93.68,73.14 2.1,142.49 -47.82,187.69 20.07,18.99 73.83,31.21 85.53,67.24 4.51,76.43 -52.02,120.88 -92.66,147.24 2.22,1.77 6.31,6.35 7.52,4.08 1.19,-2.29 5.92,3.14 7.58,3.89l15.43 6.8c129.87,56.69 38.09,134.68 -17.27,188.43 -59.12,57.43 -100.55,128.73 -166.95,115.61l-54.69 -34.09c-1.19,-1.12 -3.65,-3.92 -5.61,-5.76 -27.64,24.06 -59.8,63.98 -119.18,29.4 -28.32,-16.5 -3.77,-10.09 -37.69,-28.18 -95.97,81.85 -91.14,27.08 -160.56,-1.89 -74.5,85.92 -130.18,23.29 -138.98,-4.39 -21.8,-68.45 54.94,-122.76 87.42,-152.19z"/>
       <path class="fil2" d="M-10515.37 -1070.16c-49.34,-34.33 -54.26,-68.65 -106.03,-89.67 -92.78,-34.23 -84.4,-19.24 -108.5,-122.33 -31.8,-136.1 -122.2,-84.18 8.83,-367.39 43.9,-94.9 96.25,-54.09 126.46,-115.86 56.07,-26.35 45.03,-69.43 134.52,-47.75 119.32,28.91 175.09,-53.17 289.55,47.73 32.36,28.54 57.31,78.66 83.08,117.37 29.37,203.86 15.34,73.15 53.93,172.97 29.07,75.16 -35.25,100.23 -48.77,161.96 -20.67,94.32 16.91,116.34 -67.36,156.2 -78.26,37.03 -72.41,61.9 -126.65,103.92 -63.58,8.06 -53.02,-11.03 -109.44,-18.61 -50.2,-6.74 -74.98,9.26 -129.63,1.46z"/>
       <path class="fil3" d="M-9108.37 -2269.49c-35.05,57.72 -29.57,139.42 -74.63,189.97 -145.3,1.16 -6.6,-153.15 16.99,-222.62 -90.33,86.49 -88.4,158.53 -179.78,145.13 -48.72,-95.71 39.44,-83.99 134.23,-189.58 -44.33,14.45 -75.36,36.58 -117.34,59.77 -112.43,62.11 -156.01,-42.83 -33.15,-78.58l111.87 -39.93c-70.6,0.42 -144.72,25.2 -201.51,-1.47 -36.22,-121.22 150.68,-66.45 228.3,-59 -59.15,-29.98 -249.7,-43.19 -199.95,-127.15 15.88,-17.25 9.89,-24.18 49.65,-15.96 28.87,5.96 118.64,66.88 164.09,81.19 -99.12,-102.44 -171.73,-94.51 -138.3,-191.22 63.68,-7.99 69.27,11.59 100.13,50.89 28.32,36.05 50.73,66.79 82.14,95.07 -27.37,-80.8 -111.89,-149.37 -66.89,-219.96 55.11,-7.77 68.61,10.81 82.35,60.62l38.04 112.91c1.14,2.09 3.19,5.69 5.08,8.34 -1.34,-66.43 -44.52,-208.6 31.88,-210.2 79.45,-1.65 32.77,153.09 31.58,209.82l27.09 -58.94c11.62,-38.55 29.32,-169.12 97.65,-115.44 34.74,27.3 16.53,56.94 -9.79,103.22 -20.81,36.58 -41.64,71.21 -56.73,109.91 25.52,-24.56 49.57,-52.88 78.05,-88.48 37.93,-47.41 25.25,-66.98 105.05,-58.99 27.65,65.2 8.68,70.6 -36.73,104.8 -31.74,23.9 -79.58,63.93 -101.62,87.67 117.56,-45.46 170.56,-121.77 213.51,-65.21 31.73,49.13 -9.19,65.89 -54.12,79.77 -37.61,11.61 -88.15,21.64 -120.83,43.43 68.14,-0.5 151.35,-25.69 204.9,1.5 29.13,120.79 -114.12,64.46 -203.26,62.59 9.97,6.66 1.96,3.57 24.68,13.66 13.02,5.78 10.99,4.86 25.97,9.9 31.7,10.67 169.57,32.02 130.21,99.48 -65.29,51.12 -141.38,-39.06 -219.65,-64.32 64.38,70.36 197.83,124.85 135.32,181.36 -56.62,33.7 -79.9,-16.94 -108.91,-53.1 -11.26,-14.03 -73.89,-85.69 -79.54,-99.42 23.55,74.66 172.23,236.08 25.08,239.32 -40.42,-49.57 -46.38,-135.86 -75.03,-191.3 -2.18,69.05 43.88,214.68 -33.3,215.54 -80.91,0.9 -30.88,-160.97 -32.77,-214.94z"/>
       <path class="fil4" d="M-16012.02 -2189.23c-51.78,-48.63 -83.85,-2.75 -165.3,-29.2 -45.65,-43.89 -31.05,-67.32 -63.58,-113.59 -30.48,-43.35 -48.22,-38.01 -69.95,-102.12 -1.01,-59.61 37.71,-66.12 66.81,-105.43 30.45,-41.15 33.95,-85.66 67.12,-122.92 50.56,-7.5 101.09,4.34 139.84,-7.36 41.39,-12.48 60.63,-48.6 107.26,-51.39 50.31,-3 74.73,35.37 108.37,48.47 49.96,19.46 88.66,-0.29 148.4,13.14 42.14,47.58 30.34,62.07 62.18,113.03 26.27,42.02 69.6,63.57 70.49,106.61 0.98,48.4 -47.46,72.45 -70.37,108.4 -31.53,49.46 -24.86,68.61 -60.88,115.65 -90.97,16.11 -107.44,-16.93 -182.86,31.75 -90.11,58.16 -89.09,16.94 -157.53,-5.04z"/>
       <path class="fil5" d="M-14464.29 -2061.72l-26.74 -6.9c-88.94,-4.57 -159.79,-25.01 -164.08,-177.06 -77.48,20.67 -152.46,-54.94 -160.55,-120.3 -4.39,-35.59 3.68,-44.02 -2.46,-74.38 -6.98,-34.43 -74.75,-113.12 14.14,-154.09 71.58,-3.52 12.11,3.24 33.58,-16.2 -14.37,-31.98 -31.62,-65.83 -13.58,-93.38l37.31 -5.03 -6.67 52.58 64.47 7.46c30.1,60.8 47.98,86.51 113.39,106.17 105.46,31.71 86.27,22.3 131.8,106.23l83.53 9.7c4.76,65.78 -15.82,-10.28 5.43,81.89 9.93,43.04 3.1,15.71 -10.23,48.14l25.11 -1.6c1.03,0.15 4.72,0.53 6.79,1.6 -14.8,53.14 -17.91,23.02 1.44,41.55 -23.86,22.37 -24.41,0.99 -35.99,25.69 11.49,3.93 -0.89,5.89 31.04,5.53 34.46,-0.4 21.15,11.08 11.74,-5.48l26.13 28.36c1.09,1.48 2.86,5 4.12,7.61l-58.22 13.05 16.57 19.31c8.25,54.09 32.76,74.85 -11.42,111.04 -47.75,34.25 -71.4,3.97 -116.63,-11.51z"/>
       <path class="fil6" d="M-11902.45 -2683.02c58.71,-42.06 57.05,-83.41 159.67,-93.6 178.75,-17.74 366.84,133.12 452.85,287.3 68.92,123.56 76.71,291.76 -38.67,361.92 -133.33,81.07 -284.04,-25.48 -370.64,-68.49 -196.89,238.24 -506.74,-18.71 -603.56,-193.4 -182.51,-329.33 104.58,-502.26 400.35,-293.74z"/>
       <path class="fil10" d="M-13516.37 -2146.16c-202.88,-7.24 -350.41,-261.21 -200.57,-443.01 80.09,-97.19 128.62,-101.08 277.9,-113.18 104.91,-8.51 263.19,-31.07 362.65,-27.31 212.54,8.02 347.86,255.17 205.85,441.43 -68.51,89.87 -136.35,103.12 -279.15,114.59 -107.29,8.61 -264.51,31.13 -366.67,27.48z"/>
       <path class="fil7" d="M-10661.13 -2075.36c17.59,-76.4 35.97,-130.95 2.83,-217.98 -29.25,-76.76 -46.69,-73.88 -88.32,-106.14 -26.34,-20.4 -24.79,-19.53 -40.97,-35.64l27.52 -24.68c116.99,-101.73 143.23,-125.98 103.61,-323.96 241.79,43.91 235.84,-15.78 358.53,-150.74 65.07,156.12 148.44,187.8 345,147.21 -44.7,229.87 1.61,242.89 135.24,352.17 -16.11,15.7 -0.13,4.31 -37.04,33.19 -114.62,89.6 -133.53,142.47 -98.38,320.59 -206.72,-44.65 -260.48,-2.09 -346.12,139.99 -47.94,-41.23 -102.24,-230.84 -361.9,-134.02z"/>
       <path class="fil8" d="M-12092.5 -1451.07c243.18,-58.23 266.34,-229.64 320.42,-309 29.58,98.87 48.83,128.74 109.76,191.89 103.86,107.65 130.35,74.63 194.22,126.01 -173.04,52.68 -246.9,137.12 -306.93,307.94 -52.97,-96.96 -35.02,-116.24 -113.41,-194.53 -83.19,-83.09 -99.58,-69.57 -204.07,-122.31z"/>
       <path class="fil6" d="M-14641.32 -1566.79c58.71,-42.06 57.05,-83.41 159.67,-93.6 178.75,-17.74 366.84,133.12 452.85,287.3 68.92,123.56 76.71,291.76 -38.67,361.92 -133.32,81.07 -284.04,-25.48 -370.64,-68.49 -196.89,238.24 -506.74,-18.71 -603.56,-193.4 -182.51,-329.33 104.58,-502.26 400.35,-293.74z"/>
       <path class="fil9" d="M-16255.24 -1029.92c-202.88,-7.24 -350.41,-261.21 -200.57,-443.01 80.09,-97.19 128.62,-101.08 277.9,-113.18 104.91,-8.51 263.19,-31.07 362.65,-27.31 212.54,8.02 347.86,255.17 205.85,441.43 -68.51,89.87 -136.35,103.12 -279.15,114.59 -107.29,8.61 -264.51,31.13 -366.67,27.48z"/>
       <path class="fil7" d="M-13400 -959.12c17.59,-76.4 35.97,-130.95 2.83,-217.98 -29.25,-76.76 -46.69,-73.88 -88.32,-106.14 -26.34,-20.4 -24.79,-19.53 -40.97,-35.64l27.52 -24.68c116.99,-101.73 143.23,-125.98 103.61,-323.96 241.79,43.91 235.84,-15.78 358.53,-150.74 65.07,156.12 148.44,187.8 345,147.21 -44.7,229.87 1.61,242.89 135.24,352.17 -16.11,15.7 -0.13,4.31 -37.04,33.19 -114.62,89.6 -133.53,142.47 -98.38,320.59 -206.72,-44.65 -260.48,-2.09 -346.12,139.99 -47.94,-41.23 -102.24,-230.84 -361.9,-134.02z"/>
       <path class="fil8" d="M-17593.54 -1325.6c243.18,-58.23 266.34,-229.64 320.42,-309 29.58,98.87 48.83,128.74 109.76,191.89 103.86,107.65 130.35,74.63 194.22,126.01 -173.04,52.68 -246.9,137.12 -306.93,307.94 -52.97,-96.96 -35.02,-116.24 -113.41,-194.53 -83.19,-83.09 -99.58,-69.57 -204.07,-122.31z"/>
       <path class="fil4" d="M-8918.05 -1189.45c-51.78,-48.63 -83.85,-2.75 -165.3,-29.2 -45.65,-43.89 -31.05,-67.32 -63.58,-113.59 -30.48,-43.35 -48.22,-38.01 -69.95,-102.12 -1.01,-59.61 37.71,-66.12 66.81,-105.43 30.45,-41.15 33.95,-85.66 67.12,-122.92 50.56,-7.5 101.09,4.34 139.84,-7.36 41.39,-12.48 60.63,-48.6 107.26,-51.39 50.31,-3 74.73,35.37 108.37,48.47 49.96,19.46 88.66,-0.29 148.4,13.14 42.14,47.58 30.34,62.07 62.18,113.03 26.27,42.02 69.6,63.57 70.49,106.61 0.98,48.4 -47.46,72.45 -70.37,108.4 -31.53,49.46 -24.86,68.61 -60.88,115.65 -90.97,16.11 -107.44,-16.93 -182.86,31.75 -90.11,58.16 -89.09,16.94 -157.53,-5.04z"/>
       <path class="fil10" d="M-13386.4 34.36c-202.88,-7.24 -350.41,-261.21 -200.57,-443.01 80.09,-97.19 128.63,-101.08 277.9,-113.18 104.91,-8.51 263.19,-31.07 362.65,-27.31 212.54,8.02 347.86,255.17 205.85,441.43 -68.51,89.87 -136.35,103.12 -279.15,114.59 -107.29,8.61 -264.51,31.13 -366.67,27.48z"/>
      </g>
     </g>
    </g>
    <path class="fil13" d="M104.58 211.33l20.17 -1.43 0.21 2.83c0.45,6.11 -1.34,11.53 -5.34,16.16 -4,4.64 -9.1,7.2 -15.21,7.63l-80.61 5.79c-6.4,0.46 -12.07,-1.55 -16.76,-5.93 -4.68,-4.38 -7.07,-9.91 -7.04,-16.32l0.25 -56.7c0.05,-11.64 9.01,-21.22 20.62,-22.05l15.72 -1.13c8.93,-0.64 16.92,3.76 21.15,11.64l25.69 47.85c4.23,7.88 12.21,12.28 21.14,11.65z"/>
    <path class="fil12" d="M141.45 42.22l-20.17 1.43 -0.21 -2.83c-0.45,-6.11 1.34,-11.53 5.34,-16.16 4,-4.64 9.11,-7.19 15.22,-7.63l80.61 -5.79c6.4,-0.46 12.07,1.55 16.76,5.93 4.68,4.38 7.07,9.91 7.04,16.32l-0.25 56.7c-0.05,11.64 -9.01,21.22 -20.62,22.05l-15.72 1.13c-8.93,0.64 -16.92,-3.76 -21.15,-11.64l-25.69 -47.85c-4.23,-7.88 -12.21,-12.28 -21.14,-11.65z"/>
    <g style="clip-path:url(#id4)">
     <g>
      <g>
       <path id="_1_27" class="fil1" d="M-17683.94 76.41l-15.83 -6.95c-2.32,-0.93 -13.22,-5.1 -16.36,-6.38 -14.96,-6.15 -14.64,-2.49 -31.09,-14.16 -22.21,-15.76 -31.99,-38.54 -27.2,-71.25 6.02,-41.2 63.99,-87.53 90.81,-114.18 -22.66,-13.87 -75.38,-21.36 -89.52,-52.88 -8.29,-93.35 63.44,-132.01 111.51,-181.79 49.77,-51.51 102.56,-131.49 189.81,-42.07 76.32,-42.62 77.16,-72.45 156.88,0.81l13.92 -10.79c2.12,-1.6 19.19,-14.9 20.5,-15.68 59.52,-35.35 78.45,-5.86 122.47,26.06 50.11,-27.81 30.52,-51.08 112.05,-34.61 93.68,73.14 2.1,142.49 -47.82,187.69 20.06,18.99 73.83,31.21 85.53,67.24 4.51,76.43 -52.01,120.88 -92.66,147.24 2.22,1.77 6.31,6.35 7.52,4.08 1.19,-2.29 5.92,3.14 7.58,3.89l15.43 6.8c129.87,56.69 38.09,134.68 -17.27,188.43 -59.12,57.43 -100.55,128.73 -166.95,115.61l-54.69 -34.09c-1.19,-1.13 -3.65,-3.92 -5.61,-5.76 -27.64,24.06 -59.8,63.98 -119.18,29.4 -28.32,-16.5 -3.77,-10.09 -37.69,-28.18 -95.97,81.85 -91.14,27.08 -160.56,-1.89 -74.5,85.92 -130.18,23.29 -138.98,-4.39 -21.8,-68.45 54.94,-122.76 87.42,-152.19z"/>
       <path class="fil2" d="M-10803.2 1089.86c-49.34,-34.33 -54.26,-68.65 -106.03,-89.67 -92.78,-34.23 -84.4,-19.24 -108.5,-122.33 -31.8,-136.1 -122.2,-84.18 8.83,-367.39 43.9,-94.9 96.25,-54.09 126.46,-115.86 56.07,-26.35 45.03,-69.43 134.52,-47.75 119.32,28.91 175.09,-53.17 289.55,47.73 32.36,28.54 57.31,78.66 83.08,117.37 29.37,203.86 15.34,73.15 53.93,172.97 29.06,75.16 -35.25,100.23 -48.77,161.96 -20.67,94.32 16.91,116.34 -67.35,156.2 -78.26,37.03 -72.41,61.9 -126.65,103.92 -63.58,8.06 -53.02,-11.03 -109.44,-18.61 -50.2,-6.74 -74.98,9.26 -129.63,1.46z"/>
       <path class="fil3" d="M-8771.58 -132.6c-35.05,57.72 -29.57,139.42 -74.63,189.97 -145.3,1.16 -6.6,-153.15 16.99,-222.62 -90.33,86.49 -88.4,158.53 -179.78,145.13 -48.72,-95.7 39.44,-83.99 134.23,-189.58 -44.33,14.45 -75.36,36.58 -117.34,59.77 -112.43,62.11 -156.01,-42.83 -33.15,-78.58l111.86 -39.93c-70.6,0.42 -144.72,25.2 -201.51,-1.47 -36.23,-121.22 150.68,-66.45 228.3,-59 -59.15,-29.98 -249.7,-43.19 -199.95,-127.15 15.88,-17.25 9.89,-24.18 49.65,-15.96 28.87,5.96 118.64,66.88 164.09,81.19 -99.12,-102.44 -171.73,-94.51 -138.3,-191.22 63.68,-7.99 69.27,11.59 100.13,50.89 28.32,36.05 50.73,66.79 82.14,95.07 -27.37,-80.8 -111.89,-149.37 -66.89,-219.96 55.11,-7.77 68.61,10.81 82.35,60.62l38.04 112.91c1.14,2.09 3.19,5.69 5.08,8.34 -1.34,-66.43 -44.52,-208.6 31.88,-210.2 79.45,-1.65 32.77,153.09 31.58,209.82l27.09 -58.94c11.62,-38.55 29.32,-169.12 97.65,-115.44 34.74,27.3 16.53,56.94 -9.79,103.22 -20.81,36.58 -41.64,71.21 -56.73,109.91 25.52,-24.57 49.57,-52.88 78.05,-88.48 37.93,-47.41 25.25,-66.98 105.05,-58.99 27.65,65.2 8.68,70.6 -36.73,104.8 -31.74,23.9 -79.58,63.93 -101.62,87.67 117.56,-45.46 170.56,-121.77 213.51,-65.21 31.73,49.13 -9.19,65.89 -54.12,79.77 -37.61,11.61 -88.15,21.64 -120.83,43.43 68.14,-0.5 151.35,-25.69 204.9,1.5 29.13,120.79 -114.12,64.46 -203.26,62.59 9.97,6.66 1.96,3.57 24.68,13.66 13.02,5.78 10.99,4.86 25.97,9.9 31.7,10.67 169.57,32.02 130.21,99.48 -65.29,51.11 -141.38,-39.06 -219.65,-64.32 64.38,70.36 197.83,124.85 135.32,181.36 -56.62,33.7 -79.9,-16.94 -108.91,-53.1 -11.26,-14.03 -73.89,-85.69 -79.54,-99.42 23.55,74.66 172.23,236.08 25.08,239.32 -40.42,-49.57 -46.38,-135.86 -75.03,-191.3 -2.18,69.05 43.88,214.68 -33.3,215.54 -80.91,0.9 -30.88,-160.97 -32.77,-214.94z"/>
       <path class="fil4" d="M-16042.34 65.63c-51.78,-48.63 -83.85,-2.75 -165.3,-29.2 -45.65,-43.89 -31.05,-67.32 -63.58,-113.59 -30.48,-43.35 -48.22,-38.01 -69.95,-102.12 -1.01,-59.61 37.71,-66.12 66.81,-105.43 30.45,-41.15 33.95,-85.66 67.12,-122.92 50.56,-7.5 101.09,4.34 139.84,-7.36 41.39,-12.48 60.63,-48.6 107.26,-51.39 50.31,-3 74.73,35.36 108.37,48.47 49.96,19.46 88.66,-0.29 148.4,13.14 42.14,47.58 30.34,62.07 62.18,113.03 26.27,42.02 69.6,63.57 70.49,106.61 0.98,48.4 -47.46,72.45 -70.37,108.4 -31.53,49.46 -24.86,68.61 -60.88,115.65 -90.97,16.11 -107.44,-16.93 -182.86,31.75 -90.11,58.16 -89.09,16.94 -157.53,-5.04z"/>
       <path class="fil5" d="M-11808.92 1097.47l-26.74 -6.9c-88.94,-4.57 -159.79,-25.01 -164.08,-177.06 -77.48,20.67 -152.46,-54.94 -160.55,-120.3 -4.39,-35.59 3.68,-44.02 -2.46,-74.38 -6.98,-34.43 -74.75,-113.12 14.14,-154.09 71.58,-3.52 12.11,3.24 33.58,-16.2 -14.37,-31.98 -31.62,-65.83 -13.58,-93.38l37.31 -5.03 -6.67 52.58 64.47 7.46c30.1,60.8 47.98,86.51 113.39,106.17 105.46,31.71 86.27,22.3 131.8,106.23l83.53 9.7c4.76,65.78 -15.82,-10.28 5.43,81.89 9.93,43.04 3.1,15.71 -10.23,48.14l25.11 -1.6c1.03,0.15 4.72,0.53 6.79,1.6 -14.8,53.14 -17.91,23.02 1.44,41.55 -23.86,22.37 -24.41,0.99 -35.99,25.69 11.49,3.93 -0.89,5.89 31.04,5.53 34.47,-0.4 21.15,11.08 11.74,-5.48l26.13 28.36c1.09,1.48 2.86,5 4.12,7.61l-58.22 13.05 16.57 19.31c8.25,54.09 32.76,74.85 -11.42,111.04 -47.75,34.25 -71.4,3.97 -116.63,-11.51z"/>
       <path class="fil6" d="M-11932.78 -440.63c58.71,-42.06 57.05,-83.41 159.67,-93.6 178.75,-17.74 366.84,133.12 452.85,287.3 68.92,123.56 76.71,291.76 -38.67,361.92 -133.32,81.07 -284.04,-25.48 -370.64,-68.49 -196.89,238.25 -506.75,-18.71 -603.56,-193.4 -182.51,-329.33 104.58,-502.26 400.35,-293.74z"/>
       <path class="fil7" d="M-10691.45 167.03c17.59,-76.4 35.97,-130.95 2.83,-217.98 -29.25,-76.76 -46.69,-73.88 -88.32,-106.14 -26.34,-20.4 -24.79,-19.53 -40.97,-35.64l27.52 -24.68c116.99,-101.73 143.23,-125.98 103.61,-323.96 241.79,43.91 235.84,-15.78 358.53,-150.74 65.07,156.12 148.44,187.8 345,147.21 -44.7,229.87 1.61,242.89 135.24,352.17 -16.11,15.7 -0.13,4.31 -37.04,33.19 -114.62,89.6 -133.53,142.47 -98.38,320.59 -206.72,-44.65 -260.48,-2.09 -346.12,139.99 -47.94,-41.23 -102.24,-230.84 -361.9,-134.02z"/>
       <path class="fil8" d="M-14885 -199.45c243.18,-58.23 266.35,-229.64 320.42,-309 29.58,98.87 48.83,128.74 109.76,191.89 103.86,107.65 130.35,74.63 194.22,126.01 -173.04,52.68 -246.9,137.12 -306.93,307.94 -52.97,-96.96 -35.02,-116.24 -113.41,-194.53 -83.19,-83.09 -99.58,-69.57 -204.07,-122.31z"/>
       <path class="fil6" d="M-14929.15 593.24c58.71,-42.06 57.05,-83.41 159.67,-93.6 178.75,-17.74 366.84,133.12 452.85,287.3 68.92,123.56 76.71,291.76 -38.67,361.92 -133.33,81.07 -284.04,-25.48 -370.64,-68.49 -196.89,238.24 -506.75,-18.71 -603.56,-193.4 -182.51,-329.33 104.58,-502.26 400.35,-293.74z"/>
       <path class="fil9" d="M-16543.07 1130.1c-202.88,-7.24 -350.41,-261.21 -200.57,-443.01 80.09,-97.19 128.62,-101.08 277.9,-113.18 104.91,-8.51 263.19,-31.07 362.65,-27.31 212.54,8.02 347.86,255.17 205.85,441.43 -68.51,89.87 -136.35,103.12 -279.15,114.59 -107.29,8.61 -264.51,31.13 -366.67,27.48z"/>
       <path class="fil7" d="M-13687.82 1200.9c17.59,-76.4 35.97,-130.95 2.83,-217.98 -29.25,-76.76 -46.69,-73.88 -88.32,-106.14 -26.34,-20.4 -24.79,-19.53 -40.97,-35.64l27.52 -24.68c116.99,-101.73 143.23,-125.98 103.61,-323.96 241.79,43.91 235.84,-15.78 358.53,-150.74 65.07,156.12 148.44,187.8 345,147.21 -44.7,229.87 1.61,242.89 135.24,352.17 -16.11,15.7 -0.13,4.31 -37.04,33.19 -114.62,89.6 -133.53,142.47 -98.38,320.59 -206.72,-44.65 -260.48,-2.09 -346.12,139.99 -47.94,-41.23 -102.24,-230.84 -361.9,-134.02z"/>
       <path class="fil8" d="M-17881.37 834.42c243.18,-58.23 266.34,-229.64 320.42,-309 29.58,98.87 48.83,128.74 109.76,191.89 103.86,107.65 130.35,74.63 194.22,126.01 -173.04,52.68 -246.9,137.12 -306.93,307.94 -52.97,-96.96 -35.02,-116.24 -113.41,-194.53 -83.19,-83.09 -99.58,-69.57 -204.07,-122.31z"/>
       <path class="fil4" d="M-9205.88 970.57c-51.78,-48.63 -83.85,-2.75 -165.3,-29.2 -45.65,-43.89 -31.05,-67.32 -63.58,-113.59 -30.48,-43.35 -48.22,-38.01 -69.95,-102.12 -1.01,-59.61 37.71,-66.12 66.81,-105.43 30.45,-41.15 33.95,-85.66 67.12,-122.92 50.56,-7.5 101.09,4.34 139.85,-7.36 41.39,-12.48 60.63,-48.6 107.26,-51.39 50.31,-3 74.73,35.37 108.37,48.47 49.96,19.46 88.66,-0.29 148.4,13.14 42.14,47.58 30.34,62.07 62.18,113.03 26.27,42.02 69.6,63.57 70.49,106.61 0.98,48.4 -47.46,72.45 -70.37,108.4 -31.53,49.46 -24.86,68.61 -60.88,115.65 -90.97,16.11 -107.44,-16.93 -182.86,31.75 -90.11,58.16 -89.09,16.94 -157.53,-5.04z"/>
       <path class="fil1" d="M-17653.61 -2272.01l-15.83 -6.95c-2.32,-0.93 -13.22,-5.1 -16.36,-6.38 -14.96,-6.15 -14.64,-2.49 -31.09,-14.16 -22.21,-15.76 -31.99,-38.54 -27.2,-71.25 6.02,-41.2 63.99,-87.53 90.81,-114.18 -22.66,-13.87 -75.38,-21.36 -89.52,-52.88 -8.28,-93.35 63.44,-132.01 111.51,-181.79 49.77,-51.51 102.56,-131.49 189.81,-42.08 76.32,-42.62 77.16,-72.45 156.88,0.81l13.92 -10.79c2.12,-1.6 19.19,-14.9 20.5,-15.68 59.52,-35.35 78.45,-5.86 122.47,26.06 50.11,-27.81 30.52,-51.08 112.05,-34.61 93.68,73.14 2.1,142.49 -47.82,187.69 20.07,18.99 73.83,31.21 85.53,67.24 4.51,76.43 -52.02,120.88 -92.66,147.24 2.22,1.77 6.31,6.35 7.52,4.08 1.19,-2.29 5.92,3.14 7.58,3.89l15.43 6.8c129.87,56.69 38.09,134.68 -17.27,188.43 -59.12,57.43 -100.55,128.73 -166.95,115.61l-54.69 -34.09c-1.19,-1.12 -3.65,-3.92 -5.61,-5.76 -27.64,24.06 -59.8,63.98 -119.18,29.4 -28.32,-16.5 -3.77,-10.09 -37.69,-28.18 -95.97,81.85 -91.14,27.08 -160.56,-1.89 -74.5,85.92 -130.18,23.29 -138.98,-4.39 -21.8,-68.45 54.94,-122.76 87.42,-152.19z"/>
       <path class="fil2" d="M-10515.37 -1070.16c-49.34,-34.33 -54.26,-68.65 -106.03,-89.67 -92.78,-34.23 -84.4,-19.24 -108.5,-122.33 -31.8,-136.1 -122.2,-84.18 8.83,-367.39 43.9,-94.9 96.25,-54.09 126.46,-115.86 56.07,-26.35 45.03,-69.43 134.52,-47.75 119.32,28.91 175.09,-53.17 289.55,47.73 32.36,28.54 57.31,78.66 83.08,117.37 29.37,203.86 15.34,73.15 53.93,172.97 29.07,75.16 -35.25,100.23 -48.77,161.96 -20.67,94.32 16.91,116.34 -67.36,156.2 -78.26,37.03 -72.41,61.9 -126.65,103.92 -63.58,8.06 -53.02,-11.03 -109.44,-18.61 -50.2,-6.74 -74.98,9.26 -129.63,1.46z"/>
       <path class="fil3" d="M-9108.37 -2269.49c-35.05,57.72 -29.57,139.42 -74.63,189.97 -145.3,1.16 -6.6,-153.15 16.99,-222.62 -90.33,86.49 -88.4,158.53 -179.78,145.13 -48.72,-95.71 39.44,-83.99 134.23,-189.58 -44.33,14.45 -75.36,36.58 -117.34,59.77 -112.43,62.11 -156.01,-42.83 -33.15,-78.58l111.87 -39.93c-70.6,0.42 -144.72,25.2 -201.51,-1.47 -36.22,-121.22 150.68,-66.45 228.3,-59 -59.15,-29.98 -249.7,-43.19 -199.95,-127.15 15.88,-17.25 9.89,-24.18 49.65,-15.96 28.87,5.96 118.64,66.88 164.09,81.19 -99.12,-102.44 -171.73,-94.51 -138.3,-191.22 63.68,-7.99 69.27,11.59 100.13,50.89 28.32,36.05 50.73,66.79 82.14,95.07 -27.37,-80.8 -111.89,-149.37 -66.89,-219.96 55.11,-7.77 68.61,10.81 82.35,60.62l38.04 112.91c1.14,2.09 3.19,5.69 5.08,8.34 -1.34,-66.43 -44.52,-208.6 31.88,-210.2 79.45,-1.65 32.77,153.09 31.58,209.82l27.09 -58.94c11.62,-38.55 29.32,-169.12 97.65,-115.44 34.74,27.3 16.53,56.94 -9.79,103.22 -20.81,36.58 -41.64,71.21 -56.73,109.91 25.52,-24.56 49.57,-52.88 78.05,-88.48 37.93,-47.41 25.25,-66.98 105.05,-58.99 27.65,65.2 8.68,70.6 -36.73,104.8 -31.74,23.9 -79.58,63.93 -101.62,87.67 117.56,-45.46 170.56,-121.77 213.51,-65.21 31.73,49.13 -9.19,65.89 -54.12,79.77 -37.61,11.61 -88.15,21.64 -120.83,43.43 68.14,-0.5 151.35,-25.69 204.9,1.5 29.13,120.79 -114.12,64.46 -203.26,62.59 9.97,6.66 1.96,3.57 24.68,13.66 13.02,5.78 10.99,4.86 25.97,9.9 31.7,10.67 169.57,32.02 130.21,99.48 -65.29,51.12 -141.38,-39.06 -219.65,-64.32 64.38,70.36 197.83,124.85 135.32,181.36 -56.62,33.7 -79.9,-16.94 -108.91,-53.1 -11.26,-14.03 -73.89,-85.69 -79.54,-99.42 23.55,74.66 172.23,236.08 25.08,239.32 -40.42,-49.57 -46.38,-135.86 -75.03,-191.3 -2.18,69.05 43.88,214.68 -33.3,215.54 -80.91,0.9 -30.88,-160.97 -32.77,-214.94z"/>
       <path class="fil4" d="M-16012.02 -2189.23c-51.78,-48.63 -83.85,-2.75 -165.3,-29.2 -45.65,-43.89 -31.05,-67.32 -63.58,-113.59 -30.48,-43.35 -48.22,-38.01 -69.95,-102.12 -1.01,-59.61 37.71,-66.12 66.81,-105.43 30.45,-41.15 33.95,-85.66 67.12,-122.92 50.56,-7.5 101.09,4.34 139.84,-7.36 41.39,-12.48 60.63,-48.6 107.26,-51.39 50.31,-3 74.73,35.37 108.37,48.47 49.96,19.46 88.66,-0.29 148.4,13.14 42.14,47.58 30.34,62.07 62.18,113.03 26.27,42.02 69.6,63.57 70.49,106.61 0.98,48.4 -47.46,72.45 -70.37,108.4 -31.53,49.46 -24.86,68.61 -60.88,115.65 -90.97,16.11 -107.44,-16.93 -182.86,31.75 -90.11,58.16 -89.09,16.94 -157.53,-5.04z"/>
       <path class="fil5" d="M-14464.29 -2061.72l-26.74 -6.9c-88.94,-4.57 -159.79,-25.01 -164.08,-177.06 -77.48,20.67 -152.46,-54.94 -160.55,-120.3 -4.39,-35.59 3.68,-44.02 -2.46,-74.38 -6.98,-34.43 -74.75,-113.12 14.14,-154.09 71.58,-3.52 12.11,3.24 33.58,-16.2 -14.37,-31.98 -31.62,-65.83 -13.58,-93.38l37.31 -5.03 -6.67 52.58 64.47 7.46c30.1,60.8 47.98,86.51 113.39,106.17 105.46,31.71 86.27,22.3 131.8,106.23l83.53 9.7c4.76,65.78 -15.82,-10.28 5.43,81.89 9.93,43.04 3.1,15.71 -10.23,48.14l25.11 -1.6c1.03,0.15 4.72,0.53 6.79,1.6 -14.8,53.14 -17.91,23.02 1.44,41.55 -23.86,22.37 -24.41,0.99 -35.99,25.69 11.49,3.93 -0.89,5.89 31.04,5.53 34.46,-0.4 21.15,11.08 11.74,-5.48l26.13 28.36c1.09,1.48 2.86,5 4.12,7.61l-58.22 13.05 16.57 19.31c8.25,54.09 32.76,74.85 -11.42,111.04 -47.75,34.25 -71.4,3.97 -116.63,-11.51z"/>
       <path class="fil6" d="M-11902.45 -2683.02c58.71,-42.06 57.05,-83.41 159.67,-93.6 178.75,-17.74 366.84,133.12 452.85,287.3 68.92,123.56 76.71,291.76 -38.67,361.92 -133.33,81.07 -284.04,-25.48 -370.64,-68.49 -196.89,238.24 -506.74,-18.71 -603.56,-193.4 -182.51,-329.33 104.58,-502.26 400.35,-293.74z"/>
       <path class="fil10" d="M-13516.37 -2146.16c-202.88,-7.24 -350.41,-261.21 -200.57,-443.01 80.09,-97.19 128.62,-101.08 277.9,-113.18 104.91,-8.51 263.19,-31.07 362.65,-27.31 212.54,8.02 347.86,255.17 205.85,441.43 -68.51,89.87 -136.35,103.12 -279.15,114.59 -107.29,8.61 -264.51,31.13 -366.67,27.48z"/>
       <path class="fil7" d="M-10661.13 -2075.36c17.59,-76.4 35.97,-130.95 2.83,-217.98 -29.25,-76.76 -46.69,-73.88 -88.32,-106.14 -26.34,-20.4 -24.79,-19.53 -40.97,-35.64l27.52 -24.68c116.99,-101.73 143.23,-125.98 103.61,-323.96 241.79,43.91 235.84,-15.78 358.53,-150.74 65.07,156.12 148.44,187.8 345,147.21 -44.7,229.87 1.61,242.89 135.24,352.17 -16.11,15.7 -0.13,4.31 -37.04,33.19 -114.62,89.6 -133.53,142.47 -98.38,320.59 -206.72,-44.65 -260.48,-2.09 -346.12,139.99 -47.94,-41.23 -102.24,-230.84 -361.9,-134.02z"/>
       <path class="fil8" d="M-12092.5 -1451.07c243.18,-58.23 266.34,-229.64 320.42,-309 29.58,98.87 48.83,128.74 109.76,191.89 103.86,107.65 130.35,74.63 194.22,126.01 -173.04,52.68 -246.9,137.12 -306.93,307.94 -52.97,-96.96 -35.02,-116.24 -113.41,-194.53 -83.19,-83.09 -99.58,-69.57 -204.07,-122.31z"/>
       <path class="fil6" d="M-14641.32 -1566.79c58.71,-42.06 57.05,-83.41 159.67,-93.6 178.75,-17.74 366.84,133.12 452.85,287.3 68.92,123.56 76.71,291.76 -38.67,361.92 -133.32,81.07 -284.04,-25.48 -370.64,-68.49 -196.89,238.24 -506.74,-18.71 -603.56,-193.4 -182.51,-329.33 104.58,-502.26 400.35,-293.74z"/>
       <path class="fil9" d="M-16255.24 -1029.92c-202.88,-7.24 -350.41,-261.21 -200.57,-443.01 80.09,-97.19 128.62,-101.08 277.9,-113.18 104.91,-8.51 263.19,-31.07 362.65,-27.31 212.54,8.02 347.86,255.17 205.85,441.43 -68.51,89.87 -136.35,103.12 -279.15,114.59 -107.29,8.61 -264.51,31.13 -366.67,27.48z"/>
       <path class="fil7" d="M-13400 -959.12c17.59,-76.4 35.97,-130.95 2.83,-217.98 -29.25,-76.76 -46.69,-73.88 -88.32,-106.14 -26.34,-20.4 -24.79,-19.53 -40.97,-35.64l27.52 -24.68c116.99,-101.73 143.23,-125.98 103.61,-323.96 241.79,43.91 235.84,-15.78 358.53,-150.74 65.07,156.12 148.44,187.8 345,147.21 -44.7,229.87 1.61,242.89 135.24,352.17 -16.11,15.7 -0.13,4.31 -37.04,33.19 -114.62,89.6 -133.53,142.47 -98.38,320.59 -206.72,-44.65 -260.48,-2.09 -346.12,139.99 -47.94,-41.23 -102.24,-230.84 -361.9,-134.02z"/>
       <path class="fil8" d="M-17593.54 -1325.6c243.18,-58.23 266.34,-229.64 320.42,-309 29.58,98.87 48.83,128.74 109.76,191.89 103.86,107.65 130.35,74.63 194.22,126.01 -173.04,52.68 -246.9,137.12 -306.93,307.94 -52.97,-96.96 -35.02,-116.24 -113.41,-194.53 -83.19,-83.09 -99.58,-69.57 -204.07,-122.31z"/>
       <path class="fil4" d="M-8918.05 -1189.45c-51.78,-48.63 -83.85,-2.75 -165.3,-29.2 -45.65,-43.89 -31.05,-67.32 -63.58,-113.59 -30.48,-43.35 -48.22,-38.01 -69.95,-102.12 -1.01,-59.61 37.71,-66.12 66.81,-105.43 30.45,-41.15 33.95,-85.66 67.12,-122.92 50.56,-7.5 101.09,4.34 139.84,-7.36 41.39,-12.48 60.63,-48.6 107.26,-51.39 50.31,-3 74.73,35.37 108.37,48.47 49.96,19.46 88.66,-0.29 148.4,13.14 42.14,47.58 30.34,62.07 62.18,113.03 26.27,42.02 69.6,63.57 70.49,106.61 0.98,48.4 -47.46,72.45 -70.37,108.4 -31.53,49.46 -24.86,68.61 -60.88,115.65 -90.97,16.11 -107.44,-16.93 -182.86,31.75 -90.11,58.16 -89.09,16.94 -157.53,-5.04z"/>
       <path class="fil10" d="M-13386.4 34.36c-202.88,-7.24 -350.41,-261.21 -200.57,-443.01 80.09,-97.19 128.63,-101.08 277.9,-113.18 104.91,-8.51 263.19,-31.07 362.65,-27.31 212.54,8.02 347.86,255.17 205.85,441.43 -68.51,89.87 -136.35,103.12 -279.15,114.59 -107.29,8.61 -264.51,31.13 -366.67,27.48z"/>
      </g>
     </g>
    </g>
    <path class="fil13" d="M141.45 42.22l-20.17 1.43 -0.21 -2.83c-0.45,-6.11 1.34,-11.53 5.34,-16.16 4,-4.64 9.11,-7.19 15.22,-7.63l80.61 -5.79c6.4,-0.46 12.07,1.55 16.76,5.93 4.68,4.38 7.07,9.91 7.04,16.32l-0.25 56.7c-0.05,11.64 -9.01,21.22 -20.62,22.05l-15.72 1.13c-8.93,0.64 -16.92,-3.76 -21.15,-11.64l-25.69 -47.85c-4.23,-7.88 -12.21,-12.28 -21.14,-11.65z"/>
   </g>
  </g>
 </g>
</svg>
