<?xml version="1.0" encoding="UTF-8"?>
<!DOCTYPE svg PUBLIC "-//W3C//DTD SVG 1.1//EN" "http://www.w3.org/Graphics/SVG/1.1/DTD/svg11.dtd">
<!-- Creator: CorelDRAW -->
<svg xmlns="http://www.w3.org/2000/svg" xml:space="preserve" width="56.2012mm" height="57.9172mm" version="1.1" style="shape-rendering:geometricPrecision; text-rendering:geometricPrecision; image-rendering:optimizeQuality; fill-rule:evenodd; clip-rule:evenodd"
viewBox="0 0 218.54 225.21"
 xmlns:xlink="http://www.w3.org/1999/xlink"
 xmlns:xodm="http://www.corel.com/coreldraw/odm/2003">
 <defs>
  <style type="text/css">
   <![CDATA[
    .fil11 {fill:none}
    .fil13 {fill:none;fill-rule:nonzero}
    .fil10 {fill:#102186}
    .fil1 {fill:#1D9446}
    .fil0 {fill:#26EAA6}
    .fil2 {fill:#319CE4}
    .fil9 {fill:#3F62FF}
    .fil4 {fill:#5AF4AA}
    .fil3 {fill:#8847C9}
    .fil6 {fill:#9AD4DA}
    .fil5 {fill:#E7011C}
    .fil7 {fill:#F8E09E}
    .fil8 {fill:#FF8097}
    .fil12 {fill:#26EAA6;fill-rule:nonzero}
   ]]>
  </style>
    <clipPath id="id0">
     <path d="M132.63 91.59c11.61,12.9 10.57,32.77 -2.33,44.38 -12.9,11.61 -32.77,10.57 -44.38,-2.33 -11.61,-12.9 -10.57,-32.77 2.33,-44.38 12.9,-11.61 32.77,-10.57 44.38,2.33z"/>
    </clipPath>
     <clipPath id="id1" style="clip-rule:nonzero">
      <path d="M35.13 92.9l1.27 17.91 -2.52 0.19c-5.43,0.4 -10.24,-1.19 -14.36,-4.74 -4.12,-3.56 -6.39,-8.09 -6.78,-13.51l-5.14 -71.6c-0.41,-5.68 1.38,-10.72 5.27,-14.89 3.89,-4.16 8.8,-6.28 14.5,-6.25l50.36 0.23c10.34,0.05 18.85,8 19.59,18.31l1 13.97c0.57,7.93 -3.34,15.03 -10.34,18.79l-42.5 22.82c-7,3.76 -10.91,10.85 -10.34,18.78z"/>
     </clipPath>
     <clipPath id="id2" style="clip-rule:nonzero">
      <path d="M183.41 132.32l-1.27 -17.91 2.52 -0.19c5.43,-0.4 10.24,1.19 14.36,4.74 4.12,3.56 6.39,8.09 6.78,13.51l5.14 71.6c0.41,5.68 -1.38,10.72 -5.27,14.88 -3.89,4.16 -8.8,6.28 -14.5,6.25l-50.36 -0.23c-10.34,-0.05 -18.85,-8 -19.59,-18.31l-1 -13.97c-0.57,-7.93 3.34,-15.03 10.34,-18.79l42.5 -22.82c7,-3.76 10.91,-10.85 10.34,-18.78z"/>
     </clipPath>
     <clipPath id="id3" style="clip-rule:nonzero">
      <path d="M92.9 187.72l17.91 -1.27 0.19 2.52c0.4,5.43 -1.19,10.24 -4.74,14.36 -3.56,4.12 -8.09,6.39 -13.51,6.78l-71.6 5.14c-5.68,0.41 -10.72,-1.38 -14.88,-5.27 -4.16,-3.89 -6.28,-8.8 -6.25,-14.5l0.23 -50.36c0.05,-10.34 8,-18.85 18.31,-19.59l13.97 -1c7.93,-0.57 15.03,3.34 18.79,10.34l22.82 42.5c3.76,7 10.85,10.91 18.78,10.34z"/>
     </clipPath>
     <clipPath id="id4" style="clip-rule:nonzero">
      <path d="M125.65 37.5l-17.91 1.27 -0.19 -2.52c-0.4,-5.43 1.19,-10.24 4.74,-14.36 3.56,-4.12 8.09,-6.39 13.51,-6.78l71.6 -5.14c5.68,-0.41 10.72,1.38 14.88,5.27 4.16,3.89 6.28,8.8 6.25,14.5l-0.23 50.36c-0.05,10.34 -8,18.85 -18.31,19.59l-13.97 1c-7.93,0.57 -15.03,-3.34 -18.79,-10.34l-22.82 -42.5c-3.76,-7 -10.85,-10.91 -18.78,-10.34z"/>
     </clipPath>
 </defs>
 <g id="Layer_x0020_1">
  <metadata id="CorelCorpID_0Corel-Layer"/>
  <g id="_2465821108944">
   <path class="fil0" d="M132.63 91.59c11.61,12.9 10.57,32.77 -2.33,44.38 -12.9,11.61 -32.77,10.57 -44.38,-2.33 -11.61,-12.9 -10.57,-32.77 2.33,-44.38 12.9,-11.61 32.77,-10.57 44.38,2.33z"/>
   <g style="clip-path:url(#id0)">
    <g>
     <g>
      <path id="_1" class="fil1" d="M-15707.71 67.87l-14.06 -6.17c-2.06,-0.82 -11.74,-4.53 -14.53,-5.67 -13.28,-5.47 -13,-2.21 -27.62,-12.58 -19.73,-14 -28.41,-34.23 -24.16,-63.28 5.35,-36.6 56.84,-77.74 80.66,-101.42 -20.13,-12.32 -66.95,-18.97 -79.52,-46.97 -7.36,-82.92 56.35,-117.26 99.05,-161.47 44.2,-45.76 91.1,-116.8 168.6,-37.37 67.79,-37.86 68.54,-64.35 139.35,0.72l12.37 -9.58c1.88,-1.42 17.05,-13.24 18.21,-13.93 52.87,-31.4 69.68,-5.21 108.78,23.15 44.51,-24.7 27.11,-45.37 99.53,-30.74 83.21,64.97 1.87,126.57 -42.48,166.72 17.82,16.87 65.58,27.72 75.97,59.72 4.01,67.89 -46.2,107.37 -82.31,130.79 1.98,1.58 5.61,5.64 6.68,3.62 1.06,-2.03 5.26,2.79 6.74,3.46l13.71 6.04c115.35,50.35 33.83,119.63 -15.34,167.37 -52.52,51.01 -89.31,114.34 -148.29,102.69l-48.58 -30.28c-1.06,-1 -3.25,-3.48 -4.98,-5.11 -24.55,21.37 -53.11,56.83 -105.87,26.11 -25.16,-14.66 -3.35,-8.96 -33.48,-25.03 -85.24,72.7 -80.95,24.05 -142.62,-1.68 -66.18,76.32 -115.63,20.69 -123.45,-3.9 -19.36,-60.8 48.8,-109.04 77.65,-135.19z"/>
      <path class="fil2" d="M-9595.91 968.07c-43.83,-30.5 -48.2,-60.98 -94.18,-79.65 -82.41,-30.4 -74.97,-17.09 -96.38,-108.66 -28.25,-120.89 -108.55,-74.77 7.84,-326.33 39,-84.29 85.49,-48.05 112.33,-102.91 49.8,-23.41 39.99,-61.67 119.49,-42.42 105.98,25.68 155.52,-47.23 257.19,42.39 28.74,25.35 50.9,69.87 73.79,104.25 26.09,181.08 13.63,64.98 47.91,153.64 25.82,66.76 -31.31,89.03 -43.32,143.86 -18.36,83.78 15.02,103.34 -59.83,138.75 -69.51,32.89 -64.32,54.98 -112.5,92.31 -56.48,7.16 -47.1,-9.79 -97.21,-16.53 -44.59,-5.98 -66.6,8.23 -115.14,1.29z"/>
      <path class="fil3" d="M-7791.33 -117.78c-31.13,51.27 -26.26,123.84 -66.29,168.74 -129.06,1.03 -5.87,-136.03 15.1,-197.74 -80.24,76.83 -78.52,140.82 -159.69,128.91 -43.28,-85.01 35.03,-74.61 119.23,-168.4 -39.37,12.84 -66.94,32.49 -104.23,53.09 -99.87,55.17 -138.57,-38.04 -29.45,-69.8l99.36 -35.47c-62.71,0.38 -128.54,22.38 -178.99,-1.31 -32.18,-107.68 133.85,-59.03 202.78,-52.41 -52.54,-26.63 -221.79,-38.36 -177.6,-112.94 14.11,-15.32 8.78,-21.48 44.1,-14.18 25.64,5.29 105.38,59.4 145.75,72.11 -88.04,-90.99 -152.54,-83.95 -122.84,-169.85 56.56,-7.1 61.53,10.3 88.94,45.2 25.16,32.02 45.06,59.32 72.96,84.45 -24.31,-71.77 -99.39,-132.68 -59.42,-195.38 48.95,-6.9 60.94,9.6 73.15,53.84l33.79 100.29c1.01,1.86 2.83,5.06 4.51,7.41 -1.19,-59.01 -39.55,-185.29 28.32,-186.71 70.57,-1.47 29.11,135.98 28.05,186.37l24.07 -52.35c10.32,-34.25 26.04,-150.22 86.74,-102.54 30.86,24.25 14.68,50.58 -8.7,91.69 -18.48,32.49 -36.99,63.25 -50.39,97.62 22.67,-21.82 44.03,-46.97 69.33,-78.59 33.69,-42.11 22.43,-59.5 93.31,-52.4 24.56,57.91 7.71,62.71 -32.62,93.09 -28.19,21.23 -70.69,56.78 -90.26,77.87 104.42,-40.38 151.5,-108.16 189.65,-57.92 28.18,43.64 -8.16,58.52 -48.07,70.86 -33.41,10.31 -78.3,19.22 -107.32,38.57 60.52,-0.45 134.43,-22.82 182,1.33 25.88,107.29 -101.36,57.25 -180.54,55.6 8.85,5.91 1.74,3.17 21.93,12.13 11.57,5.14 9.76,4.31 23.07,8.79 28.16,9.48 150.62,28.44 115.66,88.36 -57.99,45.4 -125.58,-34.69 -195.11,-57.14 57.18,62.5 175.72,110.9 120.2,161.1 -50.29,29.93 -70.97,-15.05 -96.74,-47.17 -10,-12.46 -65.64,-76.11 -70.66,-88.31 20.91,66.32 152.98,209.7 22.28,212.58 -35.9,-44.03 -41.19,-120.68 -66.65,-169.93 -1.94,61.33 38.97,190.69 -29.58,191.45 -71.87,0.8 -27.43,-142.98 -29.11,-190.92z"/>
      <path class="fil4" d="M-14249.56 58.29c-45.99,-43.19 -74.48,-2.45 -146.82,-25.93 -40.55,-38.98 -27.58,-59.79 -56.48,-100.89 -27.07,-38.5 -42.83,-33.76 -62.13,-90.71 -0.89,-52.95 33.49,-58.73 59.35,-93.65 27.05,-36.55 30.15,-76.09 59.62,-109.18 44.91,-6.67 89.79,3.86 124.22,-6.54 36.76,-11.09 53.86,-43.17 95.27,-45.65 44.69,-2.67 66.38,31.41 96.26,43.05 44.38,17.28 78.76,-0.26 131.81,11.67 37.43,42.26 26.95,55.14 55.23,100.4 23.34,37.33 61.83,56.47 62.61,94.7 0.87,42.99 -42.16,64.35 -62.51,96.28 -28,43.93 -22.08,60.94 -54.08,102.73 -80.8,14.31 -95.44,-15.04 -162.42,28.2 -80.04,51.66 -79.13,15.05 -139.92,-4.48z"/>
      <path class="fil5" d="M-10489.23 974.83l-23.75 -6.12c-79,-4.06 -141.93,-22.22 -145.74,-157.28 -68.82,18.36 -135.42,-48.8 -142.6,-106.85 -3.9,-31.61 3.27,-39.1 -2.19,-66.07 -6.2,-30.58 -66.4,-100.48 12.56,-136.87 63.58,-3.13 10.76,2.88 29.83,-14.39 -12.77,-28.4 -28.09,-58.48 -12.06,-82.94l33.14 -4.47 -5.93 46.71 57.26 6.63c26.73,54.01 42.62,76.84 100.72,94.31 93.67,28.17 76.63,19.81 117.07,94.36l74.19 8.62c4.23,58.43 -14.05,-9.13 4.82,72.74 8.82,38.23 2.75,13.95 -9.09,42.76l22.3 -1.42c0.92,0.13 4.2,0.47 6.03,1.42 -13.14,47.2 -15.91,20.44 1.28,36.9 -21.2,19.87 -21.68,0.88 -31.97,22.82 10.2,3.49 -0.79,5.23 27.57,4.91 30.61,-0.35 18.79,9.84 10.43,-4.87l23.21 25.19c0.96,1.32 2.54,4.44 3.66,6.76l-51.72 11.59 14.72 17.15c7.32,48.05 29.1,66.48 -10.15,98.64 -42.42,30.43 -63.43,3.53 -103.6,-10.23z"/>
      <path class="fil6" d="M-10599.26 -391.39c52.15,-37.36 50.68,-74.09 141.83,-83.14 158.77,-15.76 325.85,118.24 402.24,255.2 61.22,109.75 68.14,259.15 -34.35,321.47 -118.43,72.01 -252.3,-22.63 -329.22,-60.83 -174.89,211.62 -450.11,-16.62 -536.11,-171.79 -162.12,-292.53 92.89,-446.13 355.61,-260.91z"/>
      <path class="fil7" d="M-9496.65 148.36c15.62,-67.86 31.95,-116.32 2.52,-193.62 -25.98,-68.18 -41.47,-65.62 -78.45,-94.28 -23.4,-18.12 -22.02,-17.35 -36.39,-31.65l24.44 -21.93c103.92,-90.36 127.23,-111.9 92.03,-287.76 214.77,39 209.49,-14.01 318.46,-133.89 57.8,138.68 131.85,166.82 306.44,130.76 -39.7,204.18 1.43,215.75 120.13,312.82 -14.31,13.94 -0.11,3.83 -32.9,29.48 -101.81,79.59 -118.61,126.55 -87.39,284.77 -183.62,-39.66 -231.37,-1.86 -307.44,124.35 -42.58,-36.62 -90.81,-205.04 -321.45,-119.04z"/>
      <path class="fil8" d="M-13221.56 -177.16c216.01,-51.72 236.58,-203.98 284.61,-274.47 26.27,87.82 43.38,114.35 97.49,170.44 92.25,95.62 115.78,66.29 172.52,111.93 -153.7,46.79 -219.31,121.8 -272.63,273.53 -47.05,-86.12 -31.1,-103.25 -100.74,-172.79 -73.89,-73.81 -88.45,-61.79 -181.26,-108.64z"/>
      <path class="fil6" d="M-13260.77 526.94c52.15,-37.36 50.68,-74.09 141.83,-83.14 158.77,-15.76 325.85,118.24 402.24,255.2 61.22,109.75 68.14,259.15 -34.35,321.47 -118.43,72.01 -252.3,-22.63 -329.22,-60.83 -174.89,211.62 -450.11,-16.62 -536.11,-171.79 -162.12,-292.53 92.89,-446.13 355.61,-260.91z"/>
      <path class="fil9" d="M-14694.33 1003.81c-180.2,-6.43 -311.25,-232.02 -178.15,-393.5 71.14,-86.33 114.25,-89.78 246.84,-100.53 93.19,-7.56 233.78,-27.6 322.13,-24.26 188.79,7.13 308.99,226.65 182.84,392.1 -60.85,79.82 -121.11,91.59 -247.96,101.79 -95.3,7.65 -234.95,27.65 -325.7,24.41z"/>
      <path class="fil7" d="M-12158.17 1066.7c15.62,-67.86 31.95,-116.32 2.52,-193.62 -25.98,-68.18 -41.47,-65.62 -78.45,-94.28 -23.4,-18.12 -22.02,-17.35 -36.39,-31.65l24.44 -21.93c103.92,-90.36 127.23,-111.9 92.04,-287.76 214.77,39 209.49,-14.01 318.46,-133.89 57.8,138.68 131.85,166.82 306.44,130.76 -39.7,204.18 1.43,215.75 120.13,312.82 -14.31,13.94 -0.11,3.83 -32.9,29.48 -101.81,79.59 -118.61,126.55 -87.39,284.77 -183.62,-39.66 -231.37,-1.86 -307.44,124.35 -42.58,-36.62 -90.81,-205.04 -321.45,-119.04z"/>
      <path class="fil8" d="M-15883.07 741.17c216.01,-51.72 236.58,-203.98 284.61,-274.47 26.27,87.82 43.38,114.35 97.5,170.45 92.25,95.62 115.78,66.29 172.52,111.92 -153.7,46.79 -219.31,121.8 -272.63,273.53 -47.05,-86.12 -31.1,-103.25 -100.74,-172.79 -73.89,-73.81 -88.45,-61.79 -181.26,-108.64z"/>
      <path class="fil4" d="M-8177.09 862.11c-45.99,-43.19 -74.48,-2.45 -146.82,-25.93 -40.55,-38.98 -27.58,-59.79 -56.48,-100.89 -27.07,-38.5 -42.83,-33.76 -62.13,-90.71 -0.89,-52.95 33.49,-58.73 59.35,-93.65 27.05,-36.55 30.16,-76.09 59.62,-109.18 44.91,-6.67 89.79,3.86 124.22,-6.54 36.76,-11.09 53.86,-43.17 95.27,-45.65 44.69,-2.67 66.38,31.41 96.26,43.05 44.38,17.28 78.76,-0.26 131.81,11.67 37.43,42.26 26.95,55.14 55.23,100.4 23.34,37.33 61.83,56.47 62.61,94.7 0.87,42.99 -42.16,64.35 -62.51,96.28 -28,43.93 -22.08,60.94 -54.08,102.73 -80.8,14.31 -95.44,-15.04 -162.42,28.2 -80.04,51.66 -79.13,15.05 -139.92,-4.48z"/>
      <path class="fil1" d="M-15680.77 -2018.1l-14.06 -6.17c-2.06,-0.82 -11.74,-4.53 -14.53,-5.67 -13.28,-5.47 -13,-2.21 -27.62,-12.58 -19.73,-14 -28.41,-34.23 -24.16,-63.28 5.35,-36.6 56.84,-77.74 80.66,-101.42 -20.13,-12.32 -66.95,-18.97 -79.52,-46.97 -7.36,-82.92 56.35,-117.26 99.05,-161.47 44.2,-45.76 91.1,-116.8 168.6,-37.37 67.79,-37.86 68.54,-64.35 139.35,0.72l12.37 -9.58c1.88,-1.42 17.05,-13.24 18.21,-13.93 52.87,-31.4 69.68,-5.21 108.78,23.15 44.51,-24.7 27.11,-45.37 99.53,-30.74 83.21,64.97 1.87,126.57 -42.48,166.72 17.82,16.87 65.58,27.72 75.97,59.72 4.01,67.89 -46.2,107.37 -82.31,130.79 1.98,1.58 5.61,5.64 6.68,3.62 1.06,-2.03 5.26,2.79 6.74,3.46l13.71 6.04c115.35,50.35 33.83,119.63 -15.34,167.37 -52.52,51.01 -89.31,114.34 -148.29,102.69l-48.58 -30.28c-1.06,-1 -3.24,-3.48 -4.98,-5.11 -24.55,21.37 -53.12,56.83 -105.87,26.11 -25.16,-14.66 -3.35,-8.96 -33.48,-25.03 -85.24,72.7 -80.95,24.05 -142.62,-1.68 -66.18,76.32 -115.63,20.69 -123.45,-3.9 -19.36,-60.8 48.8,-109.04 77.65,-135.19z"/>
      <path class="fil2" d="M-9340.25 -950.57c-43.83,-30.5 -48.2,-60.98 -94.18,-79.65 -82.41,-30.4 -74.97,-17.09 -96.38,-108.66 -28.25,-120.89 -108.55,-74.77 7.84,-326.33 39,-84.29 85.49,-48.05 112.33,-102.91 49.8,-23.41 40,-61.67 119.49,-42.42 105.98,25.68 155.52,-47.23 257.19,42.39 28.74,25.35 50.9,69.87 73.79,104.25 26.09,181.08 13.63,64.98 47.91,153.64 25.82,66.76 -31.31,89.03 -43.32,143.86 -18.36,83.78 15.02,103.34 -59.83,138.75 -69.51,32.89 -64.32,54.98 -112.5,92.31 -56.48,7.16 -47.1,-9.79 -97.21,-16.53 -44.59,-5.98 -66.6,8.23 -115.14,1.29z"/>
      <path class="fil3" d="M-8090.48 -2015.86c-31.13,51.27 -26.26,123.84 -66.29,168.74 -129.06,1.03 -5.87,-136.03 15.1,-197.74 -80.24,76.83 -78.52,140.82 -159.69,128.91 -43.27,-85.01 35.03,-74.61 119.23,-168.4 -39.37,12.84 -66.94,32.49 -104.23,53.09 -99.87,55.17 -138.57,-38.04 -29.45,-69.8l99.36 -35.47c-62.71,0.38 -128.54,22.38 -178.99,-1.31 -32.18,-107.68 133.85,-59.03 202.78,-52.41 -52.54,-26.63 -221.79,-38.36 -177.6,-112.94 14.11,-15.32 8.78,-21.48 44.1,-14.18 25.64,5.29 105.38,59.4 145.75,72.11 -88.04,-90.99 -152.54,-83.95 -122.84,-169.85 56.56,-7.1 61.53,10.3 88.94,45.2 25.16,32.02 45.06,59.32 72.96,84.45 -24.31,-71.77 -99.39,-132.68 -59.42,-195.38 48.95,-6.9 60.94,9.6 73.15,53.84l33.79 100.29c1.01,1.86 2.83,5.06 4.51,7.41 -1.19,-59 -39.55,-185.29 28.32,-186.71 70.57,-1.47 29.11,135.99 28.05,186.37l24.07 -52.35c10.32,-34.25 26.04,-150.22 86.74,-102.54 30.86,24.25 14.68,50.58 -8.7,91.69 -18.48,32.49 -36.99,63.25 -50.39,97.62 22.67,-21.82 44.03,-46.97 69.33,-78.59 33.69,-42.11 22.43,-59.5 93.31,-52.4 24.56,57.91 7.71,62.71 -32.62,93.09 -28.19,21.23 -70.69,56.78 -90.26,77.87 104.42,-40.38 151.5,-108.16 189.65,-57.92 28.18,43.64 -8.16,58.52 -48.07,70.86 -33.41,10.31 -78.3,19.22 -107.32,38.57 60.52,-0.45 134.43,-22.82 182,1.33 25.88,107.29 -101.36,57.25 -180.54,55.6 8.85,5.91 1.74,3.17 21.93,12.13 11.57,5.14 9.76,4.31 23.07,8.79 28.16,9.48 150.62,28.44 115.66,88.36 -57.99,45.4 -125.58,-34.69 -195.11,-57.14 57.18,62.5 175.72,110.9 120.2,161.1 -50.29,29.93 -70.97,-15.05 -96.74,-47.17 -10,-12.46 -65.64,-76.11 -70.66,-88.31 20.91,66.32 152.98,209.7 22.28,212.58 -35.9,-44.03 -41.19,-120.68 -66.65,-169.92 -1.94,61.33 38.97,190.69 -29.58,191.45 -71.87,0.8 -27.43,-142.98 -29.11,-190.92z"/>
      <path class="fil4" d="M-14222.63 -1944.58c-45.99,-43.19 -74.48,-2.45 -146.82,-25.93 -40.55,-38.98 -27.58,-59.79 -56.48,-100.89 -27.07,-38.5 -42.83,-33.76 -62.13,-90.71 -0.89,-52.95 33.49,-58.73 59.35,-93.65 27.05,-36.55 30.16,-76.09 59.62,-109.18 44.91,-6.67 89.79,3.86 124.22,-6.54 36.76,-11.09 53.86,-43.17 95.27,-45.65 44.69,-2.67 66.38,31.41 96.26,43.05 44.38,17.28 78.76,-0.26 131.81,11.67 37.43,42.26 26.95,55.14 55.23,100.4 23.34,37.33 61.83,56.47 62.61,94.7 0.87,42.99 -42.16,64.35 -62.51,96.28 -28,43.93 -22.08,60.94 -54.08,102.73 -80.8,14.31 -95.44,-15.04 -162.42,28.2 -80.04,51.66 -79.13,15.05 -139.92,-4.48z"/>
      <path class="fil5" d="M-12847.87 -1831.31l-23.75 -6.12c-79,-4.06 -141.93,-22.22 -145.74,-157.28 -68.82,18.36 -135.42,-48.8 -142.6,-106.85 -3.9,-31.61 3.27,-39.1 -2.19,-66.07 -6.2,-30.58 -66.4,-100.48 12.56,-136.87 63.58,-3.13 10.76,2.88 29.83,-14.39 -12.77,-28.4 -28.09,-58.48 -12.06,-82.94l33.14 -4.47 -5.93 46.71 57.26 6.63c26.73,54.01 42.62,76.84 100.72,94.31 93.67,28.17 76.63,19.81 117.07,94.36l74.19 8.62c4.23,58.43 -14.05,-9.13 4.82,72.74 8.82,38.23 2.75,13.95 -9.09,42.76l22.3 -1.42c0.92,0.13 4.2,0.47 6.03,1.42 -13.14,47.2 -15.91,20.44 1.28,36.9 -21.2,19.87 -21.68,0.88 -31.97,22.82 10.2,3.49 -0.79,5.23 27.57,4.91 30.61,-0.35 18.79,9.84 10.43,-4.87l23.21 25.19c0.96,1.32 2.54,4.44 3.66,6.76l-51.72 11.59 14.72 17.15c7.32,48.05 29.1,66.48 -10.15,98.63 -42.42,30.43 -63.43,3.53 -103.6,-10.23z"/>
      <path class="fil6" d="M-10572.32 -2383.19c52.15,-37.36 50.68,-74.09 141.83,-83.14 158.77,-15.76 325.85,118.24 402.24,255.2 61.22,109.75 68.14,259.15 -34.35,321.47 -118.43,72.01 -252.3,-22.63 -329.22,-60.83 -174.89,211.62 -450.11,-16.62 -536.11,-171.79 -162.12,-292.53 92.89,-446.13 355.61,-260.91z"/>
      <path class="fil10" d="M-12005.88 -1906.32c-180.2,-6.43 -311.25,-232.02 -178.15,-393.5 71.14,-86.33 114.25,-89.78 246.84,-100.54 93.19,-7.56 233.78,-27.6 322.13,-24.26 188.79,7.13 308.99,226.65 182.84,392.1 -60.85,79.82 -121.11,91.59 -247.96,101.79 -95.3,7.65 -234.95,27.65 -325.7,24.41z"/>
      <path class="fil7" d="M-9469.72 -1843.43c15.62,-67.86 31.95,-116.32 2.52,-193.62 -25.98,-68.18 -41.47,-65.62 -78.45,-94.28 -23.4,-18.12 -22.02,-17.35 -36.39,-31.65l24.44 -21.93c103.92,-90.36 127.23,-111.9 92.04,-287.76 214.77,39 209.49,-14.01 318.46,-133.89 57.8,138.68 131.85,166.82 306.44,130.76 -39.7,204.18 1.43,215.75 120.13,312.82 -14.31,13.94 -0.11,3.83 -32.9,29.48 -101.81,79.59 -118.61,126.55 -87.39,284.77 -183.62,-39.66 -231.37,-1.86 -307.44,124.35 -42.58,-36.62 -90.81,-205.04 -321.45,-119.04z"/>
      <path class="fil8" d="M-10741.13 -1288.91c216.01,-51.72 236.58,-203.98 284.61,-274.47 26.27,87.82 43.38,114.35 97.5,170.44 92.25,95.62 115.78,66.29 172.52,111.93 -153.7,46.79 -219.31,121.8 -272.63,273.53 -47.05,-86.12 -31.1,-103.25 -100.74,-172.79 -73.89,-73.81 -88.45,-61.79 -181.26,-108.64z"/>
      <path class="fil6" d="M-13005.11 -1391.69c52.15,-37.36 50.68,-74.09 141.83,-83.14 158.77,-15.76 325.85,118.24 402.24,255.2 61.22,109.75 68.14,259.15 -34.35,321.47 -118.43,72.01 -252.3,-22.63 -329.22,-60.83 -174.89,211.62 -450.11,-16.62 -536.11,-171.79 -162.12,-292.53 92.89,-446.13 355.61,-260.91z"/>
      <path class="fil9" d="M-14438.67 -914.83c-180.2,-6.43 -311.25,-232.02 -178.15,-393.5 71.14,-86.33 114.25,-89.78 246.84,-100.53 93.19,-7.56 233.78,-27.6 322.13,-24.26 188.79,7.13 308.99,226.65 182.84,392.1 -60.85,79.82 -121.11,91.59 -247.96,101.79 -95.3,7.65 -234.95,27.65 -325.7,24.41z"/>
      <path class="fil7" d="M-11902.51 -851.94c15.62,-67.86 31.95,-116.32 2.52,-193.62 -25.98,-68.18 -41.47,-65.62 -78.45,-94.28 -23.4,-18.12 -22.02,-17.35 -36.39,-31.65l24.44 -21.93c103.92,-90.36 127.23,-111.9 92.03,-287.76 214.77,39 209.49,-14.01 318.46,-133.89 57.8,138.68 131.85,166.82 306.44,130.76 -39.7,204.18 1.43,215.75 120.13,312.82 -14.31,13.94 -0.11,3.83 -32.9,29.48 -101.81,79.59 -118.61,126.55 -87.39,284.77 -183.62,-39.66 -231.37,-1.86 -307.44,124.35 -42.58,-36.62 -90.81,-205.04 -321.45,-119.04z"/>
      <path class="fil8" d="M-15627.41 -1177.46c216.01,-51.72 236.58,-203.98 284.61,-274.47 26.27,87.82 43.38,114.35 97.49,170.45 92.25,95.62 115.78,66.29 172.52,111.92 -153.7,46.79 -219.31,121.8 -272.63,273.53 -47.05,-86.12 -31.1,-103.25 -100.74,-172.79 -73.89,-73.81 -88.45,-61.79 -181.26,-108.64z"/>
      <path class="fil4" d="M-7921.43 -1056.53c-45.99,-43.19 -74.48,-2.45 -146.82,-25.93 -40.55,-38.98 -27.58,-59.79 -56.48,-100.89 -27.07,-38.5 -42.83,-33.76 -62.13,-90.71 -0.89,-52.95 33.49,-58.73 59.35,-93.65 27.05,-36.55 30.15,-76.09 59.62,-109.18 44.91,-6.67 89.79,3.86 124.22,-6.54 36.76,-11.09 53.86,-43.17 95.27,-45.65 44.69,-2.67 66.38,31.41 96.26,43.05 44.38,17.28 78.76,-0.26 131.81,11.67 37.43,42.26 26.95,55.14 55.23,100.4 23.34,37.33 61.83,56.47 62.61,94.7 0.87,42.99 -42.16,64.35 -62.51,96.28 -28,43.93 -22.08,60.94 -54.08,102.73 -80.8,14.31 -95.44,-15.04 -162.42,28.2 -80.04,51.66 -79.13,15.05 -139.92,-4.48z"/>
      <path class="fil10" d="M-11890.43 30.52c-180.2,-6.43 -311.25,-232.02 -178.15,-393.5 71.14,-86.33 114.25,-89.78 246.84,-100.53 93.19,-7.56 233.78,-27.6 322.13,-24.26 188.79,7.13 308.99,226.65 182.84,392.1 -60.85,79.82 -121.11,91.59 -247.96,101.79 -95.3,7.65 -234.95,27.65 -325.7,24.41z"/>
     </g>
    </g>
   </g>
   <path class="fil11" d="M132.63 91.59c11.61,12.9 10.57,32.77 -2.33,44.38 -12.9,11.61 -32.77,10.57 -44.38,-2.33 -11.61,-12.9 -10.57,-32.77 2.33,-44.38 12.9,-11.61 32.77,-10.57 44.38,2.33z"/>
   <g>
    <path class="fil12" d="M35.13 92.9l1.27 17.91 -2.52 0.19c-5.43,0.4 -10.24,-1.19 -14.36,-4.74 -4.12,-3.56 -6.39,-8.09 -6.78,-13.51l-5.14 -71.6c-0.41,-5.68 1.38,-10.72 5.27,-14.89 3.89,-4.16 8.8,-6.28 14.5,-6.25l50.36 0.23c10.34,0.05 18.85,8 19.59,18.31l1 13.97c0.57,7.93 -3.34,15.03 -10.34,18.79l-42.5 22.82c-7,3.76 -10.91,10.85 -10.34,18.78z"/>
    <g style="clip-path:url(#id1)">
     <g>
      <g>
       <path id="_1_20" class="fil1" d="M-15707.71 67.87l-14.06 -6.17c-2.06,-0.82 -11.74,-4.53 -14.53,-5.67 -13.28,-5.47 -13,-2.21 -27.62,-12.58 -19.73,-14 -28.41,-34.23 -24.16,-63.28 5.35,-36.6 56.84,-77.74 80.66,-101.42 -20.13,-12.32 -66.95,-18.97 -79.52,-46.97 -7.36,-82.92 56.35,-117.26 99.05,-161.47 44.2,-45.76 91.1,-116.8 168.6,-37.37 67.79,-37.86 68.54,-64.35 139.35,0.72l12.37 -9.58c1.88,-1.42 17.05,-13.24 18.21,-13.93 52.87,-31.4 69.68,-5.21 108.78,23.15 44.51,-24.7 27.11,-45.37 99.53,-30.74 83.21,64.97 1.87,126.57 -42.48,166.72 17.82,16.87 65.58,27.72 75.97,59.72 4.01,67.89 -46.2,107.37 -82.31,130.79 1.98,1.58 5.61,5.64 6.68,3.62 1.06,-2.03 5.26,2.79 6.74,3.46l13.71 6.04c115.35,50.35 33.83,119.63 -15.34,167.37 -52.52,51.01 -89.31,114.34 -148.29,102.69l-48.58 -30.28c-1.06,-1 -3.25,-3.48 -4.98,-5.11 -24.55,21.37 -53.11,56.83 -105.87,26.11 -25.16,-14.66 -3.35,-8.96 -33.48,-25.03 -85.24,72.7 -80.95,24.05 -142.62,-1.68 -66.18,76.32 -115.63,20.69 -123.45,-3.9 -19.36,-60.8 48.8,-109.04 77.65,-135.19z"/>
       <path class="fil2" d="M-9595.91 968.07c-43.83,-30.5 -48.2,-60.98 -94.18,-79.65 -82.41,-30.4 -74.97,-17.09 -96.38,-108.66 -28.25,-120.89 -108.55,-74.77 7.84,-326.33 39,-84.29 85.49,-48.05 112.33,-102.91 49.8,-23.41 39.99,-61.67 119.49,-42.42 105.98,25.68 155.52,-47.23 257.19,42.39 28.74,25.35 50.9,69.87 73.79,104.25 26.09,181.08 13.63,64.98 47.91,153.64 25.82,66.76 -31.31,89.03 -43.32,143.86 -18.36,83.78 15.02,103.34 -59.83,138.75 -69.51,32.89 -64.32,54.98 -112.5,92.31 -56.48,7.16 -47.1,-9.79 -97.21,-16.53 -44.59,-5.98 -66.6,8.23 -115.14,1.29z"/>
       <path class="fil3" d="M-7791.33 -117.78c-31.13,51.27 -26.26,123.84 -66.29,168.74 -129.06,1.03 -5.87,-136.03 15.1,-197.74 -80.24,76.83 -78.52,140.82 -159.69,128.91 -43.28,-85.01 35.03,-74.61 119.23,-168.4 -39.37,12.84 -66.94,32.49 -104.23,53.09 -99.87,55.17 -138.57,-38.04 -29.45,-69.8l99.36 -35.47c-62.71,0.38 -128.54,22.38 -178.99,-1.31 -32.18,-107.68 133.85,-59.03 202.78,-52.41 -52.54,-26.63 -221.79,-38.36 -177.6,-112.94 14.11,-15.32 8.78,-21.48 44.1,-14.18 25.64,5.29 105.38,59.4 145.75,72.11 -88.04,-90.99 -152.54,-83.95 -122.84,-169.85 56.56,-7.1 61.53,10.3 88.94,45.2 25.16,32.02 45.06,59.32 72.96,84.45 -24.31,-71.77 -99.39,-132.68 -59.42,-195.38 48.95,-6.9 60.94,9.6 73.15,53.84l33.79 100.29c1.01,1.86 2.83,5.06 4.51,7.41 -1.19,-59.01 -39.55,-185.29 28.32,-186.71 70.57,-1.47 29.11,135.98 28.05,186.37l24.07 -52.35c10.32,-34.25 26.04,-150.22 86.74,-102.54 30.86,24.25 14.68,50.58 -8.7,91.69 -18.48,32.49 -36.99,63.25 -50.39,97.62 22.67,-21.82 44.03,-46.97 69.33,-78.59 33.69,-42.11 22.43,-59.5 93.31,-52.4 24.56,57.91 7.71,62.71 -32.62,93.09 -28.19,21.23 -70.69,56.78 -90.26,77.87 104.42,-40.38 151.5,-108.16 189.65,-57.92 28.18,43.64 -8.16,58.52 -48.07,70.86 -33.41,10.31 -78.3,19.22 -107.32,38.57 60.52,-0.45 134.43,-22.82 182,1.33 25.88,107.29 -101.36,57.25 -180.54,55.6 8.85,5.91 1.74,3.17 21.93,12.13 11.57,5.14 9.76,4.31 23.07,8.79 28.16,9.48 150.62,28.44 115.66,88.36 -57.99,45.4 -125.58,-34.69 -195.11,-57.14 57.18,62.5 175.72,110.9 120.2,161.1 -50.29,29.93 -70.97,-15.05 -96.74,-47.17 -10,-12.46 -65.64,-76.11 -70.66,-88.31 20.91,66.32 152.98,209.7 22.28,212.58 -35.9,-44.03 -41.19,-120.68 -66.65,-169.93 -1.94,61.33 38.97,190.69 -29.58,191.45 -71.87,0.8 -27.43,-142.98 -29.11,-190.92z"/>
       <path class="fil4" d="M-14249.56 58.29c-45.99,-43.19 -74.48,-2.45 -146.82,-25.93 -40.55,-38.98 -27.58,-59.79 -56.48,-100.89 -27.07,-38.5 -42.83,-33.76 -62.13,-90.71 -0.89,-52.95 33.49,-58.73 59.35,-93.65 27.05,-36.55 30.15,-76.09 59.62,-109.18 44.91,-6.67 89.79,3.86 124.22,-6.54 36.76,-11.09 53.86,-43.17 95.27,-45.65 44.69,-2.67 66.38,31.41 96.26,43.05 44.38,17.28 78.76,-0.26 131.81,11.67 37.43,42.26 26.95,55.14 55.23,100.4 23.34,37.33 61.83,56.47 62.61,94.7 0.87,42.99 -42.16,64.35 -62.51,96.28 -28,43.93 -22.08,60.94 -54.08,102.73 -80.8,14.31 -95.44,-15.04 -162.42,28.2 -80.04,51.66 -79.13,15.05 -139.92,-4.48z"/>
       <path class="fil5" d="M-10489.23 974.83l-23.75 -6.12c-79,-4.06 -141.93,-22.22 -145.74,-157.28 -68.82,18.36 -135.42,-48.8 -142.6,-106.85 -3.9,-31.61 3.27,-39.1 -2.19,-66.07 -6.2,-30.58 -66.4,-100.48 12.56,-136.87 63.58,-3.13 10.76,2.88 29.83,-14.39 -12.77,-28.4 -28.09,-58.48 -12.06,-82.94l33.14 -4.47 -5.93 46.71 57.26 6.63c26.73,54.01 42.62,76.84 100.72,94.31 93.67,28.17 76.63,19.81 117.07,94.36l74.19 8.62c4.23,58.43 -14.05,-9.13 4.82,72.74 8.82,38.23 2.75,13.95 -9.09,42.76l22.3 -1.42c0.92,0.13 4.2,0.47 6.03,1.42 -13.14,47.2 -15.91,20.44 1.28,36.9 -21.2,19.87 -21.68,0.88 -31.97,22.82 10.2,3.49 -0.79,5.23 27.57,4.91 30.61,-0.35 18.79,9.84 10.43,-4.87l23.21 25.19c0.96,1.32 2.54,4.44 3.66,6.76l-51.72 11.59 14.72 17.15c7.32,48.05 29.1,66.48 -10.15,98.64 -42.42,30.43 -63.43,3.53 -103.6,-10.23z"/>
       <path class="fil6" d="M-10599.26 -391.39c52.15,-37.36 50.68,-74.09 141.83,-83.14 158.77,-15.76 325.85,118.24 402.24,255.2 61.22,109.75 68.14,259.15 -34.35,321.47 -118.43,72.01 -252.3,-22.63 -329.22,-60.83 -174.89,211.62 -450.11,-16.62 -536.11,-171.79 -162.12,-292.53 92.89,-446.13 355.61,-260.91z"/>
       <path class="fil7" d="M-9496.65 148.36c15.62,-67.86 31.95,-116.32 2.52,-193.62 -25.98,-68.18 -41.47,-65.62 -78.45,-94.28 -23.4,-18.12 -22.02,-17.35 -36.39,-31.65l24.44 -21.93c103.92,-90.36 127.23,-111.9 92.03,-287.76 214.77,39 209.49,-14.01 318.46,-133.89 57.8,138.68 131.85,166.82 306.44,130.76 -39.7,204.18 1.43,215.75 120.13,312.82 -14.31,13.94 -0.11,3.83 -32.9,29.48 -101.81,79.59 -118.61,126.55 -87.39,284.77 -183.62,-39.66 -231.37,-1.86 -307.44,124.35 -42.58,-36.62 -90.81,-205.04 -321.45,-119.04z"/>
       <path class="fil8" d="M-13221.56 -177.16c216.01,-51.72 236.58,-203.98 284.61,-274.47 26.27,87.82 43.38,114.35 97.49,170.44 92.25,95.62 115.78,66.29 172.52,111.93 -153.7,46.79 -219.31,121.8 -272.63,273.53 -47.05,-86.12 -31.1,-103.25 -100.74,-172.79 -73.89,-73.81 -88.45,-61.79 -181.26,-108.64z"/>
       <path class="fil6" d="M-13260.77 526.94c52.15,-37.36 50.68,-74.09 141.83,-83.14 158.77,-15.76 325.85,118.24 402.24,255.2 61.22,109.75 68.14,259.15 -34.35,321.47 -118.43,72.01 -252.3,-22.63 -329.22,-60.83 -174.89,211.62 -450.11,-16.62 -536.11,-171.79 -162.12,-292.53 92.89,-446.13 355.61,-260.91z"/>
       <path class="fil9" d="M-14694.33 1003.81c-180.2,-6.43 -311.25,-232.02 -178.15,-393.5 71.14,-86.33 114.25,-89.78 246.84,-100.53 93.19,-7.56 233.78,-27.6 322.13,-24.26 188.79,7.13 308.99,226.65 182.84,392.1 -60.85,79.82 -121.11,91.59 -247.96,101.79 -95.3,7.65 -234.95,27.65 -325.7,24.41z"/>
       <path class="fil7" d="M-12158.17 1066.7c15.62,-67.86 31.95,-116.32 2.52,-193.62 -25.98,-68.18 -41.47,-65.62 -78.45,-94.28 -23.4,-18.12 -22.02,-17.35 -36.39,-31.65l24.44 -21.93c103.92,-90.36 127.23,-111.9 92.04,-287.76 214.77,39 209.49,-14.01 318.46,-133.89 57.8,138.68 131.85,166.82 306.44,130.76 -39.7,204.18 1.43,215.75 120.13,312.82 -14.31,13.94 -0.11,3.83 -32.9,29.48 -101.81,79.59 -118.61,126.55 -87.39,284.77 -183.62,-39.66 -231.37,-1.86 -307.44,124.35 -42.58,-36.62 -90.81,-205.04 -321.45,-119.04z"/>
       <path class="fil8" d="M-15883.07 741.17c216.01,-51.72 236.58,-203.98 284.61,-274.47 26.27,87.82 43.38,114.35 97.5,170.45 92.25,95.62 115.78,66.29 172.52,111.92 -153.7,46.79 -219.31,121.8 -272.63,273.53 -47.05,-86.12 -31.1,-103.25 -100.74,-172.79 -73.89,-73.81 -88.45,-61.79 -181.26,-108.64z"/>
       <path class="fil4" d="M-8177.09 862.11c-45.99,-43.19 -74.48,-2.45 -146.82,-25.93 -40.55,-38.98 -27.58,-59.79 -56.48,-100.89 -27.07,-38.5 -42.83,-33.76 -62.13,-90.71 -0.89,-52.95 33.49,-58.73 59.35,-93.65 27.05,-36.55 30.16,-76.09 59.62,-109.18 44.91,-6.67 89.79,3.86 124.22,-6.54 36.76,-11.09 53.86,-43.17 95.27,-45.65 44.69,-2.67 66.38,31.41 96.26,43.05 44.38,17.28 78.76,-0.26 131.81,11.67 37.43,42.26 26.95,55.14 55.23,100.4 23.34,37.33 61.83,56.47 62.61,94.7 0.87,42.99 -42.16,64.35 -62.51,96.28 -28,43.93 -22.08,60.94 -54.08,102.73 -80.8,14.31 -95.44,-15.04 -162.42,28.2 -80.04,51.66 -79.13,15.05 -139.92,-4.48z"/>
       <path class="fil1" d="M-15680.77 -2018.1l-14.06 -6.17c-2.06,-0.82 -11.74,-4.53 -14.53,-5.67 -13.28,-5.47 -13,-2.21 -27.62,-12.58 -19.73,-14 -28.41,-34.23 -24.16,-63.28 5.35,-36.6 56.84,-77.74 80.66,-101.42 -20.13,-12.32 -66.95,-18.97 -79.52,-46.97 -7.36,-82.92 56.35,-117.26 99.05,-161.47 44.2,-45.76 91.1,-116.8 168.6,-37.37 67.79,-37.86 68.54,-64.35 139.35,0.72l12.37 -9.58c1.88,-1.42 17.05,-13.24 18.21,-13.93 52.87,-31.4 69.68,-5.21 108.78,23.15 44.51,-24.7 27.11,-45.37 99.53,-30.74 83.21,64.97 1.87,126.57 -42.48,166.72 17.82,16.87 65.58,27.72 75.97,59.72 4.01,67.89 -46.2,107.37 -82.31,130.79 1.98,1.58 5.61,5.64 6.68,3.62 1.06,-2.03 5.26,2.79 6.74,3.46l13.71 6.04c115.35,50.35 33.83,119.63 -15.34,167.37 -52.52,51.01 -89.31,114.34 -148.29,102.69l-48.58 -30.28c-1.06,-1 -3.24,-3.48 -4.98,-5.11 -24.55,21.37 -53.12,56.83 -105.87,26.11 -25.16,-14.66 -3.35,-8.96 -33.48,-25.03 -85.24,72.7 -80.95,24.05 -142.62,-1.68 -66.18,76.32 -115.63,20.69 -123.45,-3.9 -19.36,-60.8 48.8,-109.04 77.65,-135.19z"/>
       <path class="fil2" d="M-9340.25 -950.57c-43.83,-30.5 -48.2,-60.98 -94.18,-79.65 -82.41,-30.4 -74.97,-17.09 -96.38,-108.66 -28.25,-120.89 -108.55,-74.77 7.84,-326.33 39,-84.29 85.49,-48.05 112.33,-102.91 49.8,-23.41 40,-61.67 119.49,-42.42 105.98,25.68 155.52,-47.23 257.19,42.39 28.74,25.35 50.9,69.87 73.79,104.25 26.09,181.08 13.63,64.98 47.91,153.64 25.82,66.76 -31.31,89.03 -43.32,143.86 -18.36,83.78 15.02,103.34 -59.83,138.75 -69.51,32.89 -64.32,54.98 -112.5,92.31 -56.48,7.16 -47.1,-9.79 -97.21,-16.53 -44.59,-5.98 -66.6,8.23 -115.14,1.29z"/>
       <path class="fil3" d="M-8090.48 -2015.86c-31.13,51.27 -26.26,123.84 -66.29,168.74 -129.06,1.03 -5.87,-136.03 15.1,-197.74 -80.24,76.83 -78.52,140.82 -159.69,128.91 -43.27,-85.01 35.03,-74.61 119.23,-168.4 -39.37,12.84 -66.94,32.49 -104.23,53.09 -99.87,55.17 -138.57,-38.04 -29.45,-69.8l99.36 -35.47c-62.71,0.38 -128.54,22.38 -178.99,-1.31 -32.18,-107.68 133.85,-59.03 202.78,-52.41 -52.54,-26.63 -221.79,-38.36 -177.6,-112.94 14.11,-15.32 8.78,-21.48 44.1,-14.18 25.64,5.29 105.38,59.4 145.75,72.11 -88.04,-90.99 -152.54,-83.95 -122.84,-169.85 56.56,-7.1 61.53,10.3 88.94,45.2 25.16,32.02 45.06,59.32 72.96,84.45 -24.31,-71.77 -99.39,-132.68 -59.42,-195.38 48.95,-6.9 60.94,9.6 73.15,53.84l33.79 100.29c1.01,1.86 2.83,5.06 4.51,7.41 -1.19,-59 -39.55,-185.29 28.32,-186.71 70.57,-1.47 29.11,135.99 28.05,186.37l24.07 -52.35c10.32,-34.25 26.04,-150.22 86.74,-102.54 30.86,24.25 14.68,50.58 -8.7,91.69 -18.48,32.49 -36.99,63.25 -50.39,97.62 22.67,-21.82 44.03,-46.97 69.33,-78.59 33.69,-42.11 22.43,-59.5 93.31,-52.4 24.56,57.91 7.71,62.71 -32.62,93.09 -28.19,21.23 -70.69,56.78 -90.26,77.87 104.42,-40.38 151.5,-108.16 189.65,-57.92 28.18,43.64 -8.16,58.52 -48.07,70.86 -33.41,10.31 -78.3,19.22 -107.32,38.57 60.52,-0.45 134.43,-22.82 182,1.33 25.88,107.29 -101.36,57.25 -180.54,55.6 8.85,5.91 1.74,3.17 21.93,12.13 11.57,5.14 9.76,4.31 23.07,8.79 28.16,9.48 150.62,28.44 115.66,88.36 -57.99,45.4 -125.58,-34.69 -195.11,-57.14 57.18,62.5 175.72,110.9 120.2,161.1 -50.29,29.93 -70.97,-15.05 -96.74,-47.17 -10,-12.46 -65.64,-76.11 -70.66,-88.31 20.91,66.32 152.98,209.7 22.28,212.58 -35.9,-44.03 -41.19,-120.68 -66.65,-169.92 -1.94,61.33 38.97,190.69 -29.58,191.45 -71.87,0.8 -27.43,-142.98 -29.11,-190.92z"/>
       <path class="fil4" d="M-14222.63 -1944.58c-45.99,-43.19 -74.48,-2.45 -146.82,-25.93 -40.55,-38.98 -27.58,-59.79 -56.48,-100.89 -27.07,-38.5 -42.83,-33.76 -62.13,-90.71 -0.89,-52.95 33.49,-58.73 59.35,-93.65 27.05,-36.55 30.16,-76.09 59.62,-109.18 44.91,-6.67 89.79,3.86 124.22,-6.54 36.76,-11.09 53.86,-43.17 95.27,-45.65 44.69,-2.67 66.38,31.41 96.26,43.05 44.38,17.28 78.76,-0.26 131.81,11.67 37.43,42.26 26.95,55.14 55.23,100.4 23.34,37.33 61.83,56.47 62.61,94.7 0.87,42.99 -42.16,64.35 -62.51,96.28 -28,43.93 -22.08,60.94 -54.08,102.73 -80.8,14.31 -95.44,-15.04 -162.42,28.2 -80.04,51.66 -79.13,15.05 -139.92,-4.48z"/>
       <path class="fil5" d="M-12847.87 -1831.31l-23.75 -6.12c-79,-4.06 -141.93,-22.22 -145.74,-157.28 -68.82,18.36 -135.42,-48.8 -142.6,-106.85 -3.9,-31.61 3.27,-39.1 -2.19,-66.07 -6.2,-30.58 -66.4,-100.48 12.56,-136.87 63.58,-3.13 10.76,2.88 29.83,-14.39 -12.77,-28.4 -28.09,-58.48 -12.06,-82.94l33.14 -4.47 -5.93 46.71 57.26 6.63c26.73,54.01 42.62,76.84 100.72,94.31 93.67,28.17 76.63,19.81 117.07,94.36l74.19 8.62c4.23,58.43 -14.05,-9.13 4.82,72.74 8.82,38.23 2.75,13.95 -9.09,42.76l22.3 -1.42c0.92,0.13 4.2,0.47 6.03,1.42 -13.14,47.2 -15.91,20.44 1.28,36.9 -21.2,19.87 -21.68,0.88 -31.97,22.82 10.2,3.49 -0.79,5.23 27.57,4.91 30.61,-0.35 18.79,9.84 10.43,-4.87l23.21 25.19c0.96,1.32 2.54,4.44 3.66,6.76l-51.72 11.59 14.72 17.15c7.32,48.05 29.1,66.48 -10.15,98.63 -42.42,30.43 -63.43,3.53 -103.6,-10.23z"/>
       <path class="fil6" d="M-10572.32 -2383.19c52.15,-37.36 50.68,-74.09 141.83,-83.14 158.77,-15.76 325.85,118.24 402.24,255.2 61.22,109.75 68.14,259.15 -34.35,321.47 -118.43,72.01 -252.3,-22.63 -329.22,-60.83 -174.89,211.62 -450.11,-16.62 -536.11,-171.79 -162.12,-292.53 92.89,-446.13 355.61,-260.91z"/>
       <path class="fil10" d="M-12005.88 -1906.32c-180.2,-6.43 -311.25,-232.02 -178.15,-393.5 71.14,-86.33 114.25,-89.78 246.84,-100.54 93.19,-7.56 233.78,-27.6 322.13,-24.26 188.79,7.13 308.99,226.65 182.84,392.1 -60.85,79.82 -121.11,91.59 -247.96,101.79 -95.3,7.65 -234.95,27.65 -325.7,24.41z"/>
       <path class="fil7" d="M-9469.72 -1843.43c15.62,-67.86 31.95,-116.32 2.52,-193.62 -25.98,-68.18 -41.47,-65.62 -78.45,-94.28 -23.4,-18.12 -22.02,-17.35 -36.39,-31.65l24.44 -21.93c103.92,-90.36 127.23,-111.9 92.04,-287.76 214.77,39 209.49,-14.01 318.46,-133.89 57.8,138.68 131.85,166.82 306.44,130.76 -39.7,204.18 1.43,215.75 120.13,312.82 -14.31,13.94 -0.11,3.83 -32.9,29.48 -101.81,79.59 -118.61,126.55 -87.39,284.77 -183.62,-39.66 -231.37,-1.86 -307.44,124.35 -42.58,-36.62 -90.81,-205.04 -321.45,-119.04z"/>
       <path class="fil8" d="M-10741.13 -1288.91c216.01,-51.72 236.58,-203.98 284.61,-274.47 26.27,87.82 43.38,114.35 97.5,170.44 92.25,95.62 115.78,66.29 172.52,111.93 -153.7,46.79 -219.31,121.8 -272.63,273.53 -47.05,-86.12 -31.1,-103.25 -100.74,-172.79 -73.89,-73.81 -88.45,-61.79 -181.26,-108.64z"/>
       <path class="fil6" d="M-13005.11 -1391.69c52.15,-37.36 50.68,-74.09 141.83,-83.14 158.77,-15.76 325.85,118.24 402.24,255.2 61.22,109.75 68.14,259.15 -34.35,321.47 -118.43,72.01 -252.3,-22.63 -329.22,-60.83 -174.89,211.62 -450.11,-16.62 -536.11,-171.79 -162.12,-292.53 92.89,-446.13 355.61,-260.91z"/>
       <path class="fil9" d="M-14438.67 -914.83c-180.2,-6.43 -311.25,-232.02 -178.15,-393.5 71.14,-86.33 114.25,-89.78 246.84,-100.53 93.19,-7.56 233.78,-27.6 322.13,-24.26 188.79,7.13 308.99,226.65 182.84,392.1 -60.85,79.82 -121.11,91.59 -247.96,101.79 -95.3,7.65 -234.95,27.65 -325.7,24.41z"/>
       <path class="fil7" d="M-11902.51 -851.94c15.62,-67.86 31.95,-116.32 2.52,-193.62 -25.98,-68.18 -41.47,-65.62 -78.45,-94.28 -23.4,-18.12 -22.02,-17.35 -36.39,-31.65l24.44 -21.93c103.92,-90.36 127.23,-111.9 92.03,-287.76 214.77,39 209.49,-14.01 318.46,-133.89 57.8,138.68 131.85,166.82 306.44,130.76 -39.7,204.18 1.43,215.75 120.13,312.82 -14.31,13.94 -0.11,3.83 -32.9,29.48 -101.81,79.59 -118.61,126.55 -87.39,284.77 -183.62,-39.66 -231.37,-1.86 -307.44,124.35 -42.58,-36.62 -90.81,-205.04 -321.45,-119.04z"/>
       <path class="fil8" d="M-15627.41 -1177.46c216.01,-51.72 236.58,-203.98 284.61,-274.47 26.27,87.82 43.38,114.35 97.49,170.45 92.25,95.62 115.78,66.29 172.52,111.92 -153.7,46.79 -219.31,121.8 -272.63,273.53 -47.05,-86.12 -31.1,-103.25 -100.74,-172.79 -73.89,-73.81 -88.45,-61.79 -181.26,-108.64z"/>
       <path class="fil4" d="M-7921.43 -1056.53c-45.99,-43.19 -74.48,-2.45 -146.82,-25.93 -40.55,-38.98 -27.58,-59.79 -56.48,-100.89 -27.07,-38.5 -42.83,-33.76 -62.13,-90.71 -0.89,-52.95 33.49,-58.73 59.35,-93.65 27.05,-36.55 30.15,-76.09 59.62,-109.18 44.91,-6.67 89.79,3.86 124.22,-6.54 36.76,-11.09 53.86,-43.17 95.27,-45.65 44.69,-2.67 66.38,31.41 96.26,43.05 44.38,17.28 78.76,-0.26 131.81,11.67 37.43,42.26 26.95,55.14 55.23,100.4 23.34,37.33 61.83,56.47 62.61,94.7 0.87,42.99 -42.16,64.35 -62.51,96.28 -28,43.93 -22.08,60.94 -54.08,102.73 -80.8,14.31 -95.44,-15.04 -162.42,28.2 -80.04,51.66 -79.13,15.05 -139.92,-4.48z"/>
       <path class="fil10" d="M-11890.43 30.52c-180.2,-6.43 -311.25,-232.02 -178.15,-393.5 71.14,-86.33 114.25,-89.78 246.84,-100.53 93.19,-7.56 233.78,-27.6 322.13,-24.26 188.79,7.13 308.99,226.65 182.84,392.1 -60.85,79.82 -121.11,91.59 -247.96,101.79 -95.3,7.65 -234.95,27.65 -325.7,24.41z"/>
      </g>
     </g>
    </g>
    <path class="fil13" d="M35.13 92.9l1.27 17.91 -2.52 0.19c-5.43,0.4 -10.24,-1.19 -14.36,-4.74 -4.12,-3.56 -6.39,-8.09 -6.78,-13.51l-5.14 -71.6c-0.41,-5.68 1.38,-10.72 5.27,-14.89 3.89,-4.16 8.8,-6.28 14.5,-6.25l50.36 0.23c10.34,0.05 18.85,8 19.59,18.31l1 13.97c0.57,7.93 -3.34,15.03 -10.34,18.79l-42.5 22.82c-7,3.76 -10.91,10.85 -10.34,18.78z"/>
    <path class="fil12" d="M183.41 132.32l-1.27 -17.91 2.52 -0.19c5.43,-0.4 10.24,1.19 14.36,4.74 4.12,3.56 6.39,8.09 6.78,13.51l5.14 71.6c0.41,5.68 -1.38,10.72 -5.27,14.88 -3.89,4.16 -8.8,6.28 -14.5,6.25l-50.36 -0.23c-10.34,-0.05 -18.85,-8 -19.59,-18.31l-1 -13.97c-0.57,-7.93 3.34,-15.03 10.34,-18.79l42.5 -22.82c7,-3.76 10.91,-10.85 10.34,-18.78z"/>
    <g style="clip-path:url(#id2)">
     <g>
      <g>
       <path id="_1_21" class="fil1" d="M-15707.71 67.87l-14.06 -6.17c-2.06,-0.82 -11.74,-4.53 -14.53,-5.67 -13.28,-5.47 -13,-2.21 -27.62,-12.58 -19.73,-14 -28.41,-34.23 -24.16,-63.28 5.35,-36.6 56.84,-77.74 80.66,-101.42 -20.13,-12.32 -66.95,-18.97 -79.52,-46.97 -7.36,-82.92 56.35,-117.26 99.05,-161.47 44.2,-45.76 91.1,-116.8 168.6,-37.37 67.79,-37.86 68.54,-64.35 139.35,0.72l12.37 -9.58c1.88,-1.42 17.05,-13.24 18.21,-13.93 52.87,-31.4 69.68,-5.21 108.78,23.15 44.51,-24.7 27.11,-45.37 99.53,-30.74 83.21,64.97 1.87,126.57 -42.48,166.72 17.82,16.87 65.58,27.72 75.97,59.72 4.01,67.89 -46.2,107.37 -82.31,130.79 1.98,1.58 5.61,5.64 6.68,3.62 1.06,-2.03 5.26,2.79 6.74,3.46l13.71 6.04c115.35,50.35 33.83,119.63 -15.34,167.37 -52.52,51.01 -89.31,114.34 -148.29,102.69l-48.58 -30.28c-1.06,-1 -3.25,-3.48 -4.98,-5.11 -24.55,21.37 -53.11,56.83 -105.87,26.11 -25.16,-14.66 -3.35,-8.96 -33.48,-25.03 -85.24,72.7 -80.95,24.05 -142.62,-1.68 -66.18,76.32 -115.63,20.69 -123.45,-3.9 -19.36,-60.8 48.8,-109.04 77.65,-135.19z"/>
       <path class="fil2" d="M-9595.91 968.07c-43.83,-30.5 -48.2,-60.98 -94.18,-79.65 -82.41,-30.4 -74.97,-17.09 -96.38,-108.66 -28.25,-120.89 -108.55,-74.77 7.84,-326.33 39,-84.29 85.49,-48.05 112.33,-102.91 49.8,-23.41 39.99,-61.67 119.49,-42.42 105.98,25.68 155.52,-47.23 257.19,42.39 28.74,25.35 50.9,69.87 73.79,104.25 26.09,181.08 13.63,64.98 47.91,153.64 25.82,66.76 -31.31,89.03 -43.32,143.86 -18.36,83.78 15.02,103.34 -59.83,138.75 -69.51,32.89 -64.32,54.98 -112.5,92.31 -56.48,7.16 -47.1,-9.79 -97.21,-16.53 -44.59,-5.98 -66.6,8.23 -115.14,1.29z"/>
       <path class="fil3" d="M-7791.33 -117.78c-31.13,51.27 -26.26,123.84 -66.29,168.74 -129.06,1.03 -5.87,-136.03 15.1,-197.74 -80.24,76.83 -78.52,140.82 -159.69,128.91 -43.28,-85.01 35.03,-74.61 119.23,-168.4 -39.37,12.84 -66.94,32.49 -104.23,53.09 -99.87,55.17 -138.57,-38.04 -29.45,-69.8l99.36 -35.47c-62.71,0.38 -128.54,22.38 -178.99,-1.31 -32.18,-107.68 133.85,-59.03 202.78,-52.41 -52.54,-26.63 -221.79,-38.36 -177.6,-112.94 14.11,-15.32 8.78,-21.48 44.1,-14.18 25.64,5.29 105.38,59.4 145.75,72.11 -88.04,-90.99 -152.54,-83.95 -122.84,-169.85 56.56,-7.1 61.53,10.3 88.94,45.2 25.16,32.02 45.06,59.32 72.96,84.45 -24.31,-71.77 -99.39,-132.68 -59.42,-195.38 48.95,-6.9 60.94,9.6 73.15,53.84l33.79 100.29c1.01,1.86 2.83,5.06 4.51,7.41 -1.19,-59.01 -39.55,-185.29 28.32,-186.71 70.57,-1.47 29.11,135.98 28.05,186.37l24.07 -52.35c10.32,-34.25 26.04,-150.22 86.74,-102.54 30.86,24.25 14.68,50.58 -8.7,91.69 -18.48,32.49 -36.99,63.25 -50.39,97.62 22.67,-21.82 44.03,-46.97 69.33,-78.59 33.69,-42.11 22.43,-59.5 93.31,-52.4 24.56,57.91 7.71,62.71 -32.62,93.09 -28.19,21.23 -70.69,56.78 -90.26,77.87 104.42,-40.38 151.5,-108.16 189.65,-57.92 28.18,43.64 -8.16,58.52 -48.07,70.86 -33.41,10.31 -78.3,19.22 -107.32,38.57 60.52,-0.45 134.43,-22.82 182,1.33 25.88,107.29 -101.36,57.25 -180.54,55.6 8.85,5.91 1.74,3.17 21.93,12.13 11.57,5.14 9.76,4.31 23.07,8.79 28.16,9.48 150.62,28.44 115.66,88.36 -57.99,45.4 -125.58,-34.69 -195.11,-57.14 57.18,62.5 175.72,110.9 120.2,161.1 -50.29,29.93 -70.97,-15.05 -96.74,-47.17 -10,-12.46 -65.64,-76.11 -70.66,-88.31 20.91,66.32 152.98,209.7 22.28,212.58 -35.9,-44.03 -41.19,-120.68 -66.65,-169.93 -1.94,61.33 38.97,190.69 -29.58,191.45 -71.87,0.8 -27.43,-142.98 -29.11,-190.92z"/>
       <path class="fil4" d="M-14249.56 58.29c-45.99,-43.19 -74.48,-2.45 -146.82,-25.93 -40.55,-38.98 -27.58,-59.79 -56.48,-100.89 -27.07,-38.5 -42.83,-33.76 -62.13,-90.71 -0.89,-52.95 33.49,-58.73 59.35,-93.65 27.05,-36.55 30.15,-76.09 59.62,-109.18 44.91,-6.67 89.79,3.86 124.22,-6.54 36.76,-11.09 53.86,-43.17 95.27,-45.65 44.69,-2.67 66.38,31.41 96.26,43.05 44.38,17.28 78.76,-0.26 131.81,11.67 37.43,42.26 26.95,55.14 55.23,100.4 23.34,37.33 61.83,56.47 62.61,94.7 0.87,42.99 -42.16,64.35 -62.51,96.28 -28,43.93 -22.08,60.94 -54.08,102.73 -80.8,14.31 -95.44,-15.04 -162.42,28.2 -80.04,51.66 -79.13,15.05 -139.92,-4.48z"/>
       <path class="fil5" d="M-10489.23 974.83l-23.75 -6.12c-79,-4.06 -141.93,-22.22 -145.74,-157.28 -68.82,18.36 -135.42,-48.8 -142.6,-106.85 -3.9,-31.61 3.27,-39.1 -2.19,-66.07 -6.2,-30.58 -66.4,-100.48 12.56,-136.87 63.58,-3.13 10.76,2.88 29.83,-14.39 -12.77,-28.4 -28.09,-58.48 -12.06,-82.94l33.14 -4.47 -5.93 46.71 57.26 6.63c26.73,54.01 42.62,76.84 100.72,94.31 93.67,28.17 76.63,19.81 117.07,94.36l74.19 8.62c4.23,58.43 -14.05,-9.13 4.82,72.74 8.82,38.23 2.75,13.95 -9.09,42.76l22.3 -1.42c0.92,0.13 4.2,0.47 6.03,1.42 -13.14,47.2 -15.91,20.44 1.28,36.9 -21.2,19.87 -21.68,0.88 -31.97,22.82 10.2,3.49 -0.79,5.23 27.57,4.91 30.61,-0.35 18.79,9.84 10.43,-4.87l23.21 25.19c0.96,1.32 2.54,4.44 3.66,6.76l-51.72 11.59 14.72 17.15c7.32,48.05 29.1,66.48 -10.15,98.64 -42.42,30.43 -63.43,3.53 -103.6,-10.23z"/>
       <path class="fil6" d="M-10599.26 -391.39c52.15,-37.36 50.68,-74.09 141.83,-83.14 158.77,-15.76 325.85,118.24 402.24,255.2 61.22,109.75 68.14,259.15 -34.35,321.47 -118.43,72.01 -252.3,-22.63 -329.22,-60.83 -174.89,211.62 -450.11,-16.62 -536.11,-171.79 -162.12,-292.53 92.89,-446.13 355.61,-260.91z"/>
       <path class="fil7" d="M-9496.65 148.36c15.62,-67.86 31.95,-116.32 2.52,-193.62 -25.98,-68.18 -41.47,-65.62 -78.45,-94.28 -23.4,-18.12 -22.02,-17.35 -36.39,-31.65l24.44 -21.93c103.92,-90.36 127.23,-111.9 92.03,-287.76 214.77,39 209.49,-14.01 318.46,-133.89 57.8,138.68 131.85,166.82 306.44,130.76 -39.7,204.18 1.43,215.75 120.13,312.82 -14.31,13.94 -0.11,3.83 -32.9,29.48 -101.81,79.59 -118.61,126.55 -87.39,284.77 -183.62,-39.66 -231.37,-1.86 -307.44,124.35 -42.58,-36.62 -90.81,-205.04 -321.45,-119.04z"/>
       <path class="fil8" d="M-13221.56 -177.16c216.01,-51.72 236.58,-203.98 284.61,-274.47 26.27,87.82 43.38,114.35 97.49,170.44 92.25,95.62 115.78,66.29 172.52,111.93 -153.7,46.79 -219.31,121.8 -272.63,273.53 -47.05,-86.12 -31.1,-103.25 -100.74,-172.79 -73.89,-73.81 -88.45,-61.79 -181.26,-108.64z"/>
       <path class="fil6" d="M-13260.77 526.94c52.15,-37.36 50.68,-74.09 141.83,-83.14 158.77,-15.76 325.85,118.24 402.24,255.2 61.22,109.75 68.14,259.15 -34.35,321.47 -118.43,72.01 -252.3,-22.63 -329.22,-60.83 -174.89,211.62 -450.11,-16.62 -536.11,-171.79 -162.12,-292.53 92.89,-446.13 355.61,-260.91z"/>
       <path class="fil9" d="M-14694.33 1003.81c-180.2,-6.43 -311.25,-232.02 -178.15,-393.5 71.14,-86.33 114.25,-89.78 246.84,-100.53 93.19,-7.56 233.78,-27.6 322.13,-24.26 188.79,7.13 308.99,226.65 182.84,392.1 -60.85,79.82 -121.11,91.59 -247.96,101.79 -95.3,7.65 -234.95,27.65 -325.7,24.41z"/>
       <path class="fil7" d="M-12158.17 1066.7c15.62,-67.86 31.95,-116.32 2.52,-193.62 -25.98,-68.18 -41.47,-65.62 -78.45,-94.28 -23.4,-18.12 -22.02,-17.35 -36.39,-31.65l24.44 -21.93c103.92,-90.36 127.23,-111.9 92.04,-287.76 214.77,39 209.49,-14.01 318.46,-133.89 57.8,138.68 131.85,166.82 306.44,130.76 -39.7,204.18 1.43,215.75 120.13,312.82 -14.31,13.94 -0.11,3.83 -32.9,29.48 -101.81,79.59 -118.61,126.55 -87.39,284.77 -183.62,-39.66 -231.37,-1.86 -307.44,124.35 -42.58,-36.62 -90.81,-205.04 -321.45,-119.04z"/>
       <path class="fil8" d="M-15883.07 741.17c216.01,-51.72 236.58,-203.98 284.61,-274.47 26.27,87.82 43.38,114.35 97.5,170.45 92.25,95.62 115.78,66.29 172.52,111.92 -153.7,46.79 -219.31,121.8 -272.63,273.53 -47.05,-86.12 -31.1,-103.25 -100.74,-172.79 -73.89,-73.81 -88.45,-61.79 -181.26,-108.64z"/>
       <path class="fil4" d="M-8177.09 862.11c-45.99,-43.19 -74.48,-2.45 -146.82,-25.93 -40.55,-38.98 -27.58,-59.79 -56.48,-100.89 -27.07,-38.5 -42.83,-33.76 -62.13,-90.71 -0.89,-52.95 33.49,-58.73 59.35,-93.65 27.05,-36.55 30.16,-76.09 59.62,-109.18 44.91,-6.67 89.79,3.86 124.22,-6.54 36.76,-11.09 53.86,-43.17 95.27,-45.65 44.69,-2.67 66.38,31.41 96.26,43.05 44.38,17.28 78.76,-0.26 131.81,11.67 37.43,42.26 26.95,55.14 55.23,100.4 23.34,37.33 61.83,56.47 62.61,94.7 0.87,42.99 -42.16,64.35 -62.51,96.28 -28,43.93 -22.08,60.94 -54.08,102.73 -80.8,14.31 -95.44,-15.04 -162.42,28.2 -80.04,51.66 -79.13,15.05 -139.92,-4.48z"/>
       <path class="fil1" d="M-15680.77 -2018.1l-14.06 -6.17c-2.06,-0.82 -11.74,-4.53 -14.53,-5.67 -13.28,-5.47 -13,-2.21 -27.62,-12.58 -19.73,-14 -28.41,-34.23 -24.16,-63.28 5.35,-36.6 56.84,-77.74 80.66,-101.42 -20.13,-12.32 -66.95,-18.97 -79.52,-46.97 -7.36,-82.92 56.35,-117.26 99.05,-161.47 44.2,-45.76 91.1,-116.8 168.6,-37.37 67.79,-37.86 68.54,-64.35 139.35,0.72l12.37 -9.58c1.88,-1.42 17.05,-13.24 18.21,-13.93 52.87,-31.4 69.68,-5.21 108.78,23.15 44.51,-24.7 27.11,-45.37 99.53,-30.74 83.21,64.97 1.87,126.57 -42.48,166.72 17.82,16.87 65.58,27.72 75.97,59.72 4.01,67.89 -46.2,107.37 -82.31,130.79 1.98,1.58 5.61,5.64 6.68,3.62 1.06,-2.03 5.26,2.79 6.74,3.46l13.71 6.04c115.35,50.35 33.83,119.63 -15.34,167.37 -52.52,51.01 -89.31,114.34 -148.29,102.69l-48.58 -30.28c-1.06,-1 -3.24,-3.48 -4.98,-5.11 -24.55,21.37 -53.12,56.83 -105.87,26.11 -25.16,-14.66 -3.35,-8.96 -33.48,-25.03 -85.24,72.7 -80.95,24.05 -142.62,-1.68 -66.18,76.32 -115.63,20.69 -123.45,-3.9 -19.36,-60.8 48.8,-109.04 77.65,-135.19z"/>
       <path class="fil2" d="M-9340.25 -950.57c-43.83,-30.5 -48.2,-60.98 -94.18,-79.65 -82.41,-30.4 -74.97,-17.09 -96.38,-108.66 -28.25,-120.89 -108.55,-74.77 7.84,-326.33 39,-84.29 85.49,-48.05 112.33,-102.91 49.8,-23.41 40,-61.67 119.49,-42.42 105.98,25.68 155.52,-47.23 257.19,42.39 28.74,25.35 50.9,69.87 73.79,104.25 26.09,181.08 13.63,64.98 47.91,153.64 25.82,66.76 -31.31,89.03 -43.32,143.86 -18.36,83.78 15.02,103.34 -59.83,138.75 -69.51,32.89 -64.32,54.98 -112.5,92.31 -56.48,7.16 -47.1,-9.79 -97.21,-16.53 -44.59,-5.98 -66.6,8.23 -115.14,1.29z"/>
       <path class="fil3" d="M-8090.48 -2015.86c-31.13,51.27 -26.26,123.84 -66.29,168.74 -129.06,1.03 -5.87,-136.03 15.1,-197.74 -80.24,76.83 -78.52,140.82 -159.69,128.91 -43.27,-85.01 35.03,-74.61 119.23,-168.4 -39.37,12.84 -66.94,32.49 -104.23,53.09 -99.87,55.17 -138.57,-38.04 -29.45,-69.8l99.36 -35.47c-62.71,0.38 -128.54,22.38 -178.99,-1.31 -32.18,-107.68 133.85,-59.03 202.78,-52.41 -52.54,-26.63 -221.79,-38.36 -177.6,-112.94 14.11,-15.32 8.78,-21.48 44.1,-14.18 25.64,5.29 105.38,59.4 145.75,72.11 -88.04,-90.99 -152.54,-83.95 -122.84,-169.85 56.56,-7.1 61.53,10.3 88.94,45.2 25.16,32.02 45.06,59.32 72.96,84.45 -24.31,-71.77 -99.39,-132.68 -59.42,-195.38 48.95,-6.9 60.94,9.6 73.15,53.84l33.79 100.29c1.01,1.86 2.83,5.06 4.51,7.41 -1.19,-59 -39.55,-185.29 28.32,-186.71 70.57,-1.47 29.11,135.99 28.05,186.37l24.07 -52.35c10.32,-34.25 26.04,-150.22 86.74,-102.54 30.86,24.25 14.68,50.58 -8.7,91.69 -18.48,32.49 -36.99,63.25 -50.39,97.62 22.67,-21.82 44.03,-46.97 69.33,-78.59 33.69,-42.11 22.43,-59.5 93.31,-52.4 24.56,57.91 7.71,62.71 -32.62,93.09 -28.19,21.23 -70.69,56.78 -90.26,77.87 104.42,-40.38 151.5,-108.16 189.65,-57.92 28.18,43.64 -8.16,58.52 -48.07,70.86 -33.41,10.31 -78.3,19.22 -107.32,38.57 60.52,-0.45 134.43,-22.82 182,1.33 25.88,107.29 -101.36,57.25 -180.54,55.6 8.85,5.91 1.74,3.17 21.93,12.13 11.57,5.14 9.76,4.31 23.07,8.79 28.16,9.48 150.62,28.44 115.66,88.36 -57.99,45.4 -125.58,-34.69 -195.11,-57.14 57.18,62.5 175.72,110.9 120.2,161.1 -50.29,29.93 -70.97,-15.05 -96.74,-47.17 -10,-12.46 -65.64,-76.11 -70.66,-88.31 20.91,66.32 152.98,209.7 22.28,212.58 -35.9,-44.03 -41.19,-120.68 -66.65,-169.92 -1.94,61.33 38.97,190.69 -29.58,191.45 -71.87,0.8 -27.43,-142.98 -29.11,-190.92z"/>
       <path class="fil4" d="M-14222.63 -1944.58c-45.99,-43.19 -74.48,-2.45 -146.82,-25.93 -40.55,-38.98 -27.58,-59.79 -56.48,-100.89 -27.07,-38.5 -42.83,-33.76 -62.13,-90.71 -0.89,-52.95 33.49,-58.73 59.35,-93.65 27.05,-36.55 30.16,-76.09 59.62,-109.18 44.91,-6.67 89.79,3.86 124.22,-6.54 36.76,-11.09 53.86,-43.17 95.27,-45.65 44.69,-2.67 66.38,31.41 96.26,43.05 44.38,17.28 78.76,-0.26 131.81,11.67 37.43,42.26 26.95,55.14 55.23,100.4 23.34,37.33 61.83,56.47 62.61,94.7 0.87,42.99 -42.16,64.35 -62.51,96.28 -28,43.93 -22.08,60.94 -54.08,102.73 -80.8,14.31 -95.44,-15.04 -162.42,28.2 -80.04,51.66 -79.13,15.05 -139.92,-4.48z"/>
       <path class="fil5" d="M-12847.87 -1831.31l-23.75 -6.12c-79,-4.06 -141.93,-22.22 -145.74,-157.28 -68.82,18.36 -135.42,-48.8 -142.6,-106.85 -3.9,-31.61 3.27,-39.1 -2.19,-66.07 -6.2,-30.58 -66.4,-100.48 12.56,-136.87 63.58,-3.13 10.76,2.88 29.83,-14.39 -12.77,-28.4 -28.09,-58.48 -12.06,-82.94l33.14 -4.47 -5.93 46.71 57.26 6.63c26.73,54.01 42.62,76.84 100.72,94.31 93.67,28.17 76.63,19.81 117.07,94.36l74.19 8.62c4.23,58.43 -14.05,-9.13 4.82,72.74 8.82,38.23 2.75,13.95 -9.09,42.76l22.3 -1.42c0.92,0.13 4.2,0.47 6.03,1.42 -13.14,47.2 -15.91,20.44 1.28,36.9 -21.2,19.87 -21.68,0.88 -31.97,22.82 10.2,3.49 -0.79,5.23 27.57,4.91 30.61,-0.35 18.79,9.84 10.43,-4.87l23.21 25.19c0.96,1.32 2.54,4.44 3.66,6.76l-51.72 11.59 14.72 17.15c7.32,48.05 29.1,66.48 -10.15,98.63 -42.42,30.43 -63.43,3.53 -103.6,-10.23z"/>
       <path class="fil6" d="M-10572.32 -2383.19c52.15,-37.36 50.68,-74.09 141.83,-83.14 158.77,-15.76 325.85,118.24 402.24,255.2 61.22,109.75 68.14,259.15 -34.35,321.47 -118.43,72.01 -252.3,-22.63 -329.22,-60.83 -174.89,211.62 -450.11,-16.62 -536.11,-171.79 -162.12,-292.53 92.89,-446.13 355.61,-260.91z"/>
       <path class="fil10" d="M-12005.88 -1906.32c-180.2,-6.43 -311.25,-232.02 -178.15,-393.5 71.14,-86.33 114.25,-89.78 246.84,-100.54 93.19,-7.56 233.78,-27.6 322.13,-24.26 188.79,7.13 308.99,226.65 182.84,392.1 -60.85,79.82 -121.11,91.59 -247.96,101.79 -95.3,7.65 -234.95,27.65 -325.7,24.41z"/>
       <path class="fil7" d="M-9469.72 -1843.43c15.62,-67.86 31.95,-116.32 2.52,-193.62 -25.98,-68.18 -41.47,-65.62 -78.45,-94.28 -23.4,-18.12 -22.02,-17.35 -36.39,-31.65l24.44 -21.93c103.92,-90.36 127.23,-111.9 92.04,-287.76 214.77,39 209.49,-14.01 318.46,-133.89 57.8,138.68 131.85,166.82 306.44,130.76 -39.7,204.18 1.43,215.75 120.13,312.82 -14.31,13.94 -0.11,3.83 -32.9,29.48 -101.81,79.59 -118.61,126.55 -87.39,284.77 -183.62,-39.66 -231.37,-1.86 -307.44,124.35 -42.58,-36.62 -90.81,-205.04 -321.45,-119.04z"/>
       <path class="fil8" d="M-10741.13 -1288.91c216.01,-51.72 236.58,-203.98 284.61,-274.47 26.27,87.82 43.38,114.35 97.5,170.44 92.25,95.62 115.78,66.29 172.52,111.93 -153.7,46.79 -219.31,121.8 -272.63,273.53 -47.05,-86.12 -31.1,-103.25 -100.74,-172.79 -73.89,-73.81 -88.45,-61.79 -181.26,-108.64z"/>
       <path class="fil6" d="M-13005.11 -1391.69c52.15,-37.36 50.68,-74.09 141.83,-83.14 158.77,-15.76 325.85,118.24 402.24,255.2 61.22,109.75 68.14,259.15 -34.35,321.47 -118.43,72.01 -252.3,-22.63 -329.22,-60.83 -174.89,211.62 -450.11,-16.62 -536.11,-171.79 -162.12,-292.53 92.89,-446.13 355.61,-260.91z"/>
       <path class="fil9" d="M-14438.67 -914.83c-180.2,-6.43 -311.25,-232.02 -178.15,-393.5 71.14,-86.33 114.25,-89.78 246.84,-100.53 93.19,-7.56 233.78,-27.6 322.13,-24.26 188.79,7.13 308.99,226.65 182.84,392.1 -60.85,79.82 -121.11,91.59 -247.96,101.79 -95.3,7.65 -234.95,27.65 -325.7,24.41z"/>
       <path class="fil7" d="M-11902.51 -851.94c15.62,-67.86 31.95,-116.32 2.52,-193.62 -25.98,-68.18 -41.47,-65.62 -78.45,-94.28 -23.4,-18.12 -22.02,-17.35 -36.39,-31.65l24.44 -21.93c103.92,-90.36 127.23,-111.9 92.03,-287.76 214.77,39 209.49,-14.01 318.46,-133.89 57.8,138.68 131.85,166.82 306.44,130.76 -39.7,204.18 1.43,215.75 120.13,312.82 -14.31,13.94 -0.11,3.83 -32.9,29.48 -101.81,79.59 -118.61,126.55 -87.39,284.77 -183.62,-39.66 -231.37,-1.86 -307.44,124.35 -42.58,-36.62 -90.81,-205.04 -321.45,-119.04z"/>
       <path class="fil8" d="M-15627.41 -1177.46c216.01,-51.72 236.58,-203.98 284.61,-274.47 26.27,87.82 43.38,114.35 97.49,170.45 92.25,95.62 115.78,66.29 172.52,111.92 -153.7,46.79 -219.31,121.8 -272.63,273.53 -47.05,-86.12 -31.1,-103.25 -100.74,-172.79 -73.89,-73.81 -88.45,-61.79 -181.26,-108.64z"/>
       <path class="fil4" d="M-7921.43 -1056.53c-45.99,-43.19 -74.48,-2.45 -146.82,-25.93 -40.55,-38.98 -27.58,-59.79 -56.48,-100.89 -27.07,-38.5 -42.83,-33.76 -62.13,-90.71 -0.89,-52.95 33.49,-58.73 59.35,-93.65 27.05,-36.55 30.15,-76.09 59.62,-109.18 44.91,-6.67 89.79,3.86 124.22,-6.54 36.76,-11.09 53.86,-43.17 95.27,-45.65 44.69,-2.67 66.38,31.41 96.26,43.05 44.38,17.28 78.76,-0.26 131.81,11.67 37.43,42.26 26.95,55.14 55.23,100.4 23.34,37.33 61.83,56.47 62.61,94.7 0.87,42.99 -42.16,64.35 -62.51,96.28 -28,43.93 -22.08,60.94 -54.08,102.73 -80.8,14.31 -95.44,-15.04 -162.42,28.2 -80.04,51.66 -79.13,15.05 -139.92,-4.48z"/>
       <path class="fil10" d="M-11890.43 30.52c-180.2,-6.43 -311.25,-232.02 -178.15,-393.5 71.14,-86.33 114.25,-89.78 246.84,-100.53 93.19,-7.56 233.78,-27.6 322.13,-24.26 188.79,7.13 308.99,226.65 182.84,392.1 -60.85,79.82 -121.11,91.59 -247.96,101.79 -95.3,7.65 -234.95,27.65 -325.7,24.41z"/>
      </g>
     </g>
    </g>
    <path class="fil13" d="M183.41 132.32l-1.27 -17.91 2.52 -0.19c5.43,-0.4 10.24,1.19 14.36,4.74 4.12,3.56 6.39,8.09 6.78,13.51l5.14 71.6c0.41,5.68 -1.38,10.72 -5.27,14.88 -3.89,4.16 -8.8,6.28 -14.5,6.25l-50.36 -0.23c-10.34,-0.05 -18.85,-8 -19.59,-18.31l-1 -13.97c-0.57,-7.93 3.34,-15.03 10.34,-18.79l42.5 -22.82c7,-3.76 10.91,-10.85 10.34,-18.78z"/>
   </g>
   <g>
    <path class="fil12" d="M92.9 187.72l17.91 -1.27 0.19 2.52c0.4,5.43 -1.19,10.24 -4.74,14.36 -3.56,4.12 -8.09,6.39 -13.51,6.78l-71.6 5.14c-5.68,0.41 -10.72,-1.38 -14.88,-5.27 -4.16,-3.89 -6.28,-8.8 -6.25,-14.5l0.23 -50.36c0.05,-10.34 8,-18.85 18.31,-19.59l13.97 -1c7.93,-0.57 15.03,3.34 18.79,10.34l22.82 42.5c3.76,7 10.85,10.91 18.78,10.34z"/>
    <g style="clip-path:url(#id3)">
     <g>
      <g>
       <path id="_1_22" class="fil1" d="M-15707.71 67.87l-14.06 -6.17c-2.06,-0.82 -11.74,-4.53 -14.53,-5.67 -13.28,-5.47 -13,-2.21 -27.62,-12.58 -19.73,-14 -28.41,-34.23 -24.16,-63.28 5.35,-36.6 56.84,-77.74 80.66,-101.42 -20.13,-12.32 -66.95,-18.97 -79.52,-46.97 -7.36,-82.92 56.35,-117.26 99.05,-161.47 44.2,-45.76 91.1,-116.8 168.6,-37.37 67.79,-37.86 68.54,-64.35 139.35,0.72l12.37 -9.58c1.88,-1.42 17.05,-13.24 18.21,-13.93 52.87,-31.4 69.68,-5.21 108.78,23.15 44.51,-24.7 27.11,-45.37 99.53,-30.74 83.21,64.97 1.87,126.57 -42.48,166.72 17.82,16.87 65.58,27.72 75.97,59.72 4.01,67.89 -46.2,107.37 -82.31,130.79 1.98,1.58 5.61,5.64 6.68,3.62 1.06,-2.03 5.26,2.79 6.74,3.46l13.71 6.04c115.35,50.35 33.83,119.63 -15.34,167.37 -52.52,51.01 -89.31,114.34 -148.29,102.69l-48.58 -30.28c-1.06,-1 -3.25,-3.48 -4.98,-5.11 -24.55,21.37 -53.11,56.83 -105.87,26.11 -25.16,-14.66 -3.35,-8.96 -33.48,-25.03 -85.24,72.7 -80.95,24.05 -142.62,-1.68 -66.18,76.32 -115.63,20.69 -123.45,-3.9 -19.36,-60.8 48.8,-109.04 77.65,-135.19z"/>
       <path class="fil2" d="M-9595.91 968.07c-43.83,-30.5 -48.2,-60.98 -94.18,-79.65 -82.41,-30.4 -74.97,-17.09 -96.38,-108.66 -28.25,-120.89 -108.55,-74.77 7.84,-326.33 39,-84.29 85.49,-48.05 112.33,-102.91 49.8,-23.41 39.99,-61.67 119.49,-42.42 105.98,25.68 155.52,-47.23 257.19,42.39 28.74,25.35 50.9,69.87 73.79,104.25 26.09,181.08 13.63,64.98 47.91,153.64 25.82,66.76 -31.31,89.03 -43.32,143.86 -18.36,83.78 15.02,103.34 -59.83,138.75 -69.51,32.89 -64.32,54.98 -112.5,92.31 -56.48,7.16 -47.1,-9.79 -97.21,-16.53 -44.59,-5.98 -66.6,8.23 -115.14,1.29z"/>
       <path class="fil3" d="M-7791.33 -117.78c-31.13,51.27 -26.26,123.84 -66.29,168.74 -129.06,1.03 -5.87,-136.03 15.1,-197.74 -80.24,76.83 -78.52,140.82 -159.69,128.91 -43.28,-85.01 35.03,-74.61 119.23,-168.4 -39.37,12.84 -66.94,32.49 -104.23,53.09 -99.87,55.17 -138.57,-38.04 -29.45,-69.8l99.36 -35.47c-62.71,0.38 -128.54,22.38 -178.99,-1.31 -32.18,-107.68 133.85,-59.03 202.78,-52.41 -52.54,-26.63 -221.79,-38.36 -177.6,-112.94 14.11,-15.32 8.78,-21.48 44.1,-14.18 25.64,5.29 105.38,59.4 145.75,72.11 -88.04,-90.99 -152.54,-83.95 -122.84,-169.85 56.56,-7.1 61.53,10.3 88.94,45.2 25.16,32.02 45.06,59.32 72.96,84.45 -24.31,-71.77 -99.39,-132.68 -59.42,-195.38 48.95,-6.9 60.94,9.6 73.15,53.84l33.79 100.29c1.01,1.86 2.83,5.06 4.51,7.41 -1.19,-59.01 -39.55,-185.29 28.32,-186.71 70.57,-1.47 29.11,135.98 28.05,186.37l24.07 -52.35c10.32,-34.25 26.04,-150.22 86.74,-102.54 30.86,24.25 14.68,50.58 -8.7,91.69 -18.48,32.49 -36.99,63.25 -50.39,97.62 22.67,-21.82 44.03,-46.97 69.33,-78.59 33.69,-42.11 22.43,-59.5 93.31,-52.4 24.56,57.91 7.71,62.71 -32.62,93.09 -28.19,21.23 -70.69,56.78 -90.26,77.87 104.42,-40.38 151.5,-108.16 189.65,-57.92 28.18,43.64 -8.16,58.52 -48.07,70.86 -33.41,10.31 -78.3,19.22 -107.32,38.57 60.52,-0.45 134.43,-22.82 182,1.33 25.88,107.29 -101.36,57.25 -180.54,55.6 8.85,5.91 1.74,3.17 21.93,12.13 11.57,5.14 9.76,4.31 23.07,8.79 28.16,9.48 150.62,28.44 115.66,88.36 -57.99,45.4 -125.58,-34.69 -195.11,-57.14 57.18,62.5 175.72,110.9 120.2,161.1 -50.29,29.93 -70.97,-15.05 -96.74,-47.17 -10,-12.46 -65.64,-76.11 -70.66,-88.31 20.91,66.32 152.98,209.7 22.28,212.58 -35.9,-44.03 -41.19,-120.68 -66.65,-169.93 -1.94,61.33 38.97,190.69 -29.58,191.45 -71.87,0.8 -27.43,-142.98 -29.11,-190.92z"/>
       <path class="fil4" d="M-14249.56 58.29c-45.99,-43.19 -74.48,-2.45 -146.82,-25.93 -40.55,-38.98 -27.58,-59.79 -56.48,-100.89 -27.07,-38.5 -42.83,-33.76 -62.13,-90.71 -0.89,-52.95 33.49,-58.73 59.35,-93.65 27.05,-36.55 30.15,-76.09 59.62,-109.18 44.91,-6.67 89.79,3.86 124.22,-6.54 36.76,-11.09 53.86,-43.17 95.27,-45.65 44.69,-2.67 66.38,31.41 96.26,43.05 44.38,17.28 78.76,-0.26 131.81,11.67 37.43,42.26 26.95,55.14 55.23,100.4 23.34,37.33 61.83,56.47 62.61,94.7 0.87,42.99 -42.16,64.35 -62.51,96.28 -28,43.93 -22.08,60.94 -54.08,102.73 -80.8,14.31 -95.44,-15.04 -162.42,28.2 -80.04,51.66 -79.13,15.05 -139.92,-4.48z"/>
       <path class="fil5" d="M-10489.23 974.83l-23.75 -6.12c-79,-4.06 -141.93,-22.22 -145.74,-157.28 -68.82,18.36 -135.42,-48.8 -142.6,-106.85 -3.9,-31.61 3.27,-39.1 -2.19,-66.07 -6.2,-30.58 -66.4,-100.48 12.56,-136.87 63.58,-3.13 10.76,2.88 29.83,-14.39 -12.77,-28.4 -28.09,-58.48 -12.06,-82.94l33.14 -4.47 -5.93 46.71 57.26 6.63c26.73,54.01 42.62,76.84 100.72,94.31 93.67,28.17 76.63,19.81 117.07,94.36l74.19 8.62c4.23,58.43 -14.05,-9.13 4.82,72.74 8.82,38.23 2.75,13.95 -9.09,42.76l22.3 -1.42c0.92,0.13 4.2,0.47 6.03,1.42 -13.14,47.2 -15.91,20.44 1.28,36.9 -21.2,19.87 -21.68,0.88 -31.97,22.82 10.2,3.49 -0.79,5.23 27.57,4.91 30.61,-0.35 18.79,9.84 10.43,-4.87l23.21 25.19c0.96,1.32 2.54,4.44 3.66,6.76l-51.72 11.59 14.72 17.15c7.32,48.05 29.1,66.48 -10.15,98.64 -42.42,30.43 -63.43,3.53 -103.6,-10.23z"/>
       <path class="fil6" d="M-10599.26 -391.39c52.15,-37.36 50.68,-74.09 141.83,-83.14 158.77,-15.76 325.85,118.24 402.24,255.2 61.22,109.75 68.14,259.15 -34.35,321.47 -118.43,72.01 -252.3,-22.63 -329.22,-60.83 -174.89,211.62 -450.11,-16.62 -536.11,-171.79 -162.12,-292.53 92.89,-446.13 355.61,-260.91z"/>
       <path class="fil7" d="M-9496.65 148.36c15.62,-67.86 31.95,-116.32 2.52,-193.62 -25.98,-68.18 -41.47,-65.62 -78.45,-94.28 -23.4,-18.12 -22.02,-17.35 -36.39,-31.65l24.44 -21.93c103.92,-90.36 127.23,-111.9 92.03,-287.76 214.77,39 209.49,-14.01 318.46,-133.89 57.8,138.68 131.85,166.82 306.44,130.76 -39.7,204.18 1.43,215.75 120.13,312.82 -14.31,13.94 -0.11,3.83 -32.9,29.48 -101.81,79.59 -118.61,126.55 -87.39,284.77 -183.62,-39.66 -231.37,-1.86 -307.44,124.35 -42.58,-36.62 -90.81,-205.04 -321.45,-119.04z"/>
       <path class="fil8" d="M-13221.56 -177.16c216.01,-51.72 236.58,-203.98 284.61,-274.47 26.27,87.82 43.38,114.35 97.49,170.44 92.25,95.62 115.78,66.29 172.52,111.93 -153.7,46.79 -219.31,121.8 -272.63,273.53 -47.05,-86.12 -31.1,-103.25 -100.74,-172.79 -73.89,-73.81 -88.45,-61.79 -181.26,-108.64z"/>
       <path class="fil6" d="M-13260.77 526.94c52.15,-37.36 50.68,-74.09 141.83,-83.14 158.77,-15.76 325.85,118.24 402.24,255.2 61.22,109.75 68.14,259.15 -34.35,321.47 -118.43,72.01 -252.3,-22.63 -329.22,-60.83 -174.89,211.62 -450.11,-16.62 -536.11,-171.79 -162.12,-292.53 92.89,-446.13 355.61,-260.91z"/>
       <path class="fil9" d="M-14694.33 1003.81c-180.2,-6.43 -311.25,-232.02 -178.15,-393.5 71.14,-86.33 114.25,-89.78 246.84,-100.53 93.19,-7.56 233.78,-27.6 322.13,-24.26 188.79,7.13 308.99,226.65 182.84,392.1 -60.85,79.82 -121.11,91.59 -247.96,101.79 -95.3,7.65 -234.95,27.65 -325.7,24.41z"/>
       <path class="fil7" d="M-12158.17 1066.7c15.62,-67.86 31.95,-116.32 2.52,-193.62 -25.98,-68.18 -41.47,-65.62 -78.45,-94.28 -23.4,-18.12 -22.02,-17.35 -36.39,-31.65l24.44 -21.93c103.92,-90.36 127.23,-111.9 92.04,-287.76 214.77,39 209.49,-14.01 318.46,-133.89 57.8,138.68 131.85,166.82 306.44,130.76 -39.7,204.18 1.43,215.75 120.13,312.82 -14.31,13.94 -0.11,3.83 -32.9,29.48 -101.81,79.59 -118.61,126.55 -87.39,284.77 -183.62,-39.66 -231.37,-1.86 -307.44,124.35 -42.58,-36.62 -90.81,-205.04 -321.45,-119.04z"/>
       <path class="fil8" d="M-15883.07 741.17c216.01,-51.72 236.58,-203.98 284.61,-274.47 26.27,87.82 43.38,114.35 97.5,170.45 92.25,95.62 115.78,66.29 172.52,111.92 -153.7,46.79 -219.31,121.8 -272.63,273.53 -47.05,-86.12 -31.1,-103.25 -100.74,-172.79 -73.89,-73.81 -88.45,-61.79 -181.26,-108.64z"/>
       <path class="fil4" d="M-8177.09 862.11c-45.99,-43.19 -74.48,-2.45 -146.82,-25.93 -40.55,-38.98 -27.58,-59.79 -56.48,-100.89 -27.07,-38.5 -42.83,-33.76 -62.13,-90.71 -0.89,-52.95 33.49,-58.73 59.35,-93.65 27.05,-36.55 30.16,-76.09 59.62,-109.18 44.91,-6.67 89.79,3.86 124.22,-6.54 36.76,-11.09 53.86,-43.17 95.27,-45.65 44.69,-2.67 66.38,31.41 96.26,43.05 44.38,17.28 78.76,-0.26 131.81,11.67 37.43,42.26 26.95,55.14 55.23,100.4 23.34,37.33 61.83,56.47 62.61,94.7 0.87,42.99 -42.16,64.35 -62.51,96.28 -28,43.93 -22.08,60.94 -54.08,102.73 -80.8,14.31 -95.44,-15.04 -162.42,28.2 -80.04,51.66 -79.13,15.05 -139.92,-4.48z"/>
       <path class="fil1" d="M-15680.77 -2018.1l-14.06 -6.17c-2.06,-0.82 -11.74,-4.53 -14.53,-5.67 -13.28,-5.47 -13,-2.21 -27.62,-12.58 -19.73,-14 -28.41,-34.23 -24.16,-63.28 5.35,-36.6 56.84,-77.74 80.66,-101.42 -20.13,-12.32 -66.95,-18.97 -79.52,-46.97 -7.36,-82.92 56.35,-117.26 99.05,-161.47 44.2,-45.76 91.1,-116.8 168.6,-37.37 67.79,-37.86 68.54,-64.35 139.35,0.72l12.37 -9.58c1.88,-1.42 17.05,-13.24 18.21,-13.93 52.87,-31.4 69.68,-5.21 108.78,23.15 44.51,-24.7 27.11,-45.37 99.53,-30.74 83.21,64.97 1.87,126.57 -42.48,166.72 17.82,16.87 65.58,27.72 75.97,59.72 4.01,67.89 -46.2,107.37 -82.31,130.79 1.98,1.58 5.61,5.64 6.68,3.62 1.06,-2.03 5.26,2.79 6.74,3.46l13.71 6.04c115.35,50.35 33.83,119.63 -15.34,167.37 -52.52,51.01 -89.31,114.34 -148.29,102.69l-48.58 -30.28c-1.06,-1 -3.24,-3.48 -4.98,-5.11 -24.55,21.37 -53.12,56.83 -105.87,26.11 -25.16,-14.66 -3.35,-8.96 -33.48,-25.03 -85.24,72.7 -80.95,24.05 -142.62,-1.68 -66.18,76.32 -115.63,20.69 -123.45,-3.9 -19.36,-60.8 48.8,-109.04 77.65,-135.19z"/>
       <path class="fil2" d="M-9340.25 -950.57c-43.83,-30.5 -48.2,-60.98 -94.18,-79.65 -82.41,-30.4 -74.97,-17.09 -96.38,-108.66 -28.25,-120.89 -108.55,-74.77 7.84,-326.33 39,-84.29 85.49,-48.05 112.33,-102.91 49.8,-23.41 40,-61.67 119.49,-42.42 105.98,25.68 155.52,-47.23 257.19,42.39 28.74,25.35 50.9,69.87 73.79,104.25 26.09,181.08 13.63,64.98 47.91,153.64 25.82,66.76 -31.31,89.03 -43.32,143.86 -18.36,83.78 15.02,103.34 -59.83,138.75 -69.51,32.89 -64.32,54.98 -112.5,92.31 -56.48,7.16 -47.1,-9.79 -97.21,-16.53 -44.59,-5.98 -66.6,8.23 -115.14,1.29z"/>
       <path class="fil3" d="M-8090.48 -2015.86c-31.13,51.27 -26.26,123.84 -66.29,168.74 -129.06,1.03 -5.87,-136.03 15.1,-197.74 -80.24,76.83 -78.52,140.82 -159.69,128.91 -43.27,-85.01 35.03,-74.61 119.23,-168.4 -39.37,12.84 -66.94,32.49 -104.23,53.09 -99.87,55.17 -138.57,-38.04 -29.45,-69.8l99.36 -35.47c-62.71,0.38 -128.54,22.38 -178.99,-1.31 -32.18,-107.68 133.85,-59.03 202.78,-52.41 -52.54,-26.63 -221.79,-38.36 -177.6,-112.94 14.11,-15.32 8.78,-21.48 44.1,-14.18 25.64,5.29 105.38,59.4 145.75,72.11 -88.04,-90.99 -152.54,-83.95 -122.84,-169.85 56.56,-7.1 61.53,10.3 88.94,45.2 25.16,32.02 45.06,59.32 72.96,84.45 -24.31,-71.77 -99.39,-132.68 -59.42,-195.38 48.95,-6.9 60.94,9.6 73.15,53.84l33.79 100.29c1.01,1.86 2.83,5.06 4.51,7.41 -1.19,-59 -39.55,-185.29 28.32,-186.71 70.57,-1.47 29.11,135.99 28.05,186.37l24.07 -52.35c10.32,-34.25 26.04,-150.22 86.74,-102.54 30.86,24.25 14.68,50.58 -8.7,91.69 -18.48,32.49 -36.99,63.25 -50.39,97.62 22.67,-21.82 44.03,-46.97 69.33,-78.59 33.69,-42.11 22.43,-59.5 93.31,-52.4 24.56,57.91 7.71,62.71 -32.62,93.09 -28.19,21.23 -70.69,56.78 -90.26,77.87 104.42,-40.38 151.5,-108.16 189.65,-57.92 28.18,43.64 -8.16,58.52 -48.07,70.86 -33.41,10.31 -78.3,19.22 -107.32,38.57 60.52,-0.45 134.43,-22.82 182,1.33 25.88,107.29 -101.36,57.25 -180.54,55.6 8.85,5.91 1.74,3.17 21.93,12.13 11.57,5.14 9.76,4.31 23.07,8.79 28.16,9.48 150.62,28.44 115.66,88.36 -57.99,45.4 -125.58,-34.69 -195.11,-57.14 57.18,62.5 175.72,110.9 120.2,161.1 -50.29,29.93 -70.97,-15.05 -96.74,-47.17 -10,-12.46 -65.64,-76.11 -70.66,-88.31 20.91,66.32 152.98,209.7 22.28,212.58 -35.9,-44.03 -41.19,-120.68 -66.65,-169.92 -1.94,61.33 38.97,190.69 -29.58,191.45 -71.87,0.8 -27.43,-142.98 -29.11,-190.92z"/>
       <path class="fil4" d="M-14222.63 -1944.58c-45.99,-43.19 -74.48,-2.45 -146.82,-25.93 -40.55,-38.98 -27.58,-59.79 -56.48,-100.89 -27.07,-38.5 -42.83,-33.76 -62.13,-90.71 -0.89,-52.95 33.49,-58.73 59.35,-93.65 27.05,-36.55 30.16,-76.09 59.62,-109.18 44.91,-6.67 89.79,3.86 124.22,-6.54 36.76,-11.09 53.86,-43.17 95.27,-45.65 44.69,-2.67 66.38,31.41 96.26,43.05 44.38,17.28 78.76,-0.26 131.81,11.67 37.43,42.26 26.95,55.14 55.23,100.4 23.34,37.33 61.83,56.47 62.61,94.7 0.87,42.99 -42.16,64.35 -62.51,96.28 -28,43.93 -22.08,60.94 -54.08,102.73 -80.8,14.31 -95.44,-15.04 -162.42,28.2 -80.04,51.66 -79.13,15.05 -139.92,-4.48z"/>
       <path class="fil5" d="M-12847.87 -1831.31l-23.75 -6.12c-79,-4.06 -141.93,-22.22 -145.74,-157.28 -68.82,18.36 -135.42,-48.8 -142.6,-106.85 -3.9,-31.61 3.27,-39.1 -2.19,-66.07 -6.2,-30.58 -66.4,-100.48 12.56,-136.87 63.58,-3.13 10.76,2.88 29.83,-14.39 -12.77,-28.4 -28.09,-58.48 -12.06,-82.94l33.14 -4.47 -5.93 46.71 57.26 6.63c26.73,54.01 42.62,76.84 100.72,94.31 93.67,28.17 76.63,19.81 117.07,94.36l74.19 8.62c4.23,58.43 -14.05,-9.13 4.82,72.74 8.82,38.23 2.75,13.95 -9.09,42.76l22.3 -1.42c0.92,0.13 4.2,0.47 6.03,1.42 -13.14,47.2 -15.91,20.44 1.28,36.9 -21.2,19.87 -21.68,0.88 -31.97,22.82 10.2,3.49 -0.79,5.23 27.57,4.91 30.61,-0.35 18.79,9.84 10.43,-4.87l23.21 25.19c0.96,1.32 2.54,4.44 3.66,6.76l-51.72 11.59 14.72 17.15c7.32,48.05 29.1,66.48 -10.15,98.63 -42.42,30.43 -63.43,3.53 -103.6,-10.23z"/>
       <path class="fil6" d="M-10572.32 -2383.19c52.15,-37.36 50.68,-74.09 141.83,-83.14 158.77,-15.76 325.85,118.24 402.24,255.2 61.22,109.75 68.14,259.15 -34.35,321.47 -118.43,72.01 -252.3,-22.63 -329.22,-60.83 -174.89,211.62 -450.11,-16.62 -536.11,-171.79 -162.12,-292.53 92.89,-446.13 355.61,-260.91z"/>
       <path class="fil10" d="M-12005.88 -1906.32c-180.2,-6.43 -311.25,-232.02 -178.15,-393.5 71.14,-86.33 114.25,-89.78 246.84,-100.54 93.19,-7.56 233.78,-27.6 322.13,-24.26 188.79,7.13 308.99,226.65 182.84,392.1 -60.85,79.82 -121.11,91.59 -247.96,101.79 -95.3,7.65 -234.95,27.65 -325.7,24.41z"/>
       <path class="fil7" d="M-9469.72 -1843.43c15.62,-67.86 31.95,-116.32 2.52,-193.62 -25.98,-68.18 -41.47,-65.62 -78.45,-94.28 -23.4,-18.12 -22.02,-17.35 -36.39,-31.65l24.44 -21.93c103.92,-90.36 127.23,-111.9 92.04,-287.76 214.77,39 209.49,-14.01 318.46,-133.89 57.8,138.68 131.85,166.82 306.44,130.76 -39.7,204.18 1.43,215.75 120.13,312.82 -14.31,13.94 -0.11,3.83 -32.9,29.48 -101.81,79.59 -118.61,126.55 -87.39,284.77 -183.62,-39.66 -231.37,-1.86 -307.44,124.35 -42.58,-36.62 -90.81,-205.04 -321.45,-119.04z"/>
       <path class="fil8" d="M-10741.13 -1288.91c216.01,-51.72 236.58,-203.98 284.61,-274.47 26.27,87.82 43.38,114.35 97.5,170.44 92.25,95.62 115.78,66.29 172.52,111.93 -153.7,46.79 -219.31,121.8 -272.63,273.53 -47.05,-86.12 -31.1,-103.25 -100.74,-172.79 -73.89,-73.81 -88.45,-61.79 -181.26,-108.64z"/>
       <path class="fil6" d="M-13005.11 -1391.69c52.15,-37.36 50.68,-74.09 141.83,-83.14 158.77,-15.76 325.85,118.24 402.24,255.2 61.22,109.75 68.14,259.15 -34.35,321.47 -118.43,72.01 -252.3,-22.63 -329.22,-60.83 -174.89,211.62 -450.11,-16.62 -536.11,-171.79 -162.12,-292.53 92.89,-446.13 355.61,-260.91z"/>
       <path class="fil9" d="M-14438.67 -914.83c-180.2,-6.43 -311.25,-232.02 -178.15,-393.5 71.14,-86.33 114.25,-89.78 246.84,-100.53 93.19,-7.56 233.78,-27.6 322.13,-24.26 188.79,7.13 308.99,226.65 182.84,392.1 -60.85,79.82 -121.11,91.59 -247.96,101.79 -95.3,7.65 -234.95,27.65 -325.7,24.41z"/>
       <path class="fil7" d="M-11902.51 -851.94c15.62,-67.86 31.95,-116.32 2.52,-193.62 -25.98,-68.18 -41.47,-65.62 -78.45,-94.28 -23.4,-18.12 -22.02,-17.35 -36.39,-31.65l24.44 -21.93c103.92,-90.36 127.23,-111.9 92.03,-287.76 214.77,39 209.49,-14.01 318.46,-133.89 57.8,138.68 131.85,166.82 306.44,130.76 -39.7,204.18 1.43,215.75 120.13,312.82 -14.31,13.94 -0.11,3.83 -32.9,29.48 -101.81,79.59 -118.61,126.55 -87.39,284.77 -183.62,-39.66 -231.37,-1.86 -307.44,124.35 -42.58,-36.62 -90.81,-205.04 -321.45,-119.04z"/>
       <path class="fil8" d="M-15627.41 -1177.46c216.01,-51.72 236.58,-203.98 284.61,-274.47 26.27,87.82 43.38,114.35 97.49,170.45 92.25,95.62 115.78,66.29 172.52,111.92 -153.7,46.79 -219.31,121.8 -272.63,273.53 -47.05,-86.12 -31.1,-103.25 -100.74,-172.79 -73.89,-73.81 -88.45,-61.79 -181.26,-108.64z"/>
       <path class="fil4" d="M-7921.43 -1056.53c-45.99,-43.19 -74.48,-2.45 -146.82,-25.93 -40.55,-38.98 -27.58,-59.79 -56.48,-100.89 -27.07,-38.5 -42.83,-33.76 -62.13,-90.71 -0.89,-52.95 33.49,-58.73 59.35,-93.65 27.05,-36.55 30.15,-76.09 59.62,-109.18 44.91,-6.67 89.79,3.86 124.22,-6.54 36.76,-11.09 53.86,-43.17 95.27,-45.65 44.69,-2.67 66.38,31.41 96.26,43.05 44.38,17.28 78.76,-0.26 131.81,11.67 37.43,42.26 26.95,55.14 55.23,100.4 23.34,37.33 61.83,56.47 62.61,94.7 0.87,42.99 -42.16,64.35 -62.51,96.28 -28,43.93 -22.08,60.94 -54.08,102.73 -80.8,14.31 -95.44,-15.04 -162.42,28.2 -80.04,51.66 -79.13,15.05 -139.92,-4.48z"/>
       <path class="fil10" d="M-11890.43 30.52c-180.2,-6.43 -311.25,-232.02 -178.15,-393.5 71.14,-86.33 114.25,-89.78 246.84,-100.53 93.19,-7.56 233.78,-27.6 322.13,-24.26 188.79,7.13 308.99,226.65 182.84,392.1 -60.85,79.82 -121.11,91.59 -247.96,101.79 -95.3,7.65 -234.95,27.65 -325.7,24.41z"/>
      </g>
     </g>
    </g>
    <path class="fil13" d="M92.9 187.72l17.91 -1.27 0.19 2.52c0.4,5.43 -1.19,10.24 -4.74,14.36 -3.56,4.12 -8.09,6.39 -13.51,6.78l-71.6 5.14c-5.68,0.41 -10.72,-1.38 -14.88,-5.27 -4.16,-3.89 -6.28,-8.8 -6.25,-14.5l0.23 -50.36c0.05,-10.34 8,-18.85 18.31,-19.59l13.97 -1c7.93,-0.57 15.03,3.34 18.79,10.34l22.82 42.5c3.76,7 10.85,10.91 18.78,10.34z"/>
    <path class="fil12" d="M125.65 37.5l-17.91 1.27 -0.19 -2.52c-0.4,-5.43 1.19,-10.24 4.74,-14.36 3.56,-4.12 8.09,-6.39 13.51,-6.78l71.6 -5.14c5.68,-0.41 10.72,1.38 14.88,5.27 4.16,3.89 6.28,8.8 6.25,14.5l-0.23 50.36c-0.05,10.34 -8,18.85 -18.31,19.59l-13.97 1c-7.93,0.57 -15.03,-3.34 -18.79,-10.34l-22.82 -42.5c-3.76,-7 -10.85,-10.91 -18.78,-10.34z"/>
    <g style="clip-path:url(#id4)">
     <g>
      <g>
       <path id="_1_23" class="fil1" d="M-15707.71 67.87l-14.06 -6.17c-2.06,-0.82 -11.74,-4.53 -14.53,-5.67 -13.28,-5.47 -13,-2.21 -27.62,-12.58 -19.73,-14 -28.41,-34.23 -24.16,-63.28 5.35,-36.6 56.84,-77.74 80.66,-101.42 -20.13,-12.32 -66.95,-18.97 -79.52,-46.97 -7.36,-82.92 56.35,-117.26 99.05,-161.47 44.2,-45.76 91.1,-116.8 168.6,-37.37 67.79,-37.86 68.54,-64.35 139.35,0.72l12.37 -9.58c1.88,-1.42 17.05,-13.24 18.21,-13.93 52.87,-31.4 69.68,-5.21 108.78,23.15 44.51,-24.7 27.11,-45.37 99.53,-30.74 83.21,64.97 1.87,126.57 -42.48,166.72 17.82,16.87 65.58,27.72 75.97,59.72 4.01,67.89 -46.2,107.37 -82.31,130.79 1.98,1.58 5.61,5.64 6.68,3.62 1.06,-2.03 5.26,2.79 6.74,3.46l13.71 6.04c115.35,50.35 33.83,119.63 -15.34,167.37 -52.52,51.01 -89.31,114.34 -148.29,102.69l-48.58 -30.28c-1.06,-1 -3.25,-3.48 -4.98,-5.11 -24.55,21.37 -53.11,56.83 -105.87,26.11 -25.16,-14.66 -3.35,-8.96 -33.48,-25.03 -85.24,72.7 -80.95,24.05 -142.62,-1.68 -66.18,76.32 -115.63,20.69 -123.45,-3.9 -19.36,-60.8 48.8,-109.04 77.65,-135.19z"/>
       <path class="fil2" d="M-9595.91 968.07c-43.83,-30.5 -48.2,-60.98 -94.18,-79.65 -82.41,-30.4 -74.97,-17.09 -96.38,-108.66 -28.25,-120.89 -108.55,-74.77 7.84,-326.33 39,-84.29 85.49,-48.05 112.33,-102.91 49.8,-23.41 39.99,-61.67 119.49,-42.42 105.98,25.68 155.52,-47.23 257.19,42.39 28.74,25.35 50.9,69.87 73.79,104.25 26.09,181.08 13.63,64.98 47.91,153.64 25.82,66.76 -31.31,89.03 -43.32,143.86 -18.36,83.78 15.02,103.34 -59.83,138.75 -69.51,32.89 -64.32,54.98 -112.5,92.31 -56.48,7.16 -47.1,-9.79 -97.21,-16.53 -44.59,-5.98 -66.6,8.23 -115.14,1.29z"/>
       <path class="fil3" d="M-7791.33 -117.78c-31.13,51.27 -26.26,123.84 -66.29,168.74 -129.06,1.03 -5.87,-136.03 15.1,-197.74 -80.24,76.83 -78.52,140.82 -159.69,128.91 -43.28,-85.01 35.03,-74.61 119.23,-168.4 -39.37,12.84 -66.94,32.49 -104.23,53.09 -99.87,55.17 -138.57,-38.04 -29.45,-69.8l99.36 -35.47c-62.71,0.38 -128.54,22.38 -178.99,-1.31 -32.18,-107.68 133.85,-59.03 202.78,-52.41 -52.54,-26.63 -221.79,-38.36 -177.6,-112.94 14.11,-15.32 8.78,-21.48 44.1,-14.18 25.64,5.29 105.38,59.4 145.75,72.11 -88.04,-90.99 -152.54,-83.95 -122.84,-169.85 56.56,-7.1 61.53,10.3 88.94,45.2 25.16,32.02 45.06,59.32 72.96,84.45 -24.31,-71.77 -99.39,-132.68 -59.42,-195.38 48.95,-6.9 60.94,9.6 73.15,53.84l33.79 100.29c1.01,1.86 2.83,5.06 4.51,7.41 -1.19,-59.01 -39.55,-185.29 28.32,-186.71 70.57,-1.47 29.11,135.98 28.05,186.37l24.07 -52.35c10.32,-34.25 26.04,-150.22 86.74,-102.54 30.86,24.25 14.68,50.58 -8.7,91.69 -18.48,32.49 -36.99,63.25 -50.39,97.62 22.67,-21.82 44.03,-46.97 69.33,-78.59 33.69,-42.11 22.43,-59.5 93.31,-52.4 24.56,57.91 7.71,62.71 -32.62,93.09 -28.19,21.23 -70.69,56.78 -90.26,77.87 104.42,-40.38 151.5,-108.16 189.65,-57.92 28.18,43.64 -8.16,58.52 -48.07,70.86 -33.41,10.31 -78.3,19.22 -107.32,38.57 60.52,-0.45 134.43,-22.82 182,1.33 25.88,107.29 -101.36,57.25 -180.54,55.6 8.85,5.91 1.74,3.17 21.93,12.13 11.57,5.14 9.76,4.31 23.07,8.79 28.16,9.48 150.62,28.44 115.66,88.36 -57.99,45.4 -125.58,-34.69 -195.11,-57.14 57.18,62.5 175.72,110.9 120.2,161.1 -50.29,29.93 -70.97,-15.05 -96.74,-47.17 -10,-12.46 -65.64,-76.11 -70.66,-88.31 20.91,66.32 152.98,209.7 22.28,212.58 -35.9,-44.03 -41.19,-120.68 -66.65,-169.93 -1.94,61.33 38.97,190.69 -29.58,191.45 -71.87,0.8 -27.43,-142.98 -29.11,-190.92z"/>
       <path class="fil4" d="M-14249.56 58.29c-45.99,-43.19 -74.48,-2.45 -146.82,-25.93 -40.55,-38.98 -27.58,-59.79 -56.48,-100.89 -27.07,-38.5 -42.83,-33.76 -62.13,-90.71 -0.89,-52.95 33.49,-58.73 59.35,-93.65 27.05,-36.55 30.15,-76.09 59.62,-109.18 44.91,-6.67 89.79,3.86 124.22,-6.54 36.76,-11.09 53.86,-43.17 95.27,-45.65 44.69,-2.67 66.38,31.41 96.26,43.05 44.38,17.28 78.76,-0.26 131.81,11.67 37.43,42.26 26.95,55.14 55.23,100.4 23.34,37.33 61.83,56.47 62.61,94.7 0.87,42.99 -42.16,64.35 -62.51,96.28 -28,43.93 -22.08,60.94 -54.08,102.73 -80.8,14.31 -95.44,-15.04 -162.42,28.2 -80.04,51.66 -79.13,15.05 -139.92,-4.48z"/>
       <path class="fil5" d="M-10489.23 974.83l-23.75 -6.12c-79,-4.06 -141.93,-22.22 -145.74,-157.28 -68.82,18.36 -135.42,-48.8 -142.6,-106.85 -3.9,-31.61 3.27,-39.1 -2.19,-66.07 -6.2,-30.58 -66.4,-100.48 12.56,-136.87 63.58,-3.13 10.76,2.88 29.83,-14.39 -12.77,-28.4 -28.09,-58.48 -12.06,-82.94l33.14 -4.47 -5.93 46.71 57.26 6.63c26.73,54.01 42.62,76.84 100.72,94.31 93.67,28.17 76.63,19.81 117.07,94.36l74.19 8.62c4.23,58.43 -14.05,-9.13 4.82,72.74 8.82,38.23 2.75,13.95 -9.09,42.76l22.3 -1.42c0.92,0.13 4.2,0.47 6.03,1.42 -13.14,47.2 -15.91,20.44 1.28,36.9 -21.2,19.87 -21.68,0.88 -31.97,22.82 10.2,3.49 -0.79,5.23 27.57,4.91 30.61,-0.35 18.79,9.84 10.43,-4.87l23.21 25.19c0.96,1.32 2.54,4.44 3.66,6.76l-51.72 11.59 14.72 17.15c7.32,48.05 29.1,66.48 -10.15,98.64 -42.42,30.43 -63.43,3.53 -103.6,-10.23z"/>
       <path class="fil6" d="M-10599.26 -391.39c52.15,-37.36 50.68,-74.09 141.83,-83.14 158.77,-15.76 325.85,118.24 402.24,255.2 61.22,109.75 68.14,259.15 -34.35,321.47 -118.43,72.01 -252.3,-22.63 -329.22,-60.83 -174.89,211.62 -450.11,-16.62 -536.11,-171.79 -162.12,-292.53 92.89,-446.13 355.61,-260.91z"/>
       <path class="fil7" d="M-9496.65 148.36c15.62,-67.86 31.95,-116.32 2.52,-193.62 -25.98,-68.18 -41.47,-65.62 -78.45,-94.28 -23.4,-18.12 -22.02,-17.35 -36.39,-31.65l24.44 -21.93c103.92,-90.36 127.23,-111.9 92.03,-287.76 214.77,39 209.49,-14.01 318.46,-133.89 57.8,138.68 131.85,166.82 306.44,130.76 -39.7,204.18 1.43,215.75 120.13,312.82 -14.31,13.94 -0.11,3.83 -32.9,29.48 -101.81,79.59 -118.61,126.55 -87.39,284.77 -183.62,-39.66 -231.37,-1.86 -307.44,124.35 -42.58,-36.62 -90.81,-205.04 -321.45,-119.04z"/>
       <path class="fil8" d="M-13221.56 -177.16c216.01,-51.72 236.58,-203.98 284.61,-274.47 26.27,87.82 43.38,114.35 97.49,170.44 92.25,95.62 115.78,66.29 172.52,111.93 -153.7,46.79 -219.31,121.8 -272.63,273.53 -47.05,-86.12 -31.1,-103.25 -100.74,-172.79 -73.89,-73.81 -88.45,-61.79 -181.26,-108.64z"/>
       <path class="fil6" d="M-13260.77 526.94c52.15,-37.36 50.68,-74.09 141.83,-83.14 158.77,-15.76 325.85,118.24 402.24,255.2 61.22,109.75 68.14,259.15 -34.35,321.47 -118.43,72.01 -252.3,-22.63 -329.22,-60.83 -174.89,211.62 -450.11,-16.62 -536.11,-171.79 -162.12,-292.53 92.89,-446.13 355.61,-260.91z"/>
       <path class="fil9" d="M-14694.33 1003.81c-180.2,-6.43 -311.25,-232.02 -178.15,-393.5 71.14,-86.33 114.25,-89.78 246.84,-100.53 93.19,-7.56 233.78,-27.6 322.13,-24.26 188.79,7.13 308.99,226.65 182.84,392.1 -60.85,79.82 -121.11,91.59 -247.96,101.79 -95.3,7.65 -234.95,27.65 -325.7,24.41z"/>
       <path class="fil7" d="M-12158.17 1066.7c15.62,-67.86 31.95,-116.32 2.52,-193.62 -25.98,-68.18 -41.47,-65.62 -78.45,-94.28 -23.4,-18.12 -22.02,-17.35 -36.39,-31.65l24.44 -21.93c103.92,-90.36 127.23,-111.9 92.04,-287.76 214.77,39 209.49,-14.01 318.46,-133.89 57.8,138.68 131.85,166.82 306.44,130.76 -39.7,204.18 1.43,215.75 120.13,312.82 -14.31,13.94 -0.11,3.83 -32.9,29.48 -101.81,79.59 -118.61,126.55 -87.39,284.77 -183.62,-39.66 -231.37,-1.86 -307.44,124.35 -42.58,-36.62 -90.81,-205.04 -321.45,-119.04z"/>
       <path class="fil8" d="M-15883.07 741.17c216.01,-51.72 236.58,-203.98 284.61,-274.47 26.27,87.82 43.38,114.35 97.5,170.45 92.25,95.62 115.78,66.29 172.52,111.92 -153.7,46.79 -219.31,121.8 -272.63,273.53 -47.05,-86.12 -31.1,-103.25 -100.74,-172.79 -73.89,-73.81 -88.45,-61.79 -181.26,-108.64z"/>
       <path class="fil4" d="M-8177.09 862.11c-45.99,-43.19 -74.48,-2.45 -146.82,-25.93 -40.55,-38.98 -27.58,-59.79 -56.48,-100.89 -27.07,-38.5 -42.83,-33.76 -62.13,-90.71 -0.89,-52.95 33.49,-58.73 59.35,-93.65 27.05,-36.55 30.16,-76.09 59.62,-109.18 44.91,-6.67 89.79,3.86 124.22,-6.54 36.76,-11.09 53.86,-43.17 95.27,-45.65 44.69,-2.67 66.38,31.41 96.26,43.05 44.38,17.28 78.76,-0.26 131.81,11.67 37.43,42.26 26.95,55.14 55.23,100.4 23.34,37.33 61.83,56.47 62.61,94.7 0.87,42.99 -42.16,64.35 -62.51,96.28 -28,43.93 -22.08,60.94 -54.08,102.73 -80.8,14.31 -95.44,-15.04 -162.42,28.2 -80.04,51.66 -79.13,15.05 -139.92,-4.48z"/>
       <path class="fil1" d="M-15680.77 -2018.1l-14.06 -6.17c-2.06,-0.82 -11.74,-4.53 -14.53,-5.67 -13.28,-5.47 -13,-2.21 -27.62,-12.58 -19.73,-14 -28.41,-34.23 -24.16,-63.28 5.35,-36.6 56.84,-77.74 80.66,-101.42 -20.13,-12.32 -66.95,-18.97 -79.52,-46.97 -7.36,-82.92 56.35,-117.26 99.05,-161.47 44.2,-45.76 91.1,-116.8 168.6,-37.37 67.79,-37.86 68.54,-64.35 139.35,0.72l12.37 -9.58c1.88,-1.42 17.05,-13.24 18.21,-13.93 52.87,-31.4 69.68,-5.21 108.78,23.15 44.51,-24.7 27.11,-45.37 99.53,-30.74 83.21,64.97 1.87,126.57 -42.48,166.72 17.82,16.87 65.58,27.72 75.97,59.72 4.01,67.89 -46.2,107.37 -82.31,130.79 1.98,1.58 5.61,5.64 6.68,3.62 1.06,-2.03 5.26,2.79 6.74,3.46l13.71 6.04c115.35,50.35 33.83,119.63 -15.34,167.37 -52.52,51.01 -89.31,114.34 -148.29,102.69l-48.58 -30.28c-1.06,-1 -3.24,-3.48 -4.98,-5.11 -24.55,21.37 -53.12,56.83 -105.87,26.11 -25.16,-14.66 -3.35,-8.96 -33.48,-25.03 -85.24,72.7 -80.95,24.05 -142.62,-1.68 -66.18,76.32 -115.63,20.69 -123.45,-3.9 -19.36,-60.8 48.8,-109.04 77.65,-135.19z"/>
       <path class="fil2" d="M-9340.25 -950.57c-43.83,-30.5 -48.2,-60.98 -94.18,-79.65 -82.41,-30.4 -74.97,-17.09 -96.38,-108.66 -28.25,-120.89 -108.55,-74.77 7.84,-326.33 39,-84.29 85.49,-48.05 112.33,-102.91 49.8,-23.41 40,-61.67 119.49,-42.42 105.98,25.68 155.52,-47.23 257.19,42.39 28.74,25.35 50.9,69.87 73.79,104.25 26.09,181.08 13.63,64.98 47.91,153.64 25.82,66.76 -31.31,89.03 -43.32,143.86 -18.36,83.78 15.02,103.34 -59.83,138.75 -69.51,32.89 -64.32,54.98 -112.5,92.31 -56.48,7.16 -47.1,-9.79 -97.21,-16.53 -44.59,-5.98 -66.6,8.23 -115.14,1.29z"/>
       <path class="fil3" d="M-8090.48 -2015.86c-31.13,51.27 -26.26,123.84 -66.29,168.74 -129.06,1.03 -5.87,-136.03 15.1,-197.74 -80.24,76.83 -78.52,140.82 -159.69,128.91 -43.27,-85.01 35.03,-74.61 119.23,-168.4 -39.37,12.84 -66.94,32.49 -104.23,53.09 -99.87,55.17 -138.57,-38.04 -29.45,-69.8l99.36 -35.47c-62.71,0.38 -128.54,22.38 -178.99,-1.31 -32.18,-107.68 133.85,-59.03 202.78,-52.41 -52.54,-26.63 -221.79,-38.36 -177.6,-112.94 14.11,-15.32 8.78,-21.48 44.1,-14.18 25.64,5.29 105.38,59.4 145.75,72.11 -88.04,-90.99 -152.54,-83.95 -122.84,-169.85 56.56,-7.1 61.53,10.3 88.94,45.2 25.16,32.02 45.06,59.32 72.96,84.45 -24.31,-71.77 -99.39,-132.68 -59.42,-195.38 48.95,-6.9 60.94,9.6 73.15,53.84l33.79 100.29c1.01,1.86 2.83,5.06 4.51,7.41 -1.19,-59 -39.55,-185.29 28.32,-186.71 70.57,-1.47 29.11,135.99 28.05,186.37l24.07 -52.35c10.32,-34.25 26.04,-150.22 86.74,-102.54 30.86,24.25 14.68,50.58 -8.7,91.69 -18.48,32.49 -36.99,63.25 -50.39,97.62 22.67,-21.82 44.03,-46.97 69.33,-78.59 33.69,-42.11 22.43,-59.5 93.31,-52.4 24.56,57.91 7.71,62.71 -32.62,93.09 -28.19,21.23 -70.69,56.78 -90.26,77.87 104.42,-40.38 151.5,-108.16 189.65,-57.92 28.18,43.64 -8.16,58.52 -48.07,70.86 -33.41,10.31 -78.3,19.22 -107.32,38.57 60.52,-0.45 134.43,-22.82 182,1.33 25.88,107.29 -101.36,57.25 -180.54,55.6 8.85,5.91 1.74,3.17 21.93,12.13 11.57,5.14 9.76,4.31 23.07,8.79 28.16,9.48 150.62,28.44 115.66,88.36 -57.99,45.4 -125.58,-34.69 -195.11,-57.14 57.18,62.5 175.72,110.9 120.2,161.1 -50.29,29.93 -70.97,-15.05 -96.74,-47.17 -10,-12.46 -65.64,-76.11 -70.66,-88.31 20.91,66.32 152.98,209.7 22.28,212.58 -35.9,-44.03 -41.19,-120.68 -66.65,-169.92 -1.94,61.33 38.97,190.69 -29.58,191.45 -71.87,0.8 -27.43,-142.98 -29.11,-190.92z"/>
       <path class="fil4" d="M-14222.63 -1944.58c-45.99,-43.19 -74.48,-2.45 -146.82,-25.93 -40.55,-38.98 -27.58,-59.79 -56.48,-100.89 -27.07,-38.5 -42.83,-33.76 -62.13,-90.71 -0.89,-52.95 33.49,-58.73 59.35,-93.65 27.05,-36.55 30.16,-76.09 59.62,-109.18 44.91,-6.67 89.79,3.86 124.22,-6.54 36.76,-11.09 53.86,-43.17 95.27,-45.65 44.69,-2.67 66.38,31.41 96.26,43.05 44.38,17.28 78.76,-0.26 131.81,11.67 37.43,42.26 26.95,55.14 55.23,100.4 23.34,37.33 61.83,56.47 62.61,94.7 0.87,42.99 -42.16,64.35 -62.51,96.28 -28,43.93 -22.08,60.94 -54.08,102.73 -80.8,14.31 -95.44,-15.04 -162.42,28.2 -80.04,51.66 -79.13,15.05 -139.92,-4.48z"/>
       <path class="fil5" d="M-12847.87 -1831.31l-23.75 -6.12c-79,-4.06 -141.93,-22.22 -145.74,-157.28 -68.82,18.36 -135.42,-48.8 -142.6,-106.85 -3.9,-31.61 3.27,-39.1 -2.19,-66.07 -6.2,-30.58 -66.4,-100.48 12.56,-136.87 63.58,-3.13 10.76,2.88 29.83,-14.39 -12.77,-28.4 -28.09,-58.48 -12.06,-82.94l33.14 -4.47 -5.93 46.71 57.26 6.63c26.73,54.01 42.62,76.84 100.72,94.31 93.67,28.17 76.63,19.81 117.07,94.36l74.19 8.62c4.23,58.43 -14.05,-9.13 4.82,72.74 8.82,38.23 2.75,13.95 -9.09,42.76l22.3 -1.42c0.92,0.13 4.2,0.47 6.03,1.42 -13.14,47.2 -15.91,20.44 1.28,36.9 -21.2,19.87 -21.68,0.88 -31.97,22.82 10.2,3.49 -0.79,5.23 27.57,4.91 30.61,-0.35 18.79,9.84 10.43,-4.87l23.21 25.19c0.96,1.32 2.54,4.44 3.66,6.76l-51.72 11.59 14.72 17.15c7.32,48.05 29.1,66.48 -10.15,98.63 -42.42,30.43 -63.43,3.53 -103.6,-10.23z"/>
       <path class="fil6" d="M-10572.32 -2383.19c52.15,-37.36 50.68,-74.09 141.83,-83.14 158.77,-15.76 325.85,118.24 402.24,255.2 61.22,109.75 68.14,259.15 -34.35,321.47 -118.43,72.01 -252.3,-22.63 -329.22,-60.83 -174.89,211.62 -450.11,-16.62 -536.11,-171.79 -162.12,-292.53 92.89,-446.13 355.61,-260.91z"/>
       <path class="fil10" d="M-12005.88 -1906.32c-180.2,-6.43 -311.25,-232.02 -178.15,-393.5 71.14,-86.33 114.25,-89.78 246.84,-100.54 93.19,-7.56 233.78,-27.6 322.13,-24.26 188.79,7.13 308.99,226.65 182.84,392.1 -60.85,79.82 -121.11,91.59 -247.96,101.79 -95.3,7.65 -234.95,27.65 -325.7,24.41z"/>
       <path class="fil7" d="M-9469.72 -1843.43c15.62,-67.86 31.95,-116.32 2.52,-193.62 -25.98,-68.18 -41.47,-65.62 -78.45,-94.28 -23.4,-18.12 -22.02,-17.35 -36.39,-31.65l24.44 -21.93c103.92,-90.36 127.23,-111.9 92.04,-287.76 214.77,39 209.49,-14.01 318.46,-133.89 57.8,138.68 131.85,166.82 306.44,130.76 -39.7,204.18 1.43,215.75 120.13,312.82 -14.31,13.94 -0.11,3.83 -32.9,29.48 -101.81,79.59 -118.61,126.55 -87.39,284.77 -183.62,-39.66 -231.37,-1.86 -307.44,124.35 -42.58,-36.62 -90.81,-205.04 -321.45,-119.04z"/>
       <path class="fil8" d="M-10741.13 -1288.91c216.01,-51.72 236.58,-203.98 284.61,-274.47 26.27,87.82 43.38,114.35 97.5,170.44 92.25,95.62 115.78,66.29 172.52,111.93 -153.7,46.79 -219.31,121.8 -272.63,273.53 -47.05,-86.12 -31.1,-103.25 -100.74,-172.79 -73.89,-73.81 -88.45,-61.79 -181.26,-108.64z"/>
       <path class="fil6" d="M-13005.11 -1391.69c52.15,-37.36 50.68,-74.09 141.83,-83.14 158.77,-15.76 325.85,118.24 402.24,255.2 61.22,109.75 68.14,259.15 -34.35,321.47 -118.43,72.01 -252.3,-22.63 -329.22,-60.83 -174.89,211.62 -450.11,-16.62 -536.11,-171.79 -162.12,-292.53 92.89,-446.13 355.61,-260.91z"/>
       <path class="fil9" d="M-14438.67 -914.83c-180.2,-6.43 -311.25,-232.02 -178.15,-393.5 71.14,-86.33 114.25,-89.78 246.84,-100.53 93.19,-7.56 233.78,-27.6 322.13,-24.26 188.79,7.13 308.99,226.65 182.84,392.1 -60.85,79.82 -121.11,91.59 -247.96,101.79 -95.3,7.65 -234.95,27.65 -325.7,24.41z"/>
       <path class="fil7" d="M-11902.51 -851.94c15.62,-67.86 31.95,-116.32 2.52,-193.62 -25.98,-68.18 -41.47,-65.62 -78.45,-94.28 -23.4,-18.12 -22.02,-17.35 -36.39,-31.65l24.44 -21.93c103.92,-90.36 127.23,-111.9 92.03,-287.76 214.77,39 209.49,-14.01 318.46,-133.89 57.8,138.68 131.85,166.82 306.44,130.76 -39.7,204.18 1.43,215.75 120.13,312.82 -14.31,13.94 -0.11,3.83 -32.9,29.48 -101.81,79.59 -118.61,126.55 -87.39,284.77 -183.62,-39.66 -231.37,-1.86 -307.44,124.35 -42.58,-36.62 -90.81,-205.04 -321.45,-119.04z"/>
       <path class="fil8" d="M-15627.41 -1177.46c216.01,-51.72 236.58,-203.98 284.61,-274.47 26.27,87.82 43.38,114.35 97.49,170.45 92.25,95.62 115.78,66.29 172.52,111.92 -153.7,46.79 -219.31,121.8 -272.63,273.53 -47.05,-86.12 -31.1,-103.25 -100.74,-172.79 -73.89,-73.81 -88.45,-61.79 -181.26,-108.64z"/>
       <path class="fil4" d="M-7921.43 -1056.53c-45.99,-43.19 -74.48,-2.45 -146.82,-25.93 -40.55,-38.98 -27.58,-59.79 -56.48,-100.89 -27.07,-38.5 -42.83,-33.76 -62.13,-90.71 -0.89,-52.95 33.49,-58.73 59.35,-93.65 27.05,-36.55 30.15,-76.09 59.62,-109.18 44.91,-6.67 89.79,3.86 124.22,-6.54 36.76,-11.09 53.86,-43.17 95.27,-45.65 44.69,-2.67 66.38,31.41 96.26,43.05 44.38,17.28 78.76,-0.26 131.81,11.67 37.43,42.26 26.95,55.14 55.23,100.4 23.34,37.33 61.83,56.47 62.61,94.7 0.87,42.99 -42.16,64.35 -62.51,96.28 -28,43.93 -22.08,60.94 -54.08,102.73 -80.8,14.31 -95.44,-15.04 -162.42,28.2 -80.04,51.66 -79.13,15.05 -139.92,-4.48z"/>
       <path class="fil10" d="M-11890.43 30.52c-180.2,-6.43 -311.25,-232.02 -178.15,-393.5 71.14,-86.33 114.25,-89.78 246.84,-100.53 93.19,-7.56 233.78,-27.6 322.13,-24.26 188.79,7.13 308.99,226.65 182.84,392.1 -60.85,79.82 -121.11,91.59 -247.96,101.79 -95.3,7.65 -234.95,27.65 -325.7,24.41z"/>
      </g>
     </g>
    </g>
    <path class="fil13" d="M125.65 37.5l-17.91 1.27 -0.19 -2.52c-0.4,-5.43 1.19,-10.24 4.74,-14.36 3.56,-4.12 8.09,-6.39 13.51,-6.78l71.6 -5.14c5.68,-0.41 10.72,1.38 14.88,5.27 4.16,3.89 6.28,8.8 6.25,14.5l-0.23 50.36c-0.05,10.34 -8,18.85 -18.31,19.59l-13.97 1c-7.93,0.57 -15.03,-3.34 -18.79,-10.34l-22.82 -42.5c-3.76,-7 -10.85,-10.91 -18.78,-10.34z"/>
   </g>
  </g>
 </g>
</svg>
